<?xml version="1.0" encoding="iso-8859-1"?>
<!-- Generator: Adobe Illustrator 19.0.0, SVG Export Plug-In . SVG Version: 6.00 Build 0)  -->
<svg version="1.1" id="Capa_1" xmlns="http://www.w3.org/2000/svg" xmlns:xlink="http://www.w3.org/1999/xlink" x="0px" y="0px"
	 viewBox="0 0 512 512" style="enable-background:new 0 0 512 512;" xml:space="preserve">
<g>
	<path style="fill:#EF2648;" d="M109.093,375.653l-63.378,81.49L118.857,448l18.286,64l64-82.286l0.293-0.375
		c-12.672-12.791-26.551-24.32-41.435-34.45C143.689,386.853,126.638,380.416,109.093,375.653z"/>
	<path style="fill:#EF2648;" d="M402.907,375.653c-17.545,4.754-34.597,11.182-50.907,19.2
		c-14.885,10.121-28.754,21.659-41.426,34.45L374.857,512l18.286-64l73.143,9.143L402.907,375.653z"/>
</g>
<path style="fill:#FFA511;" d="M448,228.571c0-38.309,23.872-83.383,5.97-114.286C435.511,82.368,383.909,80.741,352,62.281
	C321.07,44.352,294.309,0,256,0s-65.07,44.361-96,62.254c-31.918,18.469-83.511,20.114-101.97,52.005
	C40.128,145.189,64,190.263,64,228.571s-23.872,83.383-5.97,114.286c18.459,31.918,70.062,33.545,101.97,52.005
	c30.93,17.929,57.691,62.281,96,62.281s65.07-44.361,96-62.254c31.918-18.469,83.511-20.114,101.97-52.005
	C471.872,311.954,448,266.88,448,228.571z"/>
<circle style="fill:#FFDC13;" cx="256" cy="228.571" r="155.429"/>
<path style="fill:#EF2648;" d="M346.715,192h-62.656l-19.365-59.584c-1.573-4.8-6.747-7.406-11.538-5.833
	c-2.761,0.905-4.928,3.072-5.833,5.833L227.941,192h-62.656c-5.047,0-9.143,4.096-9.143,9.143c0,2.926,1.399,5.678,3.767,7.397
	l50.688,36.837l-19.365,59.593c-1.563,4.8,1.07,9.957,5.87,11.52c2.789,0.905,5.833,0.421,8.201-1.298L256,278.354l50.688,36.827
	c4.087,2.971,9.801,2.066,12.773-2.021c1.719-2.368,2.203-5.422,1.298-8.201l-19.365-59.593l50.688-36.837
	c4.078-2.971,4.974-8.695,2.002-12.773C352.366,193.399,349.632,192.009,346.715,192z"/>
<path style="fill:#F08015;" d="M453.97,114.286c-0.393-0.686-0.914-1.271-1.307-1.92c-13.458,25.618-29.413,49.838-47.634,72.32
	c24.265,82.286-22.775,168.667-105.061,192.933c-54.071,15.936-112.539,1.335-152.768-38.162c-27.419,5.285-55.278,7.954-83.2,7.973
	c-0.987,0-1.947-0.064-2.935-0.073c20.544,27.593,68.571,29.979,98.935,47.543c30.93,17.883,57.691,62.245,96,62.245
	s65.07-44.361,96-62.254c31.918-18.469,83.511-20.114,101.97-52.005c17.902-30.93-5.97-76.005-5.97-114.313
	S471.872,145.189,453.97,114.286z"/>
<path style="fill:#E5AF17;" d="M310.053,271.991l10.715,32.969c1.563,4.8-1.07,9.957-5.87,11.52
	c-2.789,0.905-5.833,0.421-8.201-1.298l-30.72-22.327c-40.21,22.235-83.685,37.97-128.805,46.629
	c61.138,60.169,159.47,59.383,219.63-1.755c39.625-40.265,54.263-98.871,38.226-153.042
	C377.819,218.286,345.819,247.698,310.053,271.991z"/>
<g>
	<path style="fill:#B20D24;" d="M320.768,304.96l-10.715-32.969c-11.008,7.47-22.363,14.427-34.075,20.864l30.72,22.327
		c4.087,2.971,9.801,2.066,12.773-2.021C321.189,310.793,321.673,307.749,320.768,304.96z"/>
	<path style="fill:#B20D24;" d="M388.571,429.714c23.698,0.018,47.104,5.33,68.489,15.543l-54.153-69.623
		c-17.545,4.754-34.597,11.182-50.907,19.2c-14.885,10.121-28.754,21.659-41.426,34.45l11.602,14.93
		C343.003,434.651,365.65,429.705,388.571,429.714z"/>
	<path style="fill:#B20D24;" d="M160,394.889c-16.311-8.018-33.362-14.446-50.907-19.2l-2.825,3.657
		c30.857,22.281,49.143,58.021,49.161,96.082c-0.018,4.773-0.329,9.527-0.914,14.263l46.629-59.977l0.293-0.375
		C188.763,416.549,174.885,405.019,160,394.889z"/>
</g>
<g>
</g>
<g>
</g>
<g>
</g>
<g>
</g>
<g>
</g>
<g>
</g>
<g>
</g>
<g>
</g>
<g>
</g>
<g>
</g>
<g>
</g>
<g>
</g>
<g>
</g>
<g>
</g>
<g>
</g>
</svg>
