<?xml version="1.0" encoding="iso-8859-1"?>
<!-- Generator: Adobe Illustrator 19.0.0, SVG Export Plug-In . SVG Version: 6.00 Build 0)  -->
<svg version="1.1" id="Capa_1" xmlns="http://www.w3.org/2000/svg" xmlns:xlink="http://www.w3.org/1999/xlink" x="0px" y="0px"
	 viewBox="0 0 487.622 487.622" style="enable-background:new 0 0 487.622 487.622;" xml:space="preserve">
<g>
	<g>
		<circle style="fill:#65B3AD;" cx="243.811" cy="243.811" r="243.811"/>
		<path style="opacity:0.37;fill:#56A49E;enable-background:new    ;" d="M487.622,243.811c0-25.926-4.062-50.899-11.559-74.338
			l-85.139-50.042l-9.113,71.372l-26,27.008l-98.634-52.41l2.2,85.41l-177.82,15.985l301.438,177.197
			C446.229,399.944,487.622,326.716,487.622,243.811z"/>
		<path style="fill:#FFFFFF;" d="M390.924,119.431c-4.45,19.311-12.688,36.823-23.533,51.296
			c-10.826,14.501-24.199,25.99-38.531,34.005c-14.337,8.034-29.606,12.579-44.245,13.801c-7.324,0.62-14.492,0.423-21.368-0.493
			c-2.051-0.273-4.072-0.618-6.069-1.016v-51.623l-87.81,50.697l-87.811,50.698l87.811,50.697l87.81,50.697v-50.684
			c1.902-0.462,3.801-0.942,5.682-1.459c6.317-1.734,12.508-3.772,18.534-6.099c12.055-4.652,23.446-10.461,33.948-17.227
			c21.025-13.527,38.432-30.875,51.374-50.137c12.966-19.265,21.482-40.452,25.407-61.616
			C396.08,159.794,395.399,138.709,390.924,119.431z"/>
	</g>
</g>
<g>
</g>
<g>
</g>
<g>
</g>
<g>
</g>
<g>
</g>
<g>
</g>
<g>
</g>
<g>
</g>
<g>
</g>
<g>
</g>
<g>
</g>
<g>
</g>
<g>
</g>
<g>
</g>
<g>
</g>
</svg>
