<?xml version="1.0" standalone="no"?>
<!DOCTYPE svg PUBLIC "-//W3C//DTD SVG 1.1//EN" "http://www.w3.org/Graphics/SVG/1.1/DTD/svg11.dtd" >
<svg xmlns="http://www.w3.org/2000/svg" xmlns:xlink="http://www.w3.org/1999/xlink" version="1.1">
<metadata>
Created by FontForge 20161116 at Mon Nov 28 20:33:45 2005
 By Jimmy Wärting
Generated by Fontographer 4.1
</metadata>
<defs>
<font id="Wkhordad" horiz-adv-x="0" >
  <font-face 
    font-family="W_khordad"
    font-weight="400"
    font-stretch="normal"
    units-per-em="1100"
    panose-1="0 0 4 0 0 0 0 0 0 0"
    ascent="880"
    descent="-220"
    bbox="-231 -650 1059.25 1245"
    underline-thickness="20"
    underline-position="-143"
    unicode-range="U+0020-FE87"
  />
<missing-glyph horiz-adv-x="550" 
d="M69 0v700h412v-700h-412zM138 69h275v562h-275v-562z" />
    <glyph glyph-name="uniFE50" unicode="&#xfe5b;&#xfe00;" horiz-adv-x="514" 
d="M17 660l8 2q21 -12 25 -17q19 -15 36 -31l65 -63l65 -68l175 -194q2 10 6 28q0 2 1 7t1 6l4 46v126l-18 178l68 63l6 -10l9 -173l-3 -103q0 -8 -1 -26q0 -2 -2 -28q-4 -50 -15 -93q-6 -35 -12 -44q-2 -2 -3.5 -7t-2.5 -7q-1 -6 -1 -12q0 -11 13 -33q40 -66 40 -149v-33
q-20 -14 -41 -22q-15 -3 -54 -3h-179v7q5 30 13 51q0 4 4 10q1 5 5 11q8 9 39 30q22 15 47 46q22 29 52 79l-3 10l-87 92l-103 95l-109 93q-7 -7 -10 -8.5t-12 -3.5q-43 34 -43 86q0 19 2 28q2 15 15 34zM289 86v-2l60 -3l54 3q13 0 22 3q5 0 10 11q-1 3 -17 59q-4 6 -24 40
l-57 -67z" />
    <glyph glyph-name="uniFE51" unicode="&#xfe5a;&#xfe00;" horiz-adv-x="475" 
d="M17 660l8 2q21 -12 25 -17q19 -15 36 -31l65 -63l65 -68l175 -194q2 10 6 28q0 2 1 7t1 6l4 46v126l-18 178l68 63l6 -10l9 -173l-3 -103q0 -8 -1 -26q0 -2 -2 -28q-4 -50 -15 -93q-6 -35 -12 -44q-2 -2 -3.5 -7t-2.5 -7q-1 -6 -1 -12q0 -11 13 -33q40 -66 40 -149v-33
q-20 -14 -41 -22q-15 -3 -54 -3h-179v7q5 30 13 51q0 4 4 10q1 5 5 11q8 9 39 30q22 15 47 46q22 29 52 79l-3 10l-87 92l-103 95l-109 93q-7 -7 -10 -8.5t-12 -3.5q-43 34 -43 86q0 19 2 28q2 15 15 34zM289 86v-2l60 -3l54 3q13 0 22 3q5 0 10 11q-1 3 -17 59q-4 6 -24 40
l-57 -67z" />
    <glyph glyph-name="uniFE52" unicode="&#xfe5b;&#xfe01;" horiz-adv-x="514" 
d="M17 660l8 2q21 -12 25 -17q19 -15 36 -31l65 -63l65 -68l175 -194q2 10 6 28q0 2 1 7t1 6l4 46v126l-18 178l68 63l6 -10l9 -173l-3 -103q0 -8 -1 -26q0 -2 -2 -28q-4 -50 -15 -93q-6 -35 -12 -44q-2 -2 -3.5 -7t-2.5 -7q-1 -6 -1 -12q0 -11 13 -33q40 -66 40 -149v-33
q-20 -14 -41 -22q-15 -3 -54 -3h-179v7q5 30 13 51q0 4 4 10q1 5 5 11q8 9 39 30q22 15 47 46q22 29 52 79l-3 10l-87 92l-103 95l-109 93q-7 -7 -10 -8.5t-12 -3.5q-43 34 -43 86q0 19 2 28q2 15 15 34zM289 86v-2l60 -3l54 3q13 0 22 3q5 0 10 11q-1 3 -17 59q-4 6 -24 40
l-57 -67zM13 850l27 -5l55 -13q47 -12 73 -12q22 -1 47 3q15 3 57 16q-13 -31 -60 -48q-37 -13 -79 -13q-39 0 -121 24q-7 -9 -19 -24q-7 -7 -14 -20q-2 -8 -6 -13.5t-13 -16.5l-8 -3v3q0 11 3 18.5t10 24.5t11 25.5t9 23.5q4 7 9.5 16.5t18.5 13.5z" />
    <glyph glyph-name="exclamdown" unicode="&#xfe5a;&#xfe01;" horiz-adv-x="475" 
d="M17 660l8 2q21 -12 25 -17q19 -15 36 -31l65 -63l65 -68l175 -194q2 10 6 28q0 2 1 7t1 6l4 46v126l-18 178l68 63l6 -10l9 -173l-3 -103q0 -8 -1 -26q0 -2 -2 -28q-4 -50 -15 -93q-6 -35 -12 -44q-2 -2 -3.5 -7t-2.5 -7q-1 -6 -1 -12q0 -11 13 -33q40 -66 40 -149v-33
q-20 -14 -41 -22q-15 -3 -54 -3h-179v7q5 30 13 51q0 4 4 10q1 5 5 11q8 9 39 30q22 15 47 46q22 29 52 79l-3 10l-87 92l-103 95l-109 93q-7 -7 -10 -8.5t-12 -3.5q-43 34 -43 86q0 19 2 28q2 15 15 34zM289 86v-2l60 -3l54 3q13 0 22 3q5 0 10 11q-1 3 -17 59q-4 6 -24 40
l-57 -67zM13 850l27 -5l55 -13q47 -12 73 -12q22 -1 47 3q15 3 57 16q-13 -31 -60 -48q-37 -13 -79 -13q-39 0 -121 24q-7 -9 -19 -24q-7 -7 -14 -20q-2 -8 -6 -13.5t-13 -16.5l-8 -3v3q0 11 3 18.5t10 24.5t11 25.5t9 23.5q4 7 9.5 16.5t18.5 13.5z" />
    <glyph glyph-name="cent" unicode="&#xfe5b;&#xfe03;" horiz-adv-x="514" 
d="M17 660l8 2q21 -12 25 -17q19 -15 36 -31l65 -63l65 -68l175 -194q2 10 6 28q0 2 1 7t1 6l4 46v126l-18 178l68 63l6 -10l9 -173l-3 -103q0 -8 -1 -26q0 -2 -2 -28q-4 -50 -15 -93q-6 -35 -12 -44q-2 -2 -3.5 -7t-2.5 -7q-1 -6 -1 -12q0 -11 13 -33q40 -66 40 -149v-33
q-20 -14 -41 -22q-15 -3 -54 -3h-179v7q5 30 13 51q0 4 4 10q1 5 5 11q8 9 39 30q22 15 47 46q22 29 52 79l-3 10l-87 92l-103 95l-109 93q-7 -7 -10 -8.5t-12 -3.5q-43 34 -43 86q0 19 2 28q2 15 15 34zM289 86v-2l60 -3l54 3q13 0 22 3q5 0 10 11q-1 3 -17 59q-4 6 -24 40
l-57 -67zM131 955q15 -11 15 -22q0 -13 -13 -35q-10 4 -26 12q-7 4 -17 4q-35 0 -58 -54q16 -18 26.5 -23.5t39.5 -16.5q34 18 47 24q24 10 51 13l-16 -48q-45 -14 -50 -16q-24 -8 -35 -16q-21 -8 -63 -50q0 21 1 25q4 9 19 31v4q-24 15 -33 30q-9 12 -9 37q0 17 2.5 24.5
t16.5 26.5q12 24 36 41q17 12 41 12q16 0 25 -3z" />
    <glyph glyph-name="sterling" unicode="&#xfe5a;&#xfe03;" horiz-adv-x="475" 
d="M17 660l8 2q21 -12 25 -17q19 -15 36 -31l65 -63l65 -68l175 -194q2 10 6 28q0 2 1 7t1 6l4 46v126l-18 178l68 63l6 -10l9 -173l-3 -103q0 -8 -1 -26q0 -2 -2 -28q-4 -50 -15 -93q-6 -35 -12 -44q-2 -2 -3.5 -7t-2.5 -7q-1 -6 -1 -12q0 -11 13 -33q40 -66 40 -149v-33
q-20 -14 -41 -22q-15 -3 -54 -3h-179v7q5 30 13 51q0 4 4 10q1 5 5 11q8 9 39 30q22 15 47 46q22 29 52 79l-3 10l-87 92l-103 95l-109 93q-7 -7 -10 -8.5t-12 -3.5q-43 34 -43 86q0 19 2 28q2 15 15 34zM289 86v-2l60 -3l54 3q13 0 22 3q5 0 10 11q-1 3 -17 59q-4 6 -24 40
l-57 -67zM131 955q15 -11 15 -22q0 -13 -13 -35q-10 4 -26 12q-7 4 -17 4q-35 0 -58 -54q16 -18 26.5 -23.5t39.5 -16.5q34 18 47 24q24 10 51 13l-16 -48q-45 -14 -50 -16q-24 -8 -35 -16q-21 -8 -63 -50q0 21 1 25q4 9 19 31v4q-24 15 -33 30q-9 12 -9 37q0 17 2.5 24.5
t16.5 26.5q12 24 36 41q17 12 41 12q16 0 25 -3z" />
    <glyph glyph-name="currency" unicode="&#xfe5b;&#xfe05;" horiz-adv-x="514" 
d="M17 660l8 2q21 -12 25 -17q19 -15 36 -31l65 -63l65 -68l175 -194q2 10 6 28q0 2 1 7t1 6l4 46v126l-18 178l68 63l6 -10l9 -173l-3 -103q0 -8 -1 -26q0 -2 -2 -28q-4 -50 -15 -93q-6 -35 -12 -44q-2 -2 -3.5 -7t-2.5 -7q-1 -6 -1 -12q0 -11 13 -33q40 -66 40 -149v-33
q-20 -14 -41 -22q-15 -3 -54 -3h-179v7q5 30 13 51q0 4 4 10q1 5 5 11q8 9 39 30q22 15 47 46q22 29 52 79l-3 10l-87 92l-103 95l-109 93q-7 -7 -10 -8.5t-12 -3.5q-43 34 -43 86q0 19 2 28q2 15 15 34zM289 86v-2l60 -3l54 3q13 0 22 3q5 0 10 11q-1 3 -17 59q-4 6 -24 40
l-57 -67zM309 -57q16 -11 16 -22q0 -13 -14 -35q-10 4 -26 12q-7 4 -17 4q-35 0 -58 -54q16 -18 27 -23.5t39 -17.5q35 19 47 25q24 10 51 13l-15 -49q-46 -13 -51 -15q-24 -8 -35 -16q-21 -8 -63 -50q0 21 1 25q5 9 19 31v3q-24 16 -33 31q-9 12 -9 37q0 17 2.5 24.5
t16.5 26.5q12 24 36 41q17 12 41 12q16 0 25 -3z" />
    <glyph glyph-name="yen" unicode="&#xfe5a;&#xfe05;" horiz-adv-x="475" 
d="M17 660l8 2q21 -12 25 -17q19 -15 36 -31l65 -63l65 -68l175 -194q2 10 6 28q0 2 1 7t1 6l4 46v126l-18 178l68 63l6 -10l9 -173l-3 -103q0 -8 -1 -26q0 -2 -2 -28q-4 -50 -15 -93q-6 -35 -12 -44q-2 -2 -3.5 -7t-2.5 -7q-1 -6 -1 -12q0 -11 13 -33q40 -66 40 -149v-33
q-20 -14 -41 -22q-15 -3 -54 -3h-179v7q5 30 13 51q0 4 4 10q1 5 5 11q8 9 39 30q22 15 47 46q22 29 52 79l-3 10l-87 92l-103 95l-109 93q-7 -7 -10 -8.5t-12 -3.5q-43 34 -43 86q0 19 2 28q2 15 15 34zM289 86v-2l60 -3l54 3q13 0 22 3q5 0 10 11q-1 3 -17 59q-4 6 -24 40
l-57 -67zM309 -57q16 -11 16 -22q0 -13 -14 -35q-10 4 -26 12q-7 4 -17 4q-35 0 -58 -54q16 -18 27 -23.5t39 -17.5q35 19 47 25q24 10 51 13l-15 -49q-46 -13 -51 -15q-24 -8 -35 -16q-21 -8 -63 -50q0 21 1 25q5 9 19 31v3q-24 16 -33 31q-9 12 -9 37q0 17 2.5 24.5
t16.5 26.5q12 24 36 41q17 12 41 12q16 0 25 -3z" />
    <glyph glyph-name="Egrave" unicode="&#xfe5b;&#xfe5a;&#xfe64;" horiz-adv-x="862" arabic-form="isolated" 
d="M356 844l8 -15l8 -25q9 -30 47 -35q25 0 40 25q12 30 12 87l8 2q11 -38 23 -55t28 -17q18 0 33 21q12 17 16 48q0 7 -6 39l22 8q4 -15 9 -40q0 -3 3 -28q0 -39 -22 -74q-20 -30 -47 -30q-25 0 -48 28q-17 -73 -68 -73q-29 0 -50 30q-19 27 -19 58l-2 13v18zM233 418v3
l-9 32l-2 4q38 47 67 70l10 -35l30 -136l20 -104l12 -86l6 -3h74l108 1l3 5v38l-11 119l-27 179l-37 163l72 42l14 -74l21 -150l20 -183l12 -139l182 -1l9 6v47l-9 123l-29 176l-41 184q15 12 33.5 26t40.5 21l21 -118l24 -166l12 -159l6 -103l4 -53v-25q0 -38 -22 -38h-539
l-77 -8q-4 -1 -13.5 -2t-13.5 -2q-182 0 -182 91q0 60 54.5 125.5t156.5 129.5zM70 210q2 -25 47 -39q33 -11 65 -11q19 0 51 3q28 3 74 19v3l-23 86q-8 28 -13 50q0 3 -18 43q-24 -13 -81 -47q-20 -17 -66 -58l-25 -25z" />
    <glyph glyph-name="agrave" unicode="&#x651;&#x64e;" arabic-form="isolated" 
d="M220 891q-12 -49 -49 -49q-22 0 -31 8q-5 5 -16 17q-27 -70 -77 -70q-20 0 -30 25q-8 19 -8 42q0 33 4 46q7 23 32 27q-3 -22 -3 -37q0 -35 17 -35q29 0 39 40q2 16 7 52q7 3 27 11q3 -31 6 -40q6 -22 23 -22q30 0 34 88l20 10q18 -63 5 -113zM219 1094l-209 -109v43
l209 111v-45z" />
    <glyph glyph-name="acircumflex" unicode="&#x651;&#x650;" arabic-form="isolated" 
d="M220 1014q-12 -49 -49 -50q-20 0 -31 9q-5 5 -16 15q-9 -21 -22 -40q-19 -29 -55 -30q-19 0 -30 26q-8 18 -8 43q0 68 36 71q-3 -21 -3 -36q0 -35 17 -35q29 0 39 40q2 19 7 52q7 4 27 12q2 -25 6 -41q7 -23 23 -23q30 0 34 89l20 10q18 -61 5 -112zM219 898l-209 -109
v44l209 111v-46z" />
    <glyph glyph-name="adieresis" unicode="&#x651;&#x64f;" arabic-form="isolated" 
d="M220 891q-12 -49 -49 -49q-22 0 -31 8q-5 5 -16 17q-27 -70 -77 -70q-20 0 -30 25q-8 19 -8 42q0 33 4 46q7 23 32 27q-3 -22 -3 -37q0 -35 17 -35q29 0 39 40q2 16 7 52q7 3 27 11q3 -31 6 -40q6 -22 23 -22q30 0 34 88l20 10q18 -63 5 -113zM226 1109q6 -26 -8 -47
q-20 3 -53 14q-76 -72 -156 -91l-9 29q91 35 133 82q-31 31 -31 59q0 23 27.5 56.5t49.5 33.5q42 0 42 -50q0 -45 -26 -77q8 -2 31 -9zM193 1177q0 17 -8 20q-3 3 -21 5q-10 0 -21 -17q-5 -12 -5 -22q0 -7 9 -23q12 -9 20 -13q5 0 16 19q7 11 10 31z" />
    <glyph glyph-name="ae" unicode="&#x651;&#x64b;" arabic-form="isolated" 
d="M220 1091l-207 -110v45l207 110v-45zM220 1197l-207 -110v46l207 112v-48zM220 891q-12 -49 -49 -49q-22 0 -31 8q-5 5 -16 17q-27 -70 -77 -70q-20 0 -30 25q-8 19 -8 42q0 33 4 46q7 23 32 27q-3 -22 -3 -37q0 -35 17 -35q29 0 39 40q2 16 7 52q7 3 27 11q3 -31 6 -40
q6 -22 23 -22q30 0 34 88l20 10q18 -63 5 -113z" />
    <glyph glyph-name="egrave" unicode="&#x651;&#x64d;" arabic-form="isolated" 
d="M219 898l-209 -109v44l209 111v-46zM219 1005l-209 -109v45l209 110v-46zM218 1131q-12 -49 -49 -50q-17 -1 -31 10q-3 2 -7.5 7t-7.5 8q-4 -6 -11 -20t-11 -21q-23 -28 -56 -29q-15 -1 -30 26q-8 23 -8 42q0 71 37 71q-4 -24 -4 -39q0 -31 18 -32q30 -1 38 42q2 16 7 49
q6 5 28 12q2 -17 5.5 -39t23.5 -22q31 0 33 87l19 11q18 -61 6 -113z" />
    <glyph glyph-name="ecircumflex" unicode="&#x651;&#x64c;" arabic-form="final" 
d="M220 891q-12 -49 -49 -49q-22 0 -31 8q-5 5 -16 17q-27 -70 -77 -70q-20 0 -30 25q-8 19 -8 42q0 33 4 46q7 23 32 27q-3 -22 -3 -37q0 -35 17 -35q29 0 39 40q2 16 7 52q7 3 27 11q3 -31 6 -40q6 -22 23 -22q30 0 34 88l20 10q18 -63 5 -113zM229 1103q6 -24 -8 -47
q-9 0 -53 13q-77 -73 -155 -92l-10 30l42 27q13 34 -5 44q-13 6 -36 -8l-10 16q24 30 61 31q24 1 24 -36q0 -19 -10 -41q43 22 67 51q-30 29 -30 56q0 24 26.5 57t50.5 33q41 0 41 -47q0 -46 -26 -76q11 -8 31 -11zM196 1170q0 14 -7 21q-6 3 -22 4q-11 0 -21 -16
q-4 -10 -4 -23q0 -12 9.5 -22.5t19.5 -11.5q7 0 16 16q7 13 9 32z" />
    <glyph glyph-name="Oacute" unicode="&#xfe71;" arabic-form="medial" 
d="M296 661l-209 -109v44l209 111v-46z" />
    <glyph glyph-name="Otilde" unicode="&#xfe72;" arabic-form="isolated" 
d="M295 -157l-208 -110v45l208 111v-46z" />
    <glyph glyph-name="Ugrave" unicode="&#xfe74;" arabic-form="isolated" 
d="M296 661l-209 -109v44l209 111v-46zM296 764l-209 -112v47l209 111v-46z" />
    <glyph glyph-name="Yacute" unicode="&#xfe76;" arabic-form="isolated" 
d="M307 678q7 -26 -8 -46q-19 3 -51 13q-83 -74 -157 -92l-10 30l43 27q12 34 -4 42q-14 8 -37 -6l-9 15q25 30 59 33q25 0 25 -36q0 -18 -11 -42q51 28 68 51q-30 26 -31 56q-1 20 27 55t49 35q44 0 44 -47q0 -45 -28 -77q6 -4 31 -11zM274 746q0 18 -5.5 21t-23.5 3
q-12 0 -18 -14q-7 -9 -7 -23q0 -11 10 -22t20 -13q7 0 15 16q9 24 9 32z" />
    <glyph glyph-name="germandbls" unicode="&#xfe77;" arabic-form="medial" 
d="M297 654q-12 -49 -49 -49q-22 0 -31 8q-5 5 -16 17q-27 -70 -77 -70q-20 0 -30 25q-8 19 -8 42q0 33 4 46q7 23 32 27q-3 -22 -3 -37q0 -35 17 -35q29 0 39 40q2 16 7 52q7 3 27 11q3 -31 6 -40q6 -22 23 -22q30 0 34 88l20 10q18 -63 5 -113z" />
    <glyph glyph-name="aacute" unicode="&#xfe79;" arabic-form="medial" 
d="M297 654q-12 -49 -49 -49q-22 0 -31 8q-5 5 -16 17q-27 -70 -77 -70q-20 0 -30 25q-8 19 -8 42q0 33 4 46q7 23 32 27q-3 -22 -3 -37q0 -35 17 -35q29 0 39 40q2 16 7 52q7 3 27 11q3 -31 6 -40q6 -22 23 -22q30 0 34 88l20 10q18 -63 5 -113zM296 857l-209 -109v43
l209 111v-45z" />
    <glyph glyph-name="atilde" unicode="&#xfe7b;" arabic-form="medial" 
d="M297 777q-12 -49 -49 -50q-20 0 -31 9q-5 5 -16 15q-9 -21 -22 -40q-19 -29 -55 -30q-19 0 -30 26q-8 18 -8 43q0 68 36 71q-3 -21 -3 -36q0 -35 17 -35q29 0 39 40q2 19 7 52q7 4 27 12q2 -25 6 -41q7 -23 23 -23q30 0 34 89l20 10q18 -61 5 -112zM296 661l-209 -109v44
l209 111v-46z" />
    <glyph glyph-name="aring" unicode="&#xfe7d;" arabic-form="medial" 
d="M297 654q-12 -49 -49 -49q-22 0 -31 8q-5 5 -16 17q-27 -70 -77 -70q-20 0 -30 25q-8 19 -8 42q0 33 4 46q7 23 32 27q-3 -22 -3 -37q0 -35 17 -35q29 0 39 40q2 16 7 52q7 3 27 11q3 -31 6 -40q6 -22 23 -22q30 0 34 88l20 10q18 -63 5 -113zM303 872q6 -26 -8 -47
q-20 3 -53 14q-76 -72 -156 -91l-9 29q91 35 133 82q-31 31 -31 59q0 23 27.5 56.5t49.5 33.5q42 0 42 -50q0 -45 -26 -77q8 -2 31 -9zM270 940q0 17 -8 20q-3 3 -21 5q-10 0 -21 -17q-5 -12 -5 -22q0 -7 9 -23q12 -9 20 -13q5 0 16 19q7 11 10 31z" />
    <glyph glyph-name="ccedilla" unicode="&#xfe7f;" arabic-form="medial" 
d="M297 854l-207 -110v45l207 110v-45zM297 960l-207 -110v46l207 112v-48zM297 654q-12 -49 -49 -49q-22 0 -31 8q-5 5 -16 17q-27 -70 -77 -70q-20 0 -30 25q-8 19 -8 42q0 33 4 46q7 23 32 27q-3 -22 -3 -37q0 -35 17 -35q29 0 39 40q2 16 7 52q7 3 27 11q3 -31 6 -40
q6 -22 23 -22q30 0 34 88l20 10q18 -63 5 -113z" />
    <glyph glyph-name="eacute" unicode="&#x622;" arabic-form="isolated" 
d="M296 661l-209 -109v44l209 111v-46zM296 768l-209 -109v45l209 110v-46zM295 894q-12 -49 -49 -50q-17 -1 -31 10q-3 2 -7.5 7t-7.5 8q-4 -6 -11 -20t-11 -21q-23 -28 -56 -29q-15 -1 -30 26q-8 23 -8 42q0 71 37 71q-4 -24 -4 -39q0 -31 18 -32q30 -1 38 42q2 16 7 49
q6 5 28 12q2 -17 5.5 -39t23.5 -22q31 0 33 87l19 11q18 -61 6 -113z" />
    <glyph glyph-name="edieresis" unicode="&#x623;" arabic-form="isolated" 
d="M297 654q-12 -49 -49 -49q-22 0 -31 8q-5 5 -16 17q-27 -70 -77 -70q-20 0 -30 25q-8 19 -8 42q0 33 4 46q7 23 32 27q-3 -22 -3 -37q0 -35 17 -35q29 0 39 40q2 16 7 52q7 3 27 11q3 -31 6 -40q6 -22 23 -22q30 0 34 88l20 10q18 -63 5 -113zM306 866q6 -24 -8 -47
q-9 0 -53 13q-77 -73 -155 -92l-10 30l42 27q13 34 -5 44q-13 6 -36 -8l-9 16q23 30 60 31q24 1 24 -36q0 -19 -10 -41q43 22 67 51q-30 29 -30 56q0 24 26.5 57t50.5 33q41 0 41 -47q0 -46 -26 -76q11 -8 31 -11zM273 933q0 14 -7 21q-6 3 -22 4q-11 0 -21 -16
q-4 -10 -4 -23q0 -12 9.5 -22.5t19.5 -11.5q7 0 16 16q7 13 9 32z" />
    <glyph glyph-name="iacute" unicode="&#x623;" arabic-form="final" 
d="M337 637q-24 -68 -65 -69q-30 -1 -86.5 11t-83.5 12q-14 0 -33 -17q-15 -13 -21 -15q-3 0 0 14q7 29 29 49t52 21q8 0 61 -14q37 -9 71 -10q45 0 69 30v0q2 2 7 2q0 1 3 0q0 -4 -3 -14z" />
    <glyph glyph-name="idieresis" unicode="&#x624;" arabic-form="isolated" 
d="M267 635q0 -77 -79 -77q-68 0 -68 58q0 27 19 73q21 53 43 53q38 0 63 -33q22 -29 22 -74zM244 629q0 21 -15 36q-18 16 -47 16q-9 0 -19 -21t-10 -32q0 -17 37 -23q54 0 54 24z" />
    <glyph glyph-name="ntilde" unicode="&#x624;" arabic-form="final" 
d="M210 828l12 -12q6 -11 6 -12q0 -10 -18 -33q-8 5 -22 11q-20 4 -19 4q-39 0 -59 -52q13 -16 26 -25q4 -2 17 -7t23 -9q35 19 55 27q9 5 46 11l-15 -49q-60 -16 -89 -31q-21 -10 -65 -52q1 11 6 30q5 11 16 28v3q-26 19 -32 30q-9 17 -9 37q0 22 16 50q14 25 37 43
q16 12 41 12h11q-7 0 16 -4zM94 559l8 2z" />
    <glyph glyph-name="oacute" unicode="&#x625;" arabic-form="isolated" 
d="M190 630q0 -70 -24 -72q0 50 -11 102q-4 24 -10 51q0 13 43 33q2 -11 2 -114z" />
    <glyph glyph-name=".notdef" horiz-adv-x="550" 
d="M69 0v700h412v-700h-412zM138 69h275v562h-275v-562z" />
    <glyph glyph-name=".null" 
 />
    <glyph glyph-name="nonmarkingreturn" horiz-adv-x="303" 
 />
    <glyph glyph-name="space" unicode=" " horiz-adv-x="303" 
 />
    <glyph glyph-name="glyph4" horiz-adv-x="1012" 
d="M859 465l-65 -65q-3 -2 -6 -2t-5 2l-65 65q-6 6 0 11l65 65q2 4 5 4t6 -4l65 -65q6 -5 0 -11zM859 341q6 -7 0 -13l-65 -59q-6 -5 -11 0l-64 59q-7 6 -1 13l64 71q6 6 12 0zM861 202q-29 -90 -130 -135v-60q0 -8 -8 -8h-48q-22 0 -41 21q-15 15 -42 41q-45 -40 -124 -49
q-25 -3 -51 -9q-22 -4 -23 -4q-8 0 -8 8v93q0 17 15 17q1 0 3 -5t15 -5q11 0 35 4q55 7 79 28q-48 67 -56 135q0 5 5 8q11 9 34 27q12 10 35 30q4 6 9 4t5 -9q0 -94 79 -188q5 3 5 34v226q0 2 3 5l66 65q4 5 9 3q4 -1 4 -8v-291q0 -27 12 -34h39q3 0 3 1t-14 16
q-24 24 -50 33q-10 5 -2 14l63 71q4 5 10 1q28 -14 68 -73q2 -5 1 -7zM470 103q0 -8 -8 -8q-76 -10 -76 5v371q0 2 3 5l67 65q5 6 9 4q5 -2 5 -9v-433zM293 401l-65 -72q-4 -3 -6 -3q-3 0 -7 3l-65 72q-3 5 2 10l66 65q2 8 11 0l65 -65q7 -6 -1 -10zM403 73q0 -3 -1 -4
q-33 -42 -69 -68q-2 -4 -9 1q-154 145 -175 271q0 4 5 9q8 9 28 27q11 10 36 30q4 6 9 4q4 -2 4 -9q0 -94 78 -188q6 3 11 34v226q0 1 4 5l65 65q5 5 10 3q4 -1 4 -8v-398zM842 471l-54 55l-54 -55l54 -53zM842 336l-54 58l-54 -58l54 -50zM844 202q-34 51 -54 62l-54 -57
q22 -10 46 -34q16 -16 16 -29q0 -14 -16 -14h-42h-2q-24 13 -24 50v272l-48 -50v-222q0 -50 -27 -50q-4 0 -5 3q-79 94 -85 185q-12 -9 -22.5 -19.5t-33.5 -27.5q12 -67 58 -128q5 -5 -1 -10q-28 -29 -94 -38q-37 -5 -53 -2v-76q29 6 63 10q78 10 121 51q5 6 10 0l48 -47
q15 -15 30 -15h39v57q0 6 5 7q96 40 125 122zM453 110v407l-50 -50v-354q0 -12 50 -3zM277 405l-56 55l-52 -55l52 -58zM386 75v377l-48 -50l-1 -223q-10 -49 -33 -49q-5 0 -5 3q-77 92 -84 185q-16 -18 -50 -48q21 -116 165 -253q24 20 56 58z" />
    <glyph glyph-name="exclam" unicode="&#x660;" horiz-adv-x="630" 
d="M229 191q7 31 19 81q8 24 29 81q23 -20 60 -50q18 -14 66 -47q-9 -30 -21 -76.5t-18 -81.5q-28 17 -75 44q-25 17 -60 49z" />
    <glyph glyph-name="quotedbl" unicode="&#x661;" horiz-adv-x="630" 
d="M178 587l46 97q16 -17 47 -54q19 -26 41 -70q38 -75 58 -149q14 -55 16 -104l5 -110q0 -16 -6 -86q-3 -38 -18 -111h-3q1 0 -15 3l2 114l-6 90q-5 90 -42 202q-3 8 -19 41q-4 7 -9 18q-24 41 -38 61q-13 17 -59 55v3z" />
    <glyph glyph-name="numbersign" unicode="&#x662;" horiz-adv-x="630" 
d="M99 580l43 119q52 -74 97 -106.5t103 -32.5q44 0 74 35t30 93v14l22 3v-91q0 -58 -32 -100q-35 -46 -91 -46q-19 0 -64 11v-4q19 -39 51 -122q14 -47 21 -98q6 -40 8 -100l3 -158h-3q-16 0 -16 3l-16 113q-9 60 -43 161q-37 109 -64 161q-21 40 -48 71q-36 41 -75 74z
" />
    <glyph glyph-name="dollar" unicode="&#x663;" horiz-adv-x="630" 
d="M385 503q-17 -16 -36 -24q-18 -11 -39 -11q-20 0 -64 11v-4q8 -15 19 -38t14 -30q7 -17 20 -54q19 -60 26 -163q1 -17 2 -35l3 -158h-3q-17 0 -17 3l-14 113q-6 50 -43 161q-33 101 -66.5 162t-119.5 144l41 119q51 -74 99 -107q45 -32 101 -32q46 0 74 34.5t28 93.5v14
l22 3l3 -96q0 -2 -4 -15l-9 -15h10q52 0 83 38q28 36 28 89v15l25 3v-93q0 -62 -35 -103.5t-90 -41.5q-15 0 -22 4q-13 4 -36 13z" />
    <glyph glyph-name="percent" unicode="&#x6f4;" horiz-adv-x="630" 
d="M419 702l-19 -115q-70 -18 -110 -48q-40 -24 -40 -49q0 -30 39 -44l114 -43q5 -2 15 -9q4 -4 4 -9t-4 -12q-3 -3 -8 -8.5t-19 -22.5q-9 -9 -24 -25l-55 -65q-15 -19 -31 -46q-6 -10 -13 -32q0 -2 4 -19q4 -6 14 -11q37 -23 84 -31q24 -4 105 -17l-29 -93q-69 0 -147 19
q-111 26 -111 73q0 32 21 73.5t55 75.5l73 73l-41 13l-59 23q-36 14 -48 26t-15 30q0 23 36 84q16 27 61 80q37 45 68 68z" />
    <glyph glyph-name="ampersand" unicode="&#x664;" horiz-adv-x="630" 
d="M419 702l-19 -115q-70 -18 -110 -48q-40 -24 -40 -49q0 -30 39 -44l114 -43q5 -2 15 -9q4 -4 4 -9t-4 -12q-3 -3 -8 -8.5t-19 -22.5q-9 -9 -24 -25l-55 -65q-15 -19 -31 -46q-6 -10 -13 -32q0 -2 4 -19q4 -6 14 -11q37 -23 84 -31q24 -4 105 -17l-29 -93q-69 0 -147 19
q-111 26 -111 73q0 32 21 73.5t55 75.5l73 73l-41 13l-59 23q-36 14 -48 26t-15 30q0 23 36 84q16 27 61 80q37 45 68 68z" />
    <glyph glyph-name="quotesingle" unicode="&#x6f5;" horiz-adv-x="630" 
d="M118 226q0 47 46 181q42 92 77 132t77 41q85 1 165 -90q56 -64 56 -118q0 -75 -49 -156q-57 -94 -204 -94q-77 0 -122.5 28.5t-45.5 75.5zM394 428q-89 46 -122 49h-4q-35 0 -64 -63q-26 -55 -26 -107q0 -44 22 -59q55 -28 127 -28q80 0 128 24q47 29 47 73q0 55 -81 97z
" />
    <glyph glyph-name="parenleft" unicode="&#x665;" horiz-adv-x="630" 
d="M118 226q0 47 46 181q42 92 77 132t77 41q85 1 165 -90q56 -64 56 -118q0 -75 -49 -156q-57 -94 -204 -94q-77 0 -122.5 28.5t-45.5 75.5zM394 428q-89 46 -122 49h-4q-35 0 -64 -63q-26 -55 -26 -107q0 -44 22 -59q55 -28 127 -28q80 0 128 24q47 29 47 73q0 55 -81 97z
" />
    <glyph glyph-name="parenright" unicode="&#x6f6;" horiz-adv-x="630" 
d="M106 680q1 1 5 2t6 2h13q9 -32 38 -53q31 -14 87 -14q57 0 164 27q-8 -46 -22 -120q-3 -47 -3 -102q0 -135 34 -207q11 -36 27 -56q11 -14 47 -41l-21 -111q-69 48 -98 125q-32 84 -32 217q0 35 5 73l16 108v9l-5 -5q-58 -22 -127 -22q-41 0 -79 9q-34 9 -41 14
q-14 11 -14 38v107z" />
    <glyph glyph-name="asterisk" unicode="&#x666;" horiz-adv-x="630" 
d="M106 680q1 1 5 2t6 2h13q9 -32 38 -53q31 -14 87 -14q57 0 164 27q-8 -46 -22 -120q-3 -47 -3 -102q0 -135 34 -207q11 -36 27 -56q11 -14 47 -41l-21 -111q-69 48 -98 125q-32 84 -32 217q0 35 5 73l16 108v9l-5 -5q-58 -22 -127 -22q-41 0 -79 9q-34 9 -41 14
q-14 11 -14 38v107z" />
    <glyph glyph-name="plus" unicode="&#x667;" horiz-adv-x="630" 
d="M95 677l6 -3q18 -17 50 -49q6 -15 27 -38q5 -8 12 -24q6 -10 17 -31q25 -44 37 -72l35 -82q25 -57 63 -209l30 120l25 89q2 12 13 44q24 67 34 95q23 58 42 89q15 24 71 82l-5 -159q-5 -3 -37 -24q-4 -3 -29 -34q-51 -65 -95 -223l-30 -107l-25 -144h-10l-37 163
q-9 43 -34 108q-13 36 -45 99q-14 31 -50 74q-5 6 -38 40q-10 11 -26 24q-20 11 -20 16z" />
    <glyph glyph-name="comma" unicode="&#x668;" horiz-adv-x="630" 
d="M92 40l4 126q46 40 67 68q16 22 44 81q54 113 74 212l34 173l6 -1q29 -153 45 -207q27 -87 69 -162q22 -41 55 -80q26 -33 81 -76l-22 -159q-22 13 -40 34.5t-38 56.5q-58 98 -107 214l-25 87l-36 117l-24 -103l-27 -98q0 -8 -8 -24q-4 -12 -13 -38q-3 -13 -13 -37
q-5 -15 -8 -20l-46 -98q0 -5 -7 -16q-1 -3 -6 -11q-11 -14 -29 -36q-7 -9 -30 -30v27z" />
    <glyph glyph-name="hyphen" unicode="&#x669;" horiz-adv-x="630" 
d="M481 101v-3l-24 -98q-21 8 -36 22q-9 8 -21 24q-3 11 -12 40q-4 26 -12 56q-1 8 -4 24q-1 9 -5 25l-11 181q-25 -11 -55 -19q-18 -5 -49 -5q-48 -1 -89 21q-49 27 -49 72q0 111 55 187q58 80 134 80q50 0 75 -28t27 -88l5 -183l8 -94q0 -9 1 -31q1 -11 3 -36
q14 -75 21.5 -94.5t37.5 -52.5zM356 453q-1 4 -3 26v23q0 60 -21 85q-23 29 -61 29q-40 0 -72.5 -37t-34.5 -86q-1 -23 27 -37.5t81 -14.5q24 0 36 2q17 3 48 10z" />
    <glyph glyph-name="period" unicode="&#x640;" horiz-adv-x="308" 
d="M0 84h318q0 -12 1.5 -22t1.5 -19q0 -18 -4 -43h-317q-1 10 -3 28v34z" />
    <glyph glyph-name="slash" unicode="&#x621;" horiz-adv-x="340" 
d="M174 207q-27 24 -52 24q-36 0 -64 -34q-12 -11 -15 -31q20 -19 38 -33q27 -13 44 -19q88 40 130 40l-22 -65q-79 -17 -109 -30q-40 -17 -94 -62q0 22 5 33q10 18 27 38v4q-25 17 -37 35t-12 44q0 30 18 64q37 70 114 78q23 0 37.5 -13t14.5 -28q0 -4 -6 -21
q-9 -16 -17 -24z" />
    <glyph glyph-name="zero" unicode="&#x627;" horiz-adv-x="231" 
d="M77 684q22 27 34 42q1 1 31 29q3 -11 9 -37q1 -12 4 -41l27 -194l18 -252l7 -144v-62q-12 -6 -31 -18q-9 -5 -25 -10l-7 154l-8 93l-11 117l-19 159z" />
    <glyph glyph-name="one" unicode="&#xfe00;" horiz-adv-x="154" 
d="M77 684q22 27 34 42q1 1 31 29q3 -11 9 -37q1 -12 4 -41l27 -194l18 -252l7 -144v-62q-12 -6 -31 -18q-9 -5 -25 -10l-7 154l-8 93l-11 117l-19 159z" />
    <glyph glyph-name="two" unicode="&#x622;" horiz-adv-x="179" 
d="M-62 883l27 -5l56 -13q33 -11 75 -12q26 -1 45 3q29 6 57 16q-10 -25 -51 -44q-37 -17 -85 -17q-38 0 -125 24q-7 -9 -18 -24q-4 -5 -14 -19q-1 -8 -6 -15q-2 -2 -5.5 -7.5t-6.5 -8.5l-7 -3v3q0 10 2 18t10 32q6 10 19 42q4 10 10 16q6 10 17 14zM3 684q12 14 34 42
q7 8 31 29q3 -11 8 -37q1 -12 5 -41l28 -194l19 -252l7 -144v-62q-13 -8 -34 -19q-6 -3 -25 -9l-6 154l-5 93l-13 117l-21 159z" />
    <glyph glyph-name="three" unicode="&#xfe01;" horiz-adv-x="154" 
d="M13 883l27 -5l55 -13q47 -12 73 -12q22 -1 47 3q15 3 57 16q-13 -31 -60 -48q-37 -13 -79 -13q-39 0 -121 24q-7 -9 -19 -24q-7 -7 -14 -20q-2 -8 -6 -13.5t-13 -16.5l-8 -3v3q0 11 3 18.5t10 24.5t11 25.5t9 23.5q4 7 9.5 16.5t18.5 13.5zM77 684q22 27 34 42q1 1 31 29
q3 -11 9 -37q1 -12 4 -41l27 -194l18 -252l7 -144v-62q-12 -6 -31 -18q-9 -5 -25 -10l-7 154l-8 93l-11 117l-19 159z" />
    <glyph glyph-name="four" unicode="&#x623;" horiz-adv-x="231" 
d="M142 856q15 -11 15 -22q0 -13 -13 -35q-10 4 -26 12q-7 4 -17 4q-35 0 -58 -54q16 -18 26.5 -23.5t39.5 -16.5q34 18 47 24q24 10 51 13l-16 -48q-45 -14 -50 -16q-24 -8 -35 -16q-21 -8 -63 -50q0 21 1 25q4 9 19 31v4q-24 15 -33 30q-9 12 -9 37q0 17 2.5 24.5
t16.5 26.5q12 24 36 41q17 12 41 12q16 0 25 -3zM86 579l65 49l15 -101l38 -311l3 -99v-73q-8 -7 -55 -41l-5 93l-11 156l-11 87l-14 96z" />
    <glyph glyph-name="five" unicode="&#xfe03;" horiz-adv-x="166" 
d="M142 856q15 -11 15 -22q0 -13 -13 -35q-10 4 -26 12q-7 4 -17 4q-35 0 -58 -54q16 -18 26.5 -23.5t39.5 -16.5q34 18 47 24q24 10 51 13l-16 -48q-45 -14 -50 -16q-24 -8 -35 -16q-21 -8 -63 -50q0 21 1 25q4 9 19 31v4q-24 15 -33 30q-9 12 -9 37q0 17 2.5 24.5
t16.5 26.5q12 24 36 41q17 12 41 12q16 0 25 -3zM86 579l65 49l15 -101l38 -311l3 -99v-73q-8 -7 -55 -41l-5 93l-11 156l-11 87l-14 96z" />
    <glyph glyph-name="six" unicode="&#x625;" horiz-adv-x="231" 
d="M77 684q22 27 34 42q1 1 31 29q3 -11 9 -37q1 -12 4 -41l27 -194l18 -252l7 -144v-62q-12 -6 -31 -18q-9 -5 -25 -10l-7 154l-8 93l-11 117l-19 159zM221 -68q16 -11 16 -22q0 -13 -14 -35q-10 4 -26 12q-7 4 -17 4q-35 0 -58 -54q16 -18 27 -23.5t39 -17.5q35 19 47 25
q24 10 51 13l-15 -49q-46 -13 -51 -15q-24 -8 -35 -16q-21 -8 -63 -50q0 21 1 25q5 9 19 31v3q-24 16 -33 31q-9 12 -9 37q0 17 2.5 24.5t16.5 26.5q12 24 36 41q17 12 41 12q16 0 25 -3z" />
    <glyph glyph-name="seven" unicode="&#xfe05;" horiz-adv-x="154" 
d="M77 684q22 27 34 42q1 1 31 29q3 -11 9 -37q1 -12 4 -41l27 -194l18 -252l7 -144v-62q-12 -6 -31 -18q-9 -5 -25 -10l-7 154l-8 93l-11 117l-19 159zM221 -79q16 -11 16 -22q0 -13 -14 -35q-10 4 -26 12q-7 4 -17 4q-35 0 -58 -54q16 -18 27 -23.5t39 -17.5q35 19 47 25
q24 10 51 13l-15 -49q-46 -13 -51 -15q-24 -8 -35 -16q-21 -8 -63 -50q0 21 1 25q5 9 19 31v3q-24 16 -33 31q-9 12 -9 37q0 17 2.5 24.5t16.5 26.5q12 24 36 41q17 12 41 12q16 0 25 -3z" />
    <glyph glyph-name="eight" unicode="&#xfe06;" horiz-adv-x="231" 
d="M77 684q22 27 34 42q1 1 31 29q3 -11 9 -37q1 -12 4 -41l27 -194l18 -252l7 -144v-62q-12 -6 -31 -18q-9 -5 -25 -10l-7 154l-8 93l-11 117l-19 159z" />
    <glyph glyph-name="nine" unicode="&#xfe07;" horiz-adv-x="154" 
d="M77 684q22 27 34 42q1 1 31 29q3 -11 9 -37q1 -12 4 -41l27 -194l18 -252l7 -144v-62q-12 -6 -31 -18q-9 -5 -25 -10l-7 154l-8 93l-11 117l-19 159z" />
    <glyph glyph-name="colon" unicode="&#x671;" horiz-adv-x="231" 
d="M77 684q22 27 34 42q1 1 31 29q3 -11 9 -37q1 -12 4 -41l27 -194l18 -252l7 -144v-62q-12 -6 -31 -18q-9 -5 -25 -10l-7 154l-8 93l-11 117l-19 159z" />
    <glyph glyph-name="semicolon" unicode="&#xfe08;" horiz-adv-x="154" 
d="M77 684q22 27 34 42q1 1 31 29q3 -11 9 -37q1 -12 4 -41l27 -194l18 -252l7 -144v-62q-12 -6 -31 -18q-9 -5 -25 -10l-7 154l-8 93l-11 117l-19 159z" />
    <glyph glyph-name="less" unicode="&#x628;" horiz-adv-x="721" 
d="M155 361h2v-5q-90 -93 -90 -178q0 -40 23.5 -67t60.5 -27h477v5q-16 69 -57 137l-47 77l71 82q7 -18 21 -46l12 -36l35 -103q3 -12 11 -46q0 -1 4 -31q1 -7 6 -25q0 -17 2 -26q0 -13 2 -14q0 -4 -1 -13.5t-3 -23.5q-10 -21 -24 -21h-530q-50 0 -87 44q-40 46 -40 107
q0 115 152 210zM409 -182l66 73q24 -18 42 -36q10 -10 31 -29v-4l-38 -42q-8 -7 -31 -30z" />
    <glyph glyph-name="equal" unicode="&#xfe09;" horiz-adv-x="671" 
d="M155 361h2v-5q-90 -93 -90 -178q0 -40 23.5 -67t60.5 -27h477v5q-16 69 -57 137l-47 77l71 82q7 -18 21 -46l12 -36l35 -103q3 -12 11 -46q0 -1 4 -31q1 -7 6 -25q0 -17 2 -26q0 -13 2 -14q0 -4 -1 -13.5t-3 -23.5q-10 -21 -24 -21h-530q-50 0 -87 44q-40 46 -40 107
q0 115 152 210zM409 -182l66 73q24 -18 42 -36q10 -10 31 -29v-4l-38 -42q-8 -7 -31 -30z" />
    <glyph glyph-name="greater" unicode="&#xfe0a;" horiz-adv-x="388" 
d="M336 86q-8 31 -26 74q-12 29 -35 66q-15 28 -46 73v4l70 82l22 -53l30 -84q4 -10 12 -32q2 -12 8 -33t12 -50q3 -24 3 -32l5 -48v-12q0 -24 -13 -34q-9 -7 -49 -7h-326q0 6 -2 16q-1 7 -1 9v59l40 2h296zM114 -178l68 69l73 -69l-70 -70z" />
    <glyph glyph-name="question" unicode="&#xfe0b;" horiz-adv-x="422" 
d="M336 86q-8 31 -26 74q-12 29 -35 66q-15 28 -46 73v4l70 82l22 -53l30 -84q4 -10 12 -32q2 -12 8 -33t12 -50q3 -24 3 -32l5 -48v-12q0 -24 -13 -34q-9 -7 -49 -7h-326q0 6 -2 16q-1 7 -1 9v59l40 2h296zM114 -178l68 69l73 -69l-70 -70z" />
    <glyph glyph-name="at" unicode="&#x67e;" horiz-adv-x="721" 
d="M155 361h2v-5q-90 -93 -90 -178q0 -40 23.5 -67t60.5 -27h477v5q-16 69 -57 137l-47 77l71 82q7 -18 21 -46l12 -36l35 -103q3 -12 11 -46q0 -1 4 -31q1 -7 6 -25q0 -17 2 -26q0 -13 2 -14q0 -4 -1 -13.5t-3 -23.5q-10 -21 -24 -21h-530q-50 0 -87 44q-40 46 -40 107
q0 115 152 210zM510 -237l-64 -64h-11l-59 64q12 14 30.5 32.5t39.5 35.5zM435 -111l-71 -71l-65 71q27 32 37 42.5t30 24.5zM587 -108l-67 -70l-10 4l-63 63l70 70z" />
    <glyph glyph-name="A" unicode="&#xfe0c;" horiz-adv-x="671" 
d="M155 361h2v-5q-90 -93 -90 -178q0 -40 23.5 -67t60.5 -27h477v5q-16 69 -57 137l-47 77l71 82q7 -18 21 -46l12 -36l35 -103q3 -12 11 -46q0 -1 4 -31q1 -7 6 -25q0 -17 2 -26q0 -13 2 -14q0 -4 -1 -13.5t-3 -23.5q-10 -21 -24 -21h-530q-50 0 -87 44q-40 46 -40 107
q0 115 152 210zM510 -237l-64 -64h-11l-59 64q12 14 30.5 32.5t39.5 35.5zM435 -111l-71 -71l-65 71q27 32 37 42.5t30 24.5zM587 -108l-67 -70l-10 4l-63 63l70 70z" />
    <glyph glyph-name="B" unicode="&#xfe0d;" horiz-adv-x="388" 
d="M336 86q-8 31 -26 74q-12 29 -35 66q-15 28 -46 73v4l70 82l22 -53l30 -84q4 -10 12 -32q2 -12 8 -33t12 -50q3 -24 3 -32l5 -48v-12q0 -24 -13 -34q-9 -7 -49 -7h-326q0 6 -2 16q-1 7 -1 9v59l40 2h296zM363 -237l-65 -64h-12l-57 64q12 14 30 31q11 12 39 37zM286 -111
l-70 -71l-64 71q23 30 35 41q8 9 31 26zM440 -108l-68 -70l-9 4l-64 63l71 70z" />
    <glyph glyph-name="C" unicode="&#xfe0e;" horiz-adv-x="422" 
d="M336 86q-8 31 -26 74q-12 29 -35 66q-15 28 -46 73v4l70 82l22 -53l30 -84q4 -10 12 -32q2 -12 8 -33t12 -50q3 -24 3 -32l5 -48v-12q0 -24 -13 -34q-9 -7 -49 -7h-326q0 6 -2 16q-1 7 -1 9v59l40 2h296zM363 -237l-65 -64h-12l-57 64q12 14 30 31q11 12 39 37zM286 -111
l-70 -71l-64 71q23 30 35 41q8 9 31 26zM440 -108l-68 -70l-9 4l-64 63l71 70z" />
    <glyph glyph-name="D" unicode="&#x62a;" horiz-adv-x="715" 
d="M329 541l70 75l69 -68l-65 -71l-9 2zM486 539l66 74l70 -70v-4q-17 -14 -30 -29q-22 -24 -40 -39zM160 361h3v-5q-91 -100 -91 -178q0 -45 28 -71t78 -26l462 3l-56 104q-17 44 -67 108l58 86q13 -22 32 -61q8 -12 21 -40l38 -84l18 -56q5 -19 7 -55l2 -38v-8
q0 -28 -5.5 -34t-27.5 -6h-524q-49 0 -86 42.5t-37 108.5q0 59 35 110q33 47 112 100z" />
    <glyph glyph-name="E" unicode="&#xfe0f;" horiz-adv-x="684" 
d="M329 541l70 75l69 -68l-65 -71l-9 2zM486 539l66 74l70 -70v-4q-17 -14 -30 -29q-22 -24 -40 -39zM160 361h3v-5q-91 -100 -91 -178q0 -45 28 -71t78 -26l462 3l-56 104q-17 44 -67 108l58 86q13 -22 32 -61q8 -12 21 -40l38 -84l18 -56q5 -19 7 -55l2 -38v-8
q0 -28 -5.5 -34t-27.5 -6h-524q-49 0 -86 42.5t-37 108.5q0 59 35 110q33 47 112 100z" />
    <glyph glyph-name="F" unicode="&#xfe10;" horiz-adv-x="386" 
d="M30 541l69 75l70 -68l-68 -71l-6 2zM185 539l67 68h7l67 -66l-71 -70zM0 84l329 -5q7 0 7 8q0 6 -9 18q-1 0 -3 4t-6 9q-5 20 -34 70q-12 22 -32 58q-2 4 -34 47v3l53 76l6 4q8 -12 22 -36q2 -4 13 -25q79 -138 79 -239v-59l-6 -14l-24 -3h-361v84z" />
    <glyph glyph-name="G" unicode="&#xfe11;" horiz-adv-x="422" 
d="M30 541l69 75l70 -68l-68 -71l-6 2zM185 539l67 68h7l67 -66l-71 -70zM0 84l329 -5q7 0 7 8q0 6 -9 18q-1 0 -3 4t-6 9q-5 20 -34 70q-12 22 -32 58q-2 4 -34 47v3l53 76l6 4q8 -12 22 -36q2 -4 13 -25q79 -138 79 -239v-59l-6 -14l-24 -3h-361v84z" />
    <glyph glyph-name="H" unicode="&#x62b;" horiz-adv-x="708" 
d="M410 668l65 65h11l57 -65q-21 -27 -29 -32q-22 -22 -39 -35zM486 541l71 72l65 -72q-14 -16 -37 -39q-7 -10 -31 -27zM332 538l68 69l10 -3l64 -63l-71 -70zM160 361l6 -5q-54 -59 -71 -94q-19 -38 -21 -84q-2 -33 21 -63.5t56 -30.5h480q-14 56 -36 95q-30 54 -80 117
l60 86q10 -19 34 -64q82 -154 82 -268v-33l-7 -10l-21 -7h-527q-54 0 -89 50q-32 45 -32 101q0 112 145 210z" />
    <glyph glyph-name="I" unicode="&#xfe12;" horiz-adv-x="684" 
d="M410 668l65 65h11l57 -65q-21 -27 -29 -32q-22 -22 -39 -35zM486 541l71 72l65 -72q-14 -16 -37 -39q-7 -10 -31 -27zM332 538l68 69l10 -3l64 -63l-71 -70zM160 361l6 -5q-54 -59 -71 -94q-19 -38 -21 -84q-2 -33 21 -63.5t56 -30.5h480q-14 56 -36 95q-30 54 -80 117
l60 86q10 -19 34 -64q82 -154 82 -268v-33l-7 -10l-21 -7h-527q-54 0 -89 50q-32 45 -32 101q0 112 145 210z" />
    <glyph glyph-name="J" unicode="&#xfe13;" horiz-adv-x="373" 
d="M108 663q15 17 36 42q8 8 30 28l66 -70l-71 -68zM182 538l70 68l66 -68l-66 -70zM28 534l68 70q40 -30 67 -65q3 -3 3 -5l-68 -69zM0 79h330v7q0 1 -0.5 4t-21.5 52l-15 36q-7 12 -22 38q-14 19 -56 77v3l56 80l4 -9h2l22 -37l19 -34l33 -80q12 -19 21 -55q14 -58 14 -89
v-28l5 -20l-5 -17l-19 -7h-367q-1 20 -3 41v9z" />
    <glyph glyph-name="K" unicode="&#xfe14;" horiz-adv-x="418" 
d="M108 663q15 17 36 42q8 8 30 28l66 -70l-71 -68zM182 538l70 68l66 -68l-66 -70zM28 534l68 70q40 -30 67 -65q3 -3 3 -5l-68 -69zM0 79h330v7q0 1 -0.5 4t-21.5 52l-15 36q-7 12 -22 38q-14 19 -56 77v3l56 80l4 -9h2l22 -37l19 -34l33 -80q12 -19 21 -55q14 -58 14 -89
v-28l5 -20l-5 -17l-19 -7h-367q-1 20 -3 41v9z" />
    <glyph glyph-name="L" unicode="&#x62c;" horiz-adv-x="801" 
d="M580 169l-29 22l-141 127q-5 5 -19 8q-18 3 -27 3q-20 0 -38 -11q-16 -7 -55 -41v6q31 78 55.5 106.5t59.5 28.5q25 0 49 -18q32 -17 60 -49q9 -8 26 -24q2 -2 17 -15l75 -62q16 -19 93 -68q8 -6 27 -14q9 -4 46 -14v-111q-67 43 -120 43h-129q-153 0 -265 -42
q-160 -59 -160 -186q0 -73 40 -137q4 -5 16 -28q6 -10 17 -25v-10q-70 69 -104 126q-30 51 -30 108q0 119 123.5 196.5t318.5 79.5zM403 -111l71 59l9 -3l55 -67q-20 -23 -36 -35q-6 -3 -38 -28z" />
    <glyph glyph-name="M" unicode="&#xfe15;" horiz-adv-x="772" 
d="M580 169l-29 22l-141 127q-5 5 -19 8q-18 3 -27 3q-20 0 -38 -11q-16 -7 -55 -41v6q31 78 55.5 106.5t59.5 28.5q25 0 49 -18q32 -17 60 -49q9 -8 26 -24q2 -2 17 -15l75 -62q16 -19 93 -68q8 -6 27 -14q9 -4 46 -14v-111q-67 43 -120 43h-129q-153 0 -265 -42
q-160 -59 -160 -186q0 -73 40 -137q4 -5 16 -28q6 -10 17 -25v-10q-70 69 -104 126q-30 51 -30 108q0 119 123.5 196.5t318.5 79.5zM403 -111l71 59l9 -3l55 -67q-20 -23 -36 -35q-6 -3 -38 -28z" />
    <glyph glyph-name="N" unicode="&#xfe16;" horiz-adv-x="592" 
d="M0 86l72 31l79 25q10 2 36 9q8 2 28 3q82 10 146 10h15q9 -1 23 -1l-89 75l-66 61q-13 10 -28.5 17t-30.5 7q-9 0 -25 -5l-24 -11l-4 -4q-10 -6 -24 -20q-2 -2 -10 -8q-4 -2 -11 -7q35 87 55 110q26 31 62 32q21 1 44 -13q13 -6 48 -33l55 -56l67 -56q5 -5 57 -46
q27 -21 46 -28q12 -9 30 -15q14 -5 44 -16v-110q-30 22 -66.5 33.5t-77.5 10.5l-109 -2q-82 -1 -157 -16q-80 -16 -130 -39q-7 -4 -25 -15q-15 -6 -16.5 -6.5t-5 -0.5t-8.5 -2v86zM222 -117l74 64l60 -72v-5l-72 -61z" />
    <glyph glyph-name="O" unicode="&#xfe17;" horiz-adv-x="606" 
d="M0 86l72 31l79 25q10 2 36 9q8 2 28 3q82 10 146 10h15q9 -1 23 -1l-89 75l-66 61q-13 10 -28.5 17t-30.5 7q-9 0 -25 -5l-24 -11l-4 -4q-10 -6 -24 -20q-2 -2 -10 -8q-4 -2 -11 -7q35 87 55 110q26 31 62 32q21 1 44 -13q13 -6 48 -33l55 -56l67 -56q5 -5 57 -46
q27 -21 46 -28q12 -9 30 -15q14 -5 44 -16v-110q-30 22 -66.5 33.5t-77.5 10.5l-109 -2q-82 -1 -157 -16q-80 -16 -130 -39q-7 -4 -25 -15q-15 -6 -16.5 -6.5t-5 -0.5t-8.5 -2v86zM222 -117l74 64l60 -72v-5l-72 -61z" />
    <glyph glyph-name="P" unicode="&#x686;" horiz-adv-x="801" 
d="M580 169l-29 22l-141 127q-5 5 -19 8q-18 3 -27 3q-20 0 -38 -11q-16 -7 -55 -41v6q31 78 55.5 106.5t59.5 28.5q25 0 49 -18q32 -17 60 -49q9 -8 26 -24q2 -2 17 -15l75 -62q16 -19 93 -68q8 -6 27 -14q9 -4 46 -14v-111q-67 43 -120 43h-129q-153 0 -265 -42
q-160 -59 -160 -186q0 -73 40 -137q4 -5 16 -28q6 -10 17 -25v-10q-70 69 -104 126q-30 51 -30 108q0 119 123.5 196.5t318.5 79.5zM510 -237l-64 -64h-11l-59 64q12 14 30.5 32.5t39.5 35.5zM435 -111l-71 -71l-65 71q27 32 37 42.5t30 24.5zM587 -108l-67 -70l-10 4
l-63 63l70 70z" />
    <glyph glyph-name="Q" unicode="&#xfe18;" horiz-adv-x="772" 
d="M580 169l-29 22l-141 127q-5 5 -19 8q-18 3 -27 3q-20 0 -38 -11q-16 -7 -55 -41v6q31 78 55.5 106.5t59.5 28.5q25 0 49 -18q32 -17 60 -49q9 -8 26 -24q2 -2 17 -15l75 -62q16 -19 93 -68q8 -6 27 -14q9 -4 46 -14v-111q-67 43 -120 43h-129q-153 0 -265 -42
q-160 -59 -160 -186q0 -73 40 -137q4 -5 16 -28q6 -10 17 -25v-10q-70 69 -104 126q-30 51 -30 108q0 119 123.5 196.5t318.5 79.5zM510 -237l-64 -64h-11l-59 64q12 14 30.5 32.5t39.5 35.5zM435 -111l-71 -71l-65 71q27 32 37 42.5t30 24.5zM587 -108l-67 -70l-10 4
l-63 63l70 70z" />
    <glyph glyph-name="R" unicode="&#xfe19;" horiz-adv-x="592" 
d="M0 86l72 31l79 25q10 2 36 9q8 2 28 3q82 10 146 10h15q9 -1 23 -1l-89 75l-66 61q-13 10 -28.5 17t-30.5 7q-9 0 -25 -5l-24 -11l-4 -4q-10 -6 -24 -20q-2 -2 -10 -8q-4 -2 -11 -7q35 87 55 110q26 31 62 32q21 1 44 -13q13 -6 48 -33l55 -56l67 -56q5 -5 57 -46
q27 -21 46 -28q12 -9 30 -15q14 -5 44 -16v-110q-30 22 -66.5 33.5t-77.5 10.5l-109 -2q-82 -1 -157 -16q-80 -16 -130 -39q-7 -4 -25 -15q-15 -6 -16.5 -6.5t-5 -0.5t-8.5 -2v86zM363 -237l-65 -64h-12l-57 64q12 14 30 31q11 12 39 37zM286 -111l-70 -71l-64 71
q23 30 35 41q8 9 31 26zM440 -108l-68 -70l-9 4l-64 63l71 70z" />
    <glyph glyph-name="S" unicode="&#xfe1a;" horiz-adv-x="606" 
d="M0 86l72 31l79 25q10 2 36 9q8 2 28 3q82 10 146 10h15q9 -1 23 -1l-89 75l-66 61q-13 10 -28.5 17t-30.5 7q-9 0 -25 -5l-24 -11l-4 -4q-10 -6 -24 -20q-2 -2 -10 -8q-4 -2 -11 -7q35 87 55 110q26 31 62 32q21 1 44 -13q13 -6 48 -33l55 -56l67 -56q5 -5 57 -46
q27 -21 46 -28q12 -9 30 -15q14 -5 44 -16v-110q-30 22 -66.5 33.5t-77.5 10.5l-109 -2q-82 -1 -157 -16q-80 -16 -130 -39q-7 -4 -25 -15q-15 -6 -16.5 -6.5t-5 -0.5t-8.5 -2v86zM363 -237l-65 -64h-12l-57 64q12 14 30 31q11 12 39 37zM286 -111l-70 -71l-64 71
q23 30 35 41q8 9 31 26zM440 -108l-68 -70l-9 4l-64 63l71 70z" />
    <glyph glyph-name="T" unicode="&#x62d;" horiz-adv-x="811" 
d="M579 166v3l-41 35l-69 55l-41 40q-15 15 -29 19q-15 8 -32 8q-26 0 -96 -55v6q22 59 40 87q33 48 75 50q18 0 43 -13.5t50 -36.5l53 -49l121 -105q18 -11 55 -32q35 -17 72 -24v-114q-43 26 -75 35t-83 9h-6l-96 -3q-184 -4 -296 -64q-118 -65 -118 -159q0 -42 14 -84
q19 -37 65 -119v-3h-3q-80 80 -105 126q-29 52 -29 109q0 150 182 224q134 55 308 55h41z" />
    <glyph glyph-name="U" unicode="&#xfe1b;" horiz-adv-x="772" 
d="M579 166v3l-41 35l-69 55l-41 40q-15 15 -29 19q-15 8 -32 8q-26 0 -96 -55v6q22 59 40 87q33 48 75 50q18 0 43 -13.5t50 -36.5l53 -49l121 -105q18 -11 55 -32q35 -17 72 -24v-114q-43 26 -75 35t-83 9h-6l-96 -3q-184 -4 -296 -64q-118 -65 -118 -159q0 -42 14 -84
q19 -37 65 -119v-3h-3q-80 80 -105 126q-29 52 -29 109q0 150 182 224q134 55 308 55h41z" />
    <glyph glyph-name="V" unicode="&#xfe1c;" horiz-adv-x="587" 
d="M0 86l72 31l79 25q10 2 36 9q8 2 28 3q82 10 146 10h15q9 -1 23 -1l-89 75l-66 61q-13 10 -28.5 17t-30.5 7q-9 0 -25 -5l-24 -11l-4 -4q-10 -6 -24 -20q-2 -2 -10 -8q-4 -2 -11 -7q35 87 55 110q26 31 62 32q21 1 44 -13q13 -6 48 -33l55 -56l67 -56q5 -5 57 -46
q27 -21 46 -28q12 -9 30 -15q14 -5 44 -16v-110q-30 22 -66.5 33.5t-77.5 10.5l-109 -2q-82 -1 -157 -16q-80 -16 -130 -39q-7 -4 -25 -15q-15 -6 -16.5 -6.5t-5 -0.5t-8.5 -2v86z" />
    <glyph glyph-name="W" unicode="&#xfe1d;" horiz-adv-x="606" 
d="M0 86l72 31l79 25q10 2 36 9q8 2 28 3q82 10 146 10h15q9 -1 23 -1l-89 75l-66 61q-13 10 -28.5 17t-30.5 7q-9 0 -25 -5l-24 -11l-4 -4q-10 -6 -24 -20q-2 -2 -10 -8q-4 -2 -11 -7q35 87 55 110q26 31 62 32q21 1 44 -13q13 -6 48 -33l55 -56l67 -56q5 -5 57 -46
q27 -21 46 -28q12 -9 30 -15q14 -5 44 -16v-110q-30 22 -66.5 33.5t-77.5 10.5l-109 -2q-82 -1 -157 -16q-80 -16 -130 -39q-7 -4 -25 -15q-15 -6 -16.5 -6.5t-5 -0.5t-8.5 -2v86z" />
    <glyph glyph-name="X" unicode="&#x62e;" horiz-adv-x="799" 
d="M323 601l68 70q4 -3 16 -9q3 -4 14 -16.5t39 -38.5v-4l-66 -69zM579 166v3l-41 35l-69 55l-41 40q-15 15 -29 19q-15 8 -32 8q-26 0 -96 -55v6q22 59 40 87q33 48 75 50q18 0 43 -13.5t50 -36.5l53 -49l121 -105q18 -11 55 -32q35 -17 72 -24v-114q-43 26 -75 35t-83 9
h-6l-96 -3q-184 -4 -296 -64q-118 -65 -118 -159q0 -42 14 -84q19 -37 65 -119v-3h-3q-80 80 -105 126q-29 52 -29 109q0 150 182 224q134 55 308 55h41z" />
    <glyph glyph-name="Y" unicode="&#xfe1e;" horiz-adv-x="777" 
d="M323 601l68 70q4 -3 16 -9q3 -4 14 -16.5t39 -38.5v-4l-66 -69zM579 166v3l-41 35l-69 55l-41 40q-15 15 -29 19q-15 8 -32 8q-26 0 -96 -55v6q22 59 40 87q33 48 75 50q18 0 43 -13.5t50 -36.5l53 -49l121 -105q18 -11 55 -32q35 -17 72 -24v-114q-43 26 -75 35t-83 9
h-6l-96 -3q-184 -4 -296 -64q-118 -65 -118 -159q0 -42 14 -84q19 -37 65 -119v-3h-3q-80 80 -105 126q-29 52 -29 109q0 150 182 224q134 55 308 55h41z" />
    <glyph glyph-name="Z" unicode="&#xfe1f;" horiz-adv-x="587" 
d="M144 573q8 10 25 30q7 8 41 42l69 -65l-69 -72zM0 86l72 31l79 25q10 2 36 9q8 2 28 3q82 10 146 10h15q9 -1 23 -1l-89 75l-66 61q-13 10 -28.5 17t-30.5 7q-9 0 -25 -5l-24 -11l-4 -4q-10 -6 -24 -20q-2 -2 -10 -8q-4 -2 -11 -7q35 87 55 110q26 31 62 32q21 1 44 -13
q13 -6 48 -33l55 -56l67 -56q5 -5 57 -46q27 -21 46 -28q12 -9 30 -15q14 -5 44 -16v-110q-30 22 -66.5 33.5t-77.5 10.5l-109 -2q-82 -1 -157 -16q-80 -16 -130 -39q-7 -4 -25 -15q-15 -6 -16.5 -6.5t-5 -0.5t-8.5 -2v86z" />
    <glyph glyph-name="bracketleft" unicode="&#xfe20;" horiz-adv-x="606" 
d="M144 573q8 10 25 30q7 8 41 42l69 -65l-69 -72zM0 86l72 31l79 25q10 2 36 9q8 2 28 3q82 10 146 10h15q9 -1 23 -1l-89 75l-66 61q-13 10 -28.5 17t-30.5 7q-9 0 -25 -5l-24 -11l-4 -4q-10 -6 -24 -20q-2 -2 -10 -8q-4 -2 -11 -7q35 87 55 110q26 31 62 32q21 1 44 -13
q13 -6 48 -33l55 -56l67 -56q5 -5 57 -46q27 -21 46 -28q12 -9 30 -15q14 -5 44 -16v-110q-30 22 -66.5 33.5t-77.5 10.5l-109 -2q-82 -1 -157 -16q-80 -16 -130 -39q-7 -4 -25 -15q-15 -6 -16.5 -6.5t-5 -0.5t-8.5 -2v86z" />
    <glyph glyph-name="backslash" unicode="&#x62f;" horiz-adv-x="554" 
d="M117 145h1q0 -73 67 -77l87 -5l103 4l118 14l-38 82l-33 59q-4 11 -17 31q-7 10 -22 33l-63 78l-43 46v4l41 73l21 -19l55 -77l47 -74q10 -19 30 -55q13 -24 35 -64q15 -34 35 -102q5 -26 5 -46v-13q0 -9 -3 -12q-7 -15 -38 -23q-39 -10 -83 -14l-90 -9q-11 0 -22 -1h-29
q-98 0 -137 9q-49 20 -49 87q0 19 3 34q1 9 19 37z" />
    <glyph glyph-name="bracketright" unicode="&#xfe21;" horiz-adv-x="539" 
d="M117 145h1q0 -73 67 -77l87 -5l103 4l118 14l-38 82l-33 59q-4 11 -17 31q-7 10 -22 33l-63 78l-43 46v4l41 73l21 -19l55 -77l47 -74q10 -19 30 -55q13 -24 35 -64q15 -34 35 -102q5 -26 5 -46v-13q0 -9 -3 -12q-7 -15 -38 -23q-39 -10 -83 -14l-90 -9q-11 0 -22 -1h-29
q-98 0 -137 9q-49 20 -49 87q0 19 3 34q1 9 19 37z" />
    <glyph glyph-name="asciicircum" unicode="&#x630;" horiz-adv-x="592" 
d="M252 669l74 68l60 -68v-3q-30 -30 -38 -40q-8 -6 -31 -25zM142 145h3q0 -73 65 -77l89 -5l104 4l117 14l-37 82q-1 0 -14 24q-6 9 -20 35q-8 14 -28 46q-4 8 -11 18l-103 124v4l38 73l19 -19l57 -77l47 -74q2 -8 13 -23q5 -10 21 -32q12 -26 30 -64q7 -17 20 -53
q7 -17 18 -49q3 -37 3 -46v-9q0 -16 -2 -16q-6 -12 -39 -23q-24 -5 -81 -14l-90 -9q-12 0 -22 -1h-31q-103 0 -139 9q-47 17 -47 87q0 19 3 34q4 11 17 37z" />
    <glyph glyph-name="underscore" unicode="&#xfe22;" horiz-adv-x="567" 
d="M252 669l74 68l60 -68v-3q-30 -30 -38 -40q-8 -6 -31 -25zM142 145h3q0 -73 65 -77l89 -5l104 4l117 14l-37 82q-1 0 -14 24q-6 9 -20 35q-8 14 -28 46q-4 8 -11 18l-103 124v4l38 73l19 -19l57 -77l47 -74q2 -8 13 -23q5 -10 21 -32q12 -26 30 -64q7 -17 20 -53
q7 -17 18 -49q3 -37 3 -46v-9q0 -16 -2 -16q-6 -12 -39 -23q-24 -5 -81 -14l-90 -9q-12 0 -22 -1h-31q-103 0 -139 9q-47 17 -47 87q0 19 3 34q4 11 17 37z" />
    <glyph glyph-name="grave" unicode="&#x631;" horiz-adv-x="283" 
d="M-3 -332q5 6 14 15t22 18q45 43 76 89q27 41 60 109l38 77q3 11 3 21q0 22 -27 71q-35 63 -74 106v4l46 83l8 -6q14 -20 28 -45q10 -14 25 -42l18 -48l16 -48v-105q0 -4 -6 -22q-9 -30 -27.5 -87.5t-31.5 -86.5q-15 -33 -31 -54q-11 -19 -43 -56q-9 0 -22 -1q-9 0 -26 -2
q-22 0 -30 2q-3 0 -36 4v4z" />
    <glyph glyph-name="a" unicode="&#xfe23;" horiz-adv-x="252" 
d="M-3 -332q5 6 14 15t22 18q45 43 76 89q27 41 60 109l38 77q3 11 3 21q0 22 -27 71q-35 63 -74 106v4l46 83l8 -6q14 -20 28 -45q10 -14 25 -42l18 -48l16 -48v-105q0 -4 -6 -22q-9 -30 -27.5 -87.5t-31.5 -86.5q-15 -33 -31 -54q-11 -19 -43 -56q-9 0 -22 -1q-9 0 -26 -2
q-22 0 -30 2q-3 0 -36 4v4z" />
    <glyph glyph-name="b" unicode="&#x632;" horiz-adv-x="290" 
d="M53 414l69 65q28 -25 33 -32t15.5 -18t14.5 -15v-4q-4 -4 -38 -40q-13 -14 -30 -25zM-3 -332q5 6 14 15t22 18q45 43 76 89q27 41 60 109l38 77q3 11 3 21q0 22 -27 71q-35 63 -74 106v4l46 83l8 -6q14 -20 28 -45q10 -14 25 -42l18 -48l16 -48v-105q0 -4 -6 -22
q-9 -30 -27.5 -87.5t-31.5 -86.5q-15 -33 -31 -54q-11 -19 -43 -56q-9 0 -22 -1q-9 0 -26 -2q-22 0 -30 2q-3 0 -36 4v4z" />
    <glyph glyph-name="c" unicode="&#xfe24;" horiz-adv-x="252" 
d="M53 414l69 65q28 -25 33 -32t15.5 -18t14.5 -15v-4q-4 -4 -38 -40q-13 -14 -30 -25zM-3 -332q5 6 14 15t22 18q45 43 76 89q27 41 60 109l38 77q3 11 3 21q0 22 -27 71q-35 63 -74 106v4l46 83l8 -6q14 -20 28 -45q10 -14 25 -42l18 -48l16 -48v-105q0 -4 -6 -22
q-9 -30 -27.5 -87.5t-31.5 -86.5q-15 -33 -31 -54q-11 -19 -43 -56q-9 0 -22 -1q-9 0 -26 -2q-22 0 -30 2q-3 0 -36 4v4z" />
    <glyph glyph-name="d" unicode="&#x698;" horiz-adv-x="290" 
d="M-3 -332q5 6 14 15t22 18q45 43 76 89q27 41 60 109l38 77q3 11 3 21q0 22 -27 71q-35 63 -74 106v4l46 83l8 -6q14 -20 28 -45q10 -14 25 -42l18 -48l16 -48v-105q0 -4 -6 -22q-9 -30 -27.5 -87.5t-31.5 -86.5q-15 -33 -31 -54q-11 -19 -43 -56q-9 0 -22 -1q-9 0 -26 -2
q-22 0 -30 2q-3 0 -36 4v4zM52 552q16 17 37 42q3 2 29 28l67 -70l-71 -68zM125 428l72 67l65 -67l-65 -72zM-28 422l69 71q39 -28 67 -64q3 -3 3 -7l-68 -68z" />
    <glyph glyph-name="e" unicode="&#xfe25;" horiz-adv-x="252" 
d="M-3 -332q5 6 14 15t22 18q45 43 76 89q27 41 60 109l38 77q3 11 3 21q0 22 -27 71q-35 63 -74 106v4l46 83l8 -6q14 -20 28 -45q10 -14 25 -42l18 -48l16 -48v-105q0 -4 -6 -22q-9 -30 -27.5 -87.5t-31.5 -86.5q-15 -33 -31 -54q-11 -19 -43 -56q-9 0 -22 -1q-9 0 -26 -2
q-22 0 -30 2q-3 0 -36 4v4zM52 552q16 17 37 42q3 2 29 28l67 -70l-71 -68zM125 428l72 67l65 -67l-65 -72zM-28 422l69 71q39 -28 67 -64q3 -3 3 -7l-68 -68z" />
    <glyph glyph-name="f" unicode="&#x633;" horiz-adv-x="1038" 
d="M865 299l59 65q16 -33 41 -102q20 -57 26 -82q8 -36 10 -82v-39v-42q-31 -20 -99 -20q-58 0 -93 20t-70 78q-37 -55 -55 -71q-24 -16 -62 -24q-14 -3 -35 -7q-34 0 -50 28.5t-16 77.5v10q-158 -149 -311 -152q-80 -2 -136.5 53t-56.5 135q0 90 101 197q12 12 34 30
q5 6 33 22v-8l-52 -65l-15 -22l-12 -22q-22 -40 -22 -86q0 -67 39 -102q45 -39 115 -39q87 0 200 86q21 16 61 51q19 22 64 79h4v-16q0 -1 -2 -7.5t-2 -11.5q-1 -8 -3 -21q0 -25 7 -50q3 -15 13 -43q9 -18 14 -22q7 -14 22 -14h6q19 0 31 14q1 0 21 23q21 33 28 54
q3 7 31 99l3 -7q14 -89 58 -136q47 -51 114 -51q47 0 47 21t-25 80q-35 82 -65 121z" />
    <glyph glyph-name="g" unicode="&#xfe26;" horiz-adv-x="992" 
d="M865 299l59 65q16 -33 41 -102q20 -57 26 -82q8 -36 10 -82v-39v-42q-31 -20 -99 -20q-58 0 -93 20t-70 78q-37 -55 -55 -71q-24 -16 -62 -24q-14 -3 -35 -7q-34 0 -50 28.5t-16 77.5v10q-158 -149 -311 -152q-80 -2 -136.5 53t-56.5 135q0 90 101 197q12 12 34 30
q5 6 33 22v-8l-52 -65l-15 -22l-12 -22q-22 -40 -22 -86q0 -67 39 -102q45 -39 115 -39q87 0 200 86q21 16 61 51q19 22 64 79h4v-16q0 -1 -2 -7.5t-2 -11.5q-1 -8 -3 -21q0 -25 7 -50q3 -15 13 -43q9 -18 14 -22q7 -14 22 -14h6q19 0 31 14q1 0 21 23q21 33 28 54
q3 7 31 99l3 -7q14 -89 58 -136q47 -51 114 -51q47 0 47 21t-25 80q-35 82 -65 121z" />
    <glyph glyph-name="h" unicode="&#xfe27;" horiz-adv-x="630" 
d="M636 21q-18 -13 -42 -21q-17 -3 -56 -3q-59 -1 -97 24q-35 22 -65 77q-36 -51 -66 -77q-24 -21 -60 -21q-58 0 -77 22.5t-19 82.5v4q-41 -40 -64.5 -56.5t-82.5 -49.5h-7l-3 43l3 38q8 6 21 14q6 4 25.5 18t58.5 44q24 21 40 40l55 66q-1 -14 -3 -35v-21q0 -122 53 -129
h6q17 0 30 14q8 4 22 25q23 35 31 54q1 2 25 98l8 -6q14 -87 60 -137t111 -50q49 0 49 22q0 17 -34 96q-23 52 -56 102l58 68q18 -25 42.5 -99.5t31.5 -135.5q4 -30 4 -69q0 -15 -2 -23v-19z" />
    <glyph glyph-name="i" unicode="&#xfe28;" horiz-adv-x="645" 
d="M636 21q-18 -13 -42 -21q-17 -3 -56 -3q-59 -1 -97 24q-35 22 -65 77q-36 -51 -66 -77q-24 -21 -60 -21q-58 0 -77 22.5t-19 82.5v4q-41 -40 -64.5 -56.5t-82.5 -49.5h-7l-3 43l3 38q8 6 21 14q6 4 25.5 18t58.5 44q24 21 40 40l55 66q-1 -14 -3 -35v-21q0 -122 53 -129
h6q17 0 30 14q8 4 22 25q23 35 31 54q1 2 25 98l8 -6q14 -87 60 -137t111 -50q49 0 49 22q0 17 -34 96q-23 52 -56 102l58 68q18 -25 42.5 -99.5t31.5 -135.5q4 -30 4 -69q0 -15 -2 -23v-19z" />
    <glyph glyph-name="j" unicode="&#x634;" horiz-adv-x="1022" 
d="M617 607l67 67h9l65 -67l-70 -69zM702 497l70 73l11 -10l62 -63l-73 -69zM530 492l68 68q6 -4 32 -26q12 -11 39 -42q-13 -11 -17.5 -16t-10.5 -12q-10 -12 -32 -33l-11 -9zM865 299l59 65q16 -33 41 -102q20 -57 26 -82q8 -36 10 -82v-39v-42q-31 -20 -99 -20
q-58 0 -93 20t-70 78q-37 -55 -55 -71q-24 -16 -62 -24q-14 -3 -35 -7q-34 0 -50 28.5t-16 77.5v10q-158 -149 -311 -152q-80 -2 -136.5 53t-56.5 135q0 90 101 197q12 12 34 30q5 6 33 22v-8l-52 -65l-15 -22l-12 -22q-22 -40 -22 -86q0 -67 39 -102q45 -39 115 -39
q87 0 200 86q21 16 61 51q19 22 64 79h4v-16q0 -1 -2 -7.5t-2 -11.5q-1 -8 -3 -21q0 -25 7 -50q3 -15 13 -43q9 -18 14 -22q7 -14 22 -14h6q19 0 31 14q1 0 21 23q21 33 28 54q3 7 31 99l3 -7q14 -89 58 -136q47 -51 114 -51q47 0 47 21t-25 80q-35 82 -65 121z" />
    <glyph glyph-name="k" unicode="&#xfe29;" horiz-adv-x="992" 
d="M617 607l67 67h9l65 -67l-70 -69zM702 497l70 73l11 -10l62 -63l-73 -69zM530 492l68 68q6 -4 32 -26q12 -11 39 -42q-13 -11 -17.5 -16t-10.5 -12q-10 -12 -32 -33l-11 -9zM865 299l59 65q16 -33 41 -102q20 -57 26 -82q8 -36 10 -82v-39v-42q-31 -20 -99 -20
q-58 0 -93 20t-70 78q-37 -55 -55 -71q-24 -16 -62 -24q-14 -3 -35 -7q-34 0 -50 28.5t-16 77.5v10q-158 -149 -311 -152q-80 -2 -136.5 53t-56.5 135q0 90 101 197q12 12 34 30q5 6 33 22v-8l-52 -65l-15 -22l-12 -22q-22 -40 -22 -86q0 -67 39 -102q45 -39 115 -39
q87 0 200 86q21 16 61 51q19 22 64 79h4v-16q0 -1 -2 -7.5t-2 -11.5q-1 -8 -3 -21q0 -25 7 -50q3 -15 13 -43q9 -18 14 -22q7 -14 22 -14h6q19 0 31 14q1 0 21 23q21 33 28 54q3 7 31 99l3 -7q14 -89 58 -136q47 -51 114 -51q47 0 47 21t-25 80q-35 82 -65 121z" />
    <glyph glyph-name="l" unicode="&#xfe2a;" horiz-adv-x="634" 
d="M318 595l67 68l9 -1l63 -67l-71 -70zM403 484l68 73l12 -9l60 -62l-72 -70zM231 479l68 70q5 -4 31 -28q9 -11 37 -42q-5 -5 -16 -17q-7 -4 -12 -11q-2 -3 -19 -20l-12 -12q-3 -2 -9 -5zM636 21q-18 -13 -42 -21q-17 -3 -56 -3q-59 -1 -97 24q-35 22 -65 77
q-36 -51 -66 -77q-24 -21 -60 -21q-58 0 -77 22.5t-19 82.5v4q-41 -40 -64.5 -56.5t-82.5 -49.5h-7l-3 43l3 38q8 6 21 14q6 4 25.5 18t58.5 44q24 21 40 40l55 66q-1 -14 -3 -35v-21q0 -122 53 -129h6q17 0 30 14q8 4 22 25q23 35 31 54q1 2 25 98l8 -6q14 -87 60 -137
t111 -50q49 0 49 22q0 17 -34 96q-23 52 -56 102l58 68q18 -25 42.5 -99.5t31.5 -135.5q4 -30 4 -69q0 -15 -2 -23v-19z" />
    <glyph glyph-name="m" unicode="&#xfe2b;" horiz-adv-x="645" 
d="M318 595l67 68l9 -1l63 -67l-71 -70zM403 484l68 73l12 -9l60 -62l-72 -70zM231 479l68 70q5 -4 31 -28q9 -11 37 -42q-5 -5 -16 -17q-7 -4 -12 -11q-2 -3 -19 -20l-12 -12q-3 -2 -9 -5zM636 21q-18 -13 -42 -21q-17 -3 -56 -3q-59 -1 -97 24q-35 22 -65 77
q-36 -51 -66 -77q-24 -21 -60 -21q-58 0 -77 22.5t-19 82.5v4q-41 -40 -64.5 -56.5t-82.5 -49.5h-7l-3 43l3 38q8 6 21 14q6 4 25.5 18t58.5 44q24 21 40 40l55 66q-1 -14 -3 -35v-21q0 -122 53 -129h6q17 0 30 14q8 4 22 25q23 35 31 54q1 2 25 98l8 -6q14 -87 60 -137
t111 -50q49 0 49 22q0 17 -34 96q-23 52 -56 102l58 68q18 -25 42.5 -99.5t31.5 -135.5q4 -30 4 -69q0 -15 -2 -23v-19z" />
    <glyph glyph-name="n" unicode="&#x635;" horiz-adv-x="1081" 
d="M576 118l83 111q60 81 135 143q50 41 93 41q67 0 118 -105t54 -245q1 -18 -2 -23v-9q-1 -4 -1 -7q-27 -16 -56 -24q-6 -2 -74 -7l-88 -6h-83l-87 6q-28 1 -78 7q-25 5 -47 25l-46 -66l-10 -7v2q0 15 23 53q2 5 20 39q-5 9 -6 24q0 5 -1.5 14.5t-1.5 14.5v10
q-158 -149 -311 -152q-80 -2 -136.5 53t-56.5 135q0 90 101 197q12 12 34 30q5 6 33 22v-8l-52 -65l-15 -22l-12 -22q-22 -40 -22 -86q0 -67 39 -102q45 -39 115 -39q87 0 200 86q21 16 61 51q19 22 64 79h4v-16q0 -1 -2 -7.5t-2 -11.5q-1 -8 -3 -21q0 -23 3 -49
q4 -15 13 -43zM603 101q17 -14 57 -22q21 -2 64 -7h135l96 7q11 1 28 7q12 4 22 12q-8 110 -41 170.5t-84 60.5q-21 0 -69 -28q-49 -35 -87 -72l-72 -69z" />
    <glyph glyph-name="o" unicode="&#xfe2c;" horiz-adv-x="1054" 
d="M576 118l83 111q60 81 135 143q50 41 93 41q67 0 118 -105t54 -245q1 -18 -2 -23v-9q-1 -4 -1 -7q-27 -16 -56 -24q-6 -2 -74 -7l-88 -6h-83l-87 6q-28 1 -78 7q-25 5 -47 25l-46 -66l-10 -7v2q0 15 23 53q2 5 20 39q-5 9 -6 24q0 5 -1.5 14.5t-1.5 14.5v10
q-158 -149 -311 -152q-80 -2 -136.5 53t-56.5 135q0 90 101 197q12 12 34 30q5 6 33 22v-8l-52 -65l-15 -22l-12 -22q-22 -40 -22 -86q0 -67 39 -102q45 -39 115 -39q87 0 200 86q21 16 61 51q19 22 64 79h4v-16q0 -1 -2 -7.5t-2 -11.5q-1 -8 -3 -21q0 -23 3 -49
q4 -15 13 -43zM603 101q17 -14 57 -22q21 -2 64 -7h135l96 7q11 1 28 7q12 4 22 12q-8 110 -41 170.5t-84 60.5q-21 0 -69 -28q-49 -35 -87 -72l-72 -69z" />
    <glyph glyph-name="p" unicode="&#xfe2d;" horiz-adv-x="671" 
d="M538 -7h-119q-103 0 -171 7q-24 0 -58 6q-16 4 -27 25l-49 -72l-9 -7v2q0 27 17 59q5 9 32 52q0 5 -1.5 10.5t-1.5 14.5t3 18q-26 -23 -67 -58q-22 -14 -84 -50h-6l-4 43l7 38q4 3 25 18q7 5 19 15q18 9 55 41q29 25 43 42l55 67q0 -14 -3 -26q0 -20 -3 -28
q0 -10 1.5 -25.5t1.5 -20.5q2 -10 10 -31l68 96q47 66 138 143q49 41 93 41q66 0 119 -106q49 -100 52 -244q1 -18 -2 -23v-9q-1 -4 -1 -7q-43 -31 -133 -31zM397 72q46 0 82 2q32 1 92 5q19 2 27 7q13 3 24 12q-9 105 -43 170q-33 61 -86 61q-26 0 -68 -28q-35 -22 -86 -72
l-71 -69l-50 -59q2 -3 16 -12q9 -3 21 -8q62 -9 142 -9z" />
    <glyph glyph-name="q" unicode="&#xfe2e;" horiz-adv-x="695" 
d="M538 -7h-119q-103 0 -171 7q-24 0 -58 6q-16 4 -27 25l-49 -72l-9 -7v2q0 27 17 59q5 9 32 52q0 5 -1.5 10.5t-1.5 14.5t3 18q-26 -23 -67 -58q-22 -14 -84 -50h-6l-4 43l7 38q4 3 25 18q7 5 19 15q18 9 55 41q29 25 43 42l55 67q0 -14 -3 -26q0 -20 -3 -28
q0 -10 1.5 -25.5t1.5 -20.5q2 -10 10 -31l68 96q47 66 138 143q49 41 93 41q66 0 119 -106q49 -100 52 -244q1 -18 -2 -23v-9q-1 -4 -1 -7q-43 -31 -133 -31zM397 72q46 0 82 2q32 1 92 5q19 2 27 7q13 3 24 12q-9 105 -43 170q-33 61 -86 61q-26 0 -68 -28q-35 -22 -86 -72
l-71 -69l-50 -59q2 -3 16 -12q9 -3 21 -8q62 -9 142 -9z" />
    <glyph glyph-name="r" unicode="&#x636;" horiz-adv-x="1081" 
d="M741 580l69 72q30 -30 37 -36q7 -9 25 -32l-65 -67zM576 118l83 111q60 81 135 143q50 41 93 41q67 0 118 -105t54 -245q1 -18 -2 -23v-9q-1 -4 -1 -7q-27 -16 -56 -24q-6 -2 -74 -7l-88 -6h-83l-87 6q-28 1 -78 7q-25 5 -47 25l-46 -66l-10 -7v2q0 15 23 53q2 5 20 39
q-5 9 -6 24q0 5 -1.5 14.5t-1.5 14.5v10q-158 -149 -311 -152q-80 -2 -136.5 53t-56.5 135q0 90 101 197q12 12 34 30q5 6 33 22v-8l-52 -65l-15 -22l-12 -22q-22 -40 -22 -86q0 -67 39 -102q45 -39 115 -39q87 0 200 86q21 16 61 51q19 22 64 79h4v-16q0 -1 -2 -7.5
t-2 -11.5q-1 -8 -3 -21q0 -23 3 -49q4 -15 13 -43zM603 101q17 -14 57 -22q21 -2 64 -7h135l96 7q11 1 28 7q12 4 22 12q-8 110 -41 170.5t-84 60.5q-21 0 -69 -28q-49 -35 -87 -72l-72 -69z" />
    <glyph glyph-name="s" unicode="&#xfe30;" horiz-adv-x="1054" 
d="M741 580l69 72q30 -30 37 -36q7 -9 25 -32l-65 -67zM576 118l83 111q60 81 135 143q50 41 93 41q67 0 118 -105t54 -245q1 -18 -2 -23v-9q-1 -4 -1 -7q-27 -16 -56 -24q-6 -2 -74 -7l-88 -6h-83l-87 6q-28 1 -78 7q-25 5 -47 25l-46 -66l-10 -7v2q0 15 23 53q2 5 20 39
q-5 9 -6 24q0 5 -1.5 14.5t-1.5 14.5v10q-158 -149 -311 -152q-80 -2 -136.5 53t-56.5 135q0 90 101 197q12 12 34 30q5 6 33 22v-8l-52 -65l-15 -22l-12 -22q-22 -40 -22 -86q0 -67 39 -102q45 -39 115 -39q87 0 200 86q21 16 61 51q19 22 64 79h4v-16q0 -1 -2 -7.5
t-2 -11.5q-1 -8 -3 -21q0 -23 3 -49q4 -15 13 -43zM603 101q17 -14 57 -22q21 -2 64 -7h135l96 7q11 1 28 7q12 4 22 12q-8 110 -41 170.5t-84 60.5q-21 0 -69 -28q-49 -35 -87 -72l-72 -69z" />
    <glyph glyph-name="t" unicode="&#xfe31;" horiz-adv-x="671" 
d="M356 580l66 72q29 -22 40 -36q3 -2 25 -32l-65 -67zM538 -7h-119q-103 0 -171 7q-24 0 -58 6q-16 4 -27 25l-49 -72l-9 -7v2q0 27 17 59q5 9 32 52q0 5 -1.5 10.5t-1.5 14.5t3 18q-26 -23 -67 -58q-22 -14 -84 -50h-6l-4 43l7 38q4 3 25 18q7 5 19 15q18 9 55 41
q29 25 43 42l55 67q0 -14 -3 -26q0 -20 -3 -28q0 -10 1.5 -25.5t1.5 -20.5q2 -10 10 -31l68 96q47 66 138 143q49 41 93 41q66 0 119 -106q49 -100 52 -244q1 -18 -2 -23v-9q-1 -4 -1 -7q-43 -31 -133 -31zM397 72q46 0 82 2q32 1 92 5q19 2 27 7q13 3 24 12q-9 105 -43 170
q-33 61 -86 61q-26 0 -68 -28q-35 -22 -86 -72l-71 -69l-50 -59q2 -3 16 -12q9 -3 21 -8q62 -9 142 -9z" />
    <glyph glyph-name="u" unicode="&#xfe32;" horiz-adv-x="715" 
d="M356 580l66 72q29 -22 40 -36q3 -2 25 -32l-65 -67zM538 -7h-119q-103 0 -171 7q-24 0 -58 6q-16 4 -27 25l-49 -72l-9 -7v2q0 27 17 59q5 9 32 52q0 5 -1.5 10.5t-1.5 14.5t3 18q-26 -23 -67 -58q-22 -14 -84 -50h-6l-4 43l7 38q4 3 25 18q7 5 19 15q18 9 55 41
q29 25 43 42l55 67q0 -14 -3 -26q0 -20 -3 -28q0 -10 1.5 -25.5t1.5 -20.5q2 -10 10 -31l68 96q47 66 138 143q49 41 93 41q66 0 119 -106q49 -100 52 -244q1 -18 -2 -23v-9q-1 -4 -1 -7q-43 -31 -133 -31zM397 72q46 0 82 2q32 1 92 5q19 2 27 7q13 3 24 12q-9 105 -43 170
q-33 61 -86 61q-26 0 -68 -28q-35 -22 -86 -72l-71 -69l-50 -59q2 -3 16 -12q9 -3 21 -8q62 -9 142 -9z" />
    <glyph glyph-name="v" unicode="&#x637;" horiz-adv-x="590" 
d="M0 81q58 0 79 14q22 9 35 49q13 37 16 90q0 8 -1 11.5t-4 9.5l-7 121l-9 110l-14 131l-11 67q15 14 44 40q16 14 24 19l3 -15l19 -168l4 -209l-4 -74l-11 -80l57 69l59 66q31 35 66 54q43 24 65 24q27 1 58 -18q30 -14 49 -43l10 -10q3 -5 7 -18q7 -21 20 -59
q5 -17 14 -54q5 -23 5 -42v-133q0 -7 -5 -16q-4 -2 -8 -10q-2 -1 -5.5 -2.5t-5.5 -2t-5 -1.5t-5 -1l-539 3v78zM125 87l29 -3h361l12 6q0 2 1 7.5t1 11.5v14q0 73 -31 129q-37 69 -104 69q-51 0 -119 -69l-59 -61q-13 -14 -44 -47q-10 -14 -47 -57z" />
    <glyph glyph-name="w" unicode="&#xfe33;" horiz-adv-x="568" 
d="M0 81q58 0 79 14q22 9 35 49q13 37 16 90q0 8 -1 11.5t-4 9.5l-7 121l-9 110l-14 131l-11 67q15 14 44 40q16 14 24 19l3 -15l19 -168l4 -209l-4 -74l-11 -80l57 69l59 66q31 35 66 54q43 24 65 24q27 1 58 -18q30 -14 49 -43l10 -10q3 -5 7 -18q7 -21 20 -59
q5 -17 14 -54q5 -23 5 -42v-133q0 -7 -5 -16q-4 -2 -8 -10q-2 -1 -5.5 -2.5t-5.5 -2t-5 -1.5t-5 -1l-539 3v78zM125 87l29 -3h361l12 6q0 2 1 7.5t1 11.5v14q0 73 -31 129q-37 69 -104 69q-51 0 -119 -69l-59 -61q-13 -14 -44 -47q-10 -14 -47 -57z" />
    <glyph glyph-name="x" unicode="&#xfe34;" horiz-adv-x="563" 
d="M0 81q58 0 79 14q22 9 35 49q13 37 16 90q0 8 -1 11.5t-4 9.5l-7 121l-9 110l-14 131l-11 67q15 14 44 40q16 14 24 19l3 -15l19 -168l4 -209l-4 -74l-11 -80l57 69l59 66q31 35 66 54q43 24 65 24q27 1 58 -18q30 -14 49 -43l10 -10q3 -5 7 -18q7 -21 20 -59
q5 -17 14 -54q5 -23 5 -42v-133q0 -7 -5 -16q-4 -2 -8 -10q-2 -1 -5.5 -2.5t-5.5 -2t-5 -1.5t-5 -1l-539 3v78zM125 87l29 -3h361l12 6q0 2 1 7.5t1 11.5v14q0 73 -31 129q-37 69 -104 69q-51 0 -119 -69l-59 -61q-13 -14 -44 -47q-10 -14 -47 -57z" />
    <glyph glyph-name="y" unicode="&#xfe35;" horiz-adv-x="597" 
d="M0 81q58 0 79 14q22 9 35 49q13 37 16 90q0 8 -1 11.5t-4 9.5l-7 121l-9 110l-14 131l-11 67q15 14 44 40q16 14 24 19l3 -15l19 -168l4 -209l-4 -74l-11 -80l57 69l59 66q31 35 66 54q43 24 65 24q27 1 58 -18q30 -14 49 -43l10 -10q3 -5 7 -18q7 -21 20 -59
q5 -17 14 -54q5 -23 5 -42v-133q0 -7 -5 -16q-4 -2 -8 -10q-2 -1 -5.5 -2.5t-5.5 -2t-5 -1.5t-5 -1l-539 3v78zM125 87l29 -3h361l12 6q0 2 1 7.5t1 11.5v14q0 73 -31 129q-37 69 -104 69q-51 0 -119 -69l-59 -61q-13 -14 -44 -47q-10 -14 -47 -57z" />
    <glyph glyph-name="z" unicode="&#x638;" horiz-adv-x="603" 
d="M0 81q58 0 79 14q22 9 35 49q13 37 16 90q0 8 -1 11.5t-4 9.5l-7 121l-9 110l-14 131l-11 67q15 14 44 40q16 14 24 19l3 -15l19 -168l4 -209l-4 -74l-11 -80l57 69l59 66q31 35 66 54q43 24 65 24q27 1 58 -18q30 -14 49 -43l10 -10q3 -5 7 -18q7 -21 20 -59
q5 -17 14 -54q5 -23 5 -42v-133q0 -7 -5 -16q-4 -2 -8 -10q-2 -1 -5.5 -2.5t-5.5 -2t-5 -1.5t-5 -1l-539 3v78zM125 87l29 -3h361l12 6q0 2 1 7.5t1 11.5v14q0 73 -31 129q-37 69 -104 69q-51 0 -119 -69l-59 -61q-13 -14 -44 -47q-10 -14 -47 -57zM289 549q10 13 30 33.5
t37 39.5l66 -73l-66 -66z" />
    <glyph glyph-name="braceleft" unicode="&#xfe36;" horiz-adv-x="568" 
d="M0 81q58 0 79 14q22 9 35 49q13 37 16 90q0 8 -1 11.5t-4 9.5l-7 121l-9 110l-14 131l-11 67q15 14 44 40q16 14 24 19l3 -15l19 -168l4 -209l-4 -74l-11 -80l57 69l59 66q31 35 66 54q43 24 65 24q27 1 58 -18q30 -14 49 -43l10 -10q3 -5 7 -18q7 -21 20 -59
q5 -17 14 -54q5 -23 5 -42v-133q0 -7 -5 -16q-4 -2 -8 -10q-2 -1 -5.5 -2.5t-5.5 -2t-5 -1.5t-5 -1l-539 3v78zM125 87l29 -3h361l12 6q0 2 1 7.5t1 11.5v14q0 73 -31 129q-37 69 -104 69q-51 0 -119 -69l-59 -61q-13 -14 -44 -47q-10 -14 -47 -57zM289 549q10 13 30 33.5
t37 39.5l66 -73l-66 -66z" />
    <glyph glyph-name="bar" unicode="&#xfe37;" horiz-adv-x="568" 
d="M0 81q58 0 79 14q22 9 35 49q13 37 16 90q0 8 -1 11.5t-4 9.5l-7 121l-9 110l-14 131l-11 67q15 14 44 40q16 14 24 19l3 -15l19 -168l4 -209l-4 -74l-11 -80l57 69l59 66q31 35 66 54q43 24 65 24q27 1 58 -18q30 -14 49 -43l10 -10q3 -5 7 -18q7 -21 20 -59
q5 -17 14 -54q5 -23 5 -42v-133q0 -7 -5 -16q-4 -2 -8 -10q-2 -1 -5.5 -2.5t-5.5 -2t-5 -1.5t-5 -1l-539 3v78zM125 87l29 -3h361l12 6q0 2 1 7.5t1 11.5v14q0 73 -31 129q-37 69 -104 69q-51 0 -119 -69l-59 -61q-13 -14 -44 -47q-10 -14 -47 -57zM289 549q10 13 30 33.5
t37 39.5l66 -73l-66 -66z" />
    <glyph glyph-name="braceright" unicode="&#xfe38;" horiz-adv-x="606" 
d="M0 81q58 0 79 14q22 9 35 49q13 37 16 90q0 8 -1 11.5t-4 9.5l-7 121l-9 110l-14 131l-11 67q15 14 44 40q16 14 24 19l3 -15l19 -168l4 -209l-4 -74l-11 -80l57 69l59 66q31 35 66 54q43 24 65 24q27 1 58 -18q30 -14 49 -43l10 -10q3 -5 7 -18q7 -21 20 -59
q5 -17 14 -54q5 -23 5 -42v-133q0 -7 -5 -16q-4 -2 -8 -10q-2 -1 -5.5 -2.5t-5.5 -2t-5 -1.5t-5 -1l-539 3v78zM125 87l29 -3h361l12 6q0 2 1 7.5t1 11.5v14q0 73 -31 129q-37 69 -104 69q-51 0 -119 -69l-59 -61q-13 -14 -44 -47q-10 -14 -47 -57zM289 549q10 13 30 33.5
t37 39.5l66 -73l-66 -66z" />
    <glyph glyph-name="asciitilde" unicode="&#x639;" horiz-adv-x="684" 
d="M303 125q-25 46 -41 84q-7 16 -7 53q0 48 39 103q32 46 78 81q20 11 57 33q25 11 52 11q65 0 128 -77q13 -15 13 -19q7 -6 8 -9q6 -5 6 -13l-98 27q-15 4 -55 8q-48 0 -95 -29q-43 -20 -85 -75v-7q0 -9 12 -30l17 -29q11 -14 40 -43q17 -15 56 -40l47 6l178 3q4 0 27 -3
h8v-123l-39 25q-13 3 -43 10q-23 5 -38 5h-8l-98 -5l-95 -14q-79 -18 -138 -43q-121 -50 -121 -160q0 -24 9 -64q5 -23 24 -57l41 -73l3 -9v-1q-72 69 -108 125q-29 55 -29 110q0 89 69 149q39 35 68.5 49t117.5 41z" />
    <glyph glyph-name="uniFE39" unicode="&#xfe39;" horiz-adv-x="772" 
d="M410 188q-31 20 -73 36q-23 6 -76 9l10 85q0 7 8 12q5 4 28 15q46 19 118 43q37 10 89 11q54 2 126 -17q60 -24 115 -65v-7l-27 -84q-31 -10 -81 -25q-22 -9 -79 -35v-3q43 -48 84 -67q41 -15 122 -15q9 -22 9 -37q0 -11 -1.5 -20t-4.5 -24h-34q-68 0 -102 15
q-27 8 -65 35q-44 37 -93 86l-127 -55l-60 -28l-89 -46q-44 -23 -66 -60q-24 -40 -24 -89q0 -38 6 -67q18 -44 31 -63q7 -16 18 -33q15 -20 16 -27l2 -6t1 -4h-3q-68 68 -102 126q-31 53 -31 107q0 56 32 107q28 45 91 78l84 44zM364 289q65 -21 131 -63l155 58
q-11 13 -56 26q-38 11 -82 11q-43 0 -72 -9q-32 -4 -76 -23z" />
    <glyph glyph-name="uniFE3A" unicode="&#xfe3a;" horiz-adv-x="568" 
d="M0 79l151 75l56 24q-50 27 -66 32q-20 6 -74 10l10 101q116 70 238 70q55 0 107.5 -15t126.5 -66v-7l-24 -83l-103 -35l-61 -25v-5q43 -41 77 -59l49 -17q23 -3 84 -3q0 -4 1 -10.5t1 -10.5q0 -11 2 -15l-2 -43h-87q-14 0 -24 3q2 0 -21 3q-25 14 -71 43q-35 26 -89 77
l-15 -5l-88 -39l-108 -48l-70 -34q0 22 -2 31q0 4 -1 9v7q0 4 3 14v21zM160 279v-2q57 -12 133 -61l153 61q-36 21 -63 30q-28 5 -62 5q-20 0 -69 -5.5t-92 -27.5z" />
    <glyph glyph-name="uniFE3B" unicode="&#xfe3b;" horiz-adv-x="503" 
d="M0 76q14 14 70 35l50 19q-14 25 -39 74q-9 29 -9 55q0 24 12.5 57t32.5 56q31 44 78 79q57 42 101 42q71 0 159 -117v-4l-17 5q-58 18 -77 22q-13 3 -62 8q-50 0 -96 -25.5t-86 -78.5v-7q0 -10 13 -24l24 -39q11 -21 28 -34.5t58 -44.5l75 7l107 2l80 -3v-125
q-52 41 -127 41h-22q-35 0 -45 -2q-21 0 -36 -2l-90 -14q-16 -3 -68 -18q-39 -12 -114 -43v79z" />
    <glyph glyph-name="uni063A" unicode="&#x63a;" horiz-adv-x="684" 
d="M391 660l68 64h9l62 -71l-70 -66zM303 125q-25 46 -41 84q-7 16 -7 53q0 48 39 103q32 46 78 81q20 11 57 33q25 11 52 11q65 0 128 -77q13 -15 13 -19q7 -6 8 -9q6 -5 6 -13l-98 27q-15 4 -55 8q-48 0 -95 -29q-43 -20 -85 -75v-7q0 -9 12 -30l17 -29q11 -14 40 -43
q17 -15 56 -40l47 6l178 3q4 0 27 -3h8v-123l-39 25q-13 3 -43 10q-23 5 -38 5h-8l-98 -5l-95 -14q-79 -18 -138 -43q-121 -50 -121 -160q0 -24 9 -64q5 -23 24 -57l41 -73l3 -9v-1q-72 69 -108 125q-29 55 -29 110q0 89 69 149q39 35 68.5 49t117.5 41z" />
    <glyph glyph-name="uniFE3C" unicode="&#xfe3c;" horiz-adv-x="772" 
d="M459 560l68 68l65 -65v-3q-15 -15 -38 -40q-9 -10 -30 -27zM410 188q-31 20 -73 36q-23 6 -76 9l10 85q0 7 8 12q5 4 28 15q46 19 118 43q37 10 89 11q54 2 126 -17q60 -24 115 -65v-7l-27 -84q-31 -10 -81 -25q-22 -9 -79 -35v-3q43 -48 84 -67q41 -15 122 -15
q9 -22 9 -37q0 -11 -1.5 -20t-4.5 -24h-34q-68 0 -102 15q-27 8 -65 35q-44 37 -93 86l-127 -55l-60 -28l-89 -46q-44 -23 -66 -60q-24 -40 -24 -89q0 -38 6 -67q18 -44 31 -63q7 -16 18 -33q15 -20 16 -27l2 -6t1 -4h-3q-68 68 -102 126q-31 53 -31 107q0 56 32 107
q28 45 91 78l84 44zM364 289q65 -21 131 -63l155 58q-11 13 -56 26q-38 11 -82 11q-43 0 -72 -9q-32 -4 -76 -23z" />
    <glyph glyph-name="uniFE3D" unicode="&#xfe3d;" horiz-adv-x="568" 
d="M253 552l67 70l66 -68l-65 -68q-16 17 -32 29q-10 8 -36 34v3zM0 79l151 75l56 24q-50 27 -66 32q-20 6 -74 10l10 101q116 70 238 70q55 0 107.5 -15t126.5 -66v-7l-24 -83l-103 -35l-61 -25v-5q43 -41 77 -59l49 -17q23 -3 84 -3q0 -4 1 -10.5t1 -10.5q0 -11 2 -15
l-2 -43h-87q-14 0 -24 3q2 0 -21 3q-25 14 -71 43q-35 26 -89 77l-15 -5l-88 -39l-108 -48l-70 -34q0 22 -2 31q0 4 -1 9v7q0 4 3 14v21zM160 279v-2q57 -12 133 -61l153 61q-36 21 -63 30q-28 5 -62 5q-20 0 -69 -5.5t-92 -27.5z" />
    <glyph glyph-name="uniFE3E" unicode="&#xfe3e;" horiz-adv-x="515" 
d="M204 663l68 65l9 5l64 -70q-12 -13 -37 -38q-13 -11 -36 -33zM-3 76q12 13 70 35l50 19q-23 40 -40 76q-9 26 -9 53q0 26 11 56q10 26 32 57q36 50 93 88q48 33 89 33q73 0 158 -117v-4q-65 20 -95 27q-12 3 -60 8q-49 0 -95.5 -25.5t-86.5 -78.5v-7q0 -12 9 -24l28 -39
q9 -18 28 -35q31 -26 58 -44l73 7l111 2l76 -3v-125q-30 25 -57 33q-41 8 -68 8h-23q-34 0 -44 -2q-19 0 -34 -2l-93 -14q-2 0 -24 -6q-13 -4 -48 -15q-19 -6 -53 -16q-14 -6 -53 -24q-2 2 -3 22v57z" />
    <glyph glyph-name="uni0641" unicode="&#x641;" horiz-adv-x="706" 
d="M418 636l65 70l10 -1l64 -64l-64 -65l-7 -3zM154 361h3v-5q-48 -49 -71 -94q-21 -40 -21 -84q0 -48 26 -70t72 -22h417q-6 12 -19 31q-4 7 -15 16l-89 52q-58 33 -58 79q0 20 8 43q4 23 15 46q20 39 53 75q36 29 63 29q28 0 57 -41q36 -50 58 -113q6 -12 13 -35l18 -113
q0 -20 2 -33q0 -8 1 -16l1 -8v-85l-17 -13h-541q-51 0 -87 44t-36 107q0 123 147 210zM622 161v7q0 8 -4.5 22.5t-4.5 24.5q-18 63 -33 92q-5 24 -31 47q-17 15 -35 18q-20 0 -49 -43q-2 -8 -6 -14q0 -4 -1 -8.5t-1 -7.5q0 -8 8 -22q12 -14 25 -22l81 -51z" />
    <glyph glyph-name="uniFE3F" unicode="&#xfe3f;" horiz-adv-x="684" 
d="M418 636l65 70l10 -1l64 -64l-64 -65l-7 -3zM154 361h3v-5q-48 -49 -71 -94q-21 -40 -21 -84q0 -48 26 -70t72 -22h417q-6 12 -19 31q-4 7 -15 16l-89 52q-58 33 -58 79q0 20 8 43q4 23 15 46q20 39 53 75q36 29 63 29q28 0 57 -41q36 -50 58 -113q6 -12 13 -35l18 -113
q0 -20 2 -33q0 -8 1 -16l1 -8v-85l-17 -13h-541q-51 0 -87 44t-36 107q0 123 147 210zM622 161v7q0 8 -4.5 22.5t-4.5 24.5q-18 63 -33 92q-5 24 -31 47q-17 15 -35 18q-20 0 -49 -43q-2 -8 -6 -14q0 -4 -1 -8.5t-1 -7.5q0 -8 8 -22q12 -14 25 -22l81 -51z" />
    <glyph glyph-name="uniFE40" unicode="&#xfe40;" horiz-adv-x="388" 
d="M122 636l66 70q11 -8 34 -28q11 -9 37 -34v-4q-16 -18 -39 -43q-8 -8 -32 -26zM0 77l7 4h279q-11 25 -22 36q-6 7 -21 19l-82 46q-60 32 -60 80q0 17 8 45q9 34 21 49q16 38 55 72q33 29 59 29q20 0 44.5 -28.5t56.5 -96.5q28 -58 33 -106l13 -109v-105l-15 -12h-376v77z
M326 160q0 64 -40 147q-14 30 -30.5 45t-35.5 15q-25 0 -51 -40q-1 -4 -3.5 -10.5t-4.5 -17.5q0 -18 39 -46t62 -43q17 -11 41 -28z" />
    <glyph glyph-name="uniFE41" unicode="&#xfe41;" horiz-adv-x="421" 
d="M122 636l66 70q11 -8 34 -28q11 -9 37 -34v-4q-16 -18 -39 -43q-8 -8 -32 -26zM0 77l7 4h279q-11 25 -22 36q-6 7 -21 19l-82 46q-60 32 -60 80q0 17 8 45q9 34 21 49q16 38 55 72q33 29 59 29q20 0 44.5 -28.5t56.5 -96.5q28 -58 33 -106l13 -109v-105l-15 -12h-376v77z
M326 160q0 64 -40 147q-14 30 -30.5 45t-35.5 15q-25 0 -51 -40q-1 -4 -3.5 -10.5t-4.5 -17.5q0 -18 39 -46t62 -43q17 -11 41 -28z" />
    <glyph glyph-name="uni06A4" unicode="&#x6a4;" horiz-adv-x="706" 
d="M154 361h3v-5q-48 -49 -71 -94q-21 -40 -21 -84q0 -48 26 -70t72 -22h417q-6 12 -19 31q-4 7 -15 16l-89 52q-58 33 -58 79q0 20 8 43q4 23 15 46q20 39 53 75q36 29 63 29q28 0 57 -41q36 -50 58 -113q6 -12 13 -35l18 -113q0 -20 2 -33q0 -8 1 -16l1 -8v-85l-17 -13
h-541q-51 0 -87 44t-36 107q0 123 147 210zM622 161v7q0 8 -4.5 22.5t-4.5 24.5q-18 63 -33 92q-5 24 -31 47q-17 15 -35 18q-20 0 -49 -43q-2 -8 -6 -14q0 -4 -1 -8.5t-1 -7.5q0 -8 8 -22q12 -14 25 -22l81 -51zM443 734l65 65h11l57 -65q-21 -27 -29 -32q-22 -22 -39 -35z
M519 607l71 72l65 -72q-14 -16 -37 -39q-7 -10 -31 -27zM365 604l68 69l10 -3l64 -63l-71 -70z" />
    <glyph glyph-name="uniFE42" unicode="&#xfe42;" horiz-adv-x="684" 
d="M154 361h3v-5q-48 -49 -71 -94q-21 -40 -21 -84q0 -48 26 -70t72 -22h417q-6 12 -19 31q-4 7 -15 16l-89 52q-58 33 -58 79q0 20 8 43q4 23 15 46q20 39 53 75q36 29 63 29q28 0 57 -41q36 -50 58 -113q6 -12 13 -35l18 -113q0 -20 2 -33q0 -8 1 -16l1 -8v-85l-17 -13
h-541q-51 0 -87 44t-36 107q0 123 147 210zM622 161v7q0 8 -4.5 22.5t-4.5 24.5q-18 63 -33 92q-5 24 -31 47q-17 15 -35 18q-20 0 -49 -43q-2 -8 -6 -14q0 -4 -1 -8.5t-1 -7.5q0 -8 8 -22q12 -14 25 -22l81 -51zM443 734l65 65h11l57 -65q-21 -27 -29 -32q-22 -22 -39 -35z
M519 607l71 72l65 -72q-14 -16 -37 -39q-7 -10 -31 -27zM365 604l68 69l10 -3l64 -63l-71 -70z" />
    <glyph glyph-name="uniFE43" unicode="&#xfe43;" horiz-adv-x="388" 
d="M0 77l7 4h279q-11 25 -22 36q-6 7 -21 19l-82 46q-60 32 -60 80q0 17 8 45q9 34 21 49q16 38 55 72q33 29 59 29q20 0 44.5 -28.5t56.5 -96.5q28 -58 33 -106l13 -109v-105l-15 -12h-376v77zM326 160q0 64 -40 147q-14 30 -30.5 45t-35.5 15q-25 0 -51 -40
q-1 -4 -3.5 -10.5t-4.5 -17.5q0 -18 39 -46t62 -43q17 -11 41 -28zM149 723l64 65h11l58 -65q-22 -27 -30 -32q-22 -22 -39 -35zM224 596l71 72l65 -72q-14 -16 -37 -39q-7 -10 -30 -27zM70 593l69 69l10 -3l63 -63l-71 -70z" />
    <glyph glyph-name="uniFE44" unicode="&#xfe44;" horiz-adv-x="421" 
d="M0 77l7 4h279q-11 25 -22 36q-6 7 -21 19l-82 46q-60 32 -60 80q0 17 8 45q9 34 21 49q16 38 55 72q33 29 59 29q20 0 44.5 -28.5t56.5 -96.5q28 -58 33 -106l13 -109v-105l-15 -12h-376v77zM326 160q0 64 -40 147q-14 30 -30.5 45t-35.5 15q-25 0 -51 -40
q-1 -4 -3.5 -10.5t-4.5 -17.5q0 -18 39 -46t62 -43q17 -11 41 -28zM133 734l65 65h11l57 -65q-21 -27 -29 -32q-22 -22 -39 -35zM209 607l70 72l65 -72q-13 -16 -36 -39q-7 -10 -31 -27zM55 604l68 69l10 -3l64 -63l-72 -70z" />
    <glyph glyph-name="uni0642" unicode="&#x642;" horiz-adv-x="715" 
d="M361 631l70 68l62 -68v-3l-65 -60zM527 628l68 67l67 -67l-70 -65zM152 361h3v-5q-90 -99 -90 -178q0 -16 7 -39q7 -17 20 -31q5 -6 30 -19q7 -3 14 -5h444q-11 26 -22 34q-13 15 -24 18l-77 46q-63 36 -63 84q0 13 9 41q6 18 19 49q24 47 56.5 74t59.5 27q10 0 22 -8.5
t27 -27.5q75 -92 87 -211l10 -92v-105l-18 -13h-533q-51 0 -89.5 43.5t-40.5 107.5q-1 54 37 108q32 46 112 102zM622 160q-40 207 -108 207q-13 0 -24 -6q-11 -11 -22 -25q-11 -21 -11 -37q0 -13 11 -25t40 -31l52 -33q20 -17 62 -50z" />
    <glyph glyph-name="uniFE45" unicode="&#xfe45;" horiz-adv-x="678" 
d="M361 631l70 68l62 -68v-3l-65 -60zM527 628l68 67l67 -67l-70 -65zM152 361h3v-5q-90 -99 -90 -178q0 -16 7 -39q7 -17 20 -31q5 -6 30 -19q7 -3 14 -5h444q-11 26 -22 34q-13 15 -24 18l-77 46q-63 36 -63 84q0 13 9 41q6 18 19 49q24 47 56.5 74t59.5 27q10 0 22 -8.5
t27 -27.5q75 -92 87 -211l10 -92v-105l-18 -13h-533q-51 0 -89.5 43.5t-40.5 107.5q-1 54 37 108q32 46 112 102zM622 160q-40 207 -108 207q-13 0 -24 -6q-11 -11 -22 -25q-11 -21 -11 -37q0 -13 11 -25t40 -31l52 -33q20 -17 62 -50z" />
    <glyph glyph-name="uniFE46" unicode="&#xfe46;" horiz-adv-x="392" 
d="M62 631l68 68l61 -68v-3l-36 -36q-6 -8 -30 -24zM229 628l67 67q8 -10 31 -33q18 -18 29 -37l-57 -57l-9 -5zM0 77l12 4h277q-10 18 -23 36q-4 3 -11 9.5t-11 9.5l-81 46q-57 31 -58 80q-1 7 8 45q8 32 17 49q18 37 47 65q36 36 69 36q18 0 43 -27.5t59 -93.5
q24 -63 34 -110l9 -109l3 -105l-18 -12h-376v77zM327 160q0 25 -12 68q-8 23 -26 79q-16 31 -32.5 45.5t-36.5 14.5q-25 0 -51 -40q0 -4 -5 -12q0 -4 -1 -9v-7q0 -14 8 -22.5t30 -23.5t63 -43q17 -11 39 -28q2 -2 5 -6q10 -8 19 -16z" />
    <glyph glyph-name="uniFE47" unicode="&#xfe47;" horiz-adv-x="428" 
d="M62 631l68 68l61 -68v-3l-36 -36q-6 -8 -30 -24zM229 628l67 67q8 -10 31 -33q18 -18 29 -37l-57 -57l-9 -5zM0 77l12 4h277q-10 18 -23 36q-4 3 -11 9.5t-11 9.5l-81 46q-57 31 -58 80q-1 7 8 45q8 32 17 49q18 37 47 65q36 36 69 36q18 0 43 -27.5t59 -93.5
q24 -63 34 -110l9 -109l3 -105l-18 -12h-376v77zM327 160q0 25 -12 68q-8 23 -26 79q-16 31 -32.5 45.5t-36.5 14.5q-25 0 -51 -40q0 -4 -5 -12q0 -4 -1 -9v-7q0 -14 8 -22.5t30 -23.5t63 -43q17 -11 39 -28q2 -2 5 -6q10 -8 19 -16z" />
    <glyph glyph-name="uni0643" unicode="&#x643;" horiz-adv-x="761" 
d="M772 76q5 -15 5 -26v-22q0 -5 -5 -25l-11 -3h-639q-60 0 -99 63q-23 37 -23 82q0 126 151 211l3 -3q-48 -43 -73 -92q-22 -43 -22 -87q0 -16 7.5 -36.5t20.5 -31.5q5 -7 24 -17q10 -5 22 -5h573q2 0 4 3q0 5 -5.5 66t-6.5 63l-11 117l-20 159l-28 164q22 27 34 42
q0 1 30 29q3 -11 9 -37q1 -12 5 -41l26 -194l19 -252q4 -60 10 -127zM421 446q16 -11 16 -22q0 -14 -13 -36q-11 5 -27 13q-7 4 -16 4q-36 0 -59 -54q17 -18 27.5 -23.5t38.5 -17.5q35 19 47 25q24 10 51 13l-15 -49q-46 -13 -51 -15q-24 -8 -35 -17q-21 -7 -63 -49
q0 21 1 25q5 9 19 31v3q-23 16 -33 31q-9 12 -9 36q0 18 4 26q1 7 15 26q12 23 36 41q17 12 41 12q17 0 25 -3z" />
    <glyph glyph-name="uniFE48" unicode="&#xfe48;" horiz-adv-x="761" 
d="M772 76q5 -15 5 -26v-22q0 -5 -5 -25l-11 -3h-639q-60 0 -99 63q-23 37 -23 82q0 126 151 211l3 -3q-48 -43 -73 -92q-22 -43 -22 -87q0 -16 7.5 -36.5t20.5 -31.5q5 -7 24 -17q10 -5 22 -5h573q2 0 4 3q0 5 -5.5 66t-6.5 63l-11 117l-20 159l-28 164q22 27 34 42
q0 1 30 29q3 -11 9 -37q1 -12 5 -41l26 -194l19 -252q4 -60 10 -127zM421 446q16 -11 16 -22q0 -14 -13 -36q-11 5 -27 13q-7 4 -16 4q-36 0 -59 -54q17 -18 27.5 -23.5t38.5 -17.5q35 19 47 25q24 10 51 13l-15 -49q-46 -13 -51 -15q-24 -8 -35 -17q-21 -7 -63 -49
q0 21 1 25q5 9 19 31v3q-23 16 -33 31q-9 12 -9 36q0 18 4 26q1 7 15 26q12 23 36 41q17 12 41 12q17 0 25 -3z" />
    <glyph glyph-name="uni06A9" unicode="&#x6a9;" horiz-adv-x="807" 
d="M151 356l3 -3q-48 -43 -73 -92q-22 -43 -22 -87q0 -16 7.5 -36.5t20.5 -31.5q5 -7 24 -17q10 -5 22 -5h573q2 0 4 3q0 6 -4 11q-3 2 -32 43q-5 7 -21 23q-10 15 -28 27l-68 70l-64 54l-71 52q-1 -5 -6 -11l-7 -11q-7 2 -21 8q-9 9 -21 30q-7 11 -18 33q-4 20 -4 25
q0 25 8.5 44t28.5 35l71 60l117 83l108 70l92 50l-18 -92l-107 -66l-106 -71l-86 -64l-32 -28l76 -55l73 -62q8 -7 27 -25q22 -22 28 -30q19 -21 55 -62l34 -46l51 -84q2 -5 7 -21t5 -27v-22q0 -5 -5 -25l-11 -3h-639q-59 0 -97 60q-25 39 -25 85q0 126 151 211z" />
    <glyph glyph-name="uniFE49" unicode="&#xfe49;" horiz-adv-x="761" 
d="M151 356l3 -3q-48 -43 -73 -92q-22 -43 -22 -87q0 -16 7.5 -36.5t20.5 -31.5q5 -7 24 -17q10 -5 22 -5h573q2 0 4 3q0 6 -4 11q-3 2 -32 43q-5 7 -21 23q-10 15 -28 27l-68 70l-64 54l-71 52q-1 -5 -6 -11l-7 -11q-7 2 -21 8q-9 9 -21 30q-7 11 -18 33q-4 20 -4 25
q0 25 8.5 44t28.5 35l71 60l117 83l108 70l92 50l-18 -92l-107 -66l-106 -71l-86 -64l-32 -28l76 -55l73 -62q8 -7 27 -25q22 -22 28 -30q19 -21 55 -62l34 -46l51 -84q2 -5 7 -21t5 -27v-22q0 -5 -5 -25l-11 -3h-639q-59 0 -97 60q-25 39 -25 85q0 126 151 211z" />
    <glyph glyph-name="uniFE4A" unicode="&#xfe4a;" horiz-adv-x="481" 
d="M475 0h-472q-3 3 -3 12v67h418q-3 13 -9 27q-6 7 -27 35l-53 59l-70 64l-129 103q-1 -3 -5 -11q-1 -2 -7 -11l-12 3q-53 49 -53 98q0 24 17 53q12 20 52 50l78 58l89 62l190 119l-19 -97l-29 -17l-89 -57l-102 -68l-80 -59l-30 -28l80 -59l67 -58q3 -3 22 -24l31 -31
l42 -44q12 -18 42 -59q19 -26 45 -70q5 -10 15 -27q5 -6 5 -11q4 -15 4 -33v-39z" />
    <glyph glyph-name="uniFE4B" unicode="&#xfe4b;" horiz-adv-x="497" 
d="M475 0h-472q-3 3 -3 12v67h418q-3 13 -9 27q-6 7 -27 35l-53 59l-70 64l-129 103q-1 -3 -5 -11q-1 -2 -7 -11l-12 3q-53 49 -53 98q0 24 17 53q12 20 52 50l78 58l89 62l190 119l-19 -97l-29 -17l-89 -57l-102 -68l-80 -59l-30 -28l80 -59l67 -58q3 -3 22 -24l31 -31
l42 -44q12 -18 42 -59q19 -26 45 -70q5 -10 15 -27q5 -6 5 -11q4 -15 4 -33v-39z" />
    <glyph glyph-name="uni06AF" unicode="&#x6af;" horiz-adv-x="807" 
d="M151 356l3 -3q-48 -43 -73 -92q-22 -43 -22 -87q0 -16 7.5 -36.5t20.5 -31.5q5 -7 24 -17q10 -5 22 -5h573q2 0 4 3q0 6 -4 11q-3 2 -32 43q-5 7 -21 23q-10 15 -28 27l-68 70l-64 54l-71 52q-1 -5 -6 -11l-7 -11q-7 2 -21 8q-9 9 -21 30q-7 11 -18 33q-4 20 -4 25
q0 25 8.5 44t28.5 35l71 60l117 83l108 70l92 50l-18 -92l-107 -66l-106 -71l-86 -64l-32 -28l76 -55l73 -62q8 -7 27 -25q22 -22 28 -30q19 -21 55 -62l34 -46l51 -84q2 -5 7 -21t5 -27v-22q0 -5 -5 -25l-11 -3h-639q-59 0 -97 60q-25 39 -25 85q0 126 151 211zM570 737
q0 -36 -21 -51l-183 -123q0 25 6 34q9 15 33 28z" />
    <glyph glyph-name="uniFE4C" unicode="&#xfe4c;" horiz-adv-x="761" 
d="M151 356l3 -3q-48 -43 -73 -92q-22 -43 -22 -87q0 -16 7.5 -36.5t20.5 -31.5q5 -7 24 -17q10 -5 22 -5h573q2 0 4 3q0 6 -4 11q-3 2 -32 43q-5 7 -21 23q-10 15 -28 27l-68 70l-64 54l-71 52q-1 -5 -6 -11l-7 -11q-7 2 -21 8q-9 9 -21 30q-7 11 -18 33q-4 20 -4 25
q0 25 8.5 44t28.5 35l71 60l117 83l108 70l92 50l-18 -92l-107 -66l-106 -71l-86 -64l-32 -28l76 -55l73 -62q8 -7 27 -25q22 -22 28 -30q19 -21 55 -62l34 -46l51 -84q2 -5 7 -21t5 -27v-22q0 -5 -5 -25l-11 -3h-639q-59 0 -97 60q-25 39 -25 85q0 126 151 211zM570 737
q0 -36 -21 -51l-183 -123q0 25 6 34q9 15 33 28z" />
    <glyph glyph-name="uniFE4D" unicode="&#xfe4d;" horiz-adv-x="481" 
d="M475 0h-472q-3 3 -3 12v67h418q-3 13 -9 27q-6 7 -27 35l-53 59l-70 64l-129 103q-1 -3 -5 -11q-1 -2 -7 -11l-12 3q-53 49 -53 98q0 24 17 53q12 20 52 50l78 58l89 62l190 119l-19 -97l-29 -17l-89 -57l-102 -68l-80 -59l-30 -28l80 -59l67 -58q3 -3 22 -24l31 -31
l42 -44q12 -18 42 -59q19 -26 45 -70q5 -10 15 -27q5 -6 5 -11q4 -15 4 -33v-39zM286 760q0 -38 -20 -52l-182 -123q0 23 5 34q15 18 33 28z" />
    <glyph glyph-name="uniFE4E" unicode="&#xfe4e;" horiz-adv-x="497" 
d="M475 0h-472q-3 3 -3 12v67h418q-3 13 -9 27q-6 7 -27 35l-53 59l-70 64l-129 103q-1 -3 -5 -11q-1 -2 -7 -11l-12 3q-53 49 -53 98q0 24 17 53q12 20 52 50l78 58l89 62l190 119l-19 -97l-29 -17l-89 -57l-102 -68l-80 -59l-30 -28l80 -59l67 -58q3 -3 22 -24l31 -31
l42 -44q12 -18 42 -59q19 -26 45 -70q5 -10 15 -27q5 -6 5 -11q4 -15 4 -33v-39zM286 760q0 -38 -20 -52l-182 -123q0 23 5 34q15 18 33 28z" />
    <glyph glyph-name="uni0644" unicode="&#x644;" horiz-adv-x="579" 
d="M154 356v-5q-46 -43 -73 -95q-19 -38 -19 -82q0 -27 7.5 -42t28.5 -36q12 -9 30 -12q11 -5 50 -5h305l4 8v38l-10 119l-22 150l-17 89l-44 183l68 73q0 -5 1.5 -7t2 -4.5t4 -18.5t13.5 -60l19 -103l19 -141l17 -162l11 -221q0 -6 -6 -19l-16 -3h-402q-52 0 -89 47
q-34 43 -36 98q-1 54 40 114q36 52 114 97z" />
    <glyph glyph-name="uniFE4F" unicode="&#xfe4f;" horiz-adv-x="539" 
d="M154 356v-5q-46 -43 -73 -95q-19 -38 -19 -82q0 -27 7.5 -42t28.5 -36q12 -9 30 -12q11 -5 50 -5h305l4 8v38l-10 119l-22 150l-17 89l-44 183l68 73q0 -5 1.5 -7t2 -4.5t4 -18.5t13.5 -60l19 -103l19 -141l17 -162l11 -221q0 -6 -6 -19l-16 -3h-402q-52 0 -89 47
q-34 43 -36 98q-1 54 40 114q36 52 114 97z" />
    <glyph glyph-name="brokenbar" unicode="&#xfe58;" horiz-adv-x="514" 
d="M17 660l8 2q21 -12 25 -17q19 -15 36 -31l65 -63l65 -68l175 -194q2 10 6 28q0 2 1 7t1 6l4 46v126l-18 178l68 63l6 -10l9 -173l-3 -103q0 -8 -1 -26q0 -2 -2 -28q-4 -50 -15 -93q-6 -35 -12 -44q-2 -2 -3.5 -7t-2.5 -7q-1 -6 -1 -12q0 -11 13 -33q40 -66 40 -149v-33
q-20 -14 -41 -22q-15 -3 -54 -3h-179v7q5 30 13 51q0 4 4 10q1 5 5 11q8 9 39 30q22 15 47 46q22 29 52 79l-3 10l-87 92l-103 95l-109 93q-7 -7 -10 -8.5t-12 -3.5q-43 34 -43 86q0 19 2 28q2 15 15 34zM289 86v-2l60 -3l54 3q13 0 22 3q5 0 10 11q-1 3 -17 59q-4 6 -24 40
l-57 -67z" />
    <glyph glyph-name="section" unicode="&#xfe59;" horiz-adv-x="475" 
d="M17 660l8 2q21 -12 25 -17q19 -15 36 -31l65 -63l65 -68l175 -194q2 10 6 28q0 2 1 7t1 6l4 46v126l-18 178l68 63l6 -10l9 -173l-3 -103q0 -8 -1 -26q0 -2 -2 -28q-4 -50 -15 -93q-6 -35 -12 -44q-2 -2 -3.5 -7t-2.5 -7q-1 -6 -1 -12q0 -11 13 -33q40 -66 40 -149v-33
q-20 -14 -41 -22q-15 -3 -54 -3h-179v7q5 30 13 51q0 4 4 10q1 5 5 11q8 9 39 30q22 15 47 46q22 29 52 79l-3 10l-87 92l-103 95l-109 93q-7 -7 -10 -8.5t-12 -3.5q-43 34 -43 86q0 19 2 28q2 15 15 34zM289 86v-2l60 -3l54 3q13 0 22 3q5 0 10 11q-1 3 -17 59q-4 6 -24 40
l-57 -67z" />
    <glyph glyph-name="dieresis" unicode="&#xfe5a;" horiz-adv-x="243" 
d="M0 79l185 2q3 7 3 8v34l-10 121l-23 142l-19 97l-41 185l65 75l4 -10l27 -141l25 -151l13 -96l15 -160l8 -109v-28q0 -32 -6 -41q-13 -7 -46 -7h-200l-3 19v43z" />
    <glyph glyph-name="copyright" unicode="&#xfe5b;" horiz-adv-x="256" 
d="M0 79l185 2q3 7 3 8v34l-10 121l-23 142l-19 97l-41 185l65 75l4 -10l27 -141l25 -151l13 -96l15 -160l8 -109v-28q0 -32 -6 -41q-13 -7 -46 -7h-200l-3 19v43z" />
    <glyph glyph-name="ordfeminine" unicode="&#x645;" horiz-adv-x="609" 
d="M312 89q-14 -14 -31.5 -29.5t-32.5 -24.5l-41 -23q-49 -28 -77 -70q-24 -37 -24 -84q0 -74 39 -137q16 -24 33 -51q1 -2 1 -9q3 -1 3 -6q-10 9 -19 18.5l-9 9.5q-3 4 -18 14q-90 96 -90 194q0 51 33 109q30 52 78 72l91 36q19 6 38 31q23 24 43 61l43 79q13 24 37 48
q20 18 37 18q29 0 56 -42l25 -57q6 -15 14 -36l26 -87l4 -42l2 -46v-14q0 -45 -46 -45q5 0 -21 3q-8 0 -23 4q-60 18 -89 38q-33 18 -82 68zM438 250l-3 2q-13 0 -24.5 -8t-24.5 -34l-25 -50v-6q8 -12 27 -34q11 -8 41 -28q14 -9 48 -24q21 -9 29 -9q3 0 18 6v12
q0 29 -27 86q-32 68 -59 87z" />
    <glyph glyph-name="guillemotleft" unicode="&#xfe5c;" horiz-adv-x="568" 
d="M312 89q-14 -14 -31.5 -29.5t-32.5 -24.5l-41 -23q-49 -28 -77 -70q-24 -37 -24 -84q0 -74 39 -137q16 -24 33 -51q1 -2 1 -9q3 -1 3 -6q-10 9 -19 18.5l-9 9.5q-3 4 -18 14q-90 96 -90 194q0 51 33 109q30 52 78 72l91 36q19 6 38 31q23 24 43 61l43 79q13 24 37 48
q20 18 37 18q29 0 56 -42l25 -57q6 -15 14 -36l26 -87l4 -42l2 -46v-14q0 -45 -46 -45q5 0 -21 3q-8 0 -23 4q-60 18 -89 38q-33 18 -82 68zM438 250l-3 2q-13 0 -24.5 -8t-24.5 -34l-25 -50v-6q8 -12 27 -34q11 -8 41 -28q14 -9 48 -24q21 -9 29 -9q3 0 18 6v12
q0 29 -27 86q-32 68 -59 87z" />
    <glyph glyph-name="logicalnot" unicode="&#xfe5d;" horiz-adv-x="386" 
d="M0 79q85 17 130 87l39 80q23 47 53 74q17 19 46 22q45 -22 83 -122q35 -92 35 -199q0 -51 -41 -51q-51 0 -116 36q-59 33 -96 75l-11 -4q-21 -23 -57 -52q-16 -9 -58 -25l-7 3q0 14 -2 19q0 13 -1 21v9q1 6 2 10.5t1 16.5zM339 65q-4 47 -21 89q-13 33 -46 74
q-2 4 -13 15q-10 3 -11 3q-2 0 -15 -3q-20 -15 -29 -28q-23 -40 -30 -61v-3q10 -15 30 -34q10 -12 27 -21l48 -26q34 -17 39 -17q11 0 14 5z" />
    <glyph glyph-name="uniFE5E" unicode="&#xfe5e;" horiz-adv-x="413" 
d="M0 79q85 17 130 87l39 80q23 47 53 74q17 19 46 22q45 -22 83 -122q35 -92 35 -199q0 -51 -41 -51q-51 0 -116 36q-59 33 -96 75l-11 -4q-21 -23 -57 -52q-16 -9 -58 -25l-7 3q0 14 -2 19q0 13 -1 21v9q1 6 2 10.5t1 16.5zM339 65q-4 47 -21 89q-13 33 -46 74
q-2 4 -13 15q-10 3 -11 3q-2 0 -15 -3q-20 -15 -29 -28q-23 -40 -30 -61v-3q10 -15 30 -34q10 -12 27 -21l48 -26q34 -17 39 -17q11 0 14 5z" />
    <glyph glyph-name="registered" unicode="&#x646;" horiz-adv-x="718" 
d="M479 541l69 72q14 -12 34 -34q6 -5 35 -38l-68 -67zM161 361l2 -5q-50 -53 -70.5 -92t-20.5 -82q0 -57 37 -84q19 -14 98 -14h424q2 3 5 8q0 1 -1 3t-1 4.5t-6 8.5l-24 52q-12 24 -36 64l-56 75q15 28 24 41q4 10 35 46l9 -14l48 -95q9 -17 34 -77q18 -54 22 -75
q0 -11 2 -33t2 -34v-27q0 -8 -8 -24q-8 -2 -27 -5q-4 -2 -25 -2h-486q-56 0 -94 44q-35 41 -35 110q0 57 39 112q33 48 109 95z" />
    <glyph glyph-name="overscore" unicode="&#xfe5f;" horiz-adv-x="684" 
d="M479 541l69 72q14 -12 34 -34q6 -5 35 -38l-68 -67zM161 361l2 -5q-50 -53 -70.5 -92t-20.5 -82q0 -57 37 -84q19 -14 98 -14h424q2 3 5 8q0 1 -1 3t-1 4.5t-6 8.5l-24 52q-12 24 -36 64l-56 75q15 28 24 41q4 10 35 46l9 -14l48 -95q9 -17 34 -77q18 -54 22 -75
q0 -11 2 -33t2 -34v-27q0 -8 -8 -24q-8 -2 -27 -5q-4 -2 -25 -2h-486q-56 0 -94 44q-35 41 -35 110q0 57 39 112q33 48 109 95z" />
    <glyph glyph-name="degree" unicode="&#xfe60;" horiz-adv-x="388" 
d="M182 538l70 71l31 -30q20 -16 38 -38l-65 -64l-8 -3zM3 84h327l9 3q-14 31 -41 95q-15 23 -27 44l-56 73l56 86q9 -14 28 -46q3 -8 40 -84q21 -44 43 -104q9 -62 9 -98v-22q0 -10 -1.5 -13t-6.5 -11l-34 -7h-346l-3 7v70z" />
    <glyph glyph-name="plusminus" unicode="&#xfe61;" horiz-adv-x="413" 
d="M182 538l70 71l31 -30q20 -16 38 -38l-65 -64l-8 -3zM3 84h327l9 3q-14 31 -41 95q-15 23 -27 44l-56 73l56 86q9 -14 28 -46q3 -8 40 -84q21 -44 43 -104q9 -62 9 -98v-22q0 -10 -1.5 -13t-6.5 -11l-34 -7h-346l-3 7v70z" />
    <glyph glyph-name="twosuperior" unicode="&#x648;" horiz-adv-x="409" 
d="M13 -332q43 18 60.5 28.5t56.5 41.5q17 16 55 50q6 8 41 46.5t75 93.5q20 35 20 69v6l-111 -3q-81 0 -93 12q-5 2 -8.5 6t-10.5 13q-8 13 -11 28q-3 8 -3 27q0 78 49 148t113 83q49 -23 84 -93q37 -74 37 -145v-82q0 -35 -22 -92q-24 -61 -46 -93l-51 -74q-5 -5 -15 -17
q-4 -7 -15 -20q-28 -27 -49 -38q-14 -7 -46 -8q-10 -1 -17 1q-21 1 -44 2l-49 3v7zM307 90v23q0 3 -8 17q-10 32 -29 60q-25 38 -50 38q-11 0 -16 -2q-8 0 -16 -6q-56 -41 -63 -102q0 -9 11 -20l15 -6l10 -5l98 -1l44 3z" />
    <glyph glyph-name="threesuperior" unicode="&#xfe62;" horiz-adv-x="361" 
d="M13 -332q43 18 60.5 28.5t56.5 41.5q17 16 55 50q6 8 41 46.5t75 93.5q20 35 20 69v6l-111 -3q-81 0 -93 12q-5 2 -8.5 6t-10.5 13q-8 13 -11 28q-3 8 -3 27q0 78 49 148t113 83q49 -23 84 -93q37 -74 37 -145v-82q0 -35 -22 -92q-24 -61 -46 -93l-51 -74q-5 -5 -15 -17
q-4 -7 -15 -20q-28 -27 -49 -38q-14 -7 -46 -8q-10 -1 -17 1q-21 1 -44 2l-49 3v7zM307 90v23q0 3 -8 17q-10 32 -29 60q-25 38 -50 38q-11 0 -16 -2q-8 0 -16 -6q-56 -41 -63 -102q0 -9 11 -20l15 -6l10 -5l98 -1l44 3z" />
    <glyph glyph-name="acute" unicode="&#x624;" horiz-adv-x="409" 
d="M13 -332q43 18 60.5 28.5t56.5 41.5q17 16 55 50q6 8 41 46.5t75 93.5q20 35 20 69v6l-111 -3q-81 0 -93 12q-5 2 -8.5 6t-10.5 13q-8 13 -11 28q-3 8 -3 27q0 78 49 148t113 83q49 -23 84 -93q37 -74 37 -145v-82q0 -35 -22 -92q-24 -61 -46 -93l-51 -74q-5 -5 -15 -17
q-4 -7 -15 -20q-28 -27 -49 -38q-14 -7 -46 -8q-10 -1 -17 1q-21 1 -44 2l-49 3v7zM307 90v23q0 3 -8 17q-10 32 -29 60q-25 38 -50 38q-11 0 -16 -2q-8 0 -16 -6q-56 -41 -63 -102q0 -9 11 -20l15 -6l10 -5l98 -1l44 3zM160 493q14 -14 14 -24q0 -9 -5 -14q0 -1 -9 -20
q-27 16 -42 16q-37 0 -56 -52q12 -19 27 -27q5 -3 36 -16q22 13 54 29q20 6 47 9l-16 -49q-53 -13 -88 -30q-21 -11 -63 -51q0 20 4 26q3 11 16 31v5q-24 16 -31.5 28t-7.5 37q0 19 1 24t14 26q21 35 37 43q19 13 41 13h14q2 0 13 -4z" />
    <glyph glyph-name="mu1" unicode="&#xfe63;" horiz-adv-x="361" 
d="M13 -332q43 18 60.5 28.5t56.5 41.5q17 16 55 50q6 8 41 46.5t75 93.5q20 35 20 69v6l-111 -3q-81 0 -93 12q-5 2 -8.5 6t-10.5 13q-8 13 -11 28q-3 8 -3 27q0 78 49 148t113 83q49 -23 84 -93q37 -74 37 -145v-82q0 -35 -22 -92q-24 -61 -46 -93l-51 -74q-5 -5 -15 -17
q-4 -7 -15 -20q-28 -27 -49 -38q-14 -7 -46 -8q-10 -1 -17 1q-21 1 -44 2l-49 3v7zM307 90v23q0 3 -8 17q-10 32 -29 60q-25 38 -50 38q-11 0 -16 -2q-8 0 -16 -6q-56 -41 -63 -102q0 -9 11 -20l15 -6l10 -5l98 -1l44 3zM160 493q14 -14 14 -24q0 -9 -5 -14q0 -1 -9 -20
q-27 16 -42 16q-37 0 -56 -52q12 -19 27 -27q5 -3 36 -16q22 13 54 29q20 6 47 9l-16 -49q-53 -13 -88 -30q-21 -11 -63 -51q0 20 4 26q3 11 16 31v5q-24 16 -31.5 28t-7.5 37q0 19 1 24t14 26q21 35 37 43q19 13 41 13h14q2 0 13 -4z" />
    <glyph glyph-name="paragraph" unicode="&#x647;" horiz-adv-x="409" 
d="M240 339v6l-11 33l67 71l7 -21l24 -105l15 -75l14 -88q3 -19 8 -52q1 -16 3 -43v-30q0 -5 -3 -13q0 -3 -2 -4t-3.5 -2t-4.5 -1.5t-10 -5.5q-2 -1 -21 -6l-30 -3q-57 -6 -102 -7q-55 0 -100 15q-63 22 -63 68q0 41 19.5 79.5t53.5 72.5q20 19 53 49q24 20 86 62zM259 289
l-91 -61q-8 -7 -32 -24q-15 -12 -19 -19q-17 -17 -28.5 -32t-11.5 -20q0 -23 36 -38.5t78 -15.5q40 0 57 2q21 5 64 17q-3 33 -16 76l-32 103z" />
    <glyph glyph-name="middot" unicode="&#xfe64;" horiz-adv-x="364" 
d="M240 339v6l-11 33l67 71l7 -21l24 -105l15 -75l14 -88q3 -19 8 -52q1 -16 3 -43v-30q0 -5 -3 -13q0 -3 -2 -4t-3.5 -2t-4.5 -1.5t-10 -5.5q-2 -1 -21 -6l-30 -3q-57 -6 -102 -7q-55 0 -100 15q-63 22 -63 68q0 41 19.5 79.5t53.5 72.5q20 19 53 49q24 20 86 62zM259 289
l-91 -61q-8 -7 -32 -24q-15 -12 -19 -19q-17 -17 -28.5 -32t-11.5 -20q0 -23 36 -38.5t78 -15.5q40 0 57 2q21 5 64 17q-3 33 -16 76l-32 103z" />
    <glyph glyph-name="cedilla" unicode="&#x629;" horiz-adv-x="400" 
d="M68 580l68 65l68 -72l-71 -65zM224 580l72 65l60 -74q-16 -19 -36 -39q-9 -7 -34 -24zM240 339v6l-11 33l67 71l7 -21l24 -105l15 -75l14 -88q3 -19 8 -52q1 -16 3 -43v-30q0 -5 -3 -13q0 -3 -2 -4t-3.5 -2t-4.5 -1.5t-10 -5.5q-2 -1 -21 -6l-30 -3q-57 -6 -102 -7
q-55 0 -100 15q-63 22 -63 68q0 41 19.5 79.5t53.5 72.5q20 19 53 49q24 20 86 62zM259 289l-91 -61q-8 -7 -32 -24q-15 -12 -19 -19q-17 -17 -28.5 -32t-11.5 -20q0 -23 36 -38.5t78 -15.5q40 0 57 2q21 5 64 17q-3 33 -16 76l-32 103z" />
    <glyph glyph-name="onesuperior" unicode="&#xfe65;" horiz-adv-x="363" 
d="M68 580l68 65l68 -72l-71 -65zM224 580l72 65l60 -74q-16 -19 -36 -39q-9 -7 -34 -24zM240 339v6l-11 33l67 71l7 -21l24 -105l15 -75l14 -88q3 -19 8 -52q1 -16 3 -43v-30q0 -5 -3 -13q0 -3 -2 -4t-3.5 -2t-4.5 -1.5t-10 -5.5q-2 -1 -21 -6l-30 -3q-57 -6 -102 -7
q-55 0 -100 15q-63 22 -63 68q0 41 19.5 79.5t53.5 72.5q20 19 53 49q24 20 86 62zM259 289l-91 -61q-8 -7 -32 -24q-15 -12 -19 -19q-17 -17 -28.5 -32t-11.5 -20q0 -23 36 -38.5t78 -15.5q40 0 57 2q21 5 64 17q-3 33 -16 76l-32 103z" />
    <glyph glyph-name="ordmasculine" unicode="&#x6c0;" horiz-adv-x="409" 
d="M240 339v6l-11 33l67 71l7 -21l24 -105l15 -75l14 -88q3 -19 8 -52q1 -16 3 -43v-30q0 -5 -3 -13q0 -3 -2 -4t-3.5 -2t-4.5 -1.5t-10 -5.5q-2 -1 -21 -6l-30 -3q-57 -6 -102 -7q-55 0 -100 15q-63 22 -63 68q0 41 19.5 79.5t53.5 72.5q20 19 53 49q24 20 86 62zM259 289
l-91 -61q-8 -7 -32 -24q-15 -12 -19 -19q-17 -17 -28.5 -32t-11.5 -20q0 -23 36 -38.5t78 -15.5q40 0 57 2q21 5 64 17q-3 33 -16 76l-32 103zM253 652q-7 11 -24 19q-11 5 -22 7q-29 0 -50 -18q-17 -12 -34 -47q11 -15 40 -40q18 -14 38 -16q3 0 6 3l45 19l37 13q10 5 21 6
q5 0 10.5 1.5t6.5 1.5h12l-21 -63q-53 -12 -80 -24q-7 -2 -50 -22q-14 -7 -34 -21q-5 -4 -40 -34q0 19 8 37q5 11 23 40q-28 21 -39 37q-14 19 -14 39q0 57 41.5 101.5t90.5 44.5q26 0 36 -9.5t14 -27.5q0 5 -3 -21q-2 -1 -18 -26z" />
    <glyph glyph-name="guillemotright" unicode="&#xfe66;" horiz-adv-x="364" 
d="M240 339v6l-11 33l67 71l7 -21l24 -105l15 -75l14 -88q3 -19 8 -52q1 -16 3 -43v-30q0 -5 -3 -13q0 -3 -2 -4t-3.5 -2t-4.5 -1.5t-10 -5.5q-2 -1 -21 -6l-30 -3q-57 -6 -102 -7q-55 0 -100 15q-63 22 -63 68q0 41 19.5 79.5t53.5 72.5q20 19 53 49q24 20 86 62zM259 289
l-91 -61q-8 -7 -32 -24q-15 -12 -19 -19q-17 -17 -28.5 -32t-11.5 -20q0 -23 36 -38.5t78 -15.5q40 0 57 2q21 5 64 17q-3 33 -16 76l-32 103zM234 652q-7 11 -24 19q-11 5 -22 7q-56 0 -82 -65q37 -52 77 -56q2 0 5 3l45 19l38 13q10 5 22 6q3 0 8.5 1.5t6.5 1.5h12
l-21 -63q-49 -11 -79 -24q-11 -4 -44 -19l-7 -3q-14 -7 -34 -21q-5 -4 -39 -34q0 21 9 37q5 15 23 40q-29 20 -41.5 38t-12.5 38q0 57 41 101.5t91 44.5q25 0 35.5 -9.5t13.5 -27.5q0 5 -3 -21q-4 -6 -18 -26z" />
    <glyph glyph-name="onequarter" unicode="&#xfe67;" horiz-adv-x="490" 
d="M469 161q6 -26 10 -65q4 -56 4 -46q0 -24 -12 -38q-8 -12 -30 -12q-58 0 -85 9q-19 6 -146 67q-87 -76 -180 -76h-30v52l3 27q52 0 83.5 7t70.5 28q-36 34 -51.5 60t-15.5 59q0 130 147 216q-12 6 -18 8.5t-19 2.5v4q11 21 28 39q12 13 33 27h3q15 0 22 -6q2 0 17 -18
q3 -2 46 -60q40 -56 60 -93q7 -19 29 -78t31 -114zM255 376q-49 -5 -86 -32q-32 -23 -36 -58q0 -39 57 -86q14 -12 34 -26h9q25 21 38 35q10 12 15 24q2 2 7 17q0 7 3 21q0 29 -13 65q-12 33 -28 40zM345 312q0 -47 -18 -96q-20 -52 -44 -80q62 -32 139 -46q13 10 13 19
q0 19 -10 43q-3 9 -9 30q-17 42 -33 79q-13 22 -38 51z" />
    <glyph glyph-name="onehalf" unicode="&#xfe68;" horiz-adv-x="529" 
d="M469 161q6 -26 10 -65q4 -56 4 -46q0 -24 -12 -38q-8 -12 -30 -12q-58 0 -85 9q-19 6 -146 67q-87 -76 -180 -76h-30v52l3 27q52 0 83.5 7t70.5 28q-36 34 -51.5 60t-15.5 59q0 130 147 216q-12 6 -18 8.5t-19 2.5v4q11 21 28 39q12 13 33 27h3q15 0 22 -6q2 0 17 -18
q3 -2 46 -60q40 -56 60 -93q7 -19 29 -78t31 -114zM255 376q-49 -5 -86 -32q-32 -23 -36 -58q0 -39 57 -86q14 -12 34 -26h9q25 21 38 35q10 12 15 24q2 2 7 17q0 7 3 21q0 29 -13 65q-12 33 -28 40zM345 312q0 -47 -18 -96q-20 -52 -44 -80q62 -32 139 -46q13 10 13 19
q0 19 -10 43q-3 9 -9 30q-17 42 -33 79q-13 22 -38 51z" />
    <glyph glyph-name="threequarters" unicode="&#x6cc;" horiz-adv-x="756" 
d="M122 204h3v-4q-30 -70 -36 -99q-10 -31 -10 -88q0 -78 45 -108q36 -25 119 -25q32 0 67 6q30 7 111 30q20 7 58 22q12 6 27 22v7q-3 7 -32 26q-67 24 -80 32q-45 25 -45 65q0 27 23 67q32 57 91 107q69 57 124 57q52 0 87.5 -88.5t35.5 -215.5v-17h-4l-22 86l-16 39
q-4 8 -27 44q-16 26 -27 41q-19 26 -47 30q-40 0 -86 -28q-42 -26 -67 -60q-5 -5 -11 -16q-3 -3 -3 -18l19 -19q7 -2 27 -12q42 -19 106 -54q32 -23 32 -46q0 -44 -107 -103q-76 -42 -149.5 -66.5t-136.5 -24.5q-161 0 -161 161q0 116 92 250z" />
    <glyph glyph-name="questiondown" unicode="&#xfe69;" horiz-adv-x="708" 
d="M122 204h3v-4q-30 -70 -36 -99q-10 -31 -10 -88q0 -78 45 -108q36 -25 119 -25q32 0 67 6q30 7 111 30q20 7 58 22q12 6 27 22v7q-3 7 -32 26q-67 24 -80 32q-45 25 -45 65q0 27 23 67q32 57 91 107q69 57 124 57q52 0 87.5 -88.5t35.5 -215.5v-17h-4l-22 86l-16 39
q-4 8 -27 44q-16 26 -27 41q-19 26 -47 30q-40 0 -86 -28q-42 -26 -67 -60q-5 -5 -11 -16q-3 -3 -3 -18l19 -19q7 -2 27 -12q42 -19 106 -54q32 -23 32 -46q0 -44 -107 -103q-76 -42 -149.5 -66.5t-136.5 -24.5q-161 0 -161 161q0 116 92 250z" />
    <glyph glyph-name="Agrave" unicode="&#x64a;" horiz-adv-x="760" 
d="M122 204h3v-4q-30 -70 -36 -99q-10 -31 -10 -88q0 -78 45 -108q36 -25 119 -25q32 0 67 6q30 7 111 30q20 7 58 22q12 6 27 22v7q-3 7 -32 26q-67 24 -80 32q-45 25 -45 65q0 27 23 67q32 57 91 107q69 57 124 57q52 0 87.5 -88.5t35.5 -215.5v-17h-4l-22 86l-16 39
q-4 8 -27 44q-16 26 -27 41q-19 26 -47 30q-40 0 -86 -28q-42 -26 -67 -60q-5 -5 -11 -16q-3 -3 -3 -18l19 -19q7 -2 27 -12q42 -19 106 -54q32 -23 32 -46q0 -44 -107 -103q-76 -42 -149.5 -66.5t-136.5 -24.5q-161 0 -161 161q0 116 92 250zM517 -272l67 68l66 -67
q-14 -15 -36 -37q-9 -9 -34 -31zM372 -272l66 65q16 -13 41 -36q11 -10 26 -32l-67 -64z" />
    <glyph glyph-name="Aacute" unicode="&#xfe6a;" horiz-adv-x="708" 
d="M122 204h3v-4q-30 -70 -36 -99q-10 -31 -10 -88q0 -78 45 -108q36 -25 119 -25q32 0 67 6q30 7 111 30q20 7 58 22q12 6 27 22v7q-3 7 -32 26q-67 24 -80 32q-45 25 -45 65q0 27 23 67q32 57 91 107q69 57 124 57q52 0 87.5 -88.5t35.5 -215.5v-17h-4l-22 86l-16 39
q-4 8 -27 44q-16 26 -27 41q-19 26 -47 30q-40 0 -86 -28q-42 -26 -67 -60q-5 -5 -11 -16q-3 -3 -3 -18l19 -19q7 -2 27 -12q42 -19 106 -54q32 -23 32 -46q0 -44 -107 -103q-76 -42 -149.5 -66.5t-136.5 -24.5q-161 0 -161 161q0 116 92 250zM517 -272l67 68l66 -67
q-14 -15 -36 -37q-9 -9 -34 -31zM372 -272l66 65q16 -13 41 -36q11 -10 26 -32l-67 -64z" />
    <glyph glyph-name="Acircumflex" unicode="&#xfe6b;" horiz-adv-x="385" 
d="M0 81l31 3h286l10 5l2 7q0 12 -11 29l-15 38l-31 59l-48 77l48 77l11 7l35 -71l21 -46l33 -88q0 -7 4 -21q3 -8 7 -21q8 -65 8 -83v-22l-5 -18q-13 -9 -25 -11q-8 -2 -29 -2h-319l-13 3v78zM58 -152l65 68q26 -18 32 -27q15 -11 36 -40v-3l-66 -66zM210 -157l71 71
l70 -68q-13 -14 -30 -34q-11 -13 -40 -40z" />
    <glyph glyph-name="Atilde" unicode="&#xfe6c;" horiz-adv-x="428" 
d="M0 81l31 3h286l10 5l2 7q0 12 -11 29l-15 38l-31 59l-48 77l48 77l11 7l35 -71l21 -46l33 -88q0 -7 4 -21q3 -8 7 -21q8 -65 8 -83v-22l-5 -18q-13 -9 -25 -11q-8 -2 -29 -2h-319l-13 3v78zM58 -152l65 68q26 -18 32 -27q15 -11 36 -40v-3l-66 -66zM210 -157l71 71
l70 -68q-13 -14 -30 -34q-11 -13 -40 -40z" />
    <glyph glyph-name="Adieresis" unicode="&#x626;" horiz-adv-x="756" 
d="M122 204h3v-4q-30 -70 -36 -99q-10 -31 -10 -88q0 -78 45 -108q36 -25 119 -25q32 0 67 6q30 7 111 30q20 7 58 22q12 6 27 22v7q-3 7 -32 26q-67 24 -80 32q-45 25 -45 65q0 27 23 67q32 57 91 107q69 57 124 57q52 0 87.5 -88.5t35.5 -215.5v-17h-4l-22 86l-16 39
q-4 8 -27 44q-16 26 -27 41q-19 26 -47 30q-40 0 -86 -28q-42 -26 -67 -60q-5 -5 -11 -16q-3 -3 -3 -18l19 -19q7 -2 27 -12q42 -19 106 -54q32 -23 32 -46q0 -44 -107 -103q-76 -42 -149.5 -66.5t-136.5 -24.5q-161 0 -161 161q0 116 92 250zM228 509q15 -11 15 -22
q0 -13 -13 -35q-11 4 -26 12q-8 5 -17 5q-35 0 -58 -54q16 -19 27 -26q10 -3 39 -15q34 19 47 24q24 10 51 13l-16 -48q-45 -13 -50 -15q-25 -8 -36 -17q-21 -8 -62 -49q0 21 1 25q4 9 19 31v3q-24 16 -33 31q-9 11 -9 36q0 18 2 25.5t16 26.5q13 23 37 41q16 12 40 12
q17 0 26 -4z" />
    <glyph glyph-name="Aring" unicode="&#xfe6d;" horiz-adv-x="708" 
d="M122 204h3v-4q-30 -70 -36 -99q-10 -31 -10 -88q0 -78 45 -108q36 -25 119 -25q32 0 67 6q30 7 111 30q20 7 58 22q12 6 27 22v7q-3 7 -32 26q-67 24 -80 32q-45 25 -45 65q0 27 23 67q32 57 91 107q69 57 124 57q52 0 87.5 -88.5t35.5 -215.5v-17h-4l-22 86l-16 39
q-4 8 -27 44q-16 26 -27 41q-19 26 -47 30q-40 0 -86 -28q-42 -26 -67 -60q-5 -5 -11 -16q-3 -3 -3 -18l19 -19q7 -2 27 -12q42 -19 106 -54q32 -23 32 -46q0 -44 -107 -103q-76 -42 -149.5 -66.5t-136.5 -24.5q-161 0 -161 161q0 116 92 250zM228 509q15 -11 15 -22
q0 -13 -13 -35q-11 4 -26 12q-8 5 -17 5q-35 0 -58 -54q16 -19 27 -26q10 -3 39 -15q34 19 47 24q24 10 51 13l-16 -48q-45 -13 -50 -15q-25 -8 -36 -17q-21 -8 -62 -49q0 21 1 25q4 9 19 31v3q-24 16 -33 31q-9 11 -9 36q0 18 2 25.5t16 26.5q13 23 37 41q16 12 40 12
q17 0 26 -4z" />
    <glyph glyph-name="AE" unicode="&#xfe6e;" horiz-adv-x="386" 
d="M272 541q-10 13 -24 19q-8 3 -22 8q-28 0 -50 -19q-19 -12 -34 -47q21 -27 41 -41t37 -15q2 0 6 3l45 19l36 13q7 2 22 6q4 0 9.5 1.5t6.5 1.5h11l-19 -62q-53 -14 -81 -25q-10 -4 -49 -21q-2 -1 -35 -21q-10 -10 -39 -35q0 32 31 77q-24 16 -41 37q-12 20 -12 39
q0 58 41.5 102t90.5 44q25 0 34 -9q12 -12 16 -29q0 4 -4 -19zM3 84h312l11 11l-5 27q-3 22 -16 44q-1 2 -52 89v4l67 70q23 -51 50 -141q21 -71 21 -109v-46q0 -10 -5 -14q-1 -7 -19 -16q-33 -3 -41 -3h-319l-7 3v65q0 -4 3 16z" />
    <glyph glyph-name="Ccedilla" unicode="&#xfe6f;" horiz-adv-x="422" 
d="M272 541q-10 13 -24 19q-8 3 -22 8q-28 0 -50 -19q-19 -12 -34 -47q21 -27 41 -41t37 -15q2 0 6 3l45 19l36 13q7 2 22 6q4 0 9.5 1.5t6.5 1.5h11l-19 -62q-53 -14 -81 -25q-10 -4 -49 -21q-2 -1 -35 -21q-10 -10 -39 -35q0 32 31 77q-24 16 -41 37q-12 20 -12 39
q0 58 41.5 102t90.5 44q25 0 34 -9q12 -12 16 -29q0 4 -4 -19zM3 84h312l11 11l-5 27q-3 22 -16 44q-1 2 -52 89v4l67 70q23 -51 50 -141q21 -71 21 -109v-46q0 -10 -5 -14q-1 -7 -19 -16q-33 -3 -41 -3h-319l-7 3v65q0 -4 3 16z" />
    <glyph glyph-name="Ograve" unicode="&#x64e;" 
d="M219 898l-209 -109v44l209 111v-46z" />
    <glyph glyph-name="Ocircumflex" unicode="&#x650;" 
d="M218 -432l-208 -110v45l208 111v-46z" />
    <glyph glyph-name="Odieresis" unicode="&#x64f;" 
d="M230 915q7 -26 -8 -46q-19 3 -51 13q-83 -74 -157 -92l-10 30q95 37 134 84q-30 26 -31 56q-1 20 27 55t49 35q44 0 44 -47q0 -48 -28 -77q8 -6 31 -11zM197 983q0 18 -5.5 21t-23.5 3q-12 0 -18 -14q-7 -9 -7 -23q0 -11 10 -22t20 -13q7 0 15 16q9 24 9 32z" />
    <glyph glyph-name="multiply" unicode="&#xfe73;" 
d="M307 678q7 -26 -8 -46q-19 3 -51 13q-83 -74 -157 -92l-10 30q95 37 134 84q-30 26 -31 56q-1 20 27 55t49 35q44 0 44 -47q0 -48 -28 -77q8 -6 31 -11zM274 746q0 18 -5.5 21t-23.5 3q-12 0 -18 -14q-7 -9 -7 -23q0 -11 10 -22t20 -13q7 0 15 16q9 24 9 32z" />
    <glyph glyph-name="Oslash" unicode="&#x64b;" 
d="M219 898l-209 -109v44l209 111v-46zM219 1001l-209 -112v47l209 111v-46z" />
    <glyph glyph-name="Uacute" unicode="&#x64d;" 
d="M219 -541l-209 -109v44l209 111v-46zM219 -432l-209 -110v45l209 111v-46z" />
    <glyph glyph-name="Ucircumflex" unicode="&#xfe75;" 
d="M296 -266l-209 -109v44l209 111v-46zM296 -157l-209 -110v45l209 111v-46z" />
    <glyph glyph-name="Udieresis" unicode="&#x64c;" 
d="M230 915q7 -26 -8 -46q-19 3 -51 13q-83 -74 -157 -92l-10 30l43 27q12 34 -4 42q-14 8 -37 -6l-9 15q25 30 59 33q25 0 25 -36q0 -18 -11 -42q51 28 68 51q-30 26 -31 56q-1 20 27 55t49 35q44 0 44 -47q0 -45 -28 -77q6 -4 31 -11zM197 983q0 18 -5.5 21t-23.5 3
q-12 0 -18 -14q-7 -9 -7 -23q0 -11 10 -22t20 -13q7 0 15 16q9 24 9 32z" />
    <glyph glyph-name="Thorn" unicode="&#x651;" 
d="M220 891q-12 -49 -49 -49q-22 0 -31 8q-5 5 -16 17q-27 -70 -77 -70q-20 0 -30 25q-8 19 -8 42q0 33 4 46q7 23 32 27q-3 -22 -3 -37q0 -35 17 -35q29 0 39 40q2 16 7 52q7 3 27 11q3 -31 6 -40q6 -22 23 -22q30 0 34 88l20 10q18 -63 5 -113z" />
    <glyph glyph-name="igrave" unicode="&#x6e4;" 
d="M260 874q-24 -68 -65 -69q-30 -1 -86.5 11t-83.5 12q-14 0 -33 -17q-15 -13 -21 -15q-3 0 0 14q7 29 29 49t52 21q8 0 61 -14q37 -9 71 -10q45 0 69 30v0q2 2 7 2q0 1 3 0q0 -4 -3 -14z" />
    <glyph glyph-name="icircumflex" unicode="&#x652;" 
d="M190 872q0 -77 -79 -77q-68 0 -68 58q0 27 19 73q21 53 43 53q38 0 63 -33q22 -29 22 -74zM167 866q0 21 -15 36q-18 16 -47 16q-9 0 -19 -21t-10 -32q0 -17 37 -23q54 0 54 24z" />
    <glyph glyph-name="eth" unicode="&#x674;" 
d="M133 1065l12 -12q6 -11 6 -12q0 -10 -18 -33q-8 5 -22 11q-20 4 -19 4q-39 0 -59 -52q13 -16 26 -25q4 -2 17 -7t23 -9q35 19 55 27q9 5 46 11l-15 -49q-60 -16 -89 -31q-21 -10 -65 -52q1 11 6 30q5 11 16 28v3q-26 19 -32 30q-9 17 -9 37q0 22 16 50q14 25 37 43
q16 12 41 12h11q-7 0 16 -4zM17 796l8 2z" />
    <glyph glyph-name="ograve" unicode="&#x670;" 
d="M113 867q0 -70 -24 -72q0 50 -11 102q-4 24 -10 51q0 13 43 33q2 -11 2 -114z" />
    <glyph glyph-name="ocircumflex" unicode="&#xf4;" 
d="M178 874q34 30 55 30q29 0 29 -22q0 -20 -36 -20q-10 0 -24 3zM154 884l-23 11q-18 7 -34 7q-28 0 -45 -11q-11 -6 -38 -32l3 -15q25 19 70 19q14 0 24 -3l16 -8l-24 -30l7 -25l21 23l20 24l44 -14q25 -5 43 -5q25 0 44 9q38 21 38 51q0 24 -23.5 43.5t-51.5 19.5
q-14 0 -21 -4q-11 -3 -19 -11q-35 -30 -51 -49z" />
    <glyph glyph-name="otilde" unicode="&#xf5;" 
d="M255 637q34 30 55 30q29 0 29 -22q0 -20 -36 -20q-10 0 -24 3zM231 647l-23 11q-18 7 -34 7q-28 0 -45 -11q-11 -6 -38 -32l3 -15q25 19 70 19q14 0 24 -3l16 -8l-24 -30l7 -25l21 23l20 24l44 -14q25 -5 43 -5q25 0 44 9q38 21 38 51q0 24 -23.5 43.5t-51.5 19.5
q-14 0 -21 -4q-11 -3 -19 -11q-35 -30 -51 -49z" />
    </font>
</defs>
</svg>
