<?xml version="1.0" encoding="iso-8859-1"?>
<!-- Generator: Adobe Illustrator 19.0.0, SVG Export Plug-In . SVG Version: 6.00 Build 0)  -->
<svg version="1.1" id="Layer_1" xmlns="http://www.w3.org/2000/svg" xmlns:xlink="http://www.w3.org/1999/xlink" x="0px" y="0px"
	 viewBox="0 0 511.98 511.98" style="enable-background:new 0 0 511.98 511.98;" xml:space="preserve">
<path style="fill:#656D78;" d="M96.008,0c-23.53,0-42.67,19.14-42.67,42.67v383.969c0,5.906,4.766,10.688,10.671,10.688h53.326V0
	H96.008z"/>
<path style="fill:#E6E9ED;" d="M96.008,394.64c-17.687,0-31.999,14.343-31.999,31.999c0,17.687,14.312,31.998,31.999,31.998h351.979
	V394.64H96.008z"/>
<path style="fill:#ED5564;" d="M458.642,10.672C458.642,4.781,453.861,0,447.986,0H117.335v21.335l0,0v362.65l0,0v21.342h119.261
	h211.39c5.875,0,10.656-4.78,10.656-10.687l0,0V10.672L458.642,10.672z"/>
<g>
	<path style="fill:#CCD1D9;" d="M192.004,437.327h-85.341c-5.875,0-10.656-4.781-10.656-10.688c0-5.875,4.781-10.656,10.656-10.656
		h85.341c5.89,0,10.655,4.781,10.655,10.656C202.659,432.546,197.894,437.327,192.004,437.327z"/>
	<path style="fill:#CCD1D9;" d="M362.646,415.983c-5.875,0-10.655,4.781-10.655,10.656c0,5.906,4.78,10.688,10.655,10.688h85.34
		v-21.344H362.646z"/>
</g>
<g>
	<path style="fill:#434A54;" d="M64.009,85.332c5.891,0,10.656-4.773,10.656-10.663S69.9,63.998,64.009,63.998H53.338v21.334H64.009
		z"/>
	<path style="fill:#434A54;" d="M64.009,149.33c5.891,0,10.656-4.773,10.656-10.664s-4.766-10.671-10.656-10.671H53.338v21.335
		H64.009z"/>
	<path style="fill:#434A54;" d="M64.009,213.327c5.891,0,10.656-4.773,10.656-10.664s-4.766-10.671-10.656-10.671H53.338v21.335
		H64.009z"/>
	<path style="fill:#434A54;" d="M64.009,277.333c5.891,0,10.656-4.781,10.656-10.679c0-5.891-4.766-10.672-10.656-10.672H53.338
		v21.351L64.009,277.333L64.009,277.333z"/>
	<path style="fill:#434A54;" d="M64.009,341.331c5.891,0,10.656-4.781,10.656-10.688c0-5.874-4.766-10.655-10.656-10.655H53.338
		v21.343H64.009z"/>
</g>
<path style="fill:#ED5564;" d="M458.642,458.637c0-5.874-4.781-10.655-10.656-10.655h-211.39H117.335v21.343h330.651
	C453.861,469.325,458.642,464.544,458.642,458.637z"/>
<path style="fill:#656D78;" d="M117.335,447.982H96.008c-11.765,0-21.342-9.562-21.342-21.343c0-11.75,9.578-21.312,21.342-21.312
	h21.328v-21.342H96.008c-23.53,0-42.67,19.123-42.67,42.654c0,23.53,19.14,42.686,42.67,42.686h21.328L117.335,447.982
	L117.335,447.982z"/>
<path style="fill:#FFCE54;" d="M181.333,426.639h-10.671h-42.655h-10.671h-10.672v74.685c0,3.406,1.656,6.625,4.438,8.656
	c2.781,2,6.359,2.53,9.609,1.438l28.624-9.531l28.624,9.531c1.109,0.375,2.234,0.562,3.375,0.562c2.203,0,4.391-0.688,6.234-2
	c2.781-2.031,4.437-5.25,4.437-8.656v-74.685H181.333z"/>
<path style="fill:#F6BB42;" d="M277.337,298.676c-5.898,0-10.68-4.781-10.68-10.687V96.004c0-5.891,4.781-10.664,10.68-10.664
	c5.875,0,10.656,4.773,10.656,10.664v191.985C287.993,293.894,283.212,298.676,277.337,298.676z"/>
<path style="fill:#434A54;" d="M341.335,298.676H213.331c-5.891,0-10.656-4.781-10.656-10.687c0-5.875,4.766-10.656,10.656-10.656
	h128.003c5.875,0,10.656,4.781,10.656,10.656C351.991,293.894,347.21,298.676,341.335,298.676z"/>
<g>
	<path style="fill:#E6E9ED;" d="M212.784,113.964c-0.016-0.07-0.047-0.133-0.078-0.203c-0.062-0.188-0.141-0.367-0.219-0.547
		c-0.062-0.156-0.125-0.305-0.203-0.461c-0.062-0.148-0.141-0.297-0.219-0.445c-0.094-0.172-0.188-0.336-0.281-0.492
		c-0.078-0.125-0.156-0.258-0.25-0.383c-0.109-0.164-0.219-0.32-0.328-0.477c-0.094-0.125-0.188-0.242-0.281-0.359
		c-0.125-0.148-0.25-0.289-0.375-0.43c-0.109-0.125-0.219-0.242-0.344-0.359c-0.125-0.125-0.234-0.242-0.375-0.359
		c-0.125-0.125-0.266-0.242-0.422-0.359c-0.109-0.094-0.234-0.195-0.359-0.289c-0.156-0.117-0.312-0.219-0.469-0.328
		c-0.125-0.086-0.266-0.172-0.391-0.25c-0.156-0.094-0.312-0.188-0.484-0.273c-0.156-0.078-0.297-0.156-0.453-0.234
		c-0.156-0.07-0.297-0.133-0.453-0.195c-0.188-0.078-0.375-0.156-0.562-0.219c-0.062-0.023-0.125-0.055-0.203-0.078
		c-0.062-0.023-0.141-0.039-0.219-0.062c-0.188-0.062-0.391-0.117-0.594-0.164c-0.141-0.039-0.297-0.07-0.438-0.102
		c-0.203-0.039-0.391-0.07-0.578-0.102c-0.156-0.023-0.328-0.047-0.484-0.062c-0.172-0.016-0.359-0.023-0.531-0.039
		c-0.172-0.008-0.359-0.016-0.531-0.016c-0.156,0-0.328,0.008-0.484,0.016c-0.203,0.008-0.39,0.023-0.578,0.039
		c-0.156,0.016-0.297,0.039-0.453,0.062c-0.203,0.031-0.406,0.062-0.594,0.102c-0.141,0.031-0.281,0.062-0.422,0.094
		c-0.203,0.055-0.422,0.109-0.625,0.172c-0.062,0.023-0.141,0.039-0.203,0.062c-0.078,0.023-0.125,0.047-0.203,0.07
		c-0.188,0.07-0.375,0.148-0.578,0.227c-0.141,0.062-0.281,0.125-0.422,0.195c-0.172,0.078-0.328,0.156-0.484,0.242
		s-0.312,0.172-0.453,0.258s-0.281,0.172-0.406,0.266c-0.156,0.102-0.312,0.203-0.469,0.32c-0.125,0.094-0.25,0.195-0.375,0.297
		c-0.141,0.117-0.281,0.227-0.406,0.352c-0.141,0.117-0.25,0.242-0.375,0.367c-0.125,0.109-0.234,0.227-0.344,0.352
		c-0.125,0.141-0.25,0.289-0.375,0.438c-0.094,0.109-0.188,0.227-0.281,0.344c-0.109,0.164-0.219,0.328-0.328,0.492
		c-0.093,0.125-0.171,0.25-0.25,0.375c-0.094,0.156-0.188,0.328-0.281,0.492c-0.078,0.148-0.156,0.297-0.219,0.445
		c-0.078,0.156-0.141,0.305-0.203,0.461c-0.078,0.18-0.156,0.359-0.219,0.547c-0.031,0.07-0.062,0.133-0.078,0.203l-31.999,95.996
		c-1.859,5.594,1.156,11.632,6.75,13.492c1.109,0.375,2.25,0.555,3.375,0.555c4.453,0,8.625-2.828,10.109-7.297l21.889-65.637
		l21.875,65.637c1.484,4.469,5.656,7.297,10.109,7.297c1.125,0,2.266-0.18,3.375-0.555c5.594-1.859,8.609-7.898,6.75-13.492
		L212.784,113.964z"/>
	<path style="fill:#E6E9ED;" d="M394.113,209.96l-31.998-95.996c-0.031-0.07-0.062-0.133-0.094-0.203
		c-0.062-0.188-0.125-0.367-0.188-0.547c-0.062-0.156-0.156-0.305-0.219-0.461c-0.062-0.148-0.156-0.297-0.219-0.453
		c-0.094-0.164-0.188-0.328-0.281-0.484c-0.094-0.125-0.156-0.258-0.25-0.383c-0.094-0.164-0.219-0.32-0.344-0.477
		c-0.094-0.125-0.188-0.242-0.281-0.359c-0.125-0.148-0.219-0.289-0.344-0.43c-0.125-0.125-0.25-0.242-0.375-0.359
		c-0.094-0.125-0.219-0.242-0.344-0.359c-0.156-0.125-0.281-0.242-0.438-0.359c-0.125-0.094-0.25-0.195-0.375-0.289
		c-0.125-0.117-0.312-0.219-0.469-0.328c-0.125-0.086-0.25-0.172-0.375-0.25c-0.156-0.094-0.312-0.188-0.5-0.273
		c-0.125-0.078-0.281-0.156-0.438-0.234c-0.156-0.07-0.312-0.133-0.469-0.195c-0.188-0.078-0.344-0.156-0.531-0.219
		c-0.094-0.023-0.156-0.055-0.219-0.078s-0.155-0.039-0.218-0.062c-0.188-0.062-0.406-0.117-0.594-0.164
		c-0.156-0.039-0.312-0.07-0.438-0.102c-0.188-0.039-0.375-0.07-0.594-0.102c-0.156-0.023-0.312-0.047-0.469-0.062
		c-0.188-0.016-0.375-0.023-0.531-0.039c-0.188-0.008-0.344-0.016-0.531-0.016c-0.156,0-0.344,0.008-0.5,0.016
		c-0.188,0.008-0.375,0.023-0.562,0.039c-0.156,0.016-0.312,0.039-0.469,0.062c-0.188,0.031-0.375,0.062-0.594,0.102
		c-0.125,0.031-0.281,0.062-0.406,0.094c-0.219,0.055-0.406,0.109-0.625,0.172c-0.062,0.023-0.125,0.039-0.219,0.062
		c-0.062,0.023-0.125,0.055-0.188,0.078c-0.188,0.062-0.375,0.141-0.562,0.219c-0.156,0.062-0.312,0.125-0.438,0.195
		c-0.156,0.078-0.312,0.156-0.469,0.242s-0.312,0.172-0.469,0.266c-0.156,0.078-0.281,0.164-0.406,0.25
		c-0.156,0.109-0.312,0.211-0.469,0.328c-0.125,0.094-0.25,0.195-0.375,0.297c-0.125,0.109-0.281,0.227-0.406,0.352
		c-0.125,0.117-0.25,0.234-0.375,0.359c-0.125,0.117-0.25,0.234-0.344,0.359c-0.125,0.141-0.25,0.281-0.375,0.43
		c-0.094,0.117-0.188,0.234-0.281,0.359c-0.125,0.156-0.219,0.312-0.344,0.477c-0.062,0.125-0.156,0.258-0.25,0.383
		c-0.094,0.156-0.188,0.32-0.25,0.484c-0.094,0.156-0.156,0.305-0.25,0.453c-0.062,0.156-0.125,0.305-0.188,0.461
		c-0.094,0.18-0.156,0.359-0.219,0.547c-0.031,0.07-0.062,0.133-0.094,0.203l-31.999,95.996c-1.844,5.594,1.156,11.632,6.749,13.492
		c1.125,0.375,2.25,0.555,3.375,0.555c4.469,0,8.625-2.828,10.125-7.297l21.875-65.637l21.873,65.637
		c1.499,4.469,5.655,7.297,10.124,7.297c1.125,0,2.25-0.18,3.375-0.555C392.957,221.593,395.988,215.554,394.113,209.96z"/>
</g>
<g>
	<path style="fill:#FFCE54;" d="M351.991,128.003H202.675c-5.906,0-10.671-4.773-10.671-10.664s4.765-10.664,10.671-10.664h149.316
		c5.905,0,10.655,4.773,10.655,10.664S357.896,128.003,351.991,128.003z"/>
	<path style="fill:#FFCE54;" d="M202.675,255.998c-23.53,0-42.669-19.14-42.669-42.663h85.324
		C245.33,236.858,226.19,255.998,202.675,255.998z"/>
	<path style="fill:#FFCE54;" d="M351.991,255.998c-23.531,0-42.655-19.14-42.655-42.663h85.309
		C394.644,236.858,375.519,255.998,351.991,255.998z"/>
</g>
<g>
</g>
<g>
</g>
<g>
</g>
<g>
</g>
<g>
</g>
<g>
</g>
<g>
</g>
<g>
</g>
<g>
</g>
<g>
</g>
<g>
</g>
<g>
</g>
<g>
</g>
<g>
</g>
<g>
</g>
</svg>
