<?xml version="1.0" encoding="iso-8859-1"?>
<!-- Generator: Adobe Illustrator 19.0.0, SVG Export Plug-In . SVG Version: 6.00 Build 0)  -->
<svg version="1.1" id="Layer_1" xmlns="http://www.w3.org/2000/svg" xmlns:xlink="http://www.w3.org/1999/xlink" x="0px" y="0px"
	 viewBox="0 0 512 512" style="enable-background:new 0 0 512 512;" xml:space="preserve">
<circle style="fill:#EAEAED;" cx="256" cy="256" r="256"/>
<path style="fill:#D9D9DD;" d="M510.287,285.503c-13.426,117.098-105.855,210.137-222.647,224.549L107.967,330.38l82.759-17.815
	l122.426-118.952l12.51-92.735L510.287,285.503z"/>
<path style="fill:#FFD0A1;" d="M358.78,340.097l-98.109,0.563c-21.148,0.117-39.807-11.266-50.252-28.095h-45.511v-90.786H208.4
	c9.811-18.824,29.245-26.429,42.389-35.981l17.791-12.933l26.241-45.112c6.76-38.188,23.19-34.526,30.841-26.874l0,0
	c15.233,15.233-3.075,84.801-12.51,92.735c21.992,0,43.516,1.502,65.132,1.549h1.009h1.033c9.975,0,18.12,8.145,18.12,18.096v0.023
	c0,9.952-6.901,18.096-16.876,18.096h4.342c9.952,0,18.12,8.168,18.12,18.12l0,0c0,9.975-8.168,18.12-18.12,18.12h-7.393
	c9.975,0,16.031,8.168,16.031,18.12l0,0c0,9.952-8.145,18.12-18.096,18.12h-5.68c9.952,0,12.44,8.145,12.44,18.12l0,0
	c0,9.952-8.145,18.12-18.12,18.12H358.78z"/>
<g>
	<path style="fill:#FCB883;" d="M403.54,245.391c0.329,1.314,0.493,2.699,0.493,4.107l0,0c0,19.458-19.927,18.167-24.41,18.167
		l-1.103-8.285h7.393C394.456,259.38,401.686,253.395,403.54,245.391z"/>
	<path style="fill:#FCB883;" d="M314.302,192.393c-2.863,0.634-5.492,1.197-6.243,1.197c6.478-5.445,18.707-63.677,19.833-89.707
		C338.431,122.801,323.409,181.01,314.302,192.393z"/>
	<path style="fill:#FCB883;" d="M358.78,340.097l-98.109,0.563c-21.148,0.117-39.807-11.266-50.252-28.095h-45.511v-8.238h45.511
		c10.445,16.829,29.104,28.212,50.252,28.095l98.109-0.563h6.314c8.919,0,16.359-6.525,17.838-15.022
		c0.188,1.62,0.282,3.356,0.282,5.14l0,0c0,9.952-8.145,18.12-18.12,18.12H358.78z"/>
</g>
<polygon style="fill:#68606E;" points="190.727,259.38 190.727,330.38 107.967,330.38 107.967,259.38 107.967,259.38 
	107.967,188.38 190.727,188.38 "/>
<g>
	<path style="fill:#FCB883;" d="M385.185,231.379c-1.549,0.047-2.817,0-3.615,0H385.185z M381.571,231.379l-1.08-8.262h7.37
		c3.38,0,6.525-0.939,9.248-2.558C394.644,226.919,388.941,231.379,381.571,231.379z"/>
	<path style="fill:#FCB883;" d="M379.998,303.506c-1.62,0.211-3.169,0.305-4.506,0.352h-3.591l-1.103-8.262h7.393
		c7.182,0,13.449-4.272,16.359-10.398c0,0.188,0,0.352,0,0.54l0,0C394.55,294.493,388.26,301.839,379.998,303.506z"/>
</g>
<g>
</g>
<g>
</g>
<g>
</g>
<g>
</g>
<g>
</g>
<g>
</g>
<g>
</g>
<g>
</g>
<g>
</g>
<g>
</g>
<g>
</g>
<g>
</g>
<g>
</g>
<g>
</g>
<g>
</g>
</svg>
