<?xml version="1.0" encoding="iso-8859-1"?>
<!-- Generator: Adobe Illustrator 19.0.0, SVG Export Plug-In . SVG Version: 6.00 Build 0)  -->
<svg version="1.1" id="Layer_1" xmlns="http://www.w3.org/2000/svg" xmlns:xlink="http://www.w3.org/1999/xlink" x="0px" y="0px"
	 viewBox="0 0 505 505" style="enable-background:new 0 0 505 505;" xml:space="preserve">
<circle style="fill:#90DFAA;" cx="252.5" cy="252.5" r="252.5"/>
<polygon style="fill:#FFFFFF;" points="325.6,86.1 325.6,139.7 379.1,139.7 379.1,418.9 125.9,418.9 125.9,86.1 "/>
<polygon style="fill:#E6E9EE;" points="325.6,86.1 379.1,139.7 325.6,139.7 "/>
<path style="fill:#54C0EB;" d="M248,169.9c0,25.7-20.8,46.5-46.5,46.5S155,195.6,155,169.9s20.8-46.5,46.5-46.5v46.5H248z"/>
<path style="fill:#84DBFF;" d="M258.5,159.4H212v-46.5C237.7,112.9,258.5,133.7,258.5,159.4z"/>
<g>
	<rect x="230.9" y="286.3" style="fill:#E6E9EE;" width="116" height="11.3"/>
	<rect x="230.9" y="310.1" style="fill:#E6E9EE;" width="88.1" height="11.3"/>
</g>
<polygon style="fill:#FF7058;" points="173.1,321.5 155.1,303.4 161.7,296.7 173.1,308.2 201.7,279.6 208.3,286.3 "/>
<g>
	<rect x="230.9" y="353" style="fill:#E6E9EE;" width="116" height="11.3"/>
	<rect x="230.9" y="376.8" style="fill:#E6E9EE;" width="88.1" height="11.3"/>
</g>
<polygon style="fill:#FF7058;" points="173.1,388.2 155.1,370.1 161.7,363.5 173.1,374.9 201.7,346.3 208.3,353 "/>
<rect x="270.7" y="200.1" style="fill:#84DBFF;" width="15.1" height="31"/>
<rect x="301.3" y="162.7" style="fill:#E6E9EE;" width="15.1" height="68.4"/>
<rect x="331.8" y="183.3" style="fill:#84DBFF;" width="15.1" height="47.8"/>
<g>
</g>
<g>
</g>
<g>
</g>
<g>
</g>
<g>
</g>
<g>
</g>
<g>
</g>
<g>
</g>
<g>
</g>
<g>
</g>
<g>
</g>
<g>
</g>
<g>
</g>
<g>
</g>
<g>
</g>
</svg>
