<svg height="512pt" viewBox="-80 0 512 512" width="512pt" xmlns="http://www.w3.org/2000/svg"><path d="m208.507812 7.015625h96.234376v96.238281h-96.234376zm0 0" fill="#8ca4b8"/><path d="m208.507812 7.015625h96.234376v32.078125h-96.234376zm0 0" fill="#506573"/><path d="m192.46875 103.253906h128.3125v32.078125h-128.3125zm0 0" fill="#00a17b"/><path d="m233.070312 63.152344h15.035157v16.039062h-15.035157zm0 0" fill="#fff"/><path d="m265.148438 63.152344h15.035156v16.039062h-15.035156zm0 0" fill="#fff"/><path d="m168.410156 135.332031h176.433594v280.683594c0 48.71875-39.496094 88.214844-88.21875 88.214844-48.71875 0-88.214844-39.496094-88.214844-88.214844zm0 0" fill="#76f5d7"/><path d="m192.46875 135.332031v341.210938c-14.914062-15.789063-24.058594-37.089844-24.058594-60.527344v-280.683594zm0 0" fill="#00a17b"/><path d="m8.019531 480.171875v-128.3125h248.605469c35.433594 0 64.15625 28.722656 64.15625 64.15625s-28.722656 64.15625-64.15625 64.15625zm0 0" fill="#feee72"/><path d="m8.019531 351.859375h24.058594v128.3125h-24.058594zm0 0" fill="#eaa017"/><g fill="#fff"><path d="m96.234375 408.496094h16.039063v15.039062h-16.039063zm0 0"/><path d="m128.3125 408.496094h16.039062v15.039062h-16.039062zm0 0"/><path d="m160.390625 408.496094h16.039063v15.039062h-16.039063zm0 0"/></g><path d="m288.703125 416.015625c0 17.714844-14.359375 32.078125-32.078125 32.078125-17.714844 0-32.078125-14.363281-32.078125-32.078125s14.363281-32.078125 32.078125-32.078125c17.71875 0 32.078125 14.363281 32.078125 32.078125zm0 0" fill="#eaa017"/><path d="m216.527344 223.546875v27.171875l32.078125 32.078125v12.925781h15.039062v-28.964844l32.078125-32.078124v-27.171876h-15.039062v20.945313l-17.039063 17.039063v-46.003907h-15.039062v62.042969l-17.039063-17.039062v-20.945313zm0 0"/><path d="m327.800781 128.3125v-32.078125h-16.039062v-96.234375h-111.273438v96.234375h-16.039062v32.078125h-24.058594v199.488281h15.039063v-184.449219h161.394531v272.664063c0 44.496094-35.953125 80.949219-80.449219 80.949219-13.078125 0-25.5-3.761719-36.855469-8.773438h37.105469c39.523438 0 71.675781-32.152344 71.675781-71.675781 0-39.519531-32.152343-71.671875-71.675781-71.671875h-256.625v143.347656h193.195312c17.523438 15.039063 39.667969 23.808594 63.179688 23.808594 52.789062 0 95.484375-43.195312 95.484375-95.984375v-287.703125zm-112.273437-113.277344h81.195312v17.042969h-81.195312zm0 32.078125h81.195312v49.121094h-81.195312zm97.234375 81.199219h-113.273438v-17.039062h113.273438zm-297.726563 344.84375v-113.277344h241.589844c31.230469 0 56.640625 25.40625 56.640625 56.636719s-25.410156 56.640625-56.640625 56.640625zm0 0"/><path d="m296.222656 416.015625c0-21.832031-17.761718-39.597656-39.597656-39.597656-21.832031 0-39.59375 17.765625-39.59375 39.597656s17.761719 39.597656 39.59375 39.597656c21.835938 0 39.597656-17.765625 39.597656-39.597656zm-64.15625 0c0-13.542969 11.015625-24.558594 24.558594-24.558594s24.5625 11.015625 24.5625 24.558594-11.019531 24.558594-24.5625 24.558594-24.558594-11.015625-24.558594-24.558594zm0 0"/></svg>