<?xml version="1.0" encoding="UTF-8"?>
<!DOCTYPE svg PUBLIC "-//W3C//DTD SVG 1.1//EN" "http://www.w3.org/Graphics/SVG/1.1/DTD/svg11.dtd">
<!-- Creator: CorelDRAW X7 -->
<svg xmlns="http://www.w3.org/2000/svg" xml:space="preserve" width="22.1883cm" height="30.8205cm" version="1.1" style="shape-rendering:geometricPrecision; text-rendering:geometricPrecision; image-rendering:optimizeQuality; fill-rule:evenodd; clip-rule:evenodd"
viewBox="0 0 7386 10259"
 xmlns:xlink="http://www.w3.org/1999/xlink">
 <defs>
  <style type="text/css">
   <![CDATA[
    .str0 {stroke:black;stroke-width:5.87197;stroke-linecap:square}
    .fil0 {fill:none}
   ]]>
  </style>
 </defs>
 <g id="__x0023_Layer_x0020_1">
  <metadata id="CorelCorpID_0Corel-Layer"/>
  <g id="_657926160">
   <line class="fil0 str0" x1="3191" y1="559" x2="3200" y2= "410" />
   <line class="fil0 str0" x1="3420" y1="577" x2="3429" y2= "471" />
   <line class="fil0 str0" x1="3605" y1="630" x2="3614" y2= "515" />
   <path class="fil0 str0" d="M2557 2981c0,-85 5,-74 -26,-149"/>
   <line class="fil0 str0" x1="1703" y1="2981" x2="1703" y2= "2937" />
   <line class="fil0 str0" x1="1571" y1="3061" x2="1562" y2= "3034" />
   <line class="fil0 str0" x1="1412" y1="3219" x2="1412" y2= "3184" />
   <line class="fil0 str0" x1="1298" y1="3334" x2="1289" y2= "3307" />
   <line class="fil0 str0" x1="2090" y1="6214" x2="2328" y2= "6099" />
   <line class="fil0 str0" x1="1897" y1="6310" x2="2020" y2= "6249" />
   <line class="fil0 str0" x1="760" y1="6310" x2="558" y2= "6310" />
   <line class="fil0 str0" x1="1254" y1="6328" x2="1130" y2= "6328" />
   <line class="fil0 str0" x1="681" y1="6434" x2="672" y2= "6434" />
   <line class="fil0 str0" x1="954" y1="6434" x2="734" y2= "6434" />
   <line class="fil0 str0" x1="6247" y1="6451" x2="6230" y2= "6451" />
   <line class="fil0 str0" x1="6424" y1="7447" x2="6415" y2= "7447" />
   <line class="fil0 str0" x1="6335" y1="7464" x2="6371" y2= "7455" />
   <line class="fil0 str0" x1="6036" y1="7526" x2="6247" y2= "7482" />
   <path class="fil0 str0" d="M4697 8891l-141 18m168 -27l-27 9m1797 -3849c-26,10 -19,17 -9,-9m-6288 5223l-80 0 -96 0m387 -9l352 -1c46,10 76,-7 132,-7m379 0l-61 -9m114 0c111,0 275,19 370,-18m3179 -26l185 -8 696 -10m828 -9l-255 9m-229 9l-97 -9m-1788 27l-344 0 -97 -27m-2835 71l273 -9 10 -106 14 -88 18 -88 19 -132m2510 44l0 123 -9 185c-78,58 -379,27 -493,27l-79 3 -555 6 -555 9 -396 -1 0 -88 11 -70 8 -150 9 -88c-49,-27 -85,-18 -143,-18m3805 317l-10 -211c16,-46 19,-130 1,-176m-237 -9l-423 9m-3488 -203l-26 88 -12 159c58,21 46,-14 82,44l97 11 132 -13 79 -16 0 -114 11 -88c14,-48 15,-33 -19,-71l-124 -9m458 529l0 -115 10 -317 17 -246m1418 -36l0 133c38,21 97,8 149,8 79,13 42,201 34,291l-6 88c129,27 105,17 254,9l11 -70c48,-146 580,-8 720,-62l203 0 0 -141 11 -106 7 -167m184 -9l124 9m-9 -1004l-71 70 -77 107 -100 174c-29,67 -60,144 -60,221l141 10c80,25 61,12 61,105l-9 308 -184 9 -194 0m-4289 863l0 -141 10 -432 -3 -88 8 -123 2 -97m-264 960l18 0 5 -88 3 -123 10 -326 9 -291 17 -141m3505 44l-220 0 0 -79m-1894 -44l0 97 -3 71 -6 140c-25,26 -164,9 -220,9 -1,-57 -3,-44 -53,-61l-70 0c-66,-22 -62,-1 -62,-80l11 -79 16 -97m872 -106l-10 159 1 106c104,7 185,-10 308,-18 357,-24 748,-79 1110,-97l0 -70 9 -212m-1040 97l159 -11 88 -8 70 -9 115 -9 88 -9 97 -9 70 -9 115 -8 79 -25m-1894 221l-70 10 -167 7 -70 -11 -115 -8c-23,-39 -16,-40 0,-87l8 -158m3109 387l362 -9 70 -2 106 -6 0 -168 17 -237 -167 -10 -141 10m-3655 44l106 0c80,-26 57,-35 123,-88m1656 -740l0 -18m4738 2044l159 10 8 -310 -10 -114 0 -247 -8 -388 -9 -343 -8 -440 -9 -229m-4121 17l-10 414 -9 282 1 167 159 0 69 -28 203 -9 300 -8 229 -9 88 -7 0 -678c-23,-72 18,-65 -18,-150m2845 2078c0,-283 -20,-707 -36,-995 -13,-216 1,-202 2,-387 0,-116 -22,-277 1,-388 32,-104 43,-166 86,-273l167 -159m-4086 18l26 -35m995 -9l9 -44m-3021 1066l-1 -168 11 -405 9 -378 17 -282m3752 -106l97 -4 88 -21 96 -19m44 -9l62 -26m-1198 -678c23,36 289,170 344,193l158 125 116 103c51,78 191,249 193,336 -124,81 -600,122 -776,194l9 79 98 -5 88 -20 78 -12 133 -33 132 -25 370 -80 749 -158 96 -19m-2739 88c57,-36 35,-58 101,-165 48,-78 135,-184 207,-240 100,-60 444,-300 529,-317 37,-34 65,-41 114,-44 103,-72 40,-29 133,-69 113,-49 62,-64 201,-16 208,71 379,147 536,298 115,109 324,297 328,465 61,0 159,-4 194,-44m150 -36l88 1c54,-18 159,-13 193,-53m62 -9l71 -6c61,-4 270,-48 299,-91m-123 889l-160 149c-152,235 -108,225 -184,459l0 458 10 432 9 238 10 96 -11 150 -247 0 9 -326c-7,-119 -9,-5 -4,-149 7,-193 -44,-659 -12,-802 29,-96 47,-191 81,-291 37,-112 105,-196 146,-299l122 -142 169 -21 62 48c68,42 92,43 131,150 33,87 101,556 108,678l25 908c6,155 22,93 -9,237l493 0 141 -8c0,-194 -18,-488 -28,-687l-44 -1031 53 -212 72 -96c39,-39 19,-34 70,-35l0 -494 -9 -220 9 -114m-871 176l264 -61 220 -42 80 -19 185 -35 122 -19 -8 -115m-6016 1823c28,-137 15,-161 18,-308 4,-235 21,-470 22,-705 0,-155 43,-776 13,-854m-1242 1365c-40,-69 -17,-198 -17,-290l9 -238 9 -264 9 -388 17 -255m176 3223l79 -9c0,-354 92,-1140 125,-1550l132 -1629c202,-12 496,20 703,35l10 -70 -1 -132m-1110 1611l23 72 15 104c-36,66 -20,169 -20,247l-10 247 -8 114 -202 -9 -6 -70 6 -115 10 -184 9 -159 8 -176c21,-67 -9,-42 34,-115 22,7 132,44 141,44 37,-24 27,-11 27,-61l27 -1189c16,-53 19,-160 -1,-212l-167 -17 8 -176m9 -265l-16 80 7 185 300 9 308 9 300 9 237 9 71 8 20 -212c-42,-58 -39,-44 -108,-44l-1119 -53 -9 -185m467 18l-211 0 -256 -18 0 -105 106 -10 229 10m6315 933c-57,37 -45,27 -114,27l-168 42 -79 -7 -6 -80 -9 -79 -3 -88m-396 -220l70 -44m1022 62l9 -115m-1198 115l97 -18 10 115 9 114 10 70 15 265 -62 9c-17,-150 -53,-424 -98,-558l-182 35 -1 575c-46,37 -90,36 -150,36l0 -229 -10 -405 -7 -79 -1 -89m1233 423c-45,-34 -17,-23 -35,-79l-5 -89 -18 -132 -21 -158m-5469 1022l10 -467c-89,-80 -158,-45 -293,-21 -21,47 -100,227 -106,267l-43 1410 70 79 238 11 88 -2 97 17 -1 141 -8 80 150 17c31,-484 49,-1031 72,-1524l20 -572c-4,-119 17,-342 31,-467m4880 79c42,-30 207,-70 264,-70l44 -26m88 0l62 -36m193 -26l0 88c16,49 -5,52 27,79 52,-15 36,-54 53,-105l0 -80m-846 194l115 -18 0 115c-18,55 15,176 -27,211 -44,-13 -43,-25 -44,-70l-53 -229 -229 35 0 -326m-4518 -97l-2 89c51,15 51,9 90,-27l150 -70m4333 105l-53 0 0 -158m-4104 167c7,203 12,210 -2,405 -17,240 -18,522 -25,766l-34 1462 79 -5 88 -3 70 -11 141 -16c1,-512 19,-1071 36,-1585l17 -1180m-1550 17c59,0 102,10 150,-17m343 26l97 0c69,22 137,-15 176,35 52,-4 248,-108 273,-149m4439 229l317 -10c17,-162 2,-93 -11,-246 -13,-161 -25,-589 -64,-714l-99 -273 -90 -87 -202 -71c-102,-13 -303,13 -397,71l-193 229 -18 836m-4545 265l185 0 256 9 140 10 0 183 88 -28 131 -64 127 -63 77 -21c27,-36 86,-61 132,-70 72,-53 157,-71 238,-97l21 -79c13,-48 26,-89 6,-142m819 555c145,19 114,32 264,9l405 9c589,11 1091,4 1682,35 31,-96 -47,-70 -123,-70 -111,-8 -20,-20 -167,2l-1973 -20c-44,-13 -70,-7 -88,35 -41,57 -18,184 -18,256l10 194 8 325c18,56 -15,176 26,212l-9 317 476 9 299 -11 220 -7 0 150 -105 0 -361 9 -432 9 -114 8 -9 -132 -88 0 -564 131 -79 1 0 -1039 7 -70 -3 -71 6 -520 4 -70c-5,-86 26,-226 -5,-308m-529 149l205 -110c40,-13 47,-15 59,-57m159 70l18 0c28,-41 37,-48 88,-52l8 -27m1022 0l-132 10 -79 -19m4025 520l8 -572m-2457 176l71 17 105 0 106 11 88 9 115 9 88 14 88 1 132 12 97 8 97 9 105 8 115 9c37,40 27,29 17,78l-3611 -300 0 -61m4378 -36l105 0 106 11 97 9 88 9 70 7 9 -133m-6297 511l-79 -17 0 -106 11 -79 8 -97 9 -141 15 -80 1 -70m1691 203c-37,26 -36,23 -79,9l-133 0c-112,-37 -137,70 -273,70l12 -150 18 -69 23 -72m4589 62l9 123 0 150 10 123 9 132 9 124 9 88 7 70 193 -26c41,-32 33,-33 80,-18 58,-34 70,-35 141,-35l0 634 -70 11 -98 24 -141 25 -123 27 -88 1 -9 -123c38,-29 27,-45 27,-97l10 -132 9 -114 7 -141 -88 0 0 -115 -10 -123 -10 -97 -8 -97 -9 -79 -9 -97 -8 -141 -10 -88 -6 -106m-4193 -53l-150 51 3 8 -82 29c-44,-44 -48,-110 -26,-167l79 -6 88 -13 88 81m4633 35l-88 -1 -115 -96m-4236 220c71,-42 44,-35 79,-97l35 -132m-211 115c81,-81 46,-34 44,-124m4201 106l-149 44 -11 -79 -16 -141m-4756 740l-53 9 0 -97 10 -238 10 -114 8 -159 9 -132 -10 -71m986 18c-14,45 -22,96 -62,123l-70 -6 -97 -3c-97,0 -65,33 -141,80l0 17 97 27 97 114 9 159c46,34 56,26 114,26l132 11 79 9 106 8 168 7 -16 -88 -7 -88 -4 -176 -10 -194 1 -88m-2060 -9l70 -9 44 -70m-194 150l-70 71 -90 59c-45,22 -66,33 -86,81l132 97 372 -235 122 -80 68 -39 73 -49 130 -74 71 -51m5074 290l-25 -150c-2,-89 13,-84 42,-158m-5064 18c28,60 21,138 9,202l79 6 132 -6 211 -10 80 -9 70 7 229 6 70 9 115 15 76 -84c39,-52 87,-91 91,-154m-88 -17c-48,18 -119,17 -158,-18m3778 9l68 186 29 122 151 31 105 -5 8 62 -88 88 18 141 141 0 114 11 106 9 123 6 0 -70c17,-54 7,-44 -44,-62l-79 0 -88 -26 4 -80 -14 -78 -28 -114 -42 -89c-35,-39 -63,-91 -114,-106 -13,-41 -37,-26 -88,-26l-141 44c-70,63 -43,-8 -114,-53m-3946 18l-141 9 -70 -54m4113 -8l-9 0m-3003 26c20,98 94,-1 105,-53m-1752 97l-18 18 -27 0 -59 -40 -117 -75m3559 176c-66,-51 -108,-14 -221,-37 -84,-17 -81,-115 -211,-218 -103,-82 -288,-137 -423,-123l-185 43c-57,43 -168,98 -246,150l-193 169c-105,103 13,54 -256,89l-230 24c-51,-72 1,-207 -26,-290m141 -9c-42,8 -69,-3 -106,-35m-211 123l-27 35c-49,0 -49,10 -88,-17l0 -450 1 -88 10 -158 -13 -70 11 -1 0 -1189m220 1859l62 0 35 -44 0 -555 9 -766 10 -458c-25,-36 -47,-68 -89,-80m-352 44l105 0c0,-67 3,-44 35,-97m-17 -158l-27 9m256 -18l0 220c-73,93 -35,865 -35,1040l8 863c-16,57 -58,78 -114,79l0 -167 9 -793 9 -555 9 -308 -6 -71c5,-68 -21,-126 -92,-141 0,-65 9,-102 -17,-158l0 -79m-168 193c40,28 45,90 45,141l-11 379 -8 291 -9 255 -9 203 -9 132 -8 299 -8 379c-42,31 -91,37 -141,18 0,-288 19,-576 27,-864 3,-81 19,-1045 37,-1083 64,-68 26,-107 94,-150 -9,-52 5,-132 -26,-176m696 300c-95,102 -56,283 -62,458 -6,171 -1,785 -9,836 -39,121 31,493 -26,573 43,37 93,74 159,79l36 -1797c-34,-44 -46,-133 -98,-149l-9 -256m-1224 2220l-88 10 -79 6 -89 8 -96 2 8 -194m546 -132c-68,-68 -44,-163 -44,-264l45 -1083c3,-57 7,-348 41,-397 70,-53 63,-23 82,36l0 123c-29,71 -18,164 -18,247l-72 1197c-20,66 16,108 -34,141l0 97 -8 167c-60,49 -118,61 -194,36l0 -405m1805 44c59,-11 101,-23 115,-88m-2704 466l-59 90c-45,13 -42,22 -82,7l0 -70 10 -185 9 -212 9 -123 -2 -70m2942 53c71,-6 89,-23 123,-80m-3170 9l0 71 -10 184 -9 185 -9 168 -7 149c-25,70 -16,50 -80,71l-5 -70 5 -230 10 -273 17 -273m114 -484l-1 106 -9 185 -16 202m3972 1163l0 -159 10 -229 8 -97c77,-31 183,-17 273,-17 33,-64 60,-115 122,-168l109 -76 217 -77c124,-20 407,64 512,136 32,29 28,48 79,53l26 44 27 -9c-10,-34 -65,-110 -106,-106l-9 -9c8,-48 -158,-131 -203,-147 -68,-25 -239,-67 -317,-70 -167,-4 -34,15 -177,-45 -53,-16 -351,-179 -377,-222m-97 -62c-41,29 -66,20 -106,-8m-678 61c65,-12 129,-35 158,-97m406 -17c-49,19 -75,14 -115,-18m-194 0l115 -35m511 -79l0 255c-61,15 -68,-13 -97,-62l9 -211m79 0l17 -62m-4271 344l9 17 88 9 0 9 105 18 10 -88 9 -185 17 -194m-115 -71l0 18 106 26m35 36l-26 -9 -9 -27 9 -176 10 -149 9 -150 9 -123 16 -168m4588 978l-141 0 -167 -10 -150 -9 -149 -16 -9 -18 -79 0 0 -203 12 -255 -4 -150c20,-60 7,-107 -52,-132m-4475 925l344 97 9 -344 10 -167 104 26 6 -79 3 -132 10 -176 16 -211m3541 -9c-36,26 -34,23 -35,70l-10 370 -9 238 -8 264c-37,37 -49,47 -97,35l-9 -440 10 -273 9 -203c-18,-53 -22,-104 -89,-123m-3699 555l255 82 4 -170 3 -194 3 -150 -27 -132m3232 -26l-72 69 2 389 -10 414 -8 423c-41,56 -61,48 -123,44l0 -1251c15,-46 7,-71 -35,-97m-2546 1726c-32,70 -27,88 -123,88 -14,-207 27,-589 37,-819l60 -1171m3928 17c48,-29 120,-94 132,-149 -57,-45 -41,-14 -97,-35m-1603 1867l-79 79 -99 77 -95 46c15,-207 11,-570 19,-810l23 -854 35 -124 -64 -121 13 -108 69 -90 99 -24m282 167l7 159 2 79c-48,14 -47,31 -71,70l0 353 -9 792 -5 80 5 141 -48 57 -84 31 0 -247 10 -326 9 -290 8 -388 10 -194 -58 -148 55 -99 2 -123 -115 -114 0 -18m1885 1136c-109,23 -200,133 -309,141 0,-239 4,-639 19,-872 12,-184 33,-146 -212,-193 -285,-54 -646,-103 -952,-158 -129,-23 -303,-56 -431,-54 -133,-55 -103,-32 -238,-55l-1119 -190c-60,-11 -232,-44 -272,-28m-511 485c-38,437 -53,925 -81,1374l-34 563 88 0 132 -2457m2246 -79l-70 10 -97 -28m432 79c211,50 511,96 740,140l448 82c63,15 45,-21 18,184l-2906 -511m-784 79l-27 44c-46,5 -35,6 -61,44l-521 589c-67,69 -49,108 -78,133 -93,-37 -144,-128 -176,-220l106 -105 115 -105 246 -247 246 -248m1973 -8l-78 32 -142 -41m-1409 167c0,638 -86,1517 -116,2184l-8 185 81 -32 78 -82 89 -78c53,-38 28,-45 96,-45l45 -1542c-15,-44 -14,-76 -36,-141 -66,-67 -44,-124 -44,-220l0 -185 -78 -31 -107 -13 -80 -17 -114 -18c-12,-65 6,-104 -35,-150m775 62l-159 -33 -88 -13 -105 -20 -88 -17 -89 -12 -141 -28m1269 -18c-51,46 -48,35 -115,35l-211 -53m-943 -114l0 150c-71,0 -64,10 -105,61l-115 35c-20,-55 13,-68 44,-114 52,-51 103,-131 176,-132 7,-67 70,-41 115,-27l88 11 78 19 89 18 124 21 114 11m1665 299c39,29 90,35 141,35l5 -88 3 -70 11 -115 9 -79 8 -132 9 -132 9 -97 9 -70 139 17m-493 44l47 105 -3 476 -18 80c38,27 71,43 124,26l0 -238 10 -149 9 -159 9 -105 16 -142m-450 732l115 17 0 -176 10 -229 9 -176c42,-43 61,-60 122,-62l26 -106m-1603 9l-17 -26m1154 35c57,59 46,80 70,150l6 71 3 87 -9 353c49,52 38,53 114,53l11 -150 9 -141 8 -203 9 -167 16 -150m-502 722l-79 0 -70 -70 9 -159 10 -70 8 -247 -6 -79 -65 -114m1100 96c41,-82 86,-77 159,-105m-520 26l70 28c76,-1 66,14 115,51 66,-38 17,-19 88,-17l80 17 8 0 89 27c52,1 64,30 70,-26 4,-34 5,-83 0,-106l9 -35m-573 52l0 -70m-449 -18l9 -8m-432 669l0 -79 11 -132 8 -221 29 -124c57,-29 67,-25 129,-25l17 -97m449 88c45,-15 73,-5 115,9l114 8 0 9 44 0c30,-43 91,-100 141,-114m502 9c-40,36 -59,44 -114,44l-9 -71m-1717 740l87 21 89 5 0 -114 9 -379 8 -317m538 71c32,41 128,44 193,79l-8 123 -108 40c-25,62 -16,112 -16,180l-11 79 -7 256 -8 97c-52,0 -73,3 -115,-27l10 -158 9 -185 9 -159 9 -158 9 -150 -108 -25 -114 -1c-27,-20 -22,-26 -61,-27l-141 -44m-916 150l87 20 318 77 -11 -79 -24 -168m202 35l-78 -21 -124 -14 -18 -17m123 290l-53 0 6 89 14 78 23 124c3,65 43,131 19,194l159 35 9 -264 9 -502 8 -88m669 44l18 97 18 0 89 -78c61,-42 40,-18 60,-81m-484 -79l-41 73 -7 -6 -75 91 -80 9 -80 -41 -87 -29 -9 -27m2052 0l-88 -5 -255 -4c-51,49 -43,16 0,80l-9 70 -124 -14 -78 -14 -97 -19 -168 -30 -159 -25 -87 -14 -124 -16 -70 -17 -88 -11 -80 -15 -150 -25 -96 -11 -79 -26 -115 -12 -87 -18 -80 -8 -18 134 -79 -26m1629 9l18 -62m-203 53l79 27 106 -18c25,32 18,25 62,26l52 11 -8 -108m-625 -9l0 -26m211 70l-9 -123m432 44l202 -62m-2422 203l149 38 98 24 -1 -71 -25 -106 52 -96m819 0c36,47 83,34 141,52l133 26 78 11 142 16 68 32 143 12c52,30 62,27 123,27l6 -80 -6 -105m-854 9c-45,17 -147,1 -185,-27m-158 -44l-80 0m-70 -960l-9 960m617 0c45,15 87,14 114,-26m-493 53c38,26 30,17 79,17l9 -123m-88 44l0 62c-38,7 -54,7 -79,-27 29,-27 30,-35 79,-35l17 -44m-572 9l-69 32 -81 -5 -141 -36m943 -27l97 -17m-731 106l-18 -53 -11 -97 -15 -106m1576 344l123 -9 10 -282 28 -96 77 -89m-1489 -713c-176,118 -438,316 -589,450 -46,44 -45,26 -45,87l167 150c65,71 -7,54 142,158l0 -79 -36 -141m2061 -185c24,-68 64,-85 124,-123 45,-61 -89,-71 -177,-87l-1524 -254c-72,-3 -79,-39 -123,24 35,37 7,97 27,158 124,13 247,42 387,63 241,36 588,112 837,156l449 63 6 88 -6 220 -10 256 -16 255 -9 44 -88 9 0 -132 -10 -300 -10 -79c-19,-65 2,-64 -68,-88l9 -185m-326 176c73,50 48,39 70,106l16 88 2 194 -9 97 -9 26 -202 53 -10 -79 11 -194 9 -97c36,-73 38,-158 122,-194l5 -88c4,-46 -8,-90 21,-114m-379 590c6,70 70,65 124,44l10 -326c-18,-49 -4,-40 -54,-62 -58,91 -52,63 -64,176l-16 168 -70 0 0 -97 10 -194c-18,-48 -9,-60 -54,-88m9 -18l-9 18 -57 85 4 91 -10 150 -7 79 -89 71 -26 0 10 -309c6,-91 33,-290 -107,-290 -75,120 -56,130 -62,282l-8 140 -9 27 -71 0 6 -88 3 -150 10 -185 -71 -79m-326 564l0 -150 -11 -141 -9 -114 -9 -80 13 -88 -11 -132m36 705l-52 106c-52,16 -84,18 -125,-18l-8 -88 176 0 9 0 114 17 79 0 6 -79 3 -88 13 -115 -6 -70 19 -71 10 -79c34,-58 12,-56 79,-79l11 -70 6 -133m1691 2827l0 203 -53 70 0 265 -9 290 -9 247 -8 264c-42,41 -57,44 -115,44l0 -202 10 -326 9 -238 9 -326c-20,-57 -1,-106 -63,-123l-17 -212m713 335c54,23 44,27 62,79l0 88 -10 203 -10 88 -8 194 -10 97 -6 185c35,52 52,53 114,53l11 -203 8 -194 9 -176 9 -194c21,-69 -17,-137 34,-176l0 -167 -9 -71m-185 -26l-9 220 -64 69 -4 72 -2 176 -10 220 -9 185 -8 194 -79 -35 1 -203 9 -176 9 -158 8 -256c-20,-58 -24,-77 -80,-114l9 -203m-969 2766l79 27 89 4 114 4 105 11 115 8 97 9 105 9 115 9 176 7c0,-163 25,-259 35,-441 7,-121 19,-85 -2,-211 -16,-102 -26,-210 -94,-291l-106 -97 -184 -63c-63,-10 -171,13 -213,18 -132,14 -257,97 -343,195l-177 228c-10,36 82,462 87,504l2 70 -70 21 -97 -14 -97 -9 -106 -25 0 -440 0 -71m1629 3823l6 88 -6 150 -8 167 237 9c0,-185 18,-209 -1,-414 -20,-211 -38,-471 -104,-670 -28,-85 -73,-164 -106,-246 -50,-50 -65,-76 -132,-88 -32,-41 -91,-27 -150,-27l-194 59 -71 64 -77 160c-8,80 -54,151 -54,263"/>
   <line class="fil0 str0" x1="3825" y1="9331" x2="3614" y2= "9331" />
   <line class="fil0 str0" x1="3949" y1="9331" x2="3869" y2= "9331" />
   <line class="fil0 str0" x1="5023" y1="10098" x2="5014" y2= "9781" />
   <line class="fil0 str0" x1="6195" y1="10177" x2="6142" y2= "10177" />
   <line class="fil0 str0" x1="6274" y1="10177" x2="6239" y2= "10177" />
   <line class="fil0 str0" x1="4688" y1="10186" x2="4257" y2= "10186" />
   <line class="fil0 str0" x1="4821" y1="10186" x2="4733" y2= "10186" />
  </g>
 </g>
</svg>
