<?xml version="1.0" encoding="iso-8859-1"?>
<!-- Generator: Adobe Illustrator 19.0.0, SVG Export Plug-In . SVG Version: 6.00 Build 0)  -->
<svg version="1.1" id="Capa_1" xmlns="http://www.w3.org/2000/svg" xmlns:xlink="http://www.w3.org/1999/xlink" x="0px" y="0px"
	 viewBox="0 0 512.001 512.001" style="enable-background:new 0 0 512.001 512.001;" xml:space="preserve">
<g>
	<path style="fill:#9D5CAD;" d="M199.973,213.316c-12.506-4.469-26.266,2.051-30.733,14.557l-57.509,161.024L54.223,227.874
		C49.756,215.368,36,208.848,23.49,213.317c-12.506,4.467-19.024,18.226-14.557,30.733l80.154,224.431
		c3.418,9.57,12.483,15.959,22.646,15.959s19.227-6.388,22.646-15.959l80.154-224.431
		C218.998,231.543,212.48,217.782,199.973,213.316z"/>
	<path style="fill:#9D5CAD;" d="M127.768,476.43c-10.163,0-19.227-6.388-22.646-15.959L24.969,236.04
		c-3.056-8.555-0.969-17.696,4.657-24.048c-2.049,0.168-4.109,0.599-6.137,1.324c-12.506,4.467-19.024,18.226-14.557,30.733
		L89.086,468.48c3.418,9.57,12.483,15.959,22.646,15.959c7.019,0,13.513-3.05,17.986-8.089
		C129.073,476.402,128.423,476.43,127.768,476.43z"/>
	<path style="fill:#9D5CAD;" d="M272.039,211.915c-13.281,0-24.046,10.766-24.046,24.046v224.431
		c0,13.281,10.766,24.046,24.046,24.046s24.046-10.766,24.046-24.046V235.961C296.086,222.681,285.32,211.915,272.039,211.915z"/>
	<path style="fill:#9D5CAD;" d="M264.024,460.393V235.961c0-10.469,6.693-19.371,16.031-22.673
		c-2.508-0.887-5.204-1.374-8.015-1.374c-13.281,0-24.046,10.766-24.046,24.046v224.431c0,13.281,10.766,24.046,24.046,24.046
		c2.811,0,5.508-0.487,8.015-1.374C270.717,479.764,264.024,470.862,264.024,460.393z"/>
	<path style="fill:#9D5CAD;" d="M480.44,211.915H352.194c-13.281,0-24.046,10.766-24.046,24.046v224.431
		c0,13.281,10.766,24.046,24.046,24.046s24.046-10.766,24.046-24.046v-72.139h104.2c13.281,0,24.046-10.766,24.046-24.046V235.961
		C504.486,222.681,493.721,211.915,480.44,211.915z M456.394,340.162H376.24v-80.154h80.154V340.162z"/>
	<path style="fill:#9D5CAD;" d="M344.178,460.393V235.961c0-13.281,10.766-24.046,24.046-24.046h-16.031
		c-13.281,0-24.046,10.766-24.046,24.046v224.431c0,13.281,10.766,24.046,24.046,24.046c2.811,0,5.508-0.487,8.015-1.374
		C350.871,479.764,344.178,470.862,344.178,460.393z"/>
</g>
<polygon style="fill:#FFE17A;" points="223.947,163.823 320.132,163.823 368.224,83.669 304.101,107.715 272.039,59.622 
	239.978,107.715 175.855,83.669 "/>
<g>
	<circle style="fill:#FDC40A;" cx="272.043" cy="43.592" r="16.031"/>
	<circle style="fill:#FDC40A;" cx="376.244" cy="75.655" r="16.031"/>
	<circle style="fill:#FDC40A;" cx="167.843" cy="75.655" r="16.031"/>
	<rect x="223.951" y="163.825" style="fill:#FDC40A;" width="96.185" height="24.046"/>
</g>
<rect x="223.951" y="163.825" style="fill:#FEA727;" width="32.062" height="24.046"/>
<path d="M202.502,206.24c-12.633-4.514-27.179-0.342-35.456,10.226c-2.093,2.672-3.741,5.685-4.882,8.881l-50.432,141.209
	l-50.432-141.21c-4.288-12.008-15.738-20.45-28.504-20.939c-4.017-0.154-8.049,0.482-11.834,1.833
	c-12.008,4.289-20.448,15.739-20.939,28.505c-0.154,4.016,0.481,8.048,1.832,11.833l80.154,224.431
	c4.475,12.528,16.419,20.945,29.722,20.945s25.248-8.417,29.722-20.945l80.154-224.431c4.511-12.633,0.341-27.177-10.226-35.454
	C208.71,209.03,205.697,207.381,202.502,206.24z M207.453,241.522l-80.154,224.431c-2.343,6.563-8.6,10.971-15.568,10.971
	c-6.968,0-13.224-4.408-15.568-10.971L16.009,241.522c-3.035-8.496,1.53-18.102,10.008-21.13
	c8.501-3.034,18.101,1.531,21.128,10.008l57.509,161.024c1.057,2.958,3.937,4.988,7.077,4.988s6.021-2.03,7.077-4.988
	l57.509-161.024c3.028-8.478,12.63-13.043,21.128-10.008C205.903,223.472,210.503,232.985,207.453,241.522z"/>
<path d="M272.039,204.401c-17.402,0-31.561,14.158-31.561,31.561v224.431c0,17.402,14.158,31.561,31.561,31.561
	s31.561-14.158,31.561-31.561V302.088c0-4.151-3.363-7.514-7.514-7.514c-4.151,0-7.514,3.363-7.514,7.514v158.304
	c0,9.116-7.416,16.532-16.532,16.532s-16.532-7.416-16.532-16.532V235.961c0-9.116,7.416-16.532,16.532-16.532
	s16.532,7.416,16.532,16.532v40.077c0,4.151,3.363,7.514,7.514,7.514c4.151,0,7.514-3.363,7.514-7.514v-40.077
	C303.6,218.559,289.442,204.401,272.039,204.401z"/>
<path d="M480.44,204.401H352.194c-17.402,0-31.561,14.158-31.561,31.561v224.431c0,17.402,14.158,31.561,31.561,31.561
	s31.561-14.158,31.561-31.561v-64.624h96.686c17.402,0,31.561-14.158,31.561-31.561V235.961
	C512.001,218.559,497.842,204.401,480.44,204.401z M496.972,364.208c0,9.116-7.416,16.532-16.532,16.532h-104.2
	c-4.151,0-7.514,3.363-7.514,7.514v72.139c0,9.116-7.416,16.532-16.532,16.532s-16.532-7.416-16.532-16.532V235.961
	c0-9.116,7.416-16.532,16.532-16.532H480.44c9.116,0,16.532,7.416,16.532,16.532V364.208z"/>
<path d="M456.394,252.493H376.24c-4.151,0-7.514,3.363-7.514,7.514v80.154c0,4.151,3.363,7.514,7.514,7.514h80.154
	c4.151,0,7.514-3.363,7.514-7.514v-80.154C463.908,255.857,460.545,252.493,456.394,252.493z M448.879,332.647h-65.125v-65.125
	h65.125V332.647z"/>
<path d="M327.646,187.869v-21.964l40.818-68.031c2.436,0.855,5.051,1.326,7.775,1.326c12.983,0,23.545-10.562,23.545-23.545
	s-10.562-23.545-23.545-23.545c-12.983,0-23.545,10.562-23.545,23.545c0,1.917,0.235,3.777,0.669,5.562l-46.318,17.369
	l-23.121-34.681c6.968-4.093,11.659-11.663,11.659-20.312c0-12.983-10.562-23.545-23.545-23.545s-23.545,10.562-23.545,23.545
	c0,8.65,4.691,16.219,11.659,20.312l-23.121,34.681l-46.316-17.369c0.434-1.784,0.669-3.646,0.669-5.563
	c0-12.983-10.562-23.545-23.545-23.545s-23.545,10.562-23.545,23.545s10.562,23.545,23.545,23.545c2.724,0,5.339-0.47,7.775-1.325
	l40.818,68.031v21.964c0,4.151,3.363,7.514,7.514,7.514h96.185C324.283,195.383,327.646,192.02,327.646,187.869z M376.24,67.137
	c4.696,0,8.516,3.82,8.516,8.516s-3.82,8.516-8.516,8.516s-8.516-3.82-8.516-8.516S371.544,67.137,376.24,67.137z M272.039,35.075
	c4.696,0,8.516,3.82,8.516,8.516s-3.82,8.516-8.516,8.516s-8.516-3.82-8.516-8.516S267.343,35.075,272.039,35.075z M237.339,114.75
	c3.273,1.228,6.953,0.039,8.891-2.868l25.81-38.714l25.81,38.714c1.914,2.872,5.659,4.079,8.891,2.868l43.964-16.487l-34.826,58.045
	h-87.676l-34.826-58.044L237.339,114.75z M159.323,75.653c0-4.696,3.82-8.516,8.516-8.516c4.696,0,8.516,3.82,8.516,8.516
	s-3.82,8.516-8.516,8.516C163.143,84.17,159.323,80.349,159.323,75.653z M312.617,180.354h-81.156v-9.017h81.156V180.354z"/>
<g>
</g>
<g>
</g>
<g>
</g>
<g>
</g>
<g>
</g>
<g>
</g>
<g>
</g>
<g>
</g>
<g>
</g>
<g>
</g>
<g>
</g>
<g>
</g>
<g>
</g>
<g>
</g>
<g>
</g>
</svg>
