<?xml version="1.0" standalone="no"?>
<!DOCTYPE svg PUBLIC "-//W3C//DTD SVG 1.1//EN" "http://www.w3.org/Graphics/SVG/1.1/DTD/svg11.dtd" >
<svg>
<metadata>
Created by FontForge 20090914 at Tue Feb 28 15:14:28 2017
 By www-data
Copyright &#194;&#169; 2015 by Borna Izadpanah (www.borna.design). All rights reserved. 
</metadata>
<defs>
<font id="Lalezar-Regular" horiz-adv-x="0" >
  <font-face 
    font-family="Lalezar"
    font-weight="400"
    font-stretch="normal"
    units-per-em="1000"
    panose-1="0 0 5 0 0 0 0 0 0 0"
    ascent="800"
    descent="-200"
    x-height="460"
    cap-height="570"
    bbox="-237.002 -588.005 1825.44 979.001"
    underline-thickness="50"
    underline-position="-50"
    unicode-range="U+0020-U+FEFC"
  />
<missing-glyph horiz-adv-x="590" 
d="M540 563v-804v-6h-250h-240v113v779v31h490v-113zM407 563h-117h-107v-697h117h107v697z" />
    <glyph glyph-name="fi" unicode="fi" horiz-adv-x="620" 
d="M432.5 540c-16.333 15.333 -24.5 33.666 -24.5 54.999s8.16699 39.666 24.5 54.999s35.833 23 58.5 23s42 -7.66699 58 -23s24 -33.666 24 -54.999s-8 -39.666 -24 -54.999s-35.333 -23 -58 -23s-42.167 7.66699 -58.5 23zM576 0h-171.001v362h-65h-88v-362h-171v362h-75
v89l75 9v15c0 29.333 4 57.333 12 84s15.333 42.667 22 48c20.667 17.333 64.667 26 132 26c36.667 0 77.667 -2.66699 123 -8c0 -8 -1.16699 -24 -3.5 -48s-4.5 -44.333 -6.5 -61l-43 1c-35.333 0 -54.666 -1.66699 -57.999 -5c-4.66699 -4.66699 -7 -19 -7 -43v-9h106h218
v-460z" />
    <glyph glyph-name="fl" unicode="fl" horiz-adv-x="619" 
d="M252 469l-0.000976562 -9h106v-98h-106v-362h-171v362h-75v89l75 9v15c0 29.333 4 57.333 12 84s15.333 42.667 22 48c20.667 17.333 64.667 26 132 26c36.667 0 77.667 -2.66699 123 -8c0 -8 -1.16699 -24 -3.5 -48s-4.5 -44.333 -6.5 -61l-43 1
c-35.333 0 -54.666 -1.66699 -57.999 -5c-4.66699 -4.66699 -7 -19 -7 -43zM403.999 600l171 7v-607h-171v600z" />
    <glyph glyph-name="uniFC02" unicode="&#xfe8b;&#xfee2;" horiz-adv-x="636" arabic-form="isolated" 
d="M476.5 210c-37.667 -17.333 -56.5 -38.002 -56.5 -62.002c0 -16.667 11.333 -34.334 34 -53.001l43 -28c-3.33301 -18.667 -15.5 -44.167 -36.5 -76.5s-38.167 -53.166 -51.5 -62.499c-14 -0.666992 -27.333 3.5 -40 12.5s-26.667 21.167 -42 36.5
s-26.666 24.333 -33.999 27c-8.66699 2.66699 -19 4 -31 4c-8.66699 0 -16.667 -0.333008 -24 -1s-13.666 -1.33398 -18.999 -2.00098l-25 -3c1.33301 -47.333 5.33301 -94.666 12 -141.999s14.334 -88 23.001 -122c-14 -8 -36.667 -14.5 -68 -19.5s-61.333 -7.5 -90 -7.5
l-5 4c-17.333 81.333 -26 166 -26 254c0 35.333 1.33301 66 4 92c4.66699 22.667 16.667 47.334 36 74.001s38.666 43 57.999 49c52.667 -2 97.667 -6.33301 135 -13c4 62.667 31.333 114.667 82 156s120 70 208 86c23.333 -48 37.666 -101.333 42.999 -160
c-48.667 -11.333 -91.834 -25.666 -129.501 -42.999zM588 543.998c-1.33301 -9.33301 -5.33105 -22.501 -11.998 -39.501s-12 -28.167 -16 -33.5c-20.667 0 -45.834 -2 -75.501 -6s-55.834 -8.66699 -78.501 -14c-2.66699 4 -4.66699 10.5 -6 19.5s-2 18.167 -2 27.5
c0 10 0.666992 16.333 2 19c12 5.33301 26.333 10 43 14c-14 16.667 -21 34 -21 52c0 14 4.5 27.333 13.5 40s20.333 22.834 34 30.501s27.167 11.5 40.5 11.5c10.667 0 19.667 -2.33301 27 -7c14.667 -8.66699 22 -22 22 -40c0 -13.333 -4.33301 -25.333 -13 -36
c-13.333 6 -25.333 9 -36 9c-8.66699 0 -15.834 -1.83301 -21.501 -5.5s-8.5 -8.5 -8.5 -14.5c0 -9.33301 3.66699 -19 11 -29c26.667 5.33301 51.334 8 74.001 8l19 -1z" />
    <glyph glyph-name="uniFC03" unicode="&#xfe8b;&#xfef0;" horiz-adv-x="848" arabic-form="isolated" 
d="M696.5 383c-29.667 -4 -55.832 -8.66797 -78.499 -14.001c-2.66699 4 -4.66699 10.5 -6 19.5s-2 18.167 -2 27.5c0 10 0.666992 16.333 2 19c12 5.33301 26.333 10 43 14c-14 16.667 -21 34 -21 52c0 14 4.5 27.333 13.5 40s20.333 22.834 34 30.501
s27.167 11.5 40.5 11.5c10.667 0 19.667 -2.33301 27 -7c14.667 -8.66699 22 -22 22 -40c0 -13.333 -4.33301 -25.333 -13 -36c-13.333 6 -25.333 9 -36 9c-8.66699 0 -15.834 -1.83301 -21.501 -5.5s-8.5 -8.5 -8.5 -14.5c0 -9.33301 3.66699 -19 11 -29
c26.667 5.33301 51.334 8 74.001 8l19 -1l4 -5c-1.33301 -9.33301 -5.33301 -22.5 -12 -39.5s-12 -28.167 -16 -33.5c-20.667 0 -45.834 -2 -75.501 -6zM801.002 113.999c-7.33301 -32.667 -17.6689 -59.6641 -31.002 -80.9971c-38 -11.333 -88 -21 -150 -29
c0.666992 -24.667 0 -48.5 -2 -71.5s-4.66699 -41.167 -8 -54.5c-50 -42 -105.333 -76 -166 -102s-120 -39 -178 -39c-70 0 -126.833 19 -170.5 57s-65.5 93.333 -65.5 166c0 40 5.5 83.833 16.5 131.5s26.833 96.5 47.5 146.5l138 -45c-26 -74 -39 -133 -39 -177
c0 -32 8.16699 -56.333 24.5 -73s39.833 -25 70.5 -25c50.667 0 117 22 199 66c-18 16 -37.833 30.667 -59.5 44s-46.167 27.666 -73.5 42.999l-19 11l49 132c95.333 -19.333 174 -29 236 -29c10.667 0 27.334 0.666992 50.001 2c-8 33.333 -18 66.666 -30 99.999
c-1.33301 4.66699 -2.66602 8.66699 -3.99902 12s-2.33301 6.66602 -3 9.99902l160 37c12.667 -40 19 -83.333 19 -130c0 -35.333 -3.66699 -69.333 -11 -102z" />
    <glyph glyph-name="uniFC04" unicode="&#xfe8b;&#xfef2;" horiz-adv-x="848" arabic-form="isolated" 
d="M696.5 383c-29.667 -4 -55.832 -8.66797 -78.499 -14.001c-2.66699 4 -4.66699 10.5 -6 19.5s-2 18.167 -2 27.5c0 10 0.666992 16.333 2 19c12 5.33301 26.333 10 43 14c-14 16.667 -21 34 -21 52c0 14 4.5 27.333 13.5 40s20.333 22.834 34 30.501
s27.167 11.5 40.5 11.5c10.667 0 19.667 -2.33301 27 -7c14.667 -8.66699 22 -22 22 -40c0 -13.333 -4.33301 -25.333 -13 -36c-13.333 6 -25.333 9 -36 9c-8.66699 0 -15.834 -1.83301 -21.501 -5.5s-8.5 -8.5 -8.5 -14.5c0 -9.33301 3.66699 -19 11 -29
c26.667 5.33301 51.334 8 74.001 8l19 -1l4 -5c-1.33301 -9.33301 -5.33301 -22.5 -12 -39.5s-12 -28.167 -16 -33.5c-20.667 0 -45.834 -2 -75.501 -6zM801.002 113.999c-7.33301 -32.667 -17.6689 -59.6641 -31.002 -80.9971c-38 -11.333 -88 -21 -150 -29
c0.666992 -24.667 0 -48.5 -2 -71.5s-4.66699 -41.167 -8 -54.5c-50 -42 -105.333 -76 -166 -102s-120 -39 -178 -39c-70 0 -126.833 19 -170.5 57s-65.5 93.333 -65.5 166c0 40 5.5 83.833 16.5 131.5s26.833 96.5 47.5 146.5l138 -45c-26 -74 -39 -133 -39 -177
c0 -32 8.16699 -56.333 24.5 -73s39.833 -25 70.5 -25c50.667 0 117 22 199 66c-18 16 -37.833 30.667 -59.5 44s-46.167 27.666 -73.5 42.999l-19 11l49 132c95.333 -19.333 174 -29 236 -29c10.667 0 27.334 0.666992 50.001 2c-8 33.333 -18 66.666 -30 99.999
c-1.33301 4.66699 -2.66602 8.66699 -3.99902 12s-2.33301 6.66602 -3 9.99902l160 37c12.667 -40 19 -83.333 19 -130c0 -35.333 -3.66699 -69.333 -11 -102zM403.499 -319.498c23 -16.333 35.502 -29.167 37.502 -38.5c1.33301 -10 -6 -26.333 -22 -49
s-29.667 -38 -41 -46c-12.667 5.33301 -28.667 14.5 -48 27.5s-33.666 24.833 -42.999 35.5c-6.66699 -12 -15.334 -24.333 -26.001 -37s-19.334 -21.334 -26.001 -26.001c-13.333 6 -30.333 16.167 -51 30.5s-35.334 26.5 -44.001 36.5c4 14 14 32.667 30 56
s29.333 35 40 35s26.667 -7.5 48 -22.5s34.333 -27.5 39 -37.5c9.33301 16.667 19 30.834 29 42.501s19 17.5 27 17.5c10.667 0 27.5 -8.16699 50.5 -24.5z" />
    <glyph glyph-name="uniFC08" unicode="&#xfe91;&#xfee2;" horiz-adv-x="636" arabic-form="isolated" 
d="M497 67c-3.33301 -18.667 -15.5 -44.1689 -36.5 -76.502s-38.167 -53.166 -51.5 -62.499c-14 -0.666992 -27.333 3.5 -40 12.5s-26.667 21.167 -42 36.5s-26.666 24.333 -33.999 27c-8.66699 2.66699 -19 4 -31 4c-8.66699 0 -16.667 -0.333008 -24 -1
s-13.666 -1.33398 -18.999 -2.00098l-25 -3c1.33301 -47.333 5.33301 -94.666 12 -141.999s14.334 -88 23.001 -122c-14 -8 -36.667 -14.5 -68 -19.5s-61.333 -7.5 -90 -7.5l-5 4c-17.333 81.333 -26 166 -26 254c0 35.333 1.33301 66 4 92
c4.66699 22.667 16.667 47.334 36 74.001s38.666 43 57.999 49c52.667 -2 97.667 -6.33301 135 -13c4 62.667 31.333 114.667 82 156s120 70 208 86c23.333 -48 37.666 -101.333 42.999 -160c-48.667 -11.333 -91.834 -25.666 -129.501 -42.999s-56.5 -38 -56.5 -62
c0 -16.667 11.333 -34.334 34 -53.001zM525.5 -83.002c15 -8 29.001 -17.8311 42.001 -29.498s20.167 -20.834 21.5 -27.501c2.66699 -10 -4.83301 -27.5 -22.5 -52.5s-32.5 -41.5 -44.5 -49.5c-14 5.33301 -32.333 15.833 -55 31.5s-38.334 29.167 -47.001 40.5
c2 8.66699 7.16699 20.5 15.5 35.5s17.833 28.667 28.5 41s20 19.166 28 20.499c7.33301 1.33301 18.5 -2 33.5 -10z" />
    <glyph glyph-name="uniFC09" unicode="&#xfe91;&#xfef0;" horiz-adv-x="848" arabic-form="isolated" 
d="M812 216c0 -35.333 -3.66992 -69.3301 -11.0029 -101.997s-17.666 -59.667 -30.999 -81c-38 -11.333 -88 -21 -150 -29c0.666992 -24.667 0 -48.5 -2 -71.5s-4.66699 -41.167 -8 -54.5c-50 -42 -105.333 -76 -166 -102s-120 -39 -178 -39c-70 0 -126.833 19 -170.5 57
s-65.5 93.333 -65.5 166c0 40 5.5 83.833 16.5 131.5s26.833 96.5 47.5 146.5l138 -45c-26 -74 -39 -133 -39 -177c0 -32 8.16699 -56.333 24.5 -73s39.833 -25 70.5 -25c50.667 0 117 22 199 66c-18 16 -37.833 30.667 -59.5 44s-46.167 27.666 -73.5 42.999l-19 11l49 132
c95.333 -19.333 174 -29 236 -29c10.667 0 27.334 0.666992 50.001 2c-8 33.333 -18 66.666 -30 99.999c-1.33301 4.66699 -2.66602 8.66699 -3.99902 12s-2.33301 6.66602 -3 9.99902l160 37c12.667 -40 19 -83.333 19 -130zM703.497 -155.997
c15 -8 29.001 -17.8311 42.001 -29.498s20.167 -20.834 21.5 -27.501c2.66699 -10 -4.83301 -27.5 -22.5 -52.5s-32.5 -41.5 -44.5 -49.5c-14 5.33301 -32.333 15.833 -55 31.5s-38.334 29.167 -47.001 40.5c2 8.66699 7.16699 20.5 15.5 35.5s17.833 28.667 28.5 41
s20 19.166 28 20.499c7.33301 1.33301 18.5 -2 33.5 -10z" />
    <glyph glyph-name="uniFC0A" unicode="&#xfe91;&#xfef2;" horiz-adv-x="838" arabic-form="isolated" 
d="M444 -224c-60.667 -26 -120.003 -38.9971 -178.003 -38.9971c-70 0 -126.833 19 -170.5 57s-65.5 93.333 -65.5 166c0 40 5.5 83.833 16.5 131.5s26.833 96.5 47.5 146.5l138 -45c-26 -74 -39 -133 -39 -177c0 -32 8.16699 -56.333 24.5 -73s39.833 -25 70.5 -25
c50.667 0 117 22 199 66c-18 16 -37.833 30.667 -59.5 44s-46.167 27.666 -73.5 42.999l-19 11l49 132c95.333 -19.333 174 -29 236 -29c10.667 0 27.334 0.666992 50.001 2c-8 33.333 -18 66.666 -30 99.999c-1.33301 4.66699 -2.66602 8.66699 -3.99902 12
s-2.33301 6.66602 -3 9.99902l160 37c12.667 -40 19 -83.333 19 -130c0 -35.333 -3.66699 -69.333 -11 -102s-17.666 -59.667 -30.999 -81c-38 -11.333 -88 -21 -150 -29c0.666992 -24.667 0 -48.5 -2 -71.5s-4.66699 -41.167 -8 -54.5c-50 -42 -105.333 -76 -166 -102z
M707.497 -145.997c15 -8 29.001 -17.8311 42.001 -29.498s20.167 -20.834 21.5 -27.501c2.66699 -10 -4.83301 -27.5 -22.5 -52.5s-32.5 -41.5 -44.5 -49.5c-14 5.33301 -32.333 15.833 -55 31.5s-38.334 29.167 -47.001 40.5c2 8.66699 7.16699 20.5 15.5 35.5
s17.833 28.667 28.5 41s20 19.166 28 20.499c7.33301 1.33301 18.5 -2 33.5 -10zM391.498 -319.495c23 -16.333 35.502 -29.167 37.502 -38.5c1.33301 -10 -6 -26.333 -22 -49s-29.667 -38 -41 -46c-12.667 5.33301 -28.667 14.5 -48 27.5s-33.666 24.833 -42.999 35.5
c-6.66699 -12 -15.334 -24.333 -26.001 -37s-19.334 -21.334 -26.001 -26.001c-13.333 6 -30.333 16.167 -51 30.5s-35.334 26.5 -44.001 36.5c4 14 14 32.667 30 56s29.333 35 40 35s26.667 -7.5 48 -22.5s34.333 -27.5 39 -37.5c9.33301 16.667 19 30.834 29 42.501
s19 17.5 27 17.5c10.667 0 27.5 -8.16699 50.5 -24.5z" />
    <glyph glyph-name="uniFC0E" unicode="&#xfe97;&#xfee2;" horiz-adv-x="636" arabic-form="isolated" 
d="M348 490.5c-20.667 14.333 -35.332 26.499 -43.999 36.499c4 14 14 32.667 30 56s29.333 35 40 35s26.667 -7.5 48 -22.5s34.333 -27.5 39 -37.5c9.33301 16.667 19 30.834 29 42.501s19 17.5 27 17.5c10.667 0 27.5 -8.16699 50.5 -24.5s35.5 -29.166 37.5 -38.499
c1.33301 -10 -6 -26.333 -22 -49s-29.667 -38 -41 -46c-12.667 5.33301 -28.667 14.5 -48 27.5s-33.666 24.833 -42.999 35.5c-6.66699 -12 -15.334 -24.333 -26.001 -37s-19.334 -21.334 -26.001 -26.001c-13.333 6 -30.333 16.167 -51 30.5zM476.502 209.999
c-37.667 -17.333 -56.5 -38.002 -56.5 -62.002c0 -16.667 11.333 -34.334 34 -53.001l43 -28c-3.33301 -18.667 -15.5 -44.167 -36.5 -76.5s-38.167 -53.166 -51.5 -62.499c-14 -0.666992 -27.333 3.5 -40 12.5s-26.667 21.167 -42 36.5s-26.666 24.333 -33.999 27
c-8.66699 2.66699 -19 4 -31 4c-8.66699 0 -16.667 -0.333008 -24 -1s-13.666 -1.33398 -18.999 -2.00098l-25 -3c1.33301 -47.333 5.33301 -94.666 12 -141.999s14.334 -88 23.001 -122c-14 -8 -36.667 -14.5 -68 -19.5s-61.333 -7.5 -90 -7.5l-5 4
c-17.333 81.333 -26 166 -26 254c0 35.333 1.33301 66 4 92c4.66699 22.667 16.667 47.334 36 74.001s38.666 43 57.999 49c52.667 -2 97.667 -6.33301 135 -13c4 62.667 31.333 114.667 82 156s120 70 208 86c23.333 -48 37.666 -101.333 42.999 -160
c-48.667 -11.333 -91.834 -25.666 -129.501 -42.999z" />
    <glyph glyph-name="uniFC0F" unicode="&#xfe97;&#xfef0;" horiz-adv-x="838" arabic-form="isolated" 
d="M538 406.5c-20.667 14.333 -35.332 26.499 -43.999 36.499c4 14 14 32.667 30 56s29.333 35 40 35s26.667 -7.5 48 -22.5s34.333 -27.5 39 -37.5c9.33301 16.667 19 30.834 29 42.501s19 17.5 27 17.5c10.667 0 27.5 -8.16699 50.5 -24.5s35.5 -29.166 37.5 -38.499
c1.33301 -10 -6 -26.333 -22 -49s-29.667 -38 -41 -46c-12.667 5.33301 -28.667 14.5 -48 27.5s-33.666 24.833 -42.999 35.5c-6.66699 -12 -15.334 -24.333 -26.001 -37s-19.334 -21.334 -26.001 -26.001c-13.333 6 -30.333 16.167 -51 30.5zM801.002 113.999
c-7.33301 -32.667 -17.6689 -59.6641 -31.002 -80.9971c-38 -11.333 -88 -21 -150 -29c0.666992 -24.667 0 -48.5 -2 -71.5s-4.66699 -41.167 -8 -54.5c-50 -42 -105.333 -76 -166 -102s-120 -39 -178 -39c-70 0 -126.833 19 -170.5 57s-65.5 93.333 -65.5 166
c0 40 5.5 83.833 16.5 131.5s26.833 96.5 47.5 146.5l138 -45c-26 -74 -39 -133 -39 -177c0 -32 8.16699 -56.333 24.5 -73s39.833 -25 70.5 -25c50.667 0 117 22 199 66c-18 16 -37.833 30.667 -59.5 44s-46.167 27.666 -73.5 42.999l-19 11l49 132
c95.333 -19.333 174 -29 236 -29c10.667 0 27.334 0.666992 50.001 2c-8 33.333 -18 66.666 -30 99.999c-1.33301 4.66699 -2.66602 8.66699 -3.99902 12s-2.33301 6.66602 -3 9.99902l160 37c12.667 -40 19 -83.333 19 -130c0 -35.333 -3.66699 -69.333 -11 -102z" />
    <glyph glyph-name="uniFC10" unicode="&#xfe97;&#xfef2;" horiz-adv-x="838" arabic-form="isolated" 
d="M538 406.5c-20.667 14.333 -35.332 26.499 -43.999 36.499c4 14 14 32.667 30 56s29.333 35 40 35s26.667 -7.5 48 -22.5s34.333 -27.5 39 -37.5c9.33301 16.667 19 30.834 29 42.501s19 17.5 27 17.5c10.667 0 27.5 -8.16699 50.5 -24.5s35.5 -29.166 37.5 -38.499
c1.33301 -10 -6 -26.333 -22 -49s-29.667 -38 -41 -46c-12.667 5.33301 -28.667 14.5 -48 27.5s-33.666 24.833 -42.999 35.5c-6.66699 -12 -15.334 -24.333 -26.001 -37s-19.334 -21.334 -26.001 -26.001c-13.333 6 -30.333 16.167 -51 30.5zM801.002 113.999
c-7.33301 -32.667 -17.6689 -59.6641 -31.002 -80.9971c-38 -11.333 -88 -21 -150 -29c0.666992 -24.667 0 -48.5 -2 -71.5s-4.66699 -41.167 -8 -54.5c-50 -42 -105.333 -76 -166 -102s-120 -39 -178 -39c-70 0 -126.833 19 -170.5 57s-65.5 93.333 -65.5 166
c0 40 5.5 83.833 16.5 131.5s26.833 96.5 47.5 146.5l138 -45c-26 -74 -39 -133 -39 -177c0 -32 8.16699 -56.333 24.5 -73s39.833 -25 70.5 -25c50.667 0 117 22 199 66c-18 16 -37.833 30.667 -59.5 44s-46.167 27.666 -73.5 42.999l-19 11l49 132
c95.333 -19.333 174 -29 236 -29c10.667 0 27.334 0.666992 50.001 2c-8 33.333 -18 66.666 -30 99.999c-1.33301 4.66699 -2.66602 8.66699 -3.99902 12s-2.33301 6.66602 -3 9.99902l160 37c12.667 -40 19 -83.333 19 -130c0 -35.333 -3.66699 -69.333 -11 -102z
M403.499 -319.498c23 -16.333 35.502 -29.167 37.502 -38.5c1.33301 -10 -6 -26.333 -22 -49s-29.667 -38 -41 -46c-12.667 5.33301 -28.667 14.5 -48 27.5s-33.666 24.833 -42.999 35.5c-6.66699 -12 -15.334 -24.333 -26.001 -37s-19.334 -21.334 -26.001 -26.001
c-13.333 6 -30.333 16.167 -51 30.5s-35.334 26.5 -44.001 36.5c4 14 14 32.667 30 56s29.333 35 40 35s26.667 -7.5 48 -22.5s34.333 -27.5 39 -37.5c9.33301 16.667 19 30.834 29 42.501s19 17.5 27 17.5c10.667 0 27.5 -8.16699 50.5 -24.5z" />
    <glyph glyph-name="uniFC12" unicode="&#xfe9b;&#xfee2;" horiz-adv-x="636" arabic-form="isolated" 
d="M406 648c-20 14 -34.334 25.667 -43.001 35c2 8 7 19 15 33s16.833 26.333 26.5 37s18.167 16 25.5 16c10.667 0 26.834 -7.66699 48.501 -23s33.5 -27.333 35.5 -36c1.33301 -9.33301 -5.66699 -25 -21 -47s-28.333 -36.667 -39 -44c-12 5.33301 -28 15 -48 29z
M343.499 505c-21 14.667 -35.8311 27 -44.498 37c3.33301 13.333 12.833 31.166 28.5 53.499s28.834 34.5 39.501 36.5c9.33301 2 25.166 -4.66699 47.499 -20s36.166 -28.333 41.499 -39c8.66699 16 18.334 29.833 29.001 41.5s20 17.5 28 17.5
c11.333 0 28.166 -8.16699 50.499 -24.5s34.5 -29.166 36.5 -38.499c1.33301 -10 -6 -26.333 -22 -49s-29.667 -37.667 -41 -45c-11.333 4.66699 -26.666 13.5 -45.999 26.5s-34.333 24.833 -45 35.5c-6.66699 -12 -15.334 -24.167 -26.001 -36.5
s-19.334 -20.833 -26.001 -25.5c-12.667 5.33301 -29.5 15.333 -50.5 30zM476.501 210c-37.667 -17.333 -56.5 -38.002 -56.5 -62.002c0 -16.667 11.333 -34.334 34 -53.001l43 -28c-3.33301 -18.667 -15.5 -44.167 -36.5 -76.5s-38.167 -53.166 -51.5 -62.499
c-14 -0.666992 -27.333 3.5 -40 12.5s-26.667 21.167 -42 36.5s-26.666 24.333 -33.999 27c-8.66699 2.66699 -19 4 -31 4c-8.66699 0 -16.667 -0.333008 -24 -1s-13.666 -1.33398 -18.999 -2.00098l-25 -3c1.33301 -47.333 5.33301 -94.666 12 -141.999
s14.334 -88 23.001 -122c-14 -8 -36.667 -14.5 -68 -19.5s-61.333 -7.5 -90 -7.5l-5 4c-17.333 81.333 -26 166 -26 254c0 35.333 1.33301 66 4 92c4.66699 22.667 16.667 47.334 36 74.001s38.666 43 57.999 49c52.667 -2 97.667 -6.33301 135 -13
c4 62.667 31.333 114.667 82 156s120 70 208 86c23.333 -48 37.666 -101.333 42.999 -160c-48.667 -11.333 -91.834 -25.666 -129.501 -42.999z" />
    <glyph glyph-name="uniFC13" unicode="&#xfe9b;&#xfef0;" horiz-adv-x="838" arabic-form="isolated" 
d="M601 547c-20 14 -34.334 25.667 -43.001 35c2 8 7 19 15 33s16.833 26.333 26.5 37s18.167 16 25.5 16c10.667 0 26.834 -7.66699 48.501 -23s33.5 -27.333 35.5 -36c1.33301 -9.33301 -5.66699 -25 -21 -47s-28.333 -36.667 -39 -44c-12 5.33301 -28 15 -48 29z
M538.499 404c-21 14.667 -35.8311 27 -44.498 37c3.33301 13.333 12.833 31.166 28.5 53.499s28.834 34.5 39.501 36.5c9.33301 2 25.166 -4.66699 47.499 -20s36.166 -28.333 41.499 -39c8.66699 16 18.334 29.833 29.001 41.5s20 17.5 28 17.5
c11.333 0 28.166 -8.16699 50.499 -24.5s34.5 -29.166 36.5 -38.499c1.33301 -10 -6 -26.333 -22 -49s-29.667 -37.667 -41 -45c-11.333 4.66699 -26.666 13.5 -45.999 26.5s-34.333 24.833 -45 35.5c-6.66699 -12 -15.334 -24.167 -26.001 -36.5
s-19.334 -20.833 -26.001 -25.5c-12.667 5.33301 -29.5 15.333 -50.5 30zM801.001 114c-7.33301 -32.667 -17.6689 -59.6641 -31.002 -80.9971c-38 -11.333 -88 -21 -150 -29c0.666992 -24.667 0 -48.5 -2 -71.5s-4.66699 -41.167 -8 -54.5c-50 -42 -105.333 -76 -166 -102
s-120 -39 -178 -39c-70 0 -126.833 19 -170.5 57s-65.5 93.333 -65.5 166c0 40 5.5 83.833 16.5 131.5s26.833 96.5 47.5 146.5l138 -45c-26 -74 -39 -133 -39 -177c0 -32 8.16699 -56.333 24.5 -73s39.833 -25 70.5 -25c50.667 0 117 22 199 66
c-18 16 -37.833 30.667 -59.5 44s-46.167 27.666 -73.5 42.999l-19 11l49 132c95.333 -19.333 174 -29 236 -29c10.667 0 27.334 0.666992 50.001 2c-8 33.333 -18 66.666 -30 99.999c-1.33301 4.66699 -2.66602 8.66699 -3.99902 12s-2.33301 6.66602 -3 9.99902l160 37
c12.667 -40 19 -83.333 19 -130c0 -35.333 -3.66699 -69.333 -11 -102z" />
    <glyph glyph-name="uniFC14" unicode="&#xfe9b;&#xfef2;" horiz-adv-x="838" arabic-form="isolated" 
d="M601 547c-20 14 -34.334 25.667 -43.001 35c2 8 7 19 15 33s16.833 26.333 26.5 37s18.167 16 25.5 16c10.667 0 26.834 -7.66699 48.501 -23s33.5 -27.333 35.5 -36c1.33301 -9.33301 -5.66699 -25 -21 -47s-28.333 -36.667 -39 -44c-12 5.33301 -28 15 -48 29z
M538.499 404c-21 14.667 -35.8311 27 -44.498 37c3.33301 13.333 12.833 31.166 28.5 53.499s28.834 34.5 39.501 36.5c9.33301 2 25.166 -4.66699 47.499 -20s36.166 -28.333 41.499 -39c8.66699 16 18.334 29.833 29.001 41.5s20 17.5 28 17.5
c11.333 0 28.166 -8.16699 50.499 -24.5s34.5 -29.166 36.5 -38.499c1.33301 -10 -6 -26.333 -22 -49s-29.667 -37.667 -41 -45c-11.333 4.66699 -26.666 13.5 -45.999 26.5s-34.333 24.833 -45 35.5c-6.66699 -12 -15.334 -24.167 -26.001 -36.5
s-19.334 -20.833 -26.001 -25.5c-12.667 5.33301 -29.5 15.333 -50.5 30zM801.001 114c-7.33301 -32.667 -17.6689 -59.6641 -31.002 -80.9971c-38 -11.333 -88 -21 -150 -29c0.666992 -24.667 0 -48.5 -2 -71.5s-4.66699 -41.167 -8 -54.5c-50 -42 -105.333 -76 -166 -102
s-120 -39 -178 -39c-70 0 -126.833 19 -170.5 57s-65.5 93.333 -65.5 166c0 40 5.5 83.833 16.5 131.5s26.833 96.5 47.5 146.5l138 -45c-26 -74 -39 -133 -39 -177c0 -32 8.16699 -56.333 24.5 -73s39.833 -25 70.5 -25c50.667 0 117 22 199 66
c-18 16 -37.833 30.667 -59.5 44s-46.167 27.666 -73.5 42.999l-19 11l49 132c95.333 -19.333 174 -29 236 -29c10.667 0 27.334 0.666992 50.001 2c-8 33.333 -18 66.666 -30 99.999c-1.33301 4.66699 -2.66602 8.66699 -3.99902 12s-2.33301 6.66602 -3 9.99902l160 37
c12.667 -40 19 -83.333 19 -130c0 -35.333 -3.66699 -69.333 -11 -102zM403.498 -319.497c23 -16.333 35.502 -29.167 37.502 -38.5c1.33301 -10 -6 -26.333 -22 -49s-29.667 -38 -41 -46c-12.667 5.33301 -28.667 14.5 -48 27.5s-33.666 24.833 -42.999 35.5
c-6.66699 -12 -15.334 -24.333 -26.001 -37s-19.334 -21.334 -26.001 -26.001c-13.333 6 -30.333 16.167 -51 30.5s-35.334 26.5 -44.001 36.5c4 14 14 32.667 30 56s29.333 35 40 35s26.667 -7.5 48 -22.5s34.333 -27.5 39 -37.5c9.33301 16.667 19 30.834 29 42.501
s19 17.5 27 17.5c10.667 0 27.5 -8.16699 50.5 -24.5z" />
    <glyph glyph-name="uniFC1F" unicode="&#xfeb3;&#xfee2;" horiz-adv-x="1219" arabic-form="isolated" 
d="M1189 210c0 -35.333 -3.50391 -69 -10.5039 -101s-17.167 -58.667 -30.5 -80c-48.667 -23.333 -92.334 -35 -131.001 -35c-58 0 -106 25.333 -144 76h-9c-10.667 -23.333 -29.167 -41.666 -55.5 -54.999s-52.833 -20 -79.5 -20c-24 0 -45.167 4.66699 -63.5 14
s-34.166 20.666 -47.499 33.999s-28.333 31 -45 53c-22 27.333 -40.833 47.5 -56.5 60.5s-34.5 19.5 -56.5 19.5c-18 0 -33.167 -4 -45.5 -12s-21.166 -19.333 -26.499 -34c41.333 -18.667 77.666 -39.667 108.999 -63c-3.33301 -18.667 -15.5 -44.167 -36.5 -76.5
s-38.167 -53.166 -51.5 -62.499c-13.333 -0.666992 -26.166 3.33301 -38.499 12s-26.5 20.667 -42.5 36c-16.667 16.667 -28.667 26 -36 28c-8 2.66699 -18 4 -30 4c-8.66699 0 -16.667 -0.333008 -24 -1s-13.666 -1.33398 -18.999 -2.00098l-25 -3
c1.33301 -47.333 5.33301 -94.666 12 -141.999s14.334 -88 23.001 -122c-14.667 -8 -37.5 -14.5 -68.5 -19.5s-60.833 -7.5 -89.5 -7.5l-5 4c-17.333 81.333 -26 166 -26 254c0 35.333 1.33301 66 4 92c4.66699 22.667 16.667 47.334 36 74.001s38.333 43 57 49
c50 -2.66699 90.667 -6.33398 122 -11.001c14.667 53.333 40 95.333 76 126s76.333 46 121 46c30 0 55.5 -7.5 76.5 -22.5s44.167 -36.833 69.5 -65.5c22.667 -26 42.5 -45.333 59.5 -58s37.167 -19 60.5 -19c32 0 58.833 7.83301 80.5 23.5s36.5 45.167 44.5 88.5l83 -13
c-0.666992 -5.33301 -1 -13 -1 -23c0 -29.333 5.83301 -50 17.5 -62s27.834 -18 48.501 -18c12 0 29.333 2.66699 52 8c-6 27.333 -16 60.666 -30 99.999l-7 21l160 37c12.667 -38 19 -82 19 -132z" />
    <glyph glyph-name="uniFC21" unicode="&#xfebb;&#xfee2;" horiz-adv-x="1201" arabic-form="isolated" 
d="M1121 338.5c33.333 -39.667 50 -91.833 50 -156.5c0 -14 -4.33301 -35.833 -13 -65.5s-20.334 -55.167 -35.001 -76.5c-33.333 -12.667 -81.833 -23.167 -145.5 -31.5s-120.834 -12.5 -171.501 -12.5c-45.333 0 -83.5 5.5 -114.5 16.5s-55.333 24.167 -73 39.5
s-36.834 35 -57.501 59c-18.667 22.667 -34.834 39.167 -48.501 49.5s-31.167 15.5 -52.5 15.5c-37.333 0 -61.666 -15.333 -72.999 -46c16.667 -7.33301 35.334 -16.833 56.001 -28.5s38.667 -23.167 54 -34.5c-3.33301 -18.667 -15.5 -44.167 -36.5 -76.5
s-38.167 -53.166 -51.5 -62.499c-13.333 -0.666992 -26.166 3.33301 -38.499 12s-26.5 20.667 -42.5 36c-16.667 16.667 -28.667 26 -36 28c-8 2.66699 -18 4 -30 4c-8.66699 0 -16.667 -0.333008 -24 -1s-13.666 -1.33398 -18.999 -2.00098l-25 -3
c1.33301 -47.333 5.33301 -94.666 12 -141.999s14.334 -88 23.001 -122c-14.667 -8 -37.5 -14.5 -68.5 -19.5s-60.833 -7.5 -89.5 -7.5l-5 4c-17.333 81.333 -26 166 -26 254c0 35.333 1.33301 66 4 92c4.66699 22.667 16.667 47.334 36 74.001s38.333 43 57 49
c49.333 -2.66699 89.666 -6.33398 120.999 -11.001c14.667 51.333 39.667 92.833 75 124.5s76.333 47.5 123 47.5c27.333 0 51 -6.33301 71 -19s43.333 -32 70 -58c17.333 -16.667 32.333 -30.334 45 -41.001s26.667 -20 42 -28c40 54.667 88.5 101.5 145.5 140.5
s109.5 58.5 157.5 58.5c56 0 100.667 -19.833 134 -59.5zM897 171.001c40 0 74.832 1.66797 104.499 5.00098s46.5 8.66602 50.5 15.999c-4 10.667 -13 19.167 -27 25.5s-30.333 9.5 -49 9.5c-25.333 0 -52.666 -4.5 -81.999 -13.5s-57.333 -22.167 -84 -39.5
c25.333 -2 54.333 -3 87 -3z" />
    <glyph glyph-name="uniFC25" unicode="&#xfebf;&#xfee2;" horiz-adv-x="1201" arabic-form="isolated" 
d="M924 507.5c-22.667 15.667 -38.333 29.1689 -47 40.502c2 8.66699 7.16699 20.5 15.5 35.5s17.833 28.667 28.5 41s20 19.166 28 20.499c7.33301 1.33301 18.5 -2 33.5 -10s29 -17.833 42 -29.5s20.167 -20.834 21.5 -27.501c2.66699 -10 -4.83301 -27.5 -22.5 -52.5
s-32.5 -41.5 -44.5 -49.5c-14 5.33301 -32.333 15.833 -55 31.5zM1121 338.502c33.333 -39.667 50 -91.833 50 -156.5c0 -14 -4.33301 -35.833 -13 -65.5s-20.334 -55.167 -35.001 -76.5c-33.333 -12.667 -81.833 -23.167 -145.5 -31.5s-120.834 -12.5 -171.501 -12.5
c-45.333 0 -83.5 5.5 -114.5 16.5s-55.333 24.167 -73 39.5s-36.834 35 -57.501 59c-18.667 22.667 -34.834 39.167 -48.501 49.5s-31.167 15.5 -52.5 15.5c-37.333 0 -61.666 -15.333 -72.999 -46c16.667 -7.33301 35.334 -16.833 56.001 -28.5s38.667 -23.167 54 -34.5
c-3.33301 -18.667 -15.5 -44.167 -36.5 -76.5s-38.167 -53.166 -51.5 -62.499c-13.333 -0.666992 -26.166 3.33301 -38.499 12s-26.5 20.667 -42.5 36c-16.667 16.667 -28.667 26 -36 28c-8 2.66699 -18 4 -30 4c-8.66699 0 -16.667 -0.333008 -24 -1
s-13.666 -1.33398 -18.999 -2.00098l-25 -3c1.33301 -47.333 5.33301 -94.666 12 -141.999s14.334 -88 23.001 -122c-14.667 -8 -37.5 -14.5 -68.5 -19.5s-60.833 -7.5 -89.5 -7.5l-5 4c-17.333 81.333 -26 166 -26 254c0 35.333 1.33301 66 4 92
c4.66699 22.667 16.667 47.334 36 74.001s38.333 43 57 49c49.333 -2.66699 89.666 -6.33398 120.999 -11.001c14.667 51.333 39.667 92.833 75 124.5s76.333 47.5 123 47.5c27.333 0 51 -6.33301 71 -19s43.333 -32 70 -58c17.333 -16.667 32.333 -30.334 45 -41.001
s26.667 -20 42 -28c40 54.667 88.5 101.5 145.5 140.5s109.5 58.5 157.5 58.5c56 0 100.667 -19.833 134 -59.5zM897.001 171.003c40 0 74.832 1.66797 104.499 5.00098s46.5 8.66602 50.5 15.999c-4 10.667 -13 19.167 -27 25.5s-30.333 9.5 -49 9.5
c-25.333 0 -52.666 -4.5 -81.999 -13.5s-57.333 -22.167 -84 -39.5c25.333 -2 54.333 -3 87 -3z" />
    <glyph glyph-name="uniFC31" unicode="&#xfed3;&#xfef0;" horiz-adv-x="879" arabic-form="isolated" 
d="M631 488.5c-22.667 15.667 -38.333 29.1689 -47 40.502c2 8.66699 7.16699 20.5 15.5 35.5s17.833 28.667 28.5 41s20 19.166 28 20.499c7.33301 1.33301 18.5 -2 33.5 -10s29 -17.833 42 -29.5s20.167 -20.834 21.5 -27.501c2.66699 -10 -4.83301 -27.5 -22.5 -52.5
s-32.5 -41.5 -44.5 -49.5c-14 5.33301 -32.333 15.833 -55 31.5zM94.501 -205.998c-43 38 -64.498 92.999 -64.498 164.999c0 80 20.667 173 62 279l138 -44c-24.667 -77.333 -37 -137 -37 -179c0 -32 8 -56.167 24 -72.5s39.333 -24.5 70 -24.5c50 0 114.333 21 193 63
c-46.667 44.667 -95.667 78.334 -147 101.001l48 132c44.667 -10.667 94.667 -18.667 150 -24c0.666992 30.667 8.16699 62 22.5 94s34.166 58.5 59.499 79.5s53.666 31.5 84.999 31.5c43.333 0 77.666 -18.167 102.999 -54.5s38 -80.833 38 -133.5
c0 -28.667 -4.16699 -57.667 -12.5 -87s-20.5 -57 -36.5 -83c-39.333 -15.333 -97.666 -24.333 -174.999 -27c1.33301 -42.667 -1 -86.667 -7 -132c-50 -42 -105.667 -76 -167 -102s-121 -39 -179 -39c-68.667 0 -124.5 19 -167.5 57zM720.503 230.501
c-16.333 7 -32.1689 10.833 -47.502 11.5c-13.333 0 -24.5 -3.16699 -33.5 -9.5s-13.167 -14.5 -12.5 -24.5c6 -8 27.333 -12 64 -12c22.667 0 46.334 2.33301 71.001 7c-11.333 11.333 -25.166 20.5 -41.499 27.5z" />
    <glyph glyph-name="uniFC32" unicode="&#xfed3;&#xfef2;" horiz-adv-x="879" arabic-form="isolated" 
d="M631 488.5c-22.667 15.667 -38.333 29.1689 -47 40.502c2 8.66699 7.16699 20.5 15.5 35.5s17.833 28.667 28.5 41s20 19.166 28 20.499c7.33301 1.33301 18.5 -2 33.5 -10s29 -17.833 42 -29.5s20.167 -20.834 21.5 -27.501c2.66699 -10 -4.83301 -27.5 -22.5 -52.5
s-32.5 -41.5 -44.5 -49.5c-14 5.33301 -32.333 15.833 -55 31.5zM826.501 120.002c-8.33301 -29.333 -20.498 -57.001 -36.498 -83.001c-39.333 -15.333 -97.666 -24.333 -174.999 -27c1.33301 -42.667 -1 -86.667 -7 -132c-50 -42 -105.667 -76 -167 -102
s-121 -39 -179 -39c-68.667 0 -124.5 19 -167.5 57s-64.5 93 -64.5 165c0 80 20.667 173 62 279l138 -44c-24.667 -77.333 -37 -137 -37 -179c0 -32 8 -56.167 24 -72.5s39.333 -24.5 70 -24.5c50 0 114.333 21 193 63c-46.667 44.667 -95.667 78.334 -147 101.001l48 132
c44.667 -10.667 94.667 -18.667 150 -24c0.666992 30.667 8.16699 62 22.5 94s34.166 58.5 59.499 79.5s53.666 31.5 84.999 31.5c43.333 0 77.666 -18.167 102.999 -54.5s38 -80.833 38 -133.5c0 -28.667 -4.16699 -57.667 -12.5 -87zM762.003 203.001
c-11.333 11.333 -25.1689 20.5 -41.502 27.5s-32.166 10.833 -47.499 11.5c-13.333 0 -24.5 -3.16699 -33.5 -9.5s-13.167 -14.5 -12.5 -24.5c6 -8 27.333 -12 64 -12c22.667 0 46.334 2.33301 71.001 7zM403.5 -319.499c23 -16.333 35.502 -29.167 37.502 -38.5
c1.33301 -10 -6 -26.333 -22 -49s-29.667 -38 -41 -46c-12.667 5.33301 -28.667 14.5 -48 27.5s-33.666 24.833 -42.999 35.5c-6.66699 -12 -15.334 -24.333 -26.001 -37s-19.334 -21.334 -26.001 -26.001c-13.333 6 -30.333 16.167 -51 30.5s-35.334 26.5 -44.001 36.5
c4 14 14 32.667 30 56s29.333 35 40 35s26.667 -7.5 48 -22.5s34.333 -27.5 39 -37.5c9.33301 16.667 19 30.834 29 42.501s19 17.5 27 17.5c10.667 0 27.5 -8.16699 50.5 -24.5z" />
    <glyph glyph-name="uniFC35" unicode="&#xfed7;&#xfef0;" horiz-adv-x="869" arabic-form="isolated" 
d="M570 461.5c-20.667 14.333 -35.332 26.499 -43.999 36.499c4 14 14 32.667 30 56s29.333 35 40 35s26.667 -7.5 48 -22.5s34.333 -27.5 39 -37.5c9.33301 16.667 19 30.834 29 42.501s19 17.5 27 17.5c10.667 0 27.5 -8.16699 50.5 -24.5s35.5 -29.166 37.5 -38.499
c1.33301 -10 -6 -26.333 -22 -49s-29.667 -38 -41 -46c-12.667 5.33301 -28.667 14.5 -48 27.5s-33.666 24.833 -42.999 35.5c-6.66699 -12 -15.334 -24.333 -26.001 -37s-19.334 -21.334 -26.001 -26.001c-13.333 6 -30.333 16.167 -51 30.5zM826.502 119.999
c-8.33301 -29.333 -20.498 -57.001 -36.498 -83.001c-39.333 -15.333 -97.666 -24.333 -174.999 -27c1.33301 -42.667 -1 -86.667 -7 -132c-50 -42 -105.667 -76 -167 -102s-121 -39 -179 -39c-68.667 0 -124.5 19 -167.5 57s-64.5 93 -64.5 165c0 80 20.667 173 62 279
l138 -44c-24.667 -77.333 -37 -137 -37 -179c0 -32 8 -56.167 24 -72.5s39.333 -24.5 70 -24.5c50 0 114.333 21 193 63c-46.667 44.667 -95.667 78.334 -147 101.001l48 132c44.667 -10.667 94.667 -18.667 150 -24c0.666992 30.667 8.16699 62 22.5 94
s34.166 58.5 59.499 79.5s53.666 31.5 84.999 31.5c43.333 0 77.666 -18.167 102.999 -54.5s38 -80.833 38 -133.5c0 -28.667 -4.16699 -57.667 -12.5 -87zM762.004 202.998c-11.333 11.333 -25.1689 20.5 -41.502 27.5s-32.166 10.833 -47.499 11.5
c-13.333 0 -24.5 -3.16699 -33.5 -9.5s-13.167 -14.5 -12.5 -24.5c6 -8 27.333 -12 64 -12c22.667 0 46.334 2.33301 71.001 7z" />
    <glyph glyph-name="uniFC36" unicode="&#xfed7;&#xfef2;" horiz-adv-x="869" arabic-form="isolated" 
d="M570 461.5c-20.667 14.333 -35.332 26.499 -43.999 36.499c4 14 14 32.667 30 56s29.333 35 40 35s26.667 -7.5 48 -22.5s34.333 -27.5 39 -37.5c9.33301 16.667 19 30.834 29 42.501s19 17.5 27 17.5c10.667 0 27.5 -8.16699 50.5 -24.5s35.5 -29.166 37.5 -38.499
c1.33301 -10 -6 -26.333 -22 -49s-29.667 -38 -41 -46c-12.667 5.33301 -28.667 14.5 -48 27.5s-33.666 24.833 -42.999 35.5c-6.66699 -12 -15.334 -24.333 -26.001 -37s-19.334 -21.334 -26.001 -26.001c-13.333 6 -30.333 16.167 -51 30.5zM826.502 119.999
c-8.33301 -29.333 -20.498 -57.001 -36.498 -83.001c-39.333 -15.333 -97.666 -24.333 -174.999 -27c1.33301 -42.667 -1 -86.667 -7 -132c-50 -42 -105.667 -76 -167 -102s-121 -39 -179 -39c-68.667 0 -124.5 19 -167.5 57s-64.5 93 -64.5 165c0 80 20.667 173 62 279
l138 -44c-24.667 -77.333 -37 -137 -37 -179c0 -32 8 -56.167 24 -72.5s39.333 -24.5 70 -24.5c50 0 114.333 21 193 63c-46.667 44.667 -95.667 78.334 -147 101.001l48 132c44.667 -10.667 94.667 -18.667 150 -24c0.666992 30.667 8.16699 62 22.5 94
s34.166 58.5 59.499 79.5s53.666 31.5 84.999 31.5c43.333 0 77.666 -18.167 102.999 -54.5s38 -80.833 38 -133.5c0 -28.667 -4.16699 -57.667 -12.5 -87zM762.004 202.998c-11.333 11.333 -25.1689 20.5 -41.502 27.5s-32.166 10.833 -47.499 11.5
c-13.333 0 -24.5 -3.16699 -33.5 -9.5s-13.167 -14.5 -12.5 -24.5c6 -8 27.333 -12 64 -12c22.667 0 46.334 2.33301 71.001 7zM413.501 -326.502c23 -16.333 35.502 -29.167 37.502 -38.5c1.33301 -10 -6 -26.333 -22 -49s-29.667 -38 -41 -46
c-12.667 5.33301 -28.667 14.5 -48 27.5s-33.666 24.833 -42.999 35.5c-6.66699 -12 -15.334 -24.333 -26.001 -37s-19.334 -21.334 -26.001 -26.001c-13.333 6 -30.333 16.167 -51 30.5s-35.334 26.5 -44.001 36.5c4 14 14 32.667 30 56s29.333 35 40 35
s26.667 -7.5 48 -22.5s34.333 -27.5 39 -37.5c9.33301 16.667 19 30.834 29 42.501s19 17.5 27 17.5c10.667 0 27.5 -8.16699 50.5 -24.5z" />
    <glyph glyph-name="uniFC3D" unicode="&#xfedb;&#xfef0;" horiz-adv-x="891" arabic-form="isolated" 
d="M871 429l-140.002 -43.999c62.667 -92 94 -179.333 94 -262c0 -30.667 -4.33301 -61.334 -13 -92.001c-26 -18 -90.333 -27 -193 -27c1.33301 -48.667 -1.33398 -90.334 -8.00098 -125.001c-51.333 -42 -107.666 -76.167 -168.999 -102.5s-120.666 -39.5 -177.999 -39.5
c-70 0 -126.5 18.833 -169.5 56.5s-64.5 93.167 -64.5 166.5c0 83.333 21.333 176 64 278l138 -45c-26 -74.667 -39 -134 -39 -178c0 -32 8.16699 -56.167 24.5 -72.5s39.833 -24.5 70.5 -24.5c52 0 118.333 22 199 66c-33.333 30 -84 62.667 -152 98l49 132
c50 -10 91.333 -17.333 124 -22s67.667 -7 105 -7c20.667 0 41.334 1 62.001 3c-39.333 54.667 -85 98.334 -137 131.001v166l319 119l14 -10v-165z" />
    <glyph glyph-name="uniFC3E" unicode="&#xfedb;&#xfef2;" horiz-adv-x="891" arabic-form="isolated" 
d="M871 429l-140.002 -43.999c62.667 -92 94 -179.333 94 -262c0 -30.667 -4.33301 -61.334 -13 -92.001c-26 -18 -90.333 -27 -193 -27c1.33301 -48.667 -1.33398 -90.334 -8.00098 -125.001c-51.333 -42 -107.666 -76.167 -168.999 -102.5s-120.666 -39.5 -177.999 -39.5
c-70 0 -126.5 18.833 -169.5 56.5s-64.5 93.167 -64.5 166.5c0 83.333 21.333 176 64 278l138 -45c-26 -74.667 -39 -134 -39 -178c0 -32 8.16699 -56.167 24.5 -72.5s39.833 -24.5 70.5 -24.5c52 0 118.333 22 199 66c-33.333 30 -84 62.667 -152 98l49 132
c50 -10 91.333 -17.333 124 -22s67.667 -7 105 -7c20.667 0 41.334 1 62.001 3c-39.333 54.667 -85 98.334 -137 131.001v166l319 119l14 -10v-165zM403.498 -319.499c23 -16.333 35.502 -29.167 37.502 -38.5c1.33301 -10 -6 -26.333 -22 -49s-29.667 -38 -41 -46
c-12.667 5.33301 -28.667 14.5 -48 27.5s-33.666 24.833 -42.999 35.5c-6.66699 -12 -15.334 -24.333 -26.001 -37s-19.334 -21.334 -26.001 -26.001c-13.333 6 -30.333 16.167 -51 30.5s-35.334 26.5 -44.001 36.5c4 14 14 32.667 30 56s29.333 35 40 35
s26.667 -7.5 48 -22.5s34.333 -27.5 39 -37.5c9.33301 16.667 19 30.834 29 42.501s19 17.5 27 17.5c10.667 0 27.5 -8.16699 50.5 -24.5z" />
    <glyph glyph-name="uniFC42" unicode="&#xfedf;&#xfee2;" horiz-adv-x="551" arabic-form="isolated" 
d="M447.5 143.5l31.5029 -8.5l42 -11c0 -24.667 -4.83301 -50.834 -14.5 -78.501s-21.834 -53 -36.501 -76s-29.334 -39.5 -44.001 -49.5c-28.667 0 -54.667 9.66699 -78 29s-38.333 43.333 -45 72c-30.667 -14 -67 -21 -109 -21c2 -47.333 6.16699 -94.5 12.5 -141.5
s13.833 -87.167 22.5 -120.5c-14.667 -8 -37.5 -14.5 -68.5 -19.5s-61.167 -7.5 -90.5 -7.5l-4 4c-17.333 81.333 -26 165.666 -26 252.999c0 35.333 1.33301 66.333 4 93c4.66699 22.667 16.667 47.334 36 74.001s38.666 43 57.999 49c64 -2 110.667 -4.33301 140 -7
c-2.66699 79.333 -13 206 -31 380l161 9l3 -45c0.666992 -7.33301 2.5 -34.833 5.5 -82.5s4.5 -95.5 4.5 -143.5c0 -55.333 -2.66699 -102.666 -8 -141.999z" />
    <glyph glyph-name="uniFC43" unicode="&#xfedf;&#xfef0;" horiz-adv-x="781" arabic-form="isolated" 
d="M710 29c-24 -7.33301 -55.334 -13.001 -94.001 -17.001c-1.33301 -61.333 -4.33301 -106 -9 -134c-49.333 -42 -104.666 -76 -165.999 -102s-121 -39 -179 -39c-68.667 0 -124.5 19 -167.5 57s-64.5 93.333 -64.5 166c0 81.333 20.333 174 61 278l139 -45
c-25.333 -74.667 -38 -133.667 -38 -177c0 -32 8.16699 -56.333 24.5 -73s39.833 -25 70.5 -25c48.667 0 113 21.333 193 64c-46 42.667 -95.333 76 -148 100l49 132c32.667 -8 69.667 -14.333 111 -19s79.333 -6.66699 114 -6c-2 56.667 -5.33301 111.834 -10 165.501
s-11 122.5 -19 206.5l161 9c8.66699 -156 13 -278 13 -366c0 -68.667 -13.667 -127 -41 -175z" />
    <glyph glyph-name="uniFC44" unicode="&#xfedf;&#xfef2;" horiz-adv-x="781" arabic-form="isolated" 
d="M710 29c-24 -7.33301 -55.334 -13.001 -94.001 -17.001c-1.33301 -61.333 -4.33301 -106 -9 -134c-49.333 -42 -104.666 -76 -165.999 -102s-121 -39 -179 -39c-68.667 0 -124.5 19 -167.5 57s-64.5 93.333 -64.5 166c0 81.333 20.333 174 61 278l139 -45
c-25.333 -74.667 -38 -133.667 -38 -177c0 -32 8.16699 -56.333 24.5 -73s39.833 -25 70.5 -25c48.667 0 113 21.333 193 64c-46 42.667 -95.333 76 -148 100l49 132c32.667 -8 69.667 -14.333 111 -19s79.333 -6.66699 114 -6c-2 56.667 -5.33301 111.834 -10 165.501
s-11 122.5 -19 206.5l161 9c8.66699 -156 13 -278 13 -366c0 -68.667 -13.667 -127 -41 -175zM403.499 -319.501c23 -16.333 35.502 -29.167 37.502 -38.5c1.33301 -10 -6 -26.333 -22 -49s-29.667 -38 -41 -46c-12.667 5.33301 -28.667 14.5 -48 27.5
s-33.666 24.833 -42.999 35.5c-6.66699 -12 -15.334 -24.333 -26.001 -37s-19.334 -21.334 -26.001 -26.001c-13.333 6 -30.333 16.167 -51 30.5s-35.334 26.5 -44.001 36.5c4 14 14 32.667 30 56s29.333 35 40 35s26.667 -7.5 48 -22.5s34.333 -27.5 39 -37.5
c9.33301 16.667 19 30.834 29 42.501s19 17.5 27 17.5c10.667 0 27.5 -8.16699 50.5 -24.5z" />
    <glyph glyph-name="uniFC4E" unicode="&#xfee7;&#xfee2;" horiz-adv-x="636" arabic-form="isolated" 
d="M398 517.5c-22.667 15.667 -38.333 29.1689 -47 40.502c2 8.66699 7.16699 20.5 15.5 35.5s17.833 28.667 28.5 41s20 19.166 28 20.499c7.33301 1.33301 18.5 -2 33.5 -10s29 -17.833 42 -29.5s20.167 -20.834 21.5 -27.501c2.66699 -10 -4.83301 -27.5 -22.5 -52.5
s-32.5 -41.5 -44.5 -49.5c-14 5.33301 -32.333 15.833 -55 31.5zM476.501 210.002c-37.667 -17.333 -56.5 -38.002 -56.5 -62.002c0 -16.667 11.333 -34.334 34 -53.001l43 -28c-3.33301 -18.667 -15.5 -44.167 -36.5 -76.5s-38.167 -53.166 -51.5 -62.499
c-14 -0.666992 -27.333 3.5 -40 12.5s-26.667 21.167 -42 36.5s-26.666 24.333 -33.999 27c-8.66699 2.66699 -19 4 -31 4c-8.66699 0 -16.667 -0.333008 -24 -1s-13.666 -1.33398 -18.999 -2.00098l-25 -3c1.33301 -47.333 5.33301 -94.666 12 -141.999
s14.334 -88 23.001 -122c-14 -8 -36.667 -14.5 -68 -19.5s-61.333 -7.5 -90 -7.5l-5 4c-17.333 81.333 -26 166 -26 254c0 35.333 1.33301 66 4 92c4.66699 22.667 16.667 47.334 36 74.001s38.666 43 57.999 49c52.667 -2 97.667 -6.33301 135 -13
c4 62.667 31.333 114.667 82 156s120 70 208 86c23.333 -48 37.666 -101.333 42.999 -160c-48.667 -11.333 -91.834 -25.666 -129.501 -42.999z" />
    <glyph glyph-name="uniFC4F" unicode="&#xfee7;&#xfef0;" horiz-adv-x="848" arabic-form="isolated" 
d="M641 417.5c-22.667 15.667 -38.333 29.1689 -47 40.502c2 8.66699 7.16699 20.5 15.5 35.5s17.833 28.667 28.5 41s20 19.166 28 20.499c7.33301 1.33301 18.5 -2 33.5 -10s29 -17.833 42 -29.5s20.167 -20.834 21.5 -27.501c2.66699 -10 -4.83301 -27.5 -22.5 -52.5
s-32.5 -41.5 -44.5 -49.5c-14 5.33301 -32.333 15.833 -55 31.5zM801.001 114.002c-7.33301 -32.667 -17.6689 -59.6641 -31.002 -80.9971c-38 -11.333 -88 -21 -150 -29c0.666992 -24.667 0 -48.5 -2 -71.5s-4.66699 -41.167 -8 -54.5c-50 -42 -105.333 -76 -166 -102
s-120 -39 -178 -39c-70 0 -126.833 19 -170.5 57s-65.5 93.333 -65.5 166c0 40 5.5 83.833 16.5 131.5s26.833 96.5 47.5 146.5l138 -45c-26 -74 -39 -133 -39 -177c0 -32 8.16699 -56.333 24.5 -73s39.833 -25 70.5 -25c50.667 0 117 22 199 66
c-18 16 -37.833 30.667 -59.5 44s-46.167 27.666 -73.5 42.999l-19 11l49 132c95.333 -19.333 174 -29 236 -29c10.667 0 27.334 0.666992 50.001 2c-8 33.333 -18 66.666 -30 99.999c-1.33301 4.66699 -2.66602 8.66699 -3.99902 12s-2.33301 6.66602 -3 9.99902l160 37
c12.667 -40 19 -83.333 19 -130c0 -35.333 -3.66699 -69.333 -11 -102z" />
    <glyph glyph-name="uniFC50" unicode="&#xfee7;&#xfef2;" horiz-adv-x="848" arabic-form="isolated" 
d="M641 417.5c-22.667 15.667 -38.333 29.1689 -47 40.502c2 8.66699 7.16699 20.5 15.5 35.5s17.833 28.667 28.5 41s20 19.166 28 20.499c7.33301 1.33301 18.5 -2 33.5 -10s29 -17.833 42 -29.5s20.167 -20.834 21.5 -27.501c2.66699 -10 -4.83301 -27.5 -22.5 -52.5
s-32.5 -41.5 -44.5 -49.5c-14 5.33301 -32.333 15.833 -55 31.5zM801.001 114.002c-7.33301 -32.667 -17.6689 -59.6641 -31.002 -80.9971c-38 -11.333 -88 -21 -150 -29c0.666992 -24.667 0 -48.5 -2 -71.5s-4.66699 -41.167 -8 -54.5c-50 -42 -105.333 -76 -166 -102
s-120 -39 -178 -39c-70 0 -126.833 19 -170.5 57s-65.5 93.333 -65.5 166c0 40 5.5 83.833 16.5 131.5s26.833 96.5 47.5 146.5l138 -45c-26 -74 -39 -133 -39 -177c0 -32 8.16699 -56.333 24.5 -73s39.833 -25 70.5 -25c50.667 0 117 22 199 66
c-18 16 -37.833 30.667 -59.5 44s-46.167 27.666 -73.5 42.999l-19 11l49 132c95.333 -19.333 174 -29 236 -29c10.667 0 27.334 0.666992 50.001 2c-8 33.333 -18 66.666 -30 99.999c-1.33301 4.66699 -2.66602 8.66699 -3.99902 12s-2.33301 6.66602 -3 9.99902l160 37
c12.667 -40 19 -83.333 19 -130c0 -35.333 -3.66699 -69.333 -11 -102zM403.498 -319.495c23 -16.333 35.502 -29.167 37.502 -38.5c1.33301 -10 -6 -26.333 -22 -49s-29.667 -38 -41 -46c-12.667 5.33301 -28.667 14.5 -48 27.5s-33.666 24.833 -42.999 35.5
c-6.66699 -12 -15.334 -24.333 -26.001 -37s-19.334 -21.334 -26.001 -26.001c-13.333 6 -30.333 16.167 -51 30.5s-35.334 26.5 -44.001 36.5c4 14 14 32.667 30 56s29.333 35 40 35s26.667 -7.5 48 -22.5s34.333 -27.5 39 -37.5c9.33301 16.667 19 30.834 29 42.501
s19 17.5 27 17.5c10.667 0 27.5 -8.16699 50.5 -24.5z" />
    <glyph glyph-name="uniFC58" unicode="&#xfef3;&#xfee2;" horiz-adv-x="636" arabic-form="isolated" 
d="M369 -59.5c-12.667 9 -26.667 21.165 -42 36.498s-26.666 24.333 -33.999 27c-8.66699 2.66699 -19 4 -31 4c-8.66699 0 -16.667 -0.333008 -24 -1s-13.666 -1.33398 -18.999 -2.00098l-25 -3c1.33301 -47.333 5.33301 -94.666 12 -141.999s14.334 -88 23.001 -122
c-14 -8 -36.667 -14.5 -68 -19.5s-61.333 -7.5 -90 -7.5l-5 4c-17.333 81.333 -26 166 -26 254c0 35.333 1.33301 66 4 92c4.66699 22.667 16.667 47.334 36 74.001s38.666 43 57.999 49c52.667 -2 97.667 -6.33301 135 -13c4 62.667 31.333 114.667 82 156s120 70 208 86
c23.333 -48 37.666 -101.333 42.999 -160c-48.667 -11.333 -91.834 -25.666 -129.501 -42.999s-56.5 -38 -56.5 -62c0 -16.667 11.333 -34.334 34 -53.001l43 -28c-3.33301 -18.667 -15.5 -44.167 -36.5 -76.5s-38.167 -53.166 -51.5 -62.499
c-14 -0.666992 -27.333 3.5 -40 12.5zM560.5 -164.502c23 -16.333 35.502 -29.167 37.502 -38.5c1.33301 -10 -6 -26.333 -22 -49s-29.667 -38 -41 -46c-12.667 5.33301 -28.667 14.5 -48 27.5s-33.666 24.833 -42.999 35.5c-6.66699 -12 -15.334 -24.333 -26.001 -37
s-19.334 -21.334 -26.001 -26.001c-13.333 6 -30.333 16.167 -51 30.5s-35.334 26.5 -44.001 36.5c4 14 14 32.667 30 56s29.333 35 40 35s26.667 -7.5 48 -22.5s34.333 -27.5 39 -37.5c9.33301 16.667 19 30.834 29 42.501s19 17.5 27 17.5
c10.667 0 27.5 -8.16699 50.5 -24.5z" />
    <glyph glyph-name="uniFC64" unicode="&#xfe8c;&#xfeae;" horiz-adv-x="582" arabic-form="final" 
d="M289.5 364c-29.667 -4 -55.832 -8.66797 -78.499 -14.001c-2.66699 4 -4.66699 10.5 -6 19.5s-2 18.167 -2 27.5c0 10 0.666992 16.333 2 19c12 5.33301 26.333 10 43 14c-14 16.667 -21 34 -21 52c0 14 4.5 27.333 13.5 40s20.333 22.834 34 30.501
s27.167 11.5 40.5 11.5c10.667 0 19.667 -2.33301 27 -7c14.667 -8.66699 22 -22 22 -40c0 -13.333 -4.33301 -25.333 -13 -36c-12.667 6 -24.667 9 -36 9c-8.66699 0 -15.834 -1.83301 -21.501 -5.5s-8.5 -8.5 -8.5 -14.5c0 -9.33301 3.66699 -19 11 -29
c26.667 5.33301 51.334 8 74.001 8l19 -1l4 -5c-1.33301 -9.33301 -5.33301 -22.5 -12 -39.5s-12 -28.167 -16 -33.5c-20.667 0 -45.834 -2 -75.501 -6zM603.502 162.999c3.66699 -15.333 5.49512 -38.667 5.49512 -70c0 -32 -2 -55.5 -6 -70.5s-11 -22.5 -21 -22.5
c-30 0 -59 9.5 -87 28.5s-49 46.833 -63 83.5c-62 -22 -123 -33 -183 -33c-13.333 -48 -30.166 -96.5 -50.499 -145.5s-39.666 -91.167 -57.999 -126.5s-29.833 -56.333 -34.5 -63c-22.667 8.66699 -49.667 23.5 -81 44.5s-54.666 40.167 -69.999 57.5
c47.333 72.667 86.5 139.667 117.5 201s57.833 129.333 80.5 204c20 -1.33301 35.333 -2 46 -2c82.667 0 170.334 16.333 263.001 49c11.333 -35.333 27.333 -62.833 48 -82.5s44.667 -29.5 72 -29.5c10.667 0 17.834 -7.66699 21.501 -23z" />
    <glyph glyph-name="uniFC65" unicode="&#xfe8c;&#xfeb0;" horiz-adv-x="587" arabic-form="final" 
d="M381.5 366c-29.667 -4 -55.832 -8.66797 -78.499 -14.001c-2.66699 4 -4.66699 10.5 -6 19.5s-2 18.167 -2 27.5c0 10 0.666992 16.333 2 19c12 5.33301 26.333 10 43 14c-14 16.667 -21 34 -21 52c0 14 4.5 27.333 13.5 40s20.333 22.834 34 30.501
s27.167 11.5 40.5 11.5c10.667 0 19.667 -2.33301 27 -7c14.667 -8.66699 22 -22 22 -40c0 -13.333 -4.33301 -25.333 -13 -36c-13.333 6 -25.333 9 -36 9c-8.66699 0 -15.834 -1.83301 -21.501 -5.5s-8.5 -8.5 -8.5 -14.5c0 -9.33301 3.66699 -19 11 -29
c26.667 5.33301 51.334 8 74.001 8l19 -1l4 -5c-1.33301 -9.33301 -5.33301 -22.5 -12 -39.5s-12 -28.167 -16 -33.5c-20.667 0 -45.834 -2 -75.501 -6zM106.002 357.499c-22.667 15.667 -38.333 29.1689 -47 40.502c2 8.66699 7.16699 20.5 15.5 35.5
s17.833 28.667 28.5 41s20 19.166 28 20.499c7.33301 1.33301 18.5 -2 33.5 -10s29 -17.833 42 -29.5s20.167 -20.834 21.5 -27.501c2.66699 -10 -4.83301 -27.5 -22.5 -52.5s-32.5 -41.5 -44.5 -49.5c-14 5.33301 -32.333 15.833 -55 31.5zM603.503 163.001
c3.66699 -15.333 5.49512 -38.667 5.49512 -70c0 -32 -2 -55.5 -6 -70.5s-11 -22.5 -21 -22.5c-30 0 -59 9.5 -87 28.5s-49 46.833 -63 83.5c-62 -22 -123 -33 -183 -33c-13.333 -48 -30.166 -96.5 -50.499 -145.5s-39.666 -91.167 -57.999 -126.5
s-29.833 -56.333 -34.5 -63c-22.667 8.66699 -49.667 23.5 -81 44.5s-54.666 40.167 -69.999 57.5c47.333 72.667 86.5 139.667 117.5 201s57.833 129.333 80.5 204c20 -1.33301 35.333 -2 46 -2c82.667 0 170.334 16.333 263.001 49
c11.333 -35.333 27.333 -62.833 48 -82.5s44.667 -29.5 72 -29.5c10.667 0 17.834 -7.66699 21.501 -23z" />
    <glyph glyph-name="uniFC66" unicode="&#xfe8c;&#xfee2;" horiz-adv-x="727" arabic-form="final" 
d="M748.5 163c3.66699 -15.333 5.49707 -38.667 5.49707 -70c0 -32 -2 -55.5 -6 -70.5s-11 -22.5 -21 -22.5c-32 0 -59.5 8 -82.5 24s-49.167 39.667 -78.5 71c-24.667 27.333 -46 47.666 -64 60.999s-38.667 20 -62 20c-14.667 0 -27.5 -4 -38.5 -12
s-19.167 -19.333 -24.5 -34c16.667 -7.33301 35.334 -16.833 56.001 -28.5s38.667 -23.167 54 -34.5c-3.33301 -18.667 -15.5 -44.167 -36.5 -76.5s-38.167 -53.166 -51.5 -62.499c-13.333 -0.666992 -26.166 3.33301 -38.499 12s-26.5 20.667 -42.5 36
c-16.667 16.667 -28.667 26 -36 28c-8 2.66699 -18 4 -30 4c-8.66699 0 -16.667 -0.333008 -24 -1s-13.666 -1.33398 -18.999 -2.00098l-25 -3c1.33301 -47.333 5.33301 -94.666 12 -141.999s14.334 -88 23.001 -122c-14.667 -8 -37.5 -14.5 -68.5 -19.5
s-60.833 -7.5 -89.5 -7.5l-5 4c-17.333 81.333 -26 166 -26 254c0 35.333 1.33301 66 4 92c4.66699 22.667 16.667 47.334 36 74.001s38.333 43 57 49c49.333 -2.66699 89.666 -6.33398 120.999 -11.001c14.667 52.667 40 94.5 76 125.5s76.667 46.5 122 46.5
c32 0 58.167 -6.83301 78.5 -20.5s43.166 -34.167 68.499 -61.5c24 -26 45.333 -45.333 64 -58s42 -19 70 -19c10.667 0 17.834 -7.66699 21.501 -23zM521.997 476.999c-1.33301 -9.33301 -5.33105 -22.501 -11.998 -39.501s-12 -28.167 -16 -33.5
c-20.667 0 -45.834 -2 -75.501 -6s-55.834 -8.66699 -78.501 -14c-2.66699 4 -4.66699 10.5 -6 19.5s-2 18.167 -2 27.5c0 10 0.666992 16.333 2 19c12 5.33301 26.333 10 43 14c-14 16.667 -21 34 -21 52c0 14 4.5 27.333 13.5 40s20.333 22.834 34 30.501
s27.167 11.5 40.5 11.5c10.667 0 19.667 -2.33301 27 -7c14.667 -8.66699 22 -22 22 -40c0 -13.333 -4.33301 -25.333 -13 -36c-13.333 6 -25.333 9 -36 9c-8.66699 0 -15.834 -1.83301 -21.501 -5.5s-8.5 -8.5 -8.5 -14.5c0 -9.33301 3.66699 -19 11 -29
c26.667 5.33301 51.334 8 74.001 8l19 -1z" />
    <glyph glyph-name="uniFC67" unicode="&#xfe8c;&#xfee6;" horiz-adv-x="972" arabic-form="final" 
d="M640.5 352c-29.667 -4 -55.832 -8.66797 -78.499 -14.001c-2.66699 4 -4.66699 10.5 -6 19.5s-2 18.167 -2 27.5c0 10 0.666992 16.333 2 19c12 5.33301 26.333 10 43 14c-14 16.667 -21 34 -21 52c0 14 4.5 27.333 13.5 40s20.333 22.834 34 30.501
s27.167 11.5 40.5 11.5c10.667 0 19.667 -2.33301 27 -7c14.667 -8.66699 22 -22 22 -40c0 -13.333 -4.33301 -25.333 -13 -36c-12.667 6 -24.667 9 -36 9c-8.66699 0 -15.834 -1.83301 -21.501 -5.5s-8.5 -8.5 -8.5 -14.5c0 -9.33301 3.66699 -19 11 -29
c26.667 5.33301 51.334 8 74.001 8l19 -1l4 -5c-1.33301 -9.33301 -5.33301 -22.5 -12 -39.5s-12 -28.167 -16 -33.5c-20.667 0 -45.834 -2 -75.501 -6zM275.002 325.499c-22.667 15.667 -38.333 29.1689 -47 40.502c2 8.66699 7.16699 20.5 15.5 35.5
s17.833 28.667 28.5 41s20 19.166 28 20.499c7.33301 1.33301 18.5 -2 33.5 -10s29 -17.833 42 -29.5s20.167 -20.834 21.5 -27.501c2.66699 -10 -4.83301 -27.5 -22.5 -52.5s-32.5 -41.5 -44.5 -49.5c-14 5.33301 -32.333 15.833 -55 31.5zM993.503 163.001
c3.66699 -15.333 5.5 -38.6699 5.5 -70.0029c0 -32 -2 -55.5 -6 -70.5s-11 -22.5 -21 -22.5c-70 0 -118.667 38.333 -146 115c-24 -8 -53 -15.167 -87 -21.5s-68.667 -10.833 -104 -13.5c0.666992 -8.66699 1 -22.667 1 -42c0 -46.667 -4.83301 -91.167 -14.5 -133.5
s-25.834 -79.166 -48.501 -110.499c-94.667 -28 -177.334 -42 -248.001 -42c-96 0 -167.5 19.833 -214.5 59.5s-70.5 95.834 -70.5 168.501s23.333 160.334 70 263.001l139 -45c-24.667 -65.333 -37 -118.333 -37 -159c0 -35.333 9.66699 -61.333 29 -78s48.333 -25 87 -25
c39.333 0 88.333 8 147 24c0 49.333 -5.33301 129 -16 239c-1.33301 8 -2.66602 20.667 -3.99902 38l10 15c25.333 -1.33301 47 -2 65 -2c108.667 0 216 16 322 48c16 -43.333 33 -72.833 51 -88.5s41 -23.5 69 -23.5c10.667 0 17.834 -7.66699 21.501 -23z" />
    <glyph glyph-name="uniFC68" unicode="&#xfe8c;&#xfef0;" horiz-adv-x="828" arabic-form="final" 
d="M849.5 163c3.66699 -15.333 5.50098 -38.666 5.50098 -69.999c0 -32 -2 -55.5 -6 -70.5s-11 -22.5 -21 -22.5c-26 0 -48.833 5.16699 -68.5 15.5s-35.834 22.666 -48.501 36.999s-26.667 32.833 -42 55.5c-18.667 28.667 -33.5 48.5 -44.5 59.5s-25.167 16.5 -42.5 16.5
c-24 0 -49.667 -12 -77 -36c25.333 -10.667 48.333 -23.667 69 -39s33.667 -29.666 39 -42.999c4.66699 -11.333 7 -27 7 -47c0 -21.333 -3.33301 -46 -10 -74s-17 -56.667 -31 -86c-41.333 -32.667 -90.333 -60.167 -147 -82.5s-113.334 -33.5 -170.001 -33.5
c-70 0 -126.167 18.833 -168.5 56.5s-63.5 94.5 -63.5 170.5c0 36 5 77 15 123s25.333 95.333 46 148l138 -44c-24 -70 -36 -127 -36 -171c0 -34.667 8.33301 -61 25 -79s40 -27 70 -27c24 0 53.333 5.66699 88 17s66.334 26 95.001 44
c-4.66699 3.33301 -8.83398 6 -12.501 8l-10.5 6c-38.667 22.667 -67.5 42.834 -86.5 60.501s-28.5 38.167 -28.5 61.5c0 21.333 8.5 45.166 25.5 71.499s39.167 51.833 66.5 76.5c28 25.333 57 45.666 87 60.999s58.333 23 85 23s48.5 -7 65.5 -21s35.5 -35 55.5 -63
c19.333 -26.667 36.5 -46.5 51.5 -59.5s34.5 -19.5 58.5 -19.5c10.667 0 17.834 -7.66699 21.501 -23zM685.001 485c-1.33301 -9.33301 -5.33105 -22.501 -11.998 -39.501s-12 -28.167 -16 -33.5c-20.667 0 -45.834 -2 -75.501 -6s-55.834 -8.66699 -78.501 -14
c-2.66699 4 -4.66699 10.5 -6 19.5s-2 18.167 -2 27.5c0 10 0.666992 16.333 2 19c12 5.33301 26.333 10 43 14c-14 16.667 -21 34 -21 52c0 14 4.5 27.333 13.5 40s20.333 22.834 34 30.501s27.167 11.5 40.5 11.5c10.667 0 19.667 -2.33301 27 -7
c14.667 -8.66699 22 -22 22 -40c0 -13.333 -4.33301 -25.333 -13 -36c-13.333 6 -25.333 9 -36 9c-8.66699 0 -15.834 -1.83301 -21.501 -5.5s-8.5 -8.5 -8.5 -14.5c0 -9.33301 3.66699 -19 11 -29c26.667 5.33301 51.334 8 74.001 8l19 -1z" />
    <glyph glyph-name="uniFC69" unicode="&#xfe8c;&#xfef2;" horiz-adv-x="828" arabic-form="final" 
d="M581.5 406c-29.667 -4 -55.832 -8.66797 -78.499 -14.001c-2.66699 4 -4.66699 10.5 -6 19.5s-2 18.167 -2 27.5c0 10 0.666992 16.333 2 19c12 5.33301 26.333 10 43 14c-14 16.667 -21 34 -21 52c0 14 4.5 27.333 13.5 40s20.333 22.834 34 30.501
s27.167 11.5 40.5 11.5c10.667 0 19.667 -2.33301 27 -7c14.667 -8.66699 22 -22 22 -40c0 -13.333 -4.33301 -25.333 -13 -36c-13.333 6 -25.333 9 -36 9c-8.66699 0 -15.834 -1.83301 -21.501 -5.5s-8.5 -8.5 -8.5 -14.5c0 -9.33301 3.66699 -19 11 -29
c26.667 5.33301 51.334 8 74.001 8l19 -1l4 -5c-1.33301 -9.33301 -5.33301 -22.5 -12 -39.5s-12 -28.167 -16 -33.5c-20.667 0 -45.834 -2 -75.501 -6zM849.502 162.999c3.66699 -15.333 5.50098 -38.666 5.50098 -69.999c0 -32 -2 -55.5 -6 -70.5s-11 -22.5 -21 -22.5
c-26 0 -48.833 5.16699 -68.5 15.5s-35.834 22.666 -48.501 36.999s-26.667 32.833 -42 55.5c-18.667 28.667 -33.5 48.5 -44.5 59.5s-25.167 16.5 -42.5 16.5c-24 0 -49.667 -12 -77 -36c25.333 -10.667 48.333 -23.667 69 -39s33.667 -29.666 39 -42.999
c4.66699 -11.333 7 -27 7 -47c0 -21.333 -3.33301 -46 -10 -74s-17 -56.667 -31 -86c-41.333 -32.667 -90.333 -60.167 -147 -82.5s-113.334 -33.5 -170.001 -33.5c-70 0 -126.167 18.833 -168.5 56.5s-63.5 94.5 -63.5 170.5c0 36 5 77 15 123s25.333 95.333 46 148
l138 -44c-24 -70 -36 -127 -36 -171c0 -34.667 8.33301 -61 25 -79s40 -27 70 -27c24 0 53.333 5.66699 88 17s66.334 26 95.001 44c-4.66699 3.33301 -8.83398 6 -12.501 8l-10.5 6c-38.667 22.667 -67.5 42.834 -86.5 60.501s-28.5 38.167 -28.5 61.5
c0 21.333 8.5 45.166 25.5 71.499s39.167 51.833 66.5 76.5c28 25.333 57 45.666 87 60.999s58.333 23 85 23s48.5 -7 65.5 -21s35.5 -35 55.5 -63c19.333 -26.667 36.5 -46.5 51.5 -59.5s34.5 -19.5 58.5 -19.5c10.667 0 17.834 -7.66699 21.501 -23zM403.503 -319.501
c23 -16.333 35.502 -29.167 37.502 -38.5c1.33301 -10 -6 -26.333 -22 -49s-29.667 -38 -41 -46c-12.667 5.33301 -28.667 14.5 -48 27.5s-33.666 24.833 -42.999 35.5c-6.66699 -12 -15.334 -24.333 -26.001 -37s-19.334 -21.334 -26.001 -26.001
c-13.333 6 -30.333 16.167 -51 30.5s-35.334 26.5 -44.001 36.5c4 14 14 32.667 30 56s29.333 35 40 35s26.667 -7.5 48 -22.5s34.333 -27.5 39 -37.5c9.33301 16.667 19 30.834 29 42.501s19 17.5 27 17.5c10.667 0 27.5 -8.16699 50.5 -24.5z" />
    <glyph glyph-name="uniFC6A" unicode="&#xfe92;&#xfeae;" horiz-adv-x="582" arabic-form="final" 
d="M598.5 163c3.66699 -15.333 5.49512 -38.667 5.49512 -70c0 -32 -2 -55.5 -6 -70.5s-11 -22.5 -21 -22.5c-30 0 -59 9.5 -87 28.5s-49 46.833 -63 83.5c-62 -22 -123 -33 -183 -33c-13.333 -48 -30.166 -96.5 -50.499 -145.5s-39.666 -91.167 -57.999 -126.5
s-29.833 -56.333 -34.5 -63c-22.667 8.66699 -49.667 23.5 -81 44.5s-54.666 40.167 -69.999 57.5c47.333 72.667 86.5 139.667 117.5 201s57.833 129.333 80.5 204c20 -1.33301 35.333 -2 46 -2c82.667 0 170.334 16.333 263.001 49
c11.333 -35.333 27.333 -62.833 48 -82.5s44.667 -29.5 72 -29.5c10.667 0 17.834 -7.66699 21.501 -23zM379.495 -22.001c15 -8 29.001 -17.8311 42.001 -29.498s20.167 -20.834 21.5 -27.501c2.66699 -10 -4.83301 -27.5 -22.5 -52.5s-32.5 -41.5 -44.5 -49.5
c-14 5.33301 -32.333 15.833 -55 31.5s-38.334 29.167 -47.001 40.5c2 8.66699 7.16699 20.5 15.5 35.5s17.833 28.667 28.5 41s20 19.166 28 20.499c7.33301 1.33301 18.5 -2 33.5 -10z" />
    <glyph glyph-name="uniFC6B" unicode="&#xfe92;&#xfeb0;" horiz-adv-x="582" arabic-form="final" 
d="M131 357.5c-22.667 15.667 -38.333 29.1689 -47 40.502c2 8.66699 7.16699 20.5 15.5 35.5s17.833 28.667 28.5 41s20 19.166 28 20.499c7.33301 1.33301 18.5 -2 33.5 -10s29 -17.833 42 -29.5s20.167 -20.834 21.5 -27.501c2.66699 -10 -4.83301 -27.5 -22.5 -52.5
s-32.5 -41.5 -44.5 -49.5c-14 5.33301 -32.333 15.833 -55 31.5zM603.501 163.002c3.66699 -15.333 5.49512 -38.667 5.49512 -70c0 -32 -2 -55.5 -6 -70.5s-11 -22.5 -21 -22.5c-30 0 -59 9.5 -87 28.5s-49 46.833 -63 83.5c-62 -22 -123 -33 -183 -33
c-13.333 -48 -30.166 -96.5 -50.499 -145.5s-39.666 -91.167 -57.999 -126.5s-29.833 -56.333 -34.5 -63c-22.667 8.66699 -49.667 23.5 -81 44.5s-54.666 40.167 -69.999 57.5c47.333 72.667 86.5 139.667 117.5 201s57.833 129.333 80.5 204c20 -1.33301 35.333 -2 46 -2
c82.667 0 170.334 16.333 263.001 49c11.333 -35.333 27.333 -62.833 48 -82.5s44.667 -29.5 72 -29.5c10.667 0 17.834 -7.66699 21.501 -23zM384.496 -21.999c15 -8 29.001 -17.8311 42.001 -29.498s20.167 -20.834 21.5 -27.501c2.66699 -10 -4.83301 -27.5 -22.5 -52.5
s-32.5 -41.5 -44.5 -49.5c-14 5.33301 -32.333 15.833 -55 31.5s-38.334 29.167 -47.001 40.5c2 8.66699 7.16699 20.5 15.5 35.5s17.833 28.667 28.5 41s20 19.166 28 20.499c7.33301 1.33301 18.5 -2 33.5 -10z" />
    <glyph glyph-name="uniFC6C" unicode="&#xfe92;&#xfee2;" horiz-adv-x="727" arabic-form="final" 
d="M748.5 163c3.66699 -15.333 5.49707 -38.667 5.49707 -70c0 -32 -2 -55.5 -6 -70.5s-11 -22.5 -21 -22.5c-32 0 -59.5 8 -82.5 24s-49.167 39.667 -78.5 71c-24.667 27.333 -46 47.666 -64 60.999s-38.667 20 -62 20c-14.667 0 -27.5 -4 -38.5 -12
s-19.167 -19.333 -24.5 -34c16.667 -7.33301 35.334 -16.833 56.001 -28.5s38.667 -23.167 54 -34.5c-3.33301 -18.667 -15.5 -44.167 -36.5 -76.5s-38.167 -53.166 -51.5 -62.499c-13.333 -0.666992 -26.166 3.33301 -38.499 12s-26.5 20.667 -42.5 36
c-16.667 16.667 -28.667 26 -36 28c-8 2.66699 -18 4 -30 4c-8.66699 0 -16.667 -0.333008 -24 -1s-13.666 -1.33398 -18.999 -2.00098l-25 -3c1.33301 -47.333 5.33301 -94.666 12 -141.999s14.334 -88 23.001 -122c-14.667 -8 -37.5 -14.5 -68.5 -19.5
s-60.833 -7.5 -89.5 -7.5l-5 4c-17.333 81.333 -26 166 -26 254c0 35.333 1.33301 66 4 92c4.66699 22.667 16.667 47.334 36 74.001s38.333 43 57 49c49.333 -2.66699 89.666 -6.33398 120.999 -11.001c14.667 52.667 40 94.5 76 125.5s76.667 46.5 122 46.5
c32 0 58.167 -6.83301 78.5 -20.5s43.166 -34.167 68.499 -61.5c24 -26 45.333 -45.333 64 -58s42 -19 70 -19c10.667 0 17.834 -7.66699 21.501 -23zM525.497 -83.001c15 -8 29.001 -17.8311 42.001 -29.498s20.167 -20.834 21.5 -27.501
c2.66699 -10 -4.83301 -27.5 -22.5 -52.5s-32.5 -41.5 -44.5 -49.5c-14 5.33301 -32.333 15.833 -55 31.5s-38.334 29.167 -47.001 40.5c2 8.66699 7.16699 20.5 15.5 35.5s17.833 28.667 28.5 41s20 19.166 28 20.499c7.33301 1.33301 18.5 -2 33.5 -10z" />
    <glyph glyph-name="uniFC6D" unicode="&#xfe92;&#xfee6;" horiz-adv-x="971" arabic-form="final" 
d="M275 325.5c-22.667 15.667 -38.333 29.1689 -47 40.502c2 8.66699 7.16699 20.5 15.5 35.5s17.833 28.667 28.5 41s20 19.166 28 20.499c7.33301 1.33301 18.5 -2 33.5 -10s29 -17.833 42 -29.5s20.167 -20.834 21.5 -27.501c2.66699 -10 -4.83301 -27.5 -22.5 -52.5
s-32.5 -41.5 -44.5 -49.5c-14 5.33301 -32.333 15.833 -55 31.5zM992.501 163.002c3.66699 -15.333 5.5 -38.6699 5.5 -70.0029c0 -32 -2 -55.5 -6 -70.5s-11 -22.5 -21 -22.5c-70 0 -118.667 38.333 -146 115c-24 -8 -53 -15.167 -87 -21.5s-68.667 -10.833 -104 -13.5
c0.666992 -8.66699 1 -22.667 1 -42c0 -46.667 -4.83301 -91.167 -14.5 -133.5s-25.834 -79.166 -48.501 -110.499c-94.667 -28 -177.334 -42 -248.001 -42c-96 0 -167.5 19.833 -214.5 59.5s-70.5 95.834 -70.5 168.501s23.333 160.334 70 263.001l139 -45
c-24.667 -65.333 -37 -118.333 -37 -159c0 -35.333 9.66699 -61.333 29 -78s48.333 -25 87 -25c39.333 0 88.333 8 147 24c0 49.333 -5.33301 129 -16 239c-1.33301 8 -2.66602 20.667 -3.99902 38l10 15c25.333 -1.33301 47 -2 65 -2c108.667 0 216 16 322 48
c16 -43.333 33 -72.833 51 -88.5s41 -23.5 69 -23.5c10.667 0 17.834 -7.66699 21.501 -23zM794.501 -22.002c15 -8 29.001 -17.8311 42.001 -29.498s20.167 -20.834 21.5 -27.501c2.66699 -10 -4.83301 -27.5 -22.5 -52.5s-32.5 -41.5 -44.5 -49.5
c-14 5.33301 -32.333 15.833 -55 31.5s-38.334 29.167 -47.001 40.5c2 8.66699 7.16699 20.5 15.5 35.5s17.833 28.667 28.5 41s20 19.166 28 20.499c7.33301 1.33301 18.5 -2 33.5 -10z" />
    <glyph glyph-name="uniFC6E" unicode="&#xfe92;&#xfef0;" horiz-adv-x="828" arabic-form="final" 
d="M849.5 163c3.66699 -15.333 5.50098 -38.666 5.50098 -69.999c0 -32 -2 -55.5 -6 -70.5s-11 -22.5 -21 -22.5c-26 0 -48.833 5.16699 -68.5 15.5s-35.834 22.666 -48.501 36.999s-26.667 32.833 -42 55.5c-18.667 28.667 -33.5 48.5 -44.5 59.5s-25.167 16.5 -42.5 16.5
c-24 0 -49.667 -12 -77 -36c25.333 -10.667 48.333 -23.667 69 -39s33.667 -29.666 39 -42.999c4.66699 -11.333 7 -27 7 -47c0 -21.333 -3.33301 -46 -10 -74s-17 -56.667 -31 -86c-41.333 -32.667 -90.333 -60.167 -147 -82.5s-113.334 -33.5 -170.001 -33.5
c-70 0 -126.167 18.833 -168.5 56.5s-63.5 94.5 -63.5 170.5c0 36 5 77 15 123s25.333 95.333 46 148l138 -44c-24 -70 -36 -127 -36 -171c0 -34.667 8.33301 -61 25 -79s40 -27 70 -27c24 0 53.333 5.66699 88 17s66.334 26 95.001 44
c-4.66699 3.33301 -8.83398 6 -12.501 8l-10.5 6c-38.667 22.667 -67.5 42.834 -86.5 60.501s-28.5 38.167 -28.5 61.5c0 21.333 8.5 45.166 25.5 71.499s39.167 51.833 66.5 76.5c28 25.333 57 45.666 87 60.999s58.333 23 85 23s48.5 -7 65.5 -21s35.5 -35 55.5 -63
c19.333 -26.667 36.5 -46.5 51.5 -59.5s34.5 -19.5 58.5 -19.5c10.667 0 17.834 -7.66699 21.501 -23zM726.501 -146c15 -8 29.001 -17.8311 42.001 -29.498s20.167 -20.834 21.5 -27.501c2.66699 -10 -4.83301 -27.5 -22.5 -52.5s-32.5 -41.5 -44.5 -49.5
c-14 5.33301 -32.333 15.833 -55 31.5s-38.334 29.167 -47.001 40.5c2 8.66699 7.16699 20.5 15.5 35.5s17.833 28.667 28.5 41s20 19.166 28 20.499c7.33301 1.33301 18.5 -2 33.5 -10z" />
    <glyph glyph-name="uniFC70" unicode="&#xfe98;&#xfeae;" horiz-adv-x="587" arabic-form="final" 
d="M264 373.5c-20.667 14.333 -35.332 26.499 -43.999 36.499c4 14 14 32.667 30 56s29.333 35 40 35s26.667 -7.5 48 -22.5s34.333 -27.5 39 -37.5c9.33301 16.667 19 30.834 29 42.501s19 17.5 27 17.5c10.667 0 27.5 -8.16699 50.5 -24.5s35.5 -29.166 37.5 -38.499
c1.33301 -10 -6 -26.333 -22 -49s-29.667 -38 -41 -46c-12.667 5.33301 -28.667 14.5 -48 27.5s-33.666 24.833 -42.999 35.5c-6.66699 -12 -15.334 -24.333 -26.001 -37s-19.334 -21.334 -26.001 -26.001c-13.333 6 -30.333 16.167 -51 30.5zM603.502 162.999
c3.66699 -15.333 5.49512 -38.667 5.49512 -70c0 -32 -2 -55.5 -6 -70.5s-11 -22.5 -21 -22.5c-30 0 -59 9.5 -87 28.5s-49 46.833 -63 83.5c-62 -22 -123 -33 -183 -33c-13.333 -48 -30.166 -96.5 -50.499 -145.5s-39.666 -91.167 -57.999 -126.5
s-29.833 -56.333 -34.5 -63c-22.667 8.66699 -49.667 23.5 -81 44.5s-54.666 40.167 -69.999 57.5c47.333 72.667 86.5 139.667 117.5 201s57.833 129.333 80.5 204c20 -1.33301 35.333 -2 46 -2c82.667 0 170.334 16.333 263.001 49
c11.333 -35.333 27.333 -62.833 48 -82.5s44.667 -29.5 72 -29.5c10.667 0 17.834 -7.66699 21.501 -23z" />
    <glyph glyph-name="uniFC71" unicode="&#xfe98;&#xfeb0;" horiz-adv-x="582" arabic-form="final" 
d="M308 396.5c-20.667 14.333 -35.332 26.499 -43.999 36.499c4 14 14 32.667 30 56s29.333 35 40 35s26.667 -7.5 48 -22.5s34.333 -27.5 39 -37.5c9.33301 16.667 19 30.834 29 42.501s19 17.5 27 17.5c10.667 0 27.5 -8.16699 50.5 -24.5s35.5 -29.166 37.5 -38.499
c1.33301 -10 -6 -26.333 -22 -49s-29.667 -38 -41 -46c-12.667 5.33301 -28.667 14.5 -48 27.5s-33.666 24.833 -42.999 35.5c-6.66699 -12 -15.334 -24.333 -26.001 -37s-19.334 -21.334 -26.001 -26.001c-13.333 6 -30.333 16.167 -51 30.5zM100.002 352.499
c-22.667 15.667 -38.333 29.1689 -47 40.502c2 8.66699 7.16699 20.5 15.5 35.5s17.833 28.667 28.5 41s20 19.166 28 20.499c7.33301 1.33301 18.5 -2 33.5 -10s29 -17.833 42 -29.5s20.167 -20.834 21.5 -27.501c2.66699 -10 -4.83301 -27.5 -22.5 -52.5
s-32.5 -41.5 -44.5 -49.5c-14 5.33301 -32.333 15.833 -55 31.5zM603.503 163.001c3.66699 -15.333 5.49512 -38.667 5.49512 -70c0 -32 -2 -55.5 -6 -70.5s-11 -22.5 -21 -22.5c-30 0 -59 9.5 -87 28.5s-49 46.833 -63 83.5c-62 -22 -123 -33 -183 -33
c-13.333 -48 -30.166 -96.5 -50.499 -145.5s-39.666 -91.167 -57.999 -126.5s-29.833 -56.333 -34.5 -63c-22.667 8.66699 -49.667 23.5 -81 44.5s-54.666 40.167 -69.999 57.5c47.333 72.667 86.5 139.667 117.5 201s57.833 129.333 80.5 204c20 -1.33301 35.333 -2 46 -2
c82.667 0 170.334 16.333 263.001 49c11.333 -35.333 27.333 -62.833 48 -82.5s44.667 -29.5 72 -29.5c10.667 0 17.834 -7.66699 21.501 -23z" />
    <glyph glyph-name="uniFC72" unicode="&#xfe98;&#xfee2;" horiz-adv-x="727" arabic-form="final" 
d="M312 410.5c-20.667 14.333 -35.332 26.499 -43.999 36.499c4 14 14 32.667 30 56s29.333 35 40 35s26.667 -7.5 48 -22.5s34.333 -27.5 39 -37.5c9.33301 16.667 19 30.834 29 42.501s19 17.5 27 17.5c10.667 0 27.5 -8.16699 50.5 -24.5s35.5 -29.166 37.5 -38.499
c1.33301 -10 -6 -26.333 -22 -49s-29.667 -38 -41 -46c-12.667 5.33301 -28.667 14.5 -48 27.5s-33.666 24.833 -42.999 35.5c-6.66699 -12 -15.334 -24.333 -26.001 -37s-19.334 -21.334 -26.001 -26.001c-13.333 6 -30.333 16.167 -51 30.5zM748.502 162.999
c3.66699 -15.333 5.49707 -38.667 5.49707 -70c0 -32 -2 -55.5 -6 -70.5s-11 -22.5 -21 -22.5c-32 0 -59.5 8 -82.5 24s-49.167 39.667 -78.5 71c-24.667 27.333 -46 47.666 -64 60.999s-38.667 20 -62 20c-14.667 0 -27.5 -4 -38.5 -12s-19.167 -19.333 -24.5 -34
c16.667 -7.33301 35.334 -16.833 56.001 -28.5s38.667 -23.167 54 -34.5c-3.33301 -18.667 -15.5 -44.167 -36.5 -76.5s-38.167 -53.166 -51.5 -62.499c-13.333 -0.666992 -26.166 3.33301 -38.499 12s-26.5 20.667 -42.5 36c-16.667 16.667 -28.667 26 -36 28
c-8 2.66699 -18 4 -30 4c-8.66699 0 -16.667 -0.333008 -24 -1s-13.666 -1.33398 -18.999 -2.00098l-25 -3c1.33301 -47.333 5.33301 -94.666 12 -141.999s14.334 -88 23.001 -122c-14.667 -8 -37.5 -14.5 -68.5 -19.5s-60.833 -7.5 -89.5 -7.5l-5 4
c-17.333 81.333 -26 166 -26 254c0 35.333 1.33301 66 4 92c4.66699 22.667 16.667 47.334 36 74.001s38.333 43 57 49c49.333 -2.66699 89.666 -6.33398 120.999 -11.001c14.667 52.667 40 94.5 76 125.5s76.667 46.5 122 46.5c32 0 58.167 -6.83301 78.5 -20.5
s43.166 -34.167 68.499 -61.5c24 -26 45.333 -45.333 64 -58s42 -19 70 -19c10.667 0 17.834 -7.66699 21.501 -23z" />
    <glyph glyph-name="uniFC73" unicode="&#xfe98;&#xfee6;" horiz-adv-x="972" arabic-form="final" 
d="M531 394.5c-20.667 14.333 -35.332 26.499 -43.999 36.499c4 14 14 32.667 30 56s29.333 35 40 35s26.667 -7.5 48 -22.5s34.333 -27.5 39 -37.5c9.33301 16.667 19 30.834 29 42.501s19 17.5 27 17.5c10.667 0 27.5 -8.16699 50.5 -24.5s35.5 -29.166 37.5 -38.499
c1.33301 -10 -6 -26.333 -22 -49s-29.667 -38 -41 -46c-12.667 5.33301 -28.667 14.5 -48 27.5s-33.666 24.833 -42.999 35.5c-6.66699 -12 -15.334 -24.333 -26.001 -37s-19.334 -21.334 -26.001 -26.001c-13.333 6 -30.333 16.167 -51 30.5zM275.002 325.499
c-22.667 15.667 -38.333 29.1689 -47 40.502c2 8.66699 7.16699 20.5 15.5 35.5s17.833 28.667 28.5 41s20 19.166 28 20.499c7.33301 1.33301 18.5 -2 33.5 -10s29 -17.833 42 -29.5s20.167 -20.834 21.5 -27.501c2.66699 -10 -4.83301 -27.5 -22.5 -52.5
s-32.5 -41.5 -44.5 -49.5c-14 5.33301 -32.333 15.833 -55 31.5zM993.503 163.001c3.66699 -15.333 5.5 -38.6699 5.5 -70.0029c0 -32 -2 -55.5 -6 -70.5s-11 -22.5 -21 -22.5c-70 0 -118.667 38.333 -146 115c-24 -8 -53 -15.167 -87 -21.5s-68.667 -10.833 -104 -13.5
c0.666992 -8.66699 1 -22.667 1 -42c0 -46.667 -4.83301 -91.167 -14.5 -133.5s-25.834 -79.166 -48.501 -110.499c-94.667 -28 -177.334 -42 -248.001 -42c-96 0 -167.5 19.833 -214.5 59.5s-70.5 95.834 -70.5 168.501s23.333 160.334 70 263.001l139 -45
c-24.667 -65.333 -37 -118.333 -37 -159c0 -35.333 9.66699 -61.333 29 -78s48.333 -25 87 -25c39.333 0 88.333 8 147 24c0 49.333 -5.33301 129 -16 239c-1.33301 8 -2.66602 20.667 -3.99902 38l10 15c25.333 -1.33301 47 -2 65 -2c108.667 0 216 16 322 48
c16 -43.333 33 -72.833 51 -88.5s41 -23.5 69 -23.5c10.667 0 17.834 -7.66699 21.501 -23z" />
    <glyph glyph-name="uniFC74" unicode="&#xfe98;&#xfef0;" horiz-adv-x="828" arabic-form="final" 
d="M480 425.5c-20.667 14.333 -35.332 26.499 -43.999 36.499c4 14 14 32.667 30 56s29.333 35 40 35s26.667 -7.5 48 -22.5s34.333 -27.5 39 -37.5c9.33301 16.667 19 30.834 29 42.501s19 17.5 27 17.5c10.667 0 27.5 -8.16699 50.5 -24.5s35.5 -29.166 37.5 -38.499
c1.33301 -10 -6 -26.333 -22 -49s-29.667 -38 -41 -46c-12.667 5.33301 -28.667 14.5 -48 27.5s-33.666 24.833 -42.999 35.5c-6.66699 -12 -15.334 -24.333 -26.001 -37s-19.334 -21.334 -26.001 -26.001c-13.333 6 -30.333 16.167 -51 30.5zM849.502 162.999
c3.66699 -15.333 5.50098 -38.666 5.50098 -69.999c0 -32 -2 -55.5 -6 -70.5s-11 -22.5 -21 -22.5c-26 0 -48.833 5.16699 -68.5 15.5s-35.834 22.666 -48.501 36.999s-26.667 32.833 -42 55.5c-18.667 28.667 -33.5 48.5 -44.5 59.5s-25.167 16.5 -42.5 16.5
c-24 0 -49.667 -12 -77 -36c25.333 -10.667 48.333 -23.667 69 -39s33.667 -29.666 39 -42.999c4.66699 -11.333 7 -27 7 -47c0 -21.333 -3.33301 -46 -10 -74s-17 -56.667 -31 -86c-41.333 -32.667 -90.333 -60.167 -147 -82.5s-113.334 -33.5 -170.001 -33.5
c-70 0 -126.167 18.833 -168.5 56.5s-63.5 94.5 -63.5 170.5c0 36 5 77 15 123s25.333 95.333 46 148l138 -44c-24 -70 -36 -127 -36 -171c0 -34.667 8.33301 -61 25 -79s40 -27 70 -27c24 0 53.333 5.66699 88 17s66.334 26 95.001 44
c-4.66699 3.33301 -8.83398 6 -12.501 8l-10.5 6c-38.667 22.667 -67.5 42.834 -86.5 60.501s-28.5 38.167 -28.5 61.5c0 21.333 8.5 45.166 25.5 71.499s39.167 51.833 66.5 76.5c28 25.333 57 45.666 87 60.999s58.333 23 85 23s48.5 -7 65.5 -21s35.5 -35 55.5 -63
c19.333 -26.667 36.5 -46.5 51.5 -59.5s34.5 -19.5 58.5 -19.5c10.667 0 17.834 -7.66699 21.501 -23z" />
    <glyph glyph-name="uniFC75" unicode="&#xfe98;&#xfef2;" horiz-adv-x="828" arabic-form="final" 
d="M480 425.5c-20.667 14.333 -35.332 26.499 -43.999 36.499c4 14 14 32.667 30 56s29.333 35 40 35s26.667 -7.5 48 -22.5s34.333 -27.5 39 -37.5c9.33301 16.667 19 30.834 29 42.501s19 17.5 27 17.5c10.667 0 27.5 -8.16699 50.5 -24.5s35.5 -29.166 37.5 -38.499
c1.33301 -10 -6 -26.333 -22 -49s-29.667 -38 -41 -46c-12.667 5.33301 -28.667 14.5 -48 27.5s-33.666 24.833 -42.999 35.5c-6.66699 -12 -15.334 -24.333 -26.001 -37s-19.334 -21.334 -26.001 -26.001c-13.333 6 -30.333 16.167 -51 30.5zM849.502 162.999
c3.66699 -15.333 5.50098 -38.666 5.50098 -69.999c0 -32 -2 -55.5 -6 -70.5s-11 -22.5 -21 -22.5c-26 0 -48.833 5.16699 -68.5 15.5s-35.834 22.666 -48.501 36.999s-26.667 32.833 -42 55.5c-18.667 28.667 -33.5 48.5 -44.5 59.5s-25.167 16.5 -42.5 16.5
c-24 0 -49.667 -12 -77 -36c25.333 -10.667 48.333 -23.667 69 -39s33.667 -29.666 39 -42.999c4.66699 -11.333 7 -27 7 -47c0 -21.333 -3.33301 -46 -10 -74s-17 -56.667 -31 -86c-41.333 -32.667 -90.333 -60.167 -147 -82.5s-113.334 -33.5 -170.001 -33.5
c-70 0 -126.167 18.833 -168.5 56.5s-63.5 94.5 -63.5 170.5c0 36 5 77 15 123s25.333 95.333 46 148l138 -44c-24 -70 -36 -127 -36 -171c0 -34.667 8.33301 -61 25 -79s40 -27 70 -27c24 0 53.333 5.66699 88 17s66.334 26 95.001 44
c-4.66699 3.33301 -8.83398 6 -12.501 8l-10.5 6c-38.667 22.667 -67.5 42.834 -86.5 60.501s-28.5 38.167 -28.5 61.5c0 21.333 8.5 45.166 25.5 71.499s39.167 51.833 66.5 76.5c28 25.333 57 45.666 87 60.999s58.333 23 85 23s48.5 -7 65.5 -21s35.5 -35 55.5 -63
c19.333 -26.667 36.5 -46.5 51.5 -59.5s34.5 -19.5 58.5 -19.5c10.667 0 17.834 -7.66699 21.501 -23zM403.503 -319.501c23 -16.333 35.502 -29.167 37.502 -38.5c1.33301 -10 -6 -26.333 -22 -49s-29.667 -38 -41 -46c-12.667 5.33301 -28.667 14.5 -48 27.5
s-33.666 24.833 -42.999 35.5c-6.66699 -12 -15.334 -24.333 -26.001 -37s-19.334 -21.334 -26.001 -26.001c-13.333 6 -30.333 16.167 -51 30.5s-35.334 26.5 -44.001 36.5c4 14 14 32.667 30 56s29.333 35 40 35s26.667 -7.5 48 -22.5s34.333 -27.5 39 -37.5
c9.33301 16.667 19 30.834 29 42.501s19 17.5 27 17.5c10.667 0 27.5 -8.16699 50.5 -24.5z" />
    <glyph glyph-name="uniFC76" unicode="&#xfe9c;&#xfeae;" horiz-adv-x="586" arabic-form="final" 
d="M308 533c-20 14 -34.334 25.667 -43.001 35c2 8 7 19 15 33s16.833 26.333 26.5 37s18.167 16 25.5 16c10.667 0 26.834 -7.66699 48.501 -23s33.5 -27.333 35.5 -36c1.33301 -9.33301 -5.66699 -25 -21 -47s-28.333 -36.667 -39 -44c-12 5.33301 -28 15 -48 29z
M245.499 390c-21 14.667 -35.8311 27 -44.498 37c3.33301 13.333 12.833 31.166 28.5 53.499s28.834 34.5 39.501 36.5c9.33301 2 25.166 -4.66699 47.499 -20s36.166 -28.333 41.499 -39c8.66699 16 18.334 29.833 29.001 41.5s20 17.5 28 17.5
c11.333 0 28.166 -8.16699 50.499 -24.5s34.5 -29.166 36.5 -38.499c1.33301 -10 -6 -26.333 -22 -49s-29.667 -37.667 -41 -45c-11.333 4.66699 -26.666 13.5 -45.999 26.5s-34.333 24.833 -45 35.5c-6.66699 -12 -15.334 -24.167 -26.001 -36.5
s-19.334 -20.833 -26.001 -25.5c-12.667 5.33301 -29.5 15.333 -50.5 30zM603.501 163c3.66699 -15.333 5.49512 -38.667 5.49512 -70c0 -32 -2 -55.5 -6 -70.5s-11 -22.5 -21 -22.5c-30 0 -59 9.5 -87 28.5s-49 46.833 -63 83.5c-62 -22 -123 -33 -183 -33
c-13.333 -48 -30.166 -96.5 -50.499 -145.5s-39.666 -91.167 -57.999 -126.5s-29.833 -56.333 -34.5 -63c-22.667 8.66699 -49.667 23.5 -81 44.5s-54.666 40.167 -69.999 57.5c47.333 72.667 86.5 139.667 117.5 201s57.833 129.333 80.5 204c20 -1.33301 35.333 -2 46 -2
c82.667 0 170.334 16.333 263.001 49c11.333 -35.333 27.333 -62.833 48 -82.5s44.667 -29.5 72 -29.5c10.667 0 17.834 -7.66699 21.501 -23z" />
    <glyph glyph-name="uniFC77" unicode="&#xfe9c;&#xfeb0;" horiz-adv-x="587" arabic-form="final" 
d="M308 533c-20 14 -34.334 25.667 -43.001 35c2 8 7 19 15 33s16.833 26.333 26.5 37s18.167 16 25.5 16c10.667 0 26.834 -7.66699 48.501 -23s33.5 -27.333 35.5 -36c1.33301 -9.33301 -5.66699 -25 -21 -47s-28.333 -36.667 -39 -44c-12 5.33301 -28 15 -48 29z
M245.499 390c-21 14.667 -35.8311 27 -44.498 37c3.33301 13.333 12.833 31.166 28.5 53.499s28.834 34.5 39.501 36.5c9.33301 2 25.166 -4.66699 47.499 -20s36.166 -28.333 41.499 -39c8.66699 16 18.334 29.833 29.001 41.5s20 17.5 28 17.5
c11.333 0 28.166 -8.16699 50.499 -24.5s34.5 -29.166 36.5 -38.499c1.33301 -10 -6 -26.333 -22 -49s-29.667 -37.667 -41 -45c-11.333 4.66699 -26.666 13.5 -45.999 26.5s-34.333 24.833 -45 35.5c-6.66699 -12 -15.334 -24.167 -26.001 -36.5
s-19.334 -20.833 -26.001 -25.5c-12.667 5.33301 -29.5 15.333 -50.5 30zM56.001 356.5c-22.667 15.667 -38.333 29.1689 -47 40.502c2 8.66699 7.16699 20.5 15.5 35.5s17.833 28.667 28.5 41s20 19.166 28 20.499c7.33301 1.33301 18.5 -2 33.5 -10s29 -17.833 42 -29.5
s20.167 -20.834 21.5 -27.501c2.66699 -10 -4.83301 -27.5 -22.5 -52.5s-32.5 -41.5 -44.5 -49.5c-14 5.33301 -32.333 15.833 -55 31.5zM603.502 163.002c3.66699 -15.333 5.49512 -38.667 5.49512 -70c0 -32 -2 -55.5 -6 -70.5s-11 -22.5 -21 -22.5
c-30 0 -59 9.5 -87 28.5s-49 46.833 -63 83.5c-62 -22 -123 -33 -183 -33c-13.333 -48 -30.166 -96.5 -50.499 -145.5s-39.666 -91.167 -57.999 -126.5s-29.833 -56.333 -34.5 -63c-22.667 8.66699 -49.667 23.5 -81 44.5s-54.666 40.167 -69.999 57.5
c47.333 72.667 86.5 139.667 117.5 201s57.833 129.333 80.5 204c20 -1.33301 35.333 -2 46 -2c82.667 0 170.334 16.333 263.001 49c11.333 -35.333 27.333 -62.833 48 -82.5s44.667 -29.5 72 -29.5c10.667 0 17.834 -7.66699 21.501 -23z" />
    <glyph glyph-name="uniFC78" unicode="&#xfe9c;&#xfee2;" horiz-adv-x="727" arabic-form="final" 
d="M396 574c-20 14 -34.334 25.667 -43.001 35c2 8 7 19 15 33s16.833 26.333 26.5 37s18.167 16 25.5 16c10.667 0 26.834 -7.66699 48.501 -23s33.5 -27.333 35.5 -36c1.33301 -9.33301 -5.66699 -25 -21 -47s-28.333 -36.667 -39 -44c-12 5.33301 -28 15 -48 29z
M333.499 431c-21 14.667 -35.8311 27 -44.498 37c3.33301 13.333 12.833 31.166 28.5 53.499s28.834 34.5 39.501 36.5c9.33301 2 25.166 -4.66699 47.499 -20s36.166 -28.333 41.499 -39c8.66699 16 18.334 29.833 29.001 41.5s20 17.5 28 17.5
c11.333 0 28.166 -8.16699 50.499 -24.5s34.5 -29.166 36.5 -38.499c1.33301 -10 -6 -26.333 -22 -49s-29.667 -37.667 -41 -45c-11.333 4.66699 -26.666 13.5 -45.999 26.5s-34.333 24.833 -45 35.5c-6.66699 -12 -15.334 -24.167 -26.001 -36.5
s-19.334 -20.833 -26.001 -25.5c-12.667 5.33301 -29.5 15.333 -50.5 30zM748.501 163c3.66699 -15.333 5.49707 -38.667 5.49707 -70c0 -32 -2 -55.5 -6 -70.5s-11 -22.5 -21 -22.5c-32 0 -59.5 8 -82.5 24s-49.167 39.667 -78.5 71c-24.667 27.333 -46 47.666 -64 60.999
s-38.667 20 -62 20c-14.667 0 -27.5 -4 -38.5 -12s-19.167 -19.333 -24.5 -34c16.667 -7.33301 35.334 -16.833 56.001 -28.5s38.667 -23.167 54 -34.5c-3.33301 -18.667 -15.5 -44.167 -36.5 -76.5s-38.167 -53.166 -51.5 -62.499
c-13.333 -0.666992 -26.166 3.33301 -38.499 12s-26.5 20.667 -42.5 36c-16.667 16.667 -28.667 26 -36 28c-8 2.66699 -18 4 -30 4c-8.66699 0 -16.667 -0.333008 -24 -1s-13.666 -1.33398 -18.999 -2.00098l-25 -3c1.33301 -47.333 5.33301 -94.666 12 -141.999
s14.334 -88 23.001 -122c-14.667 -8 -37.5 -14.5 -68.5 -19.5s-60.833 -7.5 -89.5 -7.5l-5 4c-17.333 81.333 -26 166 -26 254c0 35.333 1.33301 66 4 92c4.66699 22.667 16.667 47.334 36 74.001s38.333 43 57 49c49.333 -2.66699 89.666 -6.33398 120.999 -11.001
c14.667 52.667 40 94.5 76 125.5s76.667 46.5 122 46.5c32 0 58.167 -6.83301 78.5 -20.5s43.166 -34.167 68.499 -61.5c24 -26 45.333 -45.333 64 -58s42 -19 70 -19c10.667 0 17.834 -7.66699 21.501 -23z" />
    <glyph glyph-name="uniFC79" unicode="&#xfe9c;&#xfee6;" horiz-adv-x="972" arabic-form="final" 
d="M593 523c-20 14 -34.334 25.667 -43.001 35c2 8 7 19 15 33s16.833 26.333 26.5 37s18.167 16 25.5 16c10.667 0 26.834 -7.66699 48.501 -23s33.5 -27.333 35.5 -36c1.33301 -9.33301 -5.66699 -25 -21 -47s-28.333 -36.667 -39 -44c-12 5.33301 -28 15 -48 29z
M530.499 380c-21 14.667 -35.8311 27 -44.498 37c3.33301 13.333 12.833 31.166 28.5 53.499s28.834 34.5 39.501 36.5c9.33301 2 25.166 -4.66699 47.499 -20s36.166 -28.333 41.499 -39c8.66699 16 18.334 29.833 29.001 41.5s20 17.5 28 17.5
c11.333 0 28.166 -8.16699 50.499 -24.5s34.5 -29.166 36.5 -38.499c1.33301 -10 -6 -26.333 -22 -49s-29.667 -37.667 -41 -45c-11.333 4.66699 -26.666 13.5 -45.999 26.5s-34.333 24.833 -45 35.5c-6.66699 -12 -15.334 -24.167 -26.001 -36.5
s-19.334 -20.833 -26.001 -25.5c-12.667 5.33301 -29.5 15.333 -50.5 30zM275.001 325.5c-22.667 15.667 -38.333 29.1689 -47 40.502c2 8.66699 7.16699 20.5 15.5 35.5s17.833 28.667 28.5 41s20 19.166 28 20.499c7.33301 1.33301 18.5 -2 33.5 -10s29 -17.833 42 -29.5
s20.167 -20.834 21.5 -27.501c2.66699 -10 -4.83301 -27.5 -22.5 -52.5s-32.5 -41.5 -44.5 -49.5c-14 5.33301 -32.333 15.833 -55 31.5zM993.502 163.002c3.66699 -15.333 5.5 -38.6699 5.5 -70.0029c0 -32 -2 -55.5 -6 -70.5s-11 -22.5 -21 -22.5
c-70 0 -118.667 38.333 -146 115c-24 -8 -53 -15.167 -87 -21.5s-68.667 -10.833 -104 -13.5c0.666992 -8.66699 1 -22.667 1 -42c0 -46.667 -4.83301 -91.167 -14.5 -133.5s-25.834 -79.166 -48.501 -110.499c-94.667 -28 -177.334 -42 -248.001 -42
c-96 0 -167.5 19.833 -214.5 59.5s-70.5 95.834 -70.5 168.501s23.333 160.334 70 263.001l139 -45c-24.667 -65.333 -37 -118.333 -37 -159c0 -35.333 9.66699 -61.333 29 -78s48.333 -25 87 -25c39.333 0 88.333 8 147 24c0 49.333 -5.33301 129 -16 239
c-1.33301 8 -2.66602 20.667 -3.99902 38l10 15c25.333 -1.33301 47 -2 65 -2c108.667 0 216 16 322 48c16 -43.333 33 -72.833 51 -88.5s41 -23.5 69 -23.5c10.667 0 17.834 -7.66699 21.501 -23z" />
    <glyph glyph-name="uniFC7A" unicode="&#xfe9c;&#xfef0;" horiz-adv-x="828" arabic-form="final" 
d="M539 567c-20 14 -34.334 25.667 -43.001 35c2 8 7 19 15 33s16.833 26.333 26.5 37s18.167 16 25.5 16c10.667 0 26.834 -7.66699 48.501 -23s33.5 -27.333 35.5 -36c1.33301 -9.33301 -5.66699 -25 -21 -47s-28.333 -36.667 -39 -44c-12 5.33301 -28 15 -48 29z
M476.499 424c-21 14.667 -35.8311 27 -44.498 37c3.33301 13.333 12.833 31.166 28.5 53.499s28.834 34.5 39.501 36.5c9.33301 2 25.166 -4.66699 47.499 -20s36.166 -28.333 41.499 -39c8.66699 16 18.334 29.833 29.001 41.5s20 17.5 28 17.5
c11.333 0 28.166 -8.16699 50.499 -24.5s34.5 -29.166 36.5 -38.499c1.33301 -10 -6 -26.333 -22 -49s-29.667 -37.667 -41 -45c-11.333 4.66699 -26.666 13.5 -45.999 26.5s-34.333 24.833 -45 35.5c-6.66699 -12 -15.334 -24.167 -26.001 -36.5
s-19.334 -20.833 -26.001 -25.5c-12.667 5.33301 -29.5 15.333 -50.5 30zM849.501 163c3.66699 -15.333 5.50098 -38.666 5.50098 -69.999c0 -32 -2 -55.5 -6 -70.5s-11 -22.5 -21 -22.5c-26 0 -48.833 5.16699 -68.5 15.5s-35.834 22.666 -48.501 36.999
s-26.667 32.833 -42 55.5c-18.667 28.667 -33.5 48.5 -44.5 59.5s-25.167 16.5 -42.5 16.5c-24 0 -49.667 -12 -77 -36c25.333 -10.667 48.333 -23.667 69 -39s33.667 -29.666 39 -42.999c4.66699 -11.333 7 -27 7 -47c0 -21.333 -3.33301 -46 -10 -74s-17 -56.667 -31 -86
c-41.333 -32.667 -90.333 -60.167 -147 -82.5s-113.334 -33.5 -170.001 -33.5c-70 0 -126.167 18.833 -168.5 56.5s-63.5 94.5 -63.5 170.5c0 36 5 77 15 123s25.333 95.333 46 148l138 -44c-24 -70 -36 -127 -36 -171c0 -34.667 8.33301 -61 25 -79s40 -27 70 -27
c24 0 53.333 5.66699 88 17s66.334 26 95.001 44c-4.66699 3.33301 -8.83398 6 -12.501 8l-10.5 6c-38.667 22.667 -67.5 42.834 -86.5 60.501s-28.5 38.167 -28.5 61.5c0 21.333 8.5 45.166 25.5 71.499s39.167 51.833 66.5 76.5c28 25.333 57 45.666 87 60.999
s58.333 23 85 23s48.5 -7 65.5 -21s35.5 -35 55.5 -63c19.333 -26.667 36.5 -46.5 51.5 -59.5s34.5 -19.5 58.5 -19.5c10.667 0 17.834 -7.66699 21.501 -23z" />
    <glyph glyph-name="uniFC7B" unicode="&#xfe9c;&#xfef2;" horiz-adv-x="828" arabic-form="final" 
d="M539 567c-20 14 -34.334 25.667 -43.001 35c2 8 7 19 15 33s16.833 26.333 26.5 37s18.167 16 25.5 16c10.667 0 26.834 -7.66699 48.501 -23s33.5 -27.333 35.5 -36c1.33301 -9.33301 -5.66699 -25 -21 -47s-28.333 -36.667 -39 -44c-12 5.33301 -28 15 -48 29z
M476.499 424c-21 14.667 -35.8311 27 -44.498 37c3.33301 13.333 12.833 31.166 28.5 53.499s28.834 34.5 39.501 36.5c9.33301 2 25.166 -4.66699 47.499 -20s36.166 -28.333 41.499 -39c8.66699 16 18.334 29.833 29.001 41.5s20 17.5 28 17.5
c11.333 0 28.166 -8.16699 50.499 -24.5s34.5 -29.166 36.5 -38.499c1.33301 -10 -6 -26.333 -22 -49s-29.667 -37.667 -41 -45c-11.333 4.66699 -26.666 13.5 -45.999 26.5s-34.333 24.833 -45 35.5c-6.66699 -12 -15.334 -24.167 -26.001 -36.5
s-19.334 -20.833 -26.001 -25.5c-12.667 5.33301 -29.5 15.333 -50.5 30zM849.501 163c3.66699 -15.333 5.50098 -38.666 5.50098 -69.999c0 -32 -2 -55.5 -6 -70.5s-11 -22.5 -21 -22.5c-26 0 -48.833 5.16699 -68.5 15.5s-35.834 22.666 -48.501 36.999
s-26.667 32.833 -42 55.5c-18.667 28.667 -33.5 48.5 -44.5 59.5s-25.167 16.5 -42.5 16.5c-24 0 -49.667 -12 -77 -36c25.333 -10.667 48.333 -23.667 69 -39s33.667 -29.666 39 -42.999c4.66699 -11.333 7 -27 7 -47c0 -21.333 -3.33301 -46 -10 -74s-17 -56.667 -31 -86
c-41.333 -32.667 -90.333 -60.167 -147 -82.5s-113.334 -33.5 -170.001 -33.5c-70 0 -126.167 18.833 -168.5 56.5s-63.5 94.5 -63.5 170.5c0 36 5 77 15 123s25.333 95.333 46 148l138 -44c-24 -70 -36 -127 -36 -171c0 -34.667 8.33301 -61 25 -79s40 -27 70 -27
c24 0 53.333 5.66699 88 17s66.334 26 95.001 44c-4.66699 3.33301 -8.83398 6 -12.501 8l-10.5 6c-38.667 22.667 -67.5 42.834 -86.5 60.501s-28.5 38.167 -28.5 61.5c0 21.333 8.5 45.166 25.5 71.499s39.167 51.833 66.5 76.5c28 25.333 57 45.666 87 60.999
s58.333 23 85 23s48.5 -7 65.5 -21s35.5 -35 55.5 -63c19.333 -26.667 36.5 -46.5 51.5 -59.5s34.5 -19.5 58.5 -19.5c10.667 0 17.834 -7.66699 21.501 -23zM403.502 -319.5c23 -16.333 35.502 -29.167 37.502 -38.5c1.33301 -10 -6 -26.333 -22 -49s-29.667 -38 -41 -46
c-12.667 5.33301 -28.667 14.5 -48 27.5s-33.666 24.833 -42.999 35.5c-6.66699 -12 -15.334 -24.333 -26.001 -37s-19.334 -21.334 -26.001 -26.001c-13.333 6 -30.333 16.167 -51 30.5s-35.334 26.5 -44.001 36.5c4 14 14 32.667 30 56s29.333 35 40 35
s26.667 -7.5 48 -22.5s34.333 -27.5 39 -37.5c9.33301 16.667 19 30.834 29 42.501s19 17.5 27 17.5c10.667 0 27.5 -8.16699 50.5 -24.5z" />
    <glyph glyph-name="uniFC7C" unicode="&#xfed4;&#xfef0;" horiz-adv-x="879" arabic-form="final" 
d="M640 478.5c-22.667 15.667 -38.333 29.1689 -47 40.502c2 8.66699 7.16699 20.5 15.5 35.5s17.833 28.667 28.5 41s20 19.166 28 20.499c7.33301 1.33301 18.5 -2 33.5 -10s29 -17.833 42 -29.5s20.167 -20.834 21.5 -27.501c2.66699 -10 -4.83301 -27.5 -22.5 -52.5
s-32.5 -41.5 -44.5 -49.5c-14 5.33301 -32.333 15.833 -55 31.5zM900.501 163.002c3.66699 -15.333 5.50293 -38.668 5.50293 -70.001c0 -32 -2 -55.5 -6 -70.5s-11 -22.5 -21 -22.5c-36 0 -69.333 11 -100 33c-36.667 -12 -91.334 -19.667 -164.001 -23
c1.33301 -42.667 -1 -86.667 -7 -132c-50 -42 -105.667 -76 -167 -102s-121 -39 -179 -39c-68.667 0 -124.5 19 -167.5 57s-64.5 93 -64.5 165c0 80 20.667 173 62 279l138 -44c-24.667 -77.333 -37 -137 -37 -179c0 -32 8 -56.167 24 -72.5s39.333 -24.5 70 -24.5
c50 0 114.333 21 193 63c-46.667 44.667 -95.667 78.334 -147 101.001l48 132c44.667 -10.667 94.667 -18.667 150 -24c0.666992 30.667 8.16699 62 22.5 94s34.166 58.5 59.499 79.5s53.666 31.5 84.999 31.5c43.333 0 77.666 -18.167 102.999 -54.5s38 -80.833 38 -133.5
c0 -9.33301 -0.333008 -16.333 -1 -21h41c10.667 0 17.834 -7.66699 21.501 -23zM762.004 203c-11.333 11.333 -25.1689 20.5 -41.502 27.5s-32.166 10.833 -47.499 11.5c-13.333 0 -24.5 -3.16699 -33.5 -9.5s-13.167 -14.5 -12.5 -24.5c6 -8 27.333 -12 64 -12
c22.667 0 46.334 2.33301 71.001 7z" />
    <glyph glyph-name="uniFC7E" unicode="&#xfed8;&#xfef0;" horiz-adv-x="879" arabic-form="final" 
d="M590 481.5c-20.667 14.333 -35.332 26.499 -43.999 36.499c4 14 14 32.667 30 56s29.333 35 40 35s26.667 -7.5 48 -22.5s34.333 -27.5 39 -37.5c9.33301 16.667 19 30.834 29 42.501s19 17.5 27 17.5c10.667 0 27.5 -8.16699 50.5 -24.5s35.5 -29.166 37.5 -38.499
c1.33301 -10 -6 -26.333 -22 -49s-29.667 -38 -41 -46c-12.667 5.33301 -28.667 14.5 -48 27.5s-33.666 24.833 -42.999 35.5c-6.66699 -12 -15.334 -24.333 -26.001 -37s-19.334 -21.334 -26.001 -26.001c-13.333 6 -30.333 16.167 -51 30.5zM900.502 162.999
c3.66699 -15.333 5.50293 -38.668 5.50293 -70.001c0 -32 -2 -55.5 -6 -70.5s-11 -22.5 -21 -22.5c-36 0 -69.333 11 -100 33c-36.667 -12 -91.334 -19.667 -164.001 -23c1.33301 -42.667 -1 -86.667 -7 -132c-50 -42 -105.667 -76 -167 -102s-121 -39 -179 -39
c-68.667 0 -124.5 19 -167.5 57s-64.5 93 -64.5 165c0 80 20.667 173 62 279l138 -44c-24.667 -77.333 -37 -137 -37 -179c0 -32 8 -56.167 24 -72.5s39.333 -24.5 70 -24.5c50 0 114.333 21 193 63c-46.667 44.667 -95.667 78.334 -147 101.001l48 132
c44.667 -10.667 94.667 -18.667 150 -24c0.666992 30.667 8.16699 62 22.5 94s34.166 58.5 59.499 79.5s53.666 31.5 84.999 31.5c43.333 0 77.666 -18.167 102.999 -54.5s38 -80.833 38 -133.5c0 -9.33301 -0.333008 -16.333 -1 -21h41
c10.667 0 17.834 -7.66699 21.501 -23zM762.005 202.997c-11.333 11.333 -25.1689 20.5 -41.502 27.5s-32.166 10.833 -47.499 11.5c-13.333 0 -24.5 -3.16699 -33.5 -9.5s-13.167 -14.5 -12.5 -24.5c6 -8 27.333 -12 64 -12c22.667 0 46.334 2.33301 71.001 7z" />
    <glyph glyph-name="uniFC83" unicode="&#xfedc;&#xfef0;" horiz-adv-x="910" arabic-form="final" 
d="M931.5 163c3.66699 -15.333 5.49902 -38.666 5.49902 -69.999c0 -32 -2 -55.5 -6 -70.5s-11 -22.5 -21 -22.5c-22 0 -44 6.16699 -66 18.5s-45 29.833 -69 52.5l-29 -54c-41.333 -6.66699 -83.666 -11 -126.999 -13c1.33301 -48 -1.66699 -90 -9 -126
c-52 -42.667 -108.333 -76.834 -169 -102.501s-120 -38.5 -178 -38.5c-69.333 0 -125.5 18.833 -168.5 56.5s-64.5 93.167 -64.5 166.5c0 81.333 21.333 174 64 278l138 -45c-26 -76.667 -39 -135.667 -39 -177c0 -32.667 8.16699 -57.167 24.5 -73.5
s39.833 -24.5 70.5 -24.5c51.333 0 118 22 200 66c-33.333 28.667 -84.333 61.334 -153 98.001l49 132c43.333 -8.66699 91.666 -15.834 144.999 -21.501s101.333 -8.5 144 -8.5l-67 78.5c-18 20.333 -36.667 39.166 -56 56.499v161l318 119l14 -10v-165l-175 -55l48 -58
c26 -32 46 -55.667 60 -71s29 -28.166 45 -38.499s32.667 -15.5 50 -15.5c10.667 0 17.834 -7.66699 21.501 -23z" />
    <glyph glyph-name="uniFC84" unicode="&#xfedc;&#xfef2;" horiz-adv-x="910" arabic-form="final" 
d="M931.5 163c3.66699 -15.333 5.49902 -38.666 5.49902 -69.999c0 -32 -2 -55.5 -6 -70.5s-11 -22.5 -21 -22.5c-22 0 -44 6.16699 -66 18.5s-45 29.833 -69 52.5l-29 -54c-41.333 -6.66699 -83.666 -11 -126.999 -13c1.33301 -48 -1.66699 -90 -9 -126
c-52 -42.667 -108.333 -76.834 -169 -102.501s-120 -38.5 -178 -38.5c-69.333 0 -125.5 18.833 -168.5 56.5s-64.5 93.167 -64.5 166.5c0 81.333 21.333 174 64 278l138 -45c-26 -76.667 -39 -135.667 -39 -177c0 -32.667 8.16699 -57.167 24.5 -73.5
s39.833 -24.5 70.5 -24.5c51.333 0 118 22 200 66c-33.333 28.667 -84.333 61.334 -153 98.001l49 132c43.333 -8.66699 91.666 -15.834 144.999 -21.501s101.333 -8.5 144 -8.5l-67 78.5c-18 20.333 -36.667 39.166 -56 56.499v161l318 119l14 -10v-165l-175 -55l48 -58
c26 -32 46 -55.667 60 -71s29 -28.166 45 -38.499s32.667 -15.5 50 -15.5c10.667 0 17.834 -7.66699 21.501 -23zM403.499 -319.5c23 -16.333 35.502 -29.167 37.502 -38.5c1.33301 -10 -6 -26.333 -22 -49s-29.667 -38 -41 -46c-12.667 5.33301 -28.667 14.5 -48 27.5
s-33.666 24.833 -42.999 35.5c-6.66699 -12 -15.334 -24.333 -26.001 -37s-19.334 -21.334 -26.001 -26.001c-13.333 6 -30.333 16.167 -51 30.5s-35.334 26.5 -44.001 36.5c4 14 14 32.667 30 56s29.333 35 40 35s26.667 -7.5 48 -22.5s34.333 -27.5 39 -37.5
c9.33301 16.667 19 30.834 29 42.501s19 17.5 27 17.5c10.667 0 27.5 -8.16699 50.5 -24.5z" />
    <glyph glyph-name="uniFC86" unicode="&#xfee0;&#xfef0;" horiz-adv-x="813" arabic-form="final" 
d="M834.5 163c3.66699 -15.333 5.49707 -38.667 5.49707 -70c0 -32 -2 -55.5 -6 -70.5s-11 -22.5 -21 -22.5c-29.333 0 -57.5 4.16699 -84.5 12.5s-49.167 19.5 -66.5 33.5c-14 -10 -29.667 -18.333 -47 -25c0.666992 -26 0 -52.833 -2 -80.5s-4 -48.5 -6 -62.5
c-49.333 -41.333 -104.666 -75.166 -165.999 -101.499s-120.666 -39.5 -177.999 -39.5c-69.333 0 -125.5 18.833 -168.5 56.5s-64.5 93.167 -64.5 166.5c0 81.333 20.333 174 61 278l139 -45c-24.667 -70 -37 -129 -37 -177c0 -32 8.16699 -56.333 24.5 -73
s39.5 -25 69.5 -25c48.667 0 113 21.333 193 64c-47.333 43.333 -96.666 76.666 -147.999 99.999l49 132c31.333 -8 67.166 -14.333 107.499 -19s77.833 -6.66699 112.5 -6h6c-4 85.333 -14 209.333 -30 372l161 9c7.33301 -122 12 -239 14 -351v-33h61
c10.667 0 17.834 -7.66699 21.501 -23z" />
    <glyph glyph-name="uniFC87" unicode="&#xfee0;&#xfef2;" horiz-adv-x="813" arabic-form="final" 
d="M834.5 163c3.66699 -15.333 5.49707 -38.667 5.49707 -70c0 -32 -2 -55.5 -6 -70.5s-11 -22.5 -21 -22.5c-29.333 0 -57.5 4.16699 -84.5 12.5s-49.167 19.5 -66.5 33.5c-14 -10 -29.667 -18.333 -47 -25c0.666992 -26 0 -52.833 -2 -80.5s-4 -48.5 -6 -62.5
c-49.333 -41.333 -104.666 -75.166 -165.999 -101.499s-120.666 -39.5 -177.999 -39.5c-69.333 0 -125.5 18.833 -168.5 56.5s-64.5 93.167 -64.5 166.5c0 81.333 20.333 174 61 278l139 -45c-24.667 -70 -37 -129 -37 -177c0 -32 8.16699 -56.333 24.5 -73
s39.5 -25 69.5 -25c48.667 0 113 21.333 193 64c-47.333 43.333 -96.666 76.666 -147.999 99.999l49 132c31.333 -8 67.166 -14.333 107.499 -19s77.833 -6.66699 112.5 -6h6c-4 85.333 -14 209.333 -30 372l161 9c7.33301 -122 12 -239 14 -351v-33h61
c10.667 0 17.834 -7.66699 21.501 -23zM403.497 -319.501c23 -16.333 35.502 -29.167 37.502 -38.5c1.33301 -10 -6 -26.333 -22 -49s-29.667 -38 -41 -46c-12.667 5.33301 -28.667 14.5 -48 27.5s-33.666 24.833 -42.999 35.5c-6.66699 -12 -15.334 -24.333 -26.001 -37
s-19.334 -21.334 -26.001 -26.001c-13.333 6 -30.333 16.167 -51 30.5s-35.334 26.5 -44.001 36.5c4 14 14 32.667 30 56s29.333 35 40 35s26.667 -7.5 48 -22.5s34.333 -27.5 39 -37.5c9.33301 16.667 19 30.834 29 42.501s19 17.5 27 17.5
c10.667 0 27.5 -8.16699 50.5 -24.5z" />
    <glyph glyph-name="uniFC8A" unicode="&#xfee8;&#xfeae;" horiz-adv-x="582" arabic-form="final" 
d="M242 403.5c-22.667 15.667 -38.333 29.1689 -47 40.502c2 8.66699 7.16699 20.5 15.5 35.5s17.833 28.667 28.5 41s20 19.166 28 20.499c7.33301 1.33301 18.5 -2 33.5 -10s29 -17.833 42 -29.5s20.167 -20.834 21.5 -27.501c2.66699 -10 -4.83301 -27.5 -22.5 -52.5
s-32.5 -41.5 -44.5 -49.5c-14 5.33301 -32.333 15.833 -55 31.5zM603.501 163.002c3.66699 -15.333 5.49512 -38.667 5.49512 -70c0 -32 -2 -55.5 -6 -70.5s-11 -22.5 -21 -22.5c-30 0 -59 9.5 -87 28.5s-49 46.833 -63 83.5c-62 -22 -123 -33 -183 -33
c-13.333 -48 -30.166 -96.5 -50.499 -145.5s-39.666 -91.167 -57.999 -126.5s-29.833 -56.333 -34.5 -63c-22.667 8.66699 -49.667 23.5 -81 44.5s-54.666 40.167 -69.999 57.5c47.333 72.667 86.5 139.667 117.5 201s57.833 129.333 80.5 204c20 -1.33301 35.333 -2 46 -2
c82.667 0 170.334 16.333 263.001 49c11.333 -35.333 27.333 -62.833 48 -82.5s44.667 -29.5 72 -29.5c10.667 0 17.834 -7.66699 21.501 -23z" />
    <glyph glyph-name="uniFC8B" unicode="&#xfee8;&#xfeb0;" horiz-adv-x="582" arabic-form="final" 
d="M352 403.5c-22.667 15.667 -38.333 29.1689 -47 40.502c2 8.66699 7.16699 20.5 15.5 35.5s17.833 28.667 28.5 41s20 19.166 28 20.499c7.33301 1.33301 18.5 -2 33.5 -10s29 -17.833 42 -29.5s20.167 -20.834 21.5 -27.501c2.66699 -10 -4.83301 -27.5 -22.5 -52.5
s-32.5 -41.5 -44.5 -49.5c-14 5.33301 -32.333 15.833 -55 31.5zM116.001 357.502c-22.667 15.667 -38.333 29.1689 -47 40.502c2 8.66699 7.16699 20.5 15.5 35.5s17.833 28.667 28.5 41s20 19.166 28 20.499c7.33301 1.33301 18.5 -2 33.5 -10s29 -17.833 42 -29.5
s20.167 -20.834 21.5 -27.501c2.66699 -10 -4.83301 -27.5 -22.5 -52.5s-32.5 -41.5 -44.5 -49.5c-14 5.33301 -32.333 15.833 -55 31.5zM603.502 163.004c3.66699 -15.333 5.49512 -38.667 5.49512 -70c0 -32 -2 -55.5 -6 -70.5s-11 -22.5 -21 -22.5
c-30 0 -59 9.5 -87 28.5s-49 46.833 -63 83.5c-62 -22 -123 -33 -183 -33c-13.333 -48 -30.166 -96.5 -50.499 -145.5s-39.666 -91.167 -57.999 -126.5s-29.833 -56.333 -34.5 -63c-22.667 8.66699 -49.667 23.5 -81 44.5s-54.666 40.167 -69.999 57.5
c47.333 72.667 86.5 139.667 117.5 201s57.833 129.333 80.5 204c20 -1.33301 35.333 -2 46 -2c82.667 0 170.334 16.333 263.001 49c11.333 -35.333 27.333 -62.833 48 -82.5s44.667 -29.5 72 -29.5c10.667 0 17.834 -7.66699 21.501 -23z" />
    <glyph glyph-name="uniFC8C" unicode="&#xfee8;&#xfee2;" horiz-adv-x="727" arabic-form="final" 
d="M400 455.5c-22.667 15.667 -38.333 29.1689 -47 40.502c2 8.66699 7.16699 20.5 15.5 35.5s17.833 28.667 28.5 41s20 19.166 28 20.499c7.33301 1.33301 18.5 -2 33.5 -10s29 -17.833 42 -29.5s20.167 -20.834 21.5 -27.501c2.66699 -10 -4.83301 -27.5 -22.5 -52.5
s-32.5 -41.5 -44.5 -49.5c-14 5.33301 -32.333 15.833 -55 31.5zM748.501 163.002c3.66699 -15.333 5.49707 -38.667 5.49707 -70c0 -32 -2 -55.5 -6 -70.5s-11 -22.5 -21 -22.5c-32 0 -59.5 8 -82.5 24s-49.167 39.667 -78.5 71c-24.667 27.333 -46 47.666 -64 60.999
s-38.667 20 -62 20c-14.667 0 -27.5 -4 -38.5 -12s-19.167 -19.333 -24.5 -34c16.667 -7.33301 35.334 -16.833 56.001 -28.5s38.667 -23.167 54 -34.5c-3.33301 -18.667 -15.5 -44.167 -36.5 -76.5s-38.167 -53.166 -51.5 -62.499
c-13.333 -0.666992 -26.166 3.33301 -38.499 12s-26.5 20.667 -42.5 36c-16.667 16.667 -28.667 26 -36 28c-8 2.66699 -18 4 -30 4c-8.66699 0 -16.667 -0.333008 -24 -1s-13.666 -1.33398 -18.999 -2.00098l-25 -3c1.33301 -47.333 5.33301 -94.666 12 -141.999
s14.334 -88 23.001 -122c-14.667 -8 -37.5 -14.5 -68.5 -19.5s-60.833 -7.5 -89.5 -7.5l-5 4c-17.333 81.333 -26 166 -26 254c0 35.333 1.33301 66 4 92c4.66699 22.667 16.667 47.334 36 74.001s38.333 43 57 49c49.333 -2.66699 89.666 -6.33398 120.999 -11.001
c14.667 52.667 40 94.5 76 125.5s76.667 46.5 122 46.5c32 0 58.167 -6.83301 78.5 -20.5s43.166 -34.167 68.499 -61.5c24 -26 45.333 -45.333 64 -58s42 -19 70 -19c10.667 0 17.834 -7.66699 21.501 -23z" />
    <glyph glyph-name="uniFC8D" unicode="&#xfee8;&#xfee6;" horiz-adv-x="972" arabic-form="final" 
d="M699 402.5c-22.667 15.667 -38.333 29.1689 -47 40.502c2 8.66699 7.16699 20.5 15.5 35.5s17.833 28.667 28.5 41s20 19.166 28 20.499c7.33301 1.33301 18.5 -2 33.5 -10s29 -17.833 42 -29.5s20.167 -20.834 21.5 -27.501c2.66699 -10 -4.83301 -27.5 -22.5 -52.5
s-32.5 -41.5 -44.5 -49.5c-14 5.33301 -32.333 15.833 -55 31.5zM275.001 325.502c-22.667 15.667 -38.333 29.1689 -47 40.502c2 8.66699 7.16699 20.5 15.5 35.5s17.833 28.667 28.5 41s20 19.166 28 20.499c7.33301 1.33301 18.5 -2 33.5 -10s29 -17.833 42 -29.5
s20.167 -20.834 21.5 -27.501c2.66699 -10 -4.83301 -27.5 -22.5 -52.5s-32.5 -41.5 -44.5 -49.5c-14 5.33301 -32.333 15.833 -55 31.5zM993.502 163.004c3.66699 -15.333 5.5 -38.6699 5.5 -70.0029c0 -32 -2 -55.5 -6 -70.5s-11 -22.5 -21 -22.5
c-70 0 -118.667 38.333 -146 115c-24 -8 -53 -15.167 -87 -21.5s-68.667 -10.833 -104 -13.5c0.666992 -8.66699 1 -22.667 1 -42c0 -46.667 -4.83301 -91.167 -14.5 -133.5s-25.834 -79.166 -48.501 -110.499c-94.667 -28 -177.334 -42 -248.001 -42
c-96 0 -167.5 19.833 -214.5 59.5s-70.5 95.834 -70.5 168.501s23.333 160.334 70 263.001l139 -45c-24.667 -65.333 -37 -118.333 -37 -159c0 -35.333 9.66699 -61.333 29 -78s48.333 -25 87 -25c39.333 0 88.333 8 147 24c0 49.333 -5.33301 129 -16 239
c-1.33301 8 -2.66602 20.667 -3.99902 38l10 15c25.333 -1.33301 47 -2 65 -2c108.667 0 216 16 322 48c16 -43.333 33 -72.833 51 -88.5s41 -23.5 69 -23.5c10.667 0 17.834 -7.66699 21.501 -23z" />
    <glyph glyph-name="uniFC8E" unicode="&#xfee8;&#xfef0;" horiz-adv-x="828" arabic-form="final" 
d="M567 456.5c-22.667 15.667 -38.333 29.1689 -47 40.502c2 8.66699 7.16699 20.5 15.5 35.5s17.833 28.667 28.5 41s20 19.166 28 20.499c7.33301 1.33301 18.5 -2 33.5 -10s29 -17.833 42 -29.5s20.167 -20.834 21.5 -27.501c2.66699 -10 -4.83301 -27.5 -22.5 -52.5
s-32.5 -41.5 -44.5 -49.5c-14 5.33301 -32.333 15.833 -55 31.5zM849.501 163.002c3.66699 -15.333 5.50098 -38.666 5.50098 -69.999c0 -32 -2 -55.5 -6 -70.5s-11 -22.5 -21 -22.5c-26 0 -48.833 5.16699 -68.5 15.5s-35.834 22.666 -48.501 36.999
s-26.667 32.833 -42 55.5c-18.667 28.667 -33.5 48.5 -44.5 59.5s-25.167 16.5 -42.5 16.5c-24 0 -49.667 -12 -77 -36c25.333 -10.667 48.333 -23.667 69 -39s33.667 -29.666 39 -42.999c4.66699 -11.333 7 -27 7 -47c0 -21.333 -3.33301 -46 -10 -74s-17 -56.667 -31 -86
c-41.333 -32.667 -90.333 -60.167 -147 -82.5s-113.334 -33.5 -170.001 -33.5c-70 0 -126.167 18.833 -168.5 56.5s-63.5 94.5 -63.5 170.5c0 36 5 77 15 123s25.333 95.333 46 148l138 -44c-24 -70 -36 -127 -36 -171c0 -34.667 8.33301 -61 25 -79s40 -27 70 -27
c24 0 53.333 5.66699 88 17s66.334 26 95.001 44c-4.66699 3.33301 -8.83398 6 -12.501 8l-10.5 6c-38.667 22.667 -67.5 42.834 -86.5 60.501s-28.5 38.167 -28.5 61.5c0 21.333 8.5 45.166 25.5 71.499s39.167 51.833 66.5 76.5c28 25.333 57 45.666 87 60.999
s58.333 23 85 23s48.5 -7 65.5 -21s35.5 -35 55.5 -63c19.333 -26.667 36.5 -46.5 51.5 -59.5s34.5 -19.5 58.5 -19.5c10.667 0 17.834 -7.66699 21.501 -23z" />
    <glyph glyph-name="uniFC8F" unicode="&#xfee8;&#xfef2;" horiz-adv-x="828" arabic-form="final" 
d="M567 456.5c-22.667 15.667 -38.333 29.1689 -47 40.502c2 8.66699 7.16699 20.5 15.5 35.5s17.833 28.667 28.5 41s20 19.166 28 20.499c7.33301 1.33301 18.5 -2 33.5 -10s29 -17.833 42 -29.5s20.167 -20.834 21.5 -27.501c2.66699 -10 -4.83301 -27.5 -22.5 -52.5
s-32.5 -41.5 -44.5 -49.5c-14 5.33301 -32.333 15.833 -55 31.5zM849.501 163.002c3.66699 -15.333 5.50098 -38.666 5.50098 -69.999c0 -32 -2 -55.5 -6 -70.5s-11 -22.5 -21 -22.5c-26 0 -48.833 5.16699 -68.5 15.5s-35.834 22.666 -48.501 36.999
s-26.667 32.833 -42 55.5c-18.667 28.667 -33.5 48.5 -44.5 59.5s-25.167 16.5 -42.5 16.5c-24 0 -49.667 -12 -77 -36c25.333 -10.667 48.333 -23.667 69 -39s33.667 -29.666 39 -42.999c4.66699 -11.333 7 -27 7 -47c0 -21.333 -3.33301 -46 -10 -74s-17 -56.667 -31 -86
c-41.333 -32.667 -90.333 -60.167 -147 -82.5s-113.334 -33.5 -170.001 -33.5c-70 0 -126.167 18.833 -168.5 56.5s-63.5 94.5 -63.5 170.5c0 36 5 77 15 123s25.333 95.333 46 148l138 -44c-24 -70 -36 -127 -36 -171c0 -34.667 8.33301 -61 25 -79s40 -27 70 -27
c24 0 53.333 5.66699 88 17s66.334 26 95.001 44c-4.66699 3.33301 -8.83398 6 -12.501 8l-10.5 6c-38.667 22.667 -67.5 42.834 -86.5 60.501s-28.5 38.167 -28.5 61.5c0 21.333 8.5 45.166 25.5 71.499s39.167 51.833 66.5 76.5c28 25.333 57 45.666 87 60.999
s58.333 23 85 23s48.5 -7 65.5 -21s35.5 -35 55.5 -63c19.333 -26.667 36.5 -46.5 51.5 -59.5s34.5 -19.5 58.5 -19.5c10.667 0 17.834 -7.66699 21.501 -23zM403.502 -319.498c23 -16.333 35.502 -29.167 37.502 -38.5c1.33301 -10 -6 -26.333 -22 -49s-29.667 -38 -41 -46
c-12.667 5.33301 -28.667 14.5 -48 27.5s-33.666 24.833 -42.999 35.5c-6.66699 -12 -15.334 -24.333 -26.001 -37s-19.334 -21.334 -26.001 -26.001c-13.333 6 -30.333 16.167 -51 30.5s-35.334 26.5 -44.001 36.5c4 14 14 32.667 30 56s29.333 35 40 35
s26.667 -7.5 48 -22.5s34.333 -27.5 39 -37.5c9.33301 16.667 19 30.834 29 42.501s19 17.5 27 17.5c10.667 0 27.5 -8.16699 50.5 -24.5z" />
    <glyph glyph-name="uniFC91" unicode="&#xfef4;&#xfeae;" horiz-adv-x="582" arabic-form="final" 
d="M603.5 163c3.66699 -15.333 5.49512 -38.667 5.49512 -70c0 -32 -2 -55.5 -6 -70.5s-11 -22.5 -21 -22.5c-30 0 -59 9.5 -87 28.5s-49 46.833 -63 83.5c-62 -22 -123 -33 -183 -33c-13.333 -48 -30.166 -96.5 -50.499 -145.5s-39.666 -91.167 -57.999 -126.5
s-29.833 -56.333 -34.5 -63c-22.667 8.66699 -49.667 23.5 -81 44.5s-54.666 40.167 -69.999 57.5c47.333 72.667 86.5 139.667 117.5 201s57.833 129.333 80.5 204c20 -1.33301 35.333 -2 46 -2c82.667 0 170.334 16.333 263.001 49
c11.333 -35.333 27.333 -62.833 48 -82.5s44.667 -29.5 72 -29.5c10.667 0 17.834 -7.66699 21.501 -23zM504.495 -60.501c23 -16.333 35.502 -29.167 37.502 -38.5c1.33301 -10 -6 -26.333 -22 -49s-29.667 -38 -41 -46c-12.667 5.33301 -28.667 14.5 -48 27.5
s-33.666 24.833 -42.999 35.5c-6.66699 -12 -15.334 -24.333 -26.001 -37s-19.334 -21.334 -26.001 -26.001c-13.333 6 -30.333 16.167 -51 30.5s-35.334 26.5 -44.001 36.5c4 14 14 32.667 30 56s29.333 35 40 35s26.667 -7.5 48 -22.5s34.333 -27.5 39 -37.5
c9.33301 16.667 19 30.834 29 42.501s19 17.5 27 17.5c10.667 0 27.5 -8.16699 50.5 -24.5z" />
    <glyph glyph-name="uniFC92" unicode="&#xfef4;&#xfeb0;" horiz-adv-x="587" arabic-form="final" 
d="M110 354.5c-22.667 15.667 -38.333 29.1689 -47 40.502c2 8.66699 7.16699 20.5 15.5 35.5s17.833 28.667 28.5 41s20 19.166 28 20.499c7.33301 1.33301 18.5 -2 33.5 -10s29 -17.833 42 -29.5s20.167 -20.834 21.5 -27.501c2.66699 -10 -4.83301 -27.5 -22.5 -52.5
s-32.5 -41.5 -44.5 -49.5c-14 5.33301 -32.333 15.833 -55 31.5zM603.501 163.002c3.66699 -15.333 5.49512 -38.667 5.49512 -70c0 -32 -2 -55.5 -6 -70.5s-11 -22.5 -21 -22.5c-30 0 -59 9.5 -87 28.5s-49 46.833 -63 83.5c-62 -22 -123 -33 -183 -33
c-13.333 -48 -30.166 -96.5 -50.499 -145.5s-39.666 -91.167 -57.999 -126.5s-29.833 -56.333 -34.5 -63c-22.667 8.66699 -49.667 23.5 -81 44.5s-54.666 40.167 -69.999 57.5c47.333 72.667 86.5 139.667 117.5 201s57.833 129.333 80.5 204c20 -1.33301 35.333 -2 46 -2
c82.667 0 170.334 16.333 263.001 49c11.333 -35.333 27.333 -62.833 48 -82.5s44.667 -29.5 72 -29.5c10.667 0 17.834 -7.66699 21.501 -23zM504.496 -60.499c23 -16.333 35.502 -29.167 37.502 -38.5c1.33301 -10 -6 -26.333 -22 -49s-29.667 -38 -41 -46
c-12.667 5.33301 -28.667 14.5 -48 27.5s-33.666 24.833 -42.999 35.5c-6.66699 -12 -15.334 -24.333 -26.001 -37s-19.334 -21.334 -26.001 -26.001c-13.333 6 -30.333 16.167 -51 30.5s-35.334 26.5 -44.001 36.5c4 14 14 32.667 30 56s29.333 35 40 35
s26.667 -7.5 48 -22.5s34.333 -27.5 39 -37.5c9.33301 16.667 19 30.834 29 42.501s19 17.5 27 17.5c10.667 0 27.5 -8.16699 50.5 -24.5z" />
    <glyph glyph-name="uniFC93" unicode="&#xfef4;&#xfee2;" horiz-adv-x="727" arabic-form="final" 
d="M748.5 163c3.66699 -15.333 5.49707 -38.667 5.49707 -70c0 -32 -2 -55.5 -6 -70.5s-11 -22.5 -21 -22.5c-32 0 -59.5 8 -82.5 24s-49.167 39.667 -78.5 71c-24.667 27.333 -46 47.666 -64 60.999s-38.667 20 -62 20c-14.667 0 -27.5 -4 -38.5 -12
s-19.167 -19.333 -24.5 -34c16.667 -7.33301 35.334 -16.833 56.001 -28.5s38.667 -23.167 54 -34.5c-3.33301 -18.667 -15.5 -44.167 -36.5 -76.5s-38.167 -53.166 -51.5 -62.499c-13.333 -0.666992 -26.166 3.33301 -38.499 12s-26.5 20.667 -42.5 36
c-16.667 16.667 -28.667 26 -36 28c-8 2.66699 -18 4 -30 4c-8.66699 0 -16.667 -0.333008 -24 -1s-13.666 -1.33398 -18.999 -2.00098l-25 -3c1.33301 -47.333 5.33301 -94.666 12 -141.999s14.334 -88 23.001 -122c-14.667 -8 -37.5 -14.5 -68.5 -19.5
s-60.833 -7.5 -89.5 -7.5l-5 4c-17.333 81.333 -26 166 -26 254c0 35.333 1.33301 66 4 92c4.66699 22.667 16.667 47.334 36 74.001s38.333 43 57 49c49.333 -2.66699 89.666 -6.33398 120.999 -11.001c14.667 52.667 40 94.5 76 125.5s76.667 46.5 122 46.5
c32 0 58.167 -6.83301 78.5 -20.5s43.166 -34.167 68.499 -61.5c24 -26 45.333 -45.333 64 -58s42 -19 70 -19c10.667 0 17.834 -7.66699 21.501 -23zM600.497 -164.501c23 -16.333 35.502 -29.167 37.502 -38.5c1.33301 -10 -6 -26.333 -22 -49s-29.667 -38 -41 -46
c-12.667 5.33301 -28.667 14.5 -48 27.5s-33.666 24.833 -42.999 35.5c-6.66699 -12 -15.334 -24.333 -26.001 -37s-19.334 -21.334 -26.001 -26.001c-13.333 6 -30.333 16.167 -51 30.5s-35.334 26.5 -44.001 36.5c4 14 14 32.667 30 56s29.333 35 40 35
s26.667 -7.5 48 -22.5s34.333 -27.5 39 -37.5c9.33301 16.667 19 30.834 29 42.501s19 17.5 27 17.5c10.667 0 27.5 -8.16699 50.5 -24.5z" />
    <glyph glyph-name="uniFC94" unicode="&#xfef4;&#xfee6;" horiz-adv-x="972" arabic-form="final" 
d="M275 325.5c-22.667 15.667 -38.333 29.1689 -47 40.502c2 8.66699 7.16699 20.5 15.5 35.5s17.833 28.667 28.5 41s20 19.166 28 20.499c7.33301 1.33301 18.5 -2 33.5 -10s29 -17.833 42 -29.5s20.167 -20.834 21.5 -27.501c2.66699 -10 -4.83301 -27.5 -22.5 -52.5
s-32.5 -41.5 -44.5 -49.5c-14 5.33301 -32.333 15.833 -55 31.5zM993.501 163.002c3.66699 -15.333 5.5 -38.6699 5.5 -70.0029c0 -32 -2 -55.5 -6 -70.5s-11 -22.5 -21 -22.5c-70 0 -118.667 38.333 -146 115c-24 -8 -53 -15.167 -87 -21.5s-68.667 -10.833 -104 -13.5
c0.666992 -8.66699 1 -22.667 1 -42c0 -46.667 -4.83301 -91.167 -14.5 -133.5s-25.834 -79.166 -48.501 -110.499c-94.667 -28 -177.334 -42 -248.001 -42c-96 0 -167.5 19.833 -214.5 59.5s-70.5 95.834 -70.5 168.501s23.333 160.334 70 263.001l139 -45
c-24.667 -65.333 -37 -118.333 -37 -159c0 -35.333 9.66699 -61.333 29 -78s48.333 -25 87 -25c39.333 0 88.333 8 147 24c0 49.333 -5.33301 129 -16 239c-1.33301 8 -2.66602 20.667 -3.99902 38l10 15c25.333 -1.33301 47 -2 65 -2c108.667 0 216 16 322 48
c16 -43.333 33 -72.833 51 -88.5s41 -23.5 69 -23.5c10.667 0 17.834 -7.66699 21.501 -23zM914.501 -50.502c23 -16.333 35.502 -29.167 37.502 -38.5c1.33301 -10 -6 -26.333 -22 -49s-29.667 -38 -41 -46c-12.667 5.33301 -28.667 14.5 -48 27.5
s-33.666 24.833 -42.999 35.5c-6.66699 -12 -15.334 -24.333 -26.001 -37s-19.334 -21.334 -26.001 -26.001c-13.333 6 -30.333 16.167 -51 30.5s-35.334 26.5 -44.001 36.5c4 14 14 32.667 30 56s29.333 35 40 35s26.667 -7.5 48 -22.5s34.333 -27.5 39 -37.5
c9.33301 16.667 19 30.834 29 42.501s19 17.5 27 17.5c10.667 0 27.5 -8.16699 50.5 -24.5z" />
    <glyph glyph-name="uniFC9A" unicode="&#xfe8b;&#xfee4;" horiz-adv-x="498" arabic-form="initial" 
d="M337.5 210.5c-37.667 -17 -56.5 -37.5 -56.5 -61.5c0 -21.333 17.333 -43.333 52 -66l27 -16c-3.33301 -18 -15 -42.5 -35 -73.5s-37.667 -52.833 -53 -65.5c-14 0 -27.833 4.83301 -41.5 14.5s-28.167 22.167 -43.5 37.5c-13.333 12 -21.333 18.667 -24 20
c-8.66699 4.66699 -22 7 -40 7c-10.667 0 -20.834 -0.333008 -30.501 -1s-18.5 -1.33398 -26.5 -2.00098c-29.333 -2.66699 -51.333 -4 -66 -4c-10 0 -17 7.5 -21 22.5s-6 38.5 -6 70.5c0 31.333 1.83301 54.666 5.5 69.999s10.834 23 21.501 23
c50 0 95.333 -5.33301 136 -16c4 62.667 31.333 114.834 82 156.501s120 70.5 208 86.5c23.333 -49.333 37.333 -102.666 42 -159.999c-49.333 -11.333 -92.833 -25.5 -130.5 -42.5zM453 535c-1.33301 -9.33301 -5.33105 -22.501 -11.998 -39.501s-12 -28.167 -16 -33.5
c-20.667 0 -45.834 -2 -75.501 -6s-55.834 -8.66699 -78.501 -14c-2.66699 4 -4.66699 10.5 -6 19.5s-2 18.167 -2 27.5c0 10 0.666992 16.333 2 19c12 5.33301 26.333 10 43 14c-14 16.667 -21 34 -21 52c0 14 4.5 27.333 13.5 40s20.333 22.834 34 30.501
s27.167 11.5 40.5 11.5c10.667 0 19.667 -2.33301 27 -7c14.667 -8.66699 22 -22 22 -40c0 -13.333 -4.33301 -25.333 -13 -36c-13.333 6 -25.333 9 -36 9c-8.66699 0 -15.834 -1.83301 -21.501 -5.5s-8.5 -8.5 -8.5 -14.5c0 -9.33301 3.66699 -19 11 -29
c26.667 5.33301 51.334 8 74.001 8l19 -1z" />
    <glyph glyph-name="uniFC9B" unicode="&#xfe8b;&#xfeec;" horiz-adv-x="584" arabic-form="initial" 
d="M475.5 362c-29.667 -4 -55.832 -8.66797 -78.499 -14.001c-2.66699 4 -4.66699 10.5 -6 19.5s-2 18.167 -2 27.5c0 10 0.666992 16.333 2 19c12 5.33301 26.333 10 43 14c-14 16.667 -21 34 -21 52c0 14 4.5 27.333 13.5 40s20.333 22.834 34 30.501
s27.167 11.5 40.5 11.5c10.667 0 19.667 -2.33301 27 -7c14.667 -8.66699 22 -22 22 -40c0 -13.333 -4.33301 -25.333 -13 -36c-13.333 6 -25.333 9 -36 9c-8.66699 0 -15.834 -1.83301 -21.501 -5.5s-8.5 -8.5 -8.5 -14.5c0 -9.33301 3.66699 -19 11 -29
c26.667 5.33301 51.334 8 74.001 8l19 -1l4 -5c-1.33301 -9.33301 -5.33301 -22.5 -12 -39.5s-12 -28.167 -16 -33.5c-20.667 0 -45.834 -2 -75.501 -6zM232.502 171.499c29.667 43.667 69.9971 76.835 120.997 99.502s107.167 34 168.5 34c13.333 0 23.333 -0.333008 30 -1
c1.33301 -12 2 -22.667 2 -32c0 -16.667 -2 -43 -6 -79c-5.33301 -42 -12.333 -75 -21 -99c-20 2.66699 -38.333 4 -55 4c-35.333 0 -67.833 -5.33301 -97.5 -16s-51.167 -29.334 -64.5 -56.001c-4.66699 -9.33301 -7 -21.666 -7 -36.999
c0 -36.667 12.667 -76.334 38 -119.001c-15.333 -14.667 -41.166 -31.5 -77.499 -50.5s-65.833 -31.167 -88.5 -36.5c-16 14.667 -33.167 42.167 -51.5 82.5s-32.166 89.833 -41.499 148.5c-16 -6 -30.167 -9.83301 -42.5 -11.5s-25.5 -2.5 -39.5 -2.5
c-10 0 -17 7.5 -21 22.5s-6 38.5 -6 70.5c0 31.333 1.83301 54.666 5.5 69.999s10.834 23 21.501 23c58.667 0 109 7.33301 151 22l7 -4c0 -30 2.16699 -64.667 6.5 -104s9.5 -67 15.5 -83h9c-0.666992 59.333 13.833 110.833 43.5 154.5z" />
    <glyph glyph-name="uniFC9F" unicode="&#xfe91;&#xfee4;" horiz-adv-x="498" arabic-form="initial" 
d="M360 67c-3.33301 -18 -15 -42.5 -35 -73.5s-37.667 -52.833 -53 -65.5c-14 0 -27.833 4.83301 -41.5 14.5s-28.167 22.167 -43.5 37.5c-13.333 12 -21.333 18.667 -24 20c-8.66699 4.66699 -22 7 -40 7c-10.667 0 -20.834 -0.333008 -30.501 -1
s-18.5 -1.33398 -26.5 -2.00098c-29.333 -2.66699 -51.333 -4 -66 -4c-10 0 -17 7.5 -21 22.5s-6 38.5 -6 70.5c0 31.333 1.83301 54.666 5.5 69.999s10.834 23 21.501 23c50 0 95.333 -5.33301 136 -16c4 62.667 31.333 114.834 82 156.501s120 70.5 208 86.5
c23.333 -49.333 37.333 -102.666 42 -159.999c-49.333 -11.333 -92.833 -25.5 -130.5 -42.5s-56.5 -37.5 -56.5 -61.5c0 -21.333 17.333 -43.333 52 -66zM446.5 -192.5c-17.667 -25 -32.499 -41.498 -44.499 -49.498c-14 5.33301 -32.333 15.833 -55 31.5
s-38.334 29.167 -47.001 40.5c2 8.66699 7.16699 20.5 15.5 35.5s17.833 28.667 28.5 41s20 19.166 28 20.499c7.33301 1.33301 18.5 -2 33.5 -10s29 -17.833 42 -29.5s20.167 -20.834 21.5 -27.501c2.66699 -10 -4.83301 -27.5 -22.5 -52.5z" />
    <glyph glyph-name="uniFCA0" unicode="&#xfe91;&#xfeec;" horiz-adv-x="584" arabic-form="initial" 
d="M554 272c0 -16.667 -2.00293 -42.999 -6.00293 -78.999c-5.33301 -42 -12.333 -75 -21 -99c-20 2.66699 -38.333 4 -55 4c-35.333 0 -67.833 -5.33301 -97.5 -16s-51.167 -29.334 -64.5 -56.001c-4.66699 -9.33301 -7 -21.666 -7 -36.999
c0 -36.667 12.667 -76.334 38 -119.001c-15.333 -14.667 -41.166 -31.5 -77.499 -50.5s-65.833 -31.167 -88.5 -36.5c-16 14.667 -33.167 42.167 -51.5 82.5s-32.166 89.833 -41.499 148.5c-16 -6 -30.167 -9.83301 -42.5 -11.5s-25.5 -2.5 -39.5 -2.5
c-10 0 -17 7.5 -21 22.5s-6 38.5 -6 70.5c0 31.333 1.83301 54.666 5.5 69.999s10.834 23 21.501 23c58.667 0 109 7.33301 151 22l7 -4c0 -30 2.16699 -64.667 6.5 -104s9.5 -67 15.5 -83h9c-0.666992 59.333 13.833 110.833 43.5 154.5s70 76.834 121 99.501
s107.167 34 168.5 34c13.333 0 23.333 -0.333008 30 -1c1.33301 -12 2 -22.667 2 -32zM482.497 -38.999c15 -8 29.001 -17.8311 42.001 -29.498s20.167 -20.834 21.5 -27.501c2.66699 -10 -4.83301 -27.5 -22.5 -52.5s-32.5 -41.5 -44.5 -49.5
c-14 5.33301 -32.333 15.833 -55 31.5s-38.334 29.167 -47.001 40.5c2 8.66699 7.16699 20.5 15.5 35.5s17.833 28.667 28.5 41s20 19.166 28 20.499c7.33301 1.33301 18.5 -2 33.5 -10z" />
    <glyph glyph-name="uniFCA4" unicode="&#xfe97;&#xfee4;" horiz-adv-x="498" arabic-form="initial" 
d="M228 490.5c-20.667 14.333 -35.332 26.499 -43.999 36.499c4 14 14 32.667 30 56s29.333 35 40 35s26.667 -7.5 48 -22.5s34.333 -27.5 39 -37.5c9.33301 16.667 19 30.834 29 42.501s19 17.5 27 17.5c10.667 0 27.5 -8.16699 50.5 -24.5s35.5 -29.166 37.5 -38.499
c1.33301 -10 -6 -26.333 -22 -49s-29.667 -38 -41 -46c-12.667 5.33301 -28.667 14.5 -48 27.5s-33.666 24.833 -42.999 35.5c-6.66699 -12 -15.334 -24.333 -26.001 -37s-19.334 -21.334 -26.001 -26.001c-13.333 6 -30.333 16.167 -51 30.5zM337.502 210.499
c-37.667 -17 -56.5 -37.5 -56.5 -61.5c0 -21.333 17.333 -43.333 52 -66l27 -16c-3.33301 -18 -15 -42.5 -35 -73.5s-37.667 -52.833 -53 -65.5c-14 0 -27.833 4.83301 -41.5 14.5s-28.167 22.167 -43.5 37.5c-13.333 12 -21.333 18.667 -24 20
c-8.66699 4.66699 -22 7 -40 7c-10.667 0 -20.834 -0.333008 -30.501 -1s-18.5 -1.33398 -26.5 -2.00098c-29.333 -2.66699 -51.333 -4 -66 -4c-10 0 -17 7.5 -21 22.5s-6 38.5 -6 70.5c0 31.333 1.83301 54.666 5.5 69.999s10.834 23 21.501 23
c50 0 95.333 -5.33301 136 -16c4 62.667 31.333 114.834 82 156.501s120 70.5 208 86.5c23.333 -49.333 37.333 -102.666 42 -159.999c-49.333 -11.333 -92.833 -25.5 -130.5 -42.5z" />
    <glyph glyph-name="uniFCA5" unicode="&#xfe97;&#xfeec;" horiz-adv-x="584" arabic-form="initial" 
d="M310 415.5c-20.667 14.333 -35.332 26.499 -43.999 36.499c4 14 14 32.667 30 56s29.333 35 40 35s26.667 -7.5 48 -22.5s34.333 -27.5 39 -37.5c9.33301 16.667 19 30.834 29 42.501s19 17.5 27 17.5c10.667 0 27.5 -8.16699 50.5 -24.5s35.5 -29.166 37.5 -38.499
c1.33301 -10 -6 -26.333 -22 -49s-29.667 -38 -41 -46c-12.667 5.33301 -28.667 14.5 -48 27.5s-33.666 24.833 -42.999 35.5c-6.66699 -12 -15.334 -24.333 -26.001 -37s-19.334 -21.334 -26.001 -26.001c-13.333 6 -30.333 16.167 -51 30.5zM232.502 171.499
c29.667 43.667 69.9971 76.835 120.997 99.502s107.167 34 168.5 34c13.333 0 23.333 -0.333008 30 -1c1.33301 -12 2 -22.667 2 -32c0 -16.667 -2 -43 -6 -79c-5.33301 -42 -12.333 -75 -21 -99c-20 2.66699 -38.333 4 -55 4c-35.333 0 -67.833 -5.33301 -97.5 -16
s-51.167 -29.334 -64.5 -56.001c-4.66699 -9.33301 -7 -21.666 -7 -36.999c0 -36.667 12.667 -76.334 38 -119.001c-15.333 -14.667 -41.166 -31.5 -77.499 -50.5s-65.833 -31.167 -88.5 -36.5c-16 14.667 -33.167 42.167 -51.5 82.5s-32.166 89.833 -41.499 148.5
c-16 -6 -30.167 -9.83301 -42.5 -11.5s-25.5 -2.5 -39.5 -2.5c-10 0 -17 7.5 -21 22.5s-6 38.5 -6 70.5c0 31.333 1.83301 54.666 5.5 69.999s10.834 23 21.501 23c58.667 0 109 7.33301 151 22l7 -4c0 -30 2.16699 -64.667 6.5 -104s9.5 -67 15.5 -83h9
c-0.666992 59.333 13.833 110.833 43.5 154.5z" />
    <glyph glyph-name="uniFCA6" unicode="&#xfe9b;&#xfee4;" horiz-adv-x="498" arabic-form="initial" 
d="M268 648c-20 14 -34.334 25.667 -43.001 35c2 8 7 19 15 33s16.833 26.333 26.5 37s18.167 16 25.5 16c10.667 0 26.834 -7.66699 48.501 -23s33.5 -27.333 35.5 -36c1.33301 -9.33301 -5.66699 -25 -21 -47s-28.333 -36.667 -39 -44c-12 5.33301 -28 15 -48 29z
M205.499 505c-21 14.667 -35.8311 27 -44.498 37c3.33301 13.333 12.833 31.166 28.5 53.499s28.834 34.5 39.501 36.5c9.33301 2 25.166 -4.66699 47.499 -20s36.166 -28.333 41.499 -39c8.66699 16 18.334 29.833 29.001 41.5s20 17.5 28 17.5
c11.333 0 28.166 -8.16699 50.499 -24.5s34.5 -29.166 36.5 -38.499c1.33301 -10 -6 -26.333 -22 -49s-29.667 -37.667 -41 -45c-11.333 4.66699 -26.666 13.5 -45.999 26.5s-34.333 24.833 -45 35.5c-6.66699 -12 -15.334 -24.167 -26.001 -36.5
s-19.334 -20.833 -26.001 -25.5c-12.667 5.33301 -29.5 15.333 -50.5 30zM337.501 210.5c-37.667 -17 -56.5 -37.5 -56.5 -61.5c0 -21.333 17.333 -43.333 52 -66l27 -16c-3.33301 -18 -15 -42.5 -35 -73.5s-37.667 -52.833 -53 -65.5c-14 0 -27.833 4.83301 -41.5 14.5
s-28.167 22.167 -43.5 37.5c-13.333 12 -21.333 18.667 -24 20c-8.66699 4.66699 -22 7 -40 7c-10.667 0 -20.834 -0.333008 -30.501 -1s-18.5 -1.33398 -26.5 -2.00098c-29.333 -2.66699 -51.333 -4 -66 -4c-10 0 -17 7.5 -21 22.5s-6 38.5 -6 70.5
c0 31.333 1.83301 54.666 5.5 69.999s10.834 23 21.501 23c50 0 95.333 -5.33301 136 -16c4 62.667 31.333 114.834 82 156.501s120 70.5 208 86.5c23.333 -49.333 37.333 -102.666 42 -159.999c-49.333 -11.333 -92.833 -25.5 -130.5 -42.5z" />
    <glyph glyph-name="uniFCB0" unicode="&#xfeb3;&#xfee4;" horiz-adv-x="1100" arabic-form="initial" 
d="M1070 210c0 -34.667 -3.6709 -68.1631 -11.0039 -100.496s-17.666 -59.166 -30.999 -80.499c-48 -23.333 -91.667 -35 -131 -35c-58 0 -106.333 25.333 -145 76h-8c-12 -24.667 -30.833 -43.334 -56.5 -56.001s-53.834 -19 -84.501 -19c-27.333 0 -51.666 5 -72.999 15
s-39.666 22 -54.999 36s-32.666 32.333 -51.999 55c-22.667 26 -41.667 45 -57 57s-32.666 18 -51.999 18c-15.333 0 -28.833 -4 -40.5 -12s-20.5 -19.667 -26.5 -35c38 -16.667 74.333 -37.334 109 -62.001c-2.66699 -16 -14.334 -40.333 -35.001 -73s-38 -54.667 -52 -66
c-14.667 0 -27.834 4 -39.501 12s-25.5 19.667 -41.5 35c-16 17.333 -28 27 -36 29c-7.33301 2.66699 -17 4 -29 4c-8.66699 0 -17 -0.333008 -25 -1s-15.333 -1.33398 -22 -2.00098c-36.667 -3.33301 -62 -5 -76 -5c-10 0 -17 7.5 -21 22.5s-6 38.5 -6 70.5
c0 31.333 1.83301 54.666 5.5 69.999s10.834 23 21.501 23c48 0 87.333 -3 118 -9c16 52 41.833 93 77.5 123s74.834 45 117.501 45c30 0 55.667 -7 77 -21s45.333 -34.667 72 -62c27.333 -27.333 51.5 -47.833 72.5 -61.5s46.167 -20.5 75.5 -20.5
c64.667 0 103.667 37.333 117 112l84 -13c-0.666992 -6 -1 -14.333 -1 -25c0 -52 21.667 -78 65 -78c12 0 29.333 2.66699 52 8c-6 27.333 -16 60.666 -30 99.999l-7 21l161 37c12.667 -40 19 -84 19 -132z" />
    <glyph glyph-name="uniFCB3" unicode="&#xfebb;&#xfee4;" horiz-adv-x="1059" arabic-form="initial" 
d="M980 338.5c33.333 -39.667 50.0059 -91.8301 50.0059 -156.497c0 -14 -4.33301 -35.833 -13 -65.5s-20.334 -55.167 -35.001 -76.5c-33.333 -12.667 -81.833 -23.167 -145.5 -31.5s-120.834 -12.5 -171.501 -12.5c-45.333 0 -83.5 5.5 -114.5 16.5
s-55.333 24.167 -73 39.5s-36.834 35 -57.501 59c-18.667 22.667 -34.834 39.167 -48.501 49.5s-31.167 15.5 -52.5 15.5c-18 0 -33.167 -4 -45.5 -12s-21.166 -19.667 -26.499 -35c38 -16.667 74.333 -37.334 109 -62.001c-2.66699 -16 -14.334 -40.333 -35.001 -73
s-38 -54.667 -52 -66c-14.667 0 -27.834 4 -39.501 12s-25.5 19.667 -41.5 35c-16 17.333 -28 27 -36 29c-7.33301 2.66699 -17 4 -29 4c-8.66699 0 -17 -0.333008 -25 -1s-15.333 -1.33398 -22 -2.00098c-36.667 -3.33301 -62 -5 -76 -5c-10 0 -17 7.5 -21 22.5
s-6 38.5 -6 70.5c0 31.333 1.83301 54.666 5.5 69.999s10.834 23 21.501 23c47.333 0 87 -3 119 -9c15.333 52 40.666 93 75.999 123s74.333 45 117 45c28.667 0 53.167 -6.33301 73.5 -19s44.166 -32 71.499 -58c17.333 -17.333 32.333 -31.333 45 -42
s26.667 -19.667 42 -27c44.667 58 94.167 105.667 148.5 143s105.5 56 153.5 56c56 0 100.667 -19.833 134 -59.5zM756.006 171.004c40 0 74.832 1.66797 104.499 5.00098s46.5 8.66602 50.5 15.999c-4 10.667 -13 19.167 -27 25.5s-30.333 9.5 -49 9.5
c-25.333 0 -52.666 -4.5 -81.999 -13.5s-57.333 -22.167 -84 -39.5c25.333 -2 54.333 -3 87 -3z" />
    <glyph glyph-name="uniFCB7" unicode="&#xfebf;&#xfee4;" horiz-adv-x="1059" arabic-form="initial" 
d="M755 507.5c-22.667 15.667 -38.333 29.1689 -47 40.502c2 8.66699 7.16699 20.5 15.5 35.5s17.833 28.667 28.5 41s20 19.166 28 20.499c7.33301 1.33301 18.5 -2 33.5 -10s29 -17.833 42 -29.5s20.167 -20.834 21.5 -27.501c2.66699 -10 -4.83301 -27.5 -22.5 -52.5
s-32.5 -41.5 -44.5 -49.5c-14 5.33301 -32.333 15.833 -55 31.5zM980.001 338.502c33.333 -39.667 50.0059 -91.8301 50.0059 -156.497c0 -14 -4.33301 -35.833 -13 -65.5s-20.334 -55.167 -35.001 -76.5c-33.333 -12.667 -81.833 -23.167 -145.5 -31.5
s-120.834 -12.5 -171.501 -12.5c-45.333 0 -83.5 5.5 -114.5 16.5s-55.333 24.167 -73 39.5s-36.834 35 -57.501 59c-18.667 22.667 -34.834 39.167 -48.501 49.5s-31.167 15.5 -52.5 15.5c-18 0 -33.167 -4 -45.5 -12s-21.166 -19.667 -26.499 -35
c38 -16.667 74.333 -37.334 109 -62.001c-2.66699 -16 -14.334 -40.333 -35.001 -73s-38 -54.667 -52 -66c-14.667 0 -27.834 4 -39.501 12s-25.5 19.667 -41.5 35c-16 17.333 -28 27 -36 29c-7.33301 2.66699 -17 4 -29 4c-8.66699 0 -17 -0.333008 -25 -1
s-15.333 -1.33398 -22 -2.00098c-36.667 -3.33301 -62 -5 -76 -5c-10 0 -17 7.5 -21 22.5s-6 38.5 -6 70.5c0 31.333 1.83301 54.666 5.5 69.999s10.834 23 21.501 23c47.333 0 87 -3 119 -9c15.333 52 40.666 93 75.999 123s74.333 45 117 45
c28.667 0 53.167 -6.33301 73.5 -19s44.166 -32 71.499 -58c17.333 -17.333 32.333 -31.333 45 -42s26.667 -19.667 42 -27c44.667 58 94.167 105.667 148.5 143s105.5 56 153.5 56c56 0 100.667 -19.833 134 -59.5zM756.007 171.006c40 0 74.832 1.66797 104.499 5.00098
s46.5 8.66602 50.5 15.999c-4 10.667 -13 19.167 -27 25.5s-30.333 9.5 -49 9.5c-25.333 0 -52.666 -4.5 -81.999 -13.5s-57.333 -22.167 -84 -39.5c25.333 -2 54.333 -3 87 -3z" />
    <glyph glyph-name="uniFCCC" unicode="&#xfedf;&#xfee4;" horiz-adv-x="409" arabic-form="initial" 
d="M379 137c-2.66699 -36 -12 -72.832 -28 -110.499s-38 -68.5 -66 -92.5c-23.333 0 -44.333 6.16699 -63 18.5s-36 34.5 -52 66.5c-25.333 -8 -51.833 -13.167 -79.5 -15.5s-57.834 -3.5 -90.501 -3.5c-10 0 -17 7.5 -21 22.5s-6 38.5 -6 70.5
c0 31.333 1.83301 54.666 5.5 69.999s10.834 23 21.501 23c69.333 0 116 2 140 6c-1.33301 40 -4.5 87.5 -9.5 142.5l-15.5 164.5l-6 58l162 9l3 -45c0.666992 -7.33301 2.5 -34.833 5.5 -82.5s4.5 -95.167 4.5 -142.5c0 -52.667 -2 -95 -6 -127z" />
    <glyph glyph-name="uniFCD5" unicode="&#xfee7;&#xfee4;" horiz-adv-x="498" arabic-form="initial" 
d="M268 517.5c-22.667 15.667 -38.333 29.1689 -47 40.502c2 8.66699 7.16699 20.5 15.5 35.5s17.833 28.667 28.5 41s20 19.166 28 20.499c7.33301 1.33301 18.5 -2 33.5 -10s29 -17.833 42 -29.5s20.167 -20.834 21.5 -27.501c2.66699 -10 -4.83301 -27.5 -22.5 -52.5
s-32.5 -41.5 -44.5 -49.5c-14 5.33301 -32.333 15.833 -55 31.5zM337.501 210.502c-37.667 -17 -56.5 -37.5 -56.5 -61.5c0 -21.333 17.333 -43.333 52 -66l27 -16c-3.33301 -18 -15 -42.5 -35 -73.5s-37.667 -52.833 -53 -65.5c-14 0 -27.833 4.83301 -41.5 14.5
s-28.167 22.167 -43.5 37.5c-13.333 12 -21.333 18.667 -24 20c-8.66699 4.66699 -22 7 -40 7c-10.667 0 -20.834 -0.333008 -30.501 -1s-18.5 -1.33398 -26.5 -2.00098c-29.333 -2.66699 -51.333 -4 -66 -4c-10 0 -17 7.5 -21 22.5s-6 38.5 -6 70.5
c0 31.333 1.83301 54.666 5.5 69.999s10.834 23 21.501 23c50 0 95.333 -5.33301 136 -16c4 62.667 31.333 114.834 82 156.501s120 70.5 208 86.5c23.333 -49.333 37.333 -102.666 42 -159.999c-49.333 -11.333 -92.833 -25.5 -130.5 -42.5z" />
    <glyph glyph-name="uniFCD6" unicode="&#xfee7;&#xfeec;" horiz-adv-x="584" arabic-form="initial" 
d="M375 410.5c-22.667 15.667 -38.333 29.1689 -47 40.502c2 8.66699 7.16699 20.5 15.5 35.5s17.833 28.667 28.5 41s20 19.166 28 20.499c7.33301 1.33301 18.5 -2 33.5 -10s29 -17.833 42 -29.5s20.167 -20.834 21.5 -27.501c2.66699 -10 -4.83301 -27.5 -22.5 -52.5
s-32.5 -41.5 -44.5 -49.5c-14 5.33301 -32.333 15.833 -55 31.5zM554.001 272.002c0 -16.667 -2.00293 -42.999 -6.00293 -78.999c-5.33301 -42 -12.333 -75 -21 -99c-20 2.66699 -38.333 4 -55 4c-35.333 0 -67.833 -5.33301 -97.5 -16s-51.167 -29.334 -64.5 -56.001
c-4.66699 -9.33301 -7 -21.666 -7 -36.999c0 -36.667 12.667 -76.334 38 -119.001c-15.333 -14.667 -41.166 -31.5 -77.499 -50.5s-65.833 -31.167 -88.5 -36.5c-16 14.667 -33.167 42.167 -51.5 82.5s-32.166 89.833 -41.499 148.5c-16 -6 -30.167 -9.83301 -42.5 -11.5
s-25.5 -2.5 -39.5 -2.5c-10 0 -17 7.5 -21 22.5s-6 38.5 -6 70.5c0 31.333 1.83301 54.666 5.5 69.999s10.834 23 21.501 23c58.667 0 109 7.33301 151 22l7 -4c0 -30 2.16699 -64.667 6.5 -104s9.5 -67 15.5 -83h9c-0.666992 59.333 13.833 110.833 43.5 154.5
s70 76.834 121 99.501s107.167 34 168.5 34c13.333 0 23.333 -0.333008 30 -1c1.33301 -12 2 -22.667 2 -32z" />
    <glyph glyph-name="uniFCDD" unicode="&#xfef3;&#xfee4;" horiz-adv-x="498" arabic-form="initial" 
d="M230.5 -57.5c-13.667 9.66699 -28.167 22.167 -43.5 37.5c-13.333 12 -21.333 18.667 -24 20c-8.66699 4.66699 -22 7 -40 7c-10.667 0 -20.834 -0.333008 -30.501 -1s-18.5 -1.33398 -26.5 -2.00098c-29.333 -2.66699 -51.333 -4 -66 -4c-10 0 -17 7.5 -21 22.5
s-6 38.5 -6 70.5c0 31.333 1.83301 54.666 5.5 69.999s10.834 23 21.501 23c50 0 95.333 -5.33301 136 -16c4 62.667 31.333 114.834 82 156.501s120 70.5 208 86.5c23.333 -49.333 37.333 -102.666 42 -159.999c-49.333 -11.333 -92.833 -25.5 -130.5 -42.5
s-56.5 -37.5 -56.5 -61.5c0 -21.333 17.333 -43.333 52 -66l27 -16c-3.33301 -18 -15 -42.5 -35 -73.5s-37.667 -52.833 -53 -65.5c-14 0 -27.833 4.83301 -41.5 14.5zM420.5 -164.5c23 -16.333 35.502 -29.167 37.502 -38.5c1.33301 -10 -6 -26.333 -22 -49
s-29.667 -38 -41 -46c-12.667 5.33301 -28.667 14.5 -48 27.5s-33.666 24.833 -42.999 35.5c-6.66699 -12 -15.334 -24.333 -26.001 -37s-19.334 -21.334 -26.001 -26.001c-13.333 6 -30.333 16.167 -51 30.5s-35.334 26.5 -44.001 36.5c4 14 14 32.667 30 56
s29.333 35 40 35s26.667 -7.5 48 -22.5s34.333 -27.5 39 -37.5c9.33301 16.667 19 30.834 29 42.501s19 17.5 27 17.5c10.667 0 27.5 -8.16699 50.5 -24.5z" />
    <glyph glyph-name="uniFCDE" unicode="&#xfef3;&#xfeec;" horiz-adv-x="584" arabic-form="initial" 
d="M303 -11c0 -36.667 12.6641 -76.333 37.9971 -119c-15.333 -14.667 -41.166 -31.5 -77.499 -50.5s-65.833 -31.167 -88.5 -36.5c-16 14.667 -33.167 42.167 -51.5 82.5s-32.166 89.833 -41.499 148.5c-16 -6 -30.167 -9.83301 -42.5 -11.5s-25.5 -2.5 -39.5 -2.5
c-10 0 -17 7.5 -21 22.5s-6 38.5 -6 70.5c0 31.333 1.83301 54.666 5.5 69.999s10.834 23 21.501 23c58.667 0 109 7.33301 151 22l7 -4c0 -30 2.16699 -64.667 6.5 -104s9.5 -67 15.5 -83h9c-0.666992 59.333 13.833 110.833 43.5 154.5s70 76.834 121 99.501
s107.167 34 168.5 34c13.333 0 23.333 -0.333008 30 -1c1.33301 -12 2 -22.667 2 -32c0 -16.667 -2 -43 -6 -79c-5.33301 -42 -12.333 -75 -21 -99c-20 2.66699 -38.333 4 -55 4c-35.333 0 -67.833 -5.33301 -97.5 -16s-51.167 -29.334 -64.5 -56.001
c-4.66699 -9.33301 -7 -21.666 -7 -36.999zM626.997 -97.999c-16 -22.667 -29.665 -38.001 -40.998 -46.001c-12.667 5.33301 -28.667 14.5 -48 27.5s-33.666 24.833 -42.999 35.5c-6.66699 -12 -15.334 -24.333 -26.001 -37s-19.334 -21.334 -26.001 -26.001
c-13.333 6 -30.333 16.167 -51 30.5s-35.334 26.5 -44.001 36.5c4 14 14 32.667 30 56s29.333 35 40 35s26.667 -7.5 48 -22.5s34.333 -27.5 39 -37.5c9.33301 16.667 19 30.834 29 42.501s19 17.5 27 17.5c10.667 0 27.5 -8.16699 50.5 -24.5s35.5 -29.166 37.5 -38.499
c1.33301 -10 -6 -26.333 -22 -49z" />
    <glyph glyph-name="uniFCDF" unicode="&#xfe8c;&#xfee4;" horiz-adv-x="617" arabic-form="medial" 
d="M638.5 163c3.66699 -15.333 5.49902 -38.666 5.49902 -69.999c0 -32 -2 -55.5 -6 -70.5s-11 -22.5 -21 -22.5c-36 0 -66.667 8.5 -92 25.5s-52.666 41.167 -81.999 72.5c-25.333 26.667 -46.833 46.334 -64.5 59.001s-37.5 19 -59.5 19c-18 0 -33.167 -4 -45.5 -12
s-21.166 -19.667 -26.499 -35c38 -16.667 74.333 -37.334 109 -62.001c-2.66699 -16 -14.334 -40.333 -35.001 -73s-38 -54.667 -52 -66c-14.667 0 -27.834 4 -39.501 12s-25.5 19.667 -41.5 35c-16 17.333 -28 27 -36 29c-7.33301 2.66699 -17 4 -29 4
c-4.66699 0 -13.667 -0.666992 -27 -2l-20 -1c-24.667 -3.33301 -50 -5 -76 -5c-10 0 -17 7.5 -21 22.5s-6 38.5 -6 70.5c0 31.333 1.83301 54.666 5.5 69.999s10.834 23 21.501 23c48.667 0 88.334 -3 119.001 -9c15.333 52 40.666 93 75.999 123s75.333 45 120 45
c26.667 0 50.167 -6.33301 70.5 -19s44.166 -31.667 71.499 -57c29.333 -27.333 55.5 -48 78.5 -62s50.167 -21 81.5 -21c10.667 0 17.834 -7.66699 21.501 -23zM399.999 482c-1.33301 -9.33301 -5.33105 -22.501 -11.998 -39.501s-12 -28.167 -16 -33.5
c-20.667 0 -45.834 -2 -75.501 -6s-55.834 -8.66699 -78.501 -14c-2.66699 4 -4.66699 10.5 -6 19.5s-2 18.167 -2 27.5c0 10 0.666992 16.333 2 19c12 5.33301 26.333 10 43 14c-14 16.667 -21 34 -21 52c0 14 4.5 27.333 13.5 40s20.333 22.834 34 30.501
s27.167 11.5 40.5 11.5c10.667 0 19.667 -2.33301 27 -7c14.667 -8.66699 22 -22 22 -40c0 -13.333 -4.33301 -25.333 -13 -36c-13.333 6 -25.333 9 -36 9c-8.66699 0 -15.834 -1.83301 -21.501 -5.5s-8.5 -8.5 -8.5 -14.5c0 -9.33301 3.66699 -19 11 -29
c26.667 5.33301 51.334 8 74.001 8l19 -1z" />
    <glyph glyph-name="uniFCE0" unicode="&#xfe8c;&#xfeec;" horiz-adv-x="606" arabic-form="medial" 
d="M346.5 355c-29.667 -4 -55.832 -8.66797 -78.499 -14.001c-2.66699 4 -4.66699 10.5 -6 19.5s-2 18.167 -2 27.5c0 10 0.666992 16.333 2 19c12 5.33301 26.333 10 43 14c-14 16.667 -21 34 -21 52c0 14 4.5 27.333 13.5 40s20.333 22.834 34 30.501
s27.167 11.5 40.5 11.5c10.667 0 19.667 -2.33301 27 -7c14.667 -8.66699 22 -22 22 -40c0 -13.333 -4.33301 -25.333 -13 -36c-12.667 6 -24.667 9 -36 9c-8.66699 0 -15.834 -1.83301 -21.501 -5.5s-8.5 -8.5 -8.5 -14.5c0 -9.33301 3.66699 -19 11 -29
c26.667 5.33301 51.334 8 74.001 8l19 -1l4 -5c-1.33301 -9.33301 -5.33301 -22.5 -12 -39.5s-12 -28.167 -16 -33.5c-20.667 0 -45.834 -2 -75.501 -6zM627.502 162.999c3.66699 -15.333 5.49902 -38.665 5.49902 -69.998c0 -32 -2 -55.5 -6 -70.5s-11 -22.5 -21 -22.5
c-32 0 -59.167 6 -81.5 18s-45.833 29 -70.5 51c-19.333 16 -35 27.667 -47 35s-25.333 11 -40 11c-22.667 0 -39 -8.5 -49 -25.5s-15 -39.167 -15 -66.5c0 -26 3.66699 -53.5 11 -82.5s16.333 -52.5 27 -70.5c-16 -14.667 -41.167 -31.334 -75.5 -50.001
s-64.5 -31 -90.5 -37c-21.333 20.667 -40.833 54.167 -58.5 100.5s-29.167 89.833 -34.5 130.5c-13.333 -5.33301 -26.166 -9 -38.499 -11s-26.833 -3 -43.5 -3c-10 0 -17 7.5 -21 22.5s-6 38.5 -6 70.5c0 31.333 1.83301 54.666 5.5 69.999s10.834 23 21.501 23
c26 0 52.833 1.83301 80.5 5.5s50.834 9.16699 69.501 16.5l8 -4c0 -23.333 1.66699 -53.833 5 -91.5s9 -69.5 17 -95.5h9c-2.66699 58 3.83301 108 19.5 150s37.167 74 64.5 96s56.666 33 87.999 33c25.333 0 47.666 -5 66.999 -15s40.666 -24.333 63.999 -43
c24 -18 44 -31.167 60 -39.5s34 -12.5 54 -12.5c10.667 0 17.834 -7.66699 21.501 -23z" />
    <glyph glyph-name="uniFCE1" unicode="&#xfe92;&#xfee4;" horiz-adv-x="617" arabic-form="medial" 
d="M638.5 163c3.66699 -15.333 5.49902 -38.666 5.49902 -69.999c0 -32 -2 -55.5 -6 -70.5s-11 -22.5 -21 -22.5c-36 0 -66.667 8.5 -92 25.5s-52.666 41.167 -81.999 72.5c-25.333 26.667 -46.833 46.334 -64.5 59.001s-37.5 19 -59.5 19c-18 0 -33.167 -4 -45.5 -12
s-21.166 -19.667 -26.499 -35c38 -16.667 74.333 -37.334 109 -62.001c-2.66699 -16 -14.334 -40.333 -35.001 -73s-38 -54.667 -52 -66c-14.667 0 -27.834 4 -39.501 12s-25.5 19.667 -41.5 35c-16 17.333 -28 27 -36 29c-7.33301 2.66699 -17 4 -29 4
c-4.66699 0 -13.667 -0.666992 -27 -2l-20 -1c-24.667 -3.33301 -50 -5 -76 -5c-10 0 -17 7.5 -21 22.5s-6 38.5 -6 70.5c0 31.333 1.83301 54.666 5.5 69.999s10.834 23 21.501 23c48.667 0 88.334 -3 119.001 -9c15.333 52 40.666 93 75.999 123s75.333 45 120 45
c26.667 0 50.167 -6.33301 70.5 -19s44.166 -31.667 71.499 -57c29.333 -27.333 55.5 -48 78.5 -62s50.167 -21 81.5 -21c10.667 0 17.834 -7.66699 21.501 -23zM385.499 -83c15 -8 29.001 -17.8311 42.001 -29.498s20.167 -20.834 21.5 -27.501
c2.66699 -10 -4.83301 -27.5 -22.5 -52.5s-32.5 -41.5 -44.5 -49.5c-14 5.33301 -32.333 15.833 -55 31.5s-38.334 29.167 -47.001 40.5c2 8.66699 7.16699 20.5 15.5 35.5s17.833 28.667 28.5 41s20 19.166 28 20.499c7.33301 1.33301 18.5 -2 33.5 -10z" />
    <glyph glyph-name="uniFCE2" unicode="&#xfe92;&#xfeec;" horiz-adv-x="606" arabic-form="medial" 
d="M627.5 163c3.66699 -15.333 5.49902 -38.665 5.49902 -69.998c0 -32 -2 -55.5 -6 -70.5s-11 -22.5 -21 -22.5c-32 0 -59.167 6 -81.5 18s-45.833 29 -70.5 51c-19.333 16 -35 27.667 -47 35s-25.333 11 -40 11c-22.667 0 -39 -8.5 -49 -25.5s-15 -39.167 -15 -66.5
c0 -26 3.66699 -53.5 11 -82.5s16.333 -52.5 27 -70.5c-16 -14.667 -41.167 -31.334 -75.5 -50.001s-64.5 -31 -90.5 -37c-21.333 20.667 -40.833 54.167 -58.5 100.5s-29.167 89.833 -34.5 130.5c-13.333 -5.33301 -26.166 -9 -38.499 -11s-26.833 -3 -43.5 -3
c-10 0 -17 7.5 -21 22.5s-6 38.5 -6 70.5c0 31.333 1.83301 54.666 5.5 69.999s10.834 23 21.501 23c26 0 52.833 1.83301 80.5 5.5s50.834 9.16699 69.501 16.5l8 -4c0 -23.333 1.66699 -53.833 5 -91.5s9 -69.5 17 -95.5h9c-2.66699 58 3.83301 108 19.5 150
s37.167 74 64.5 96s56.666 33 87.999 33c25.333 0 47.666 -5 66.999 -15s40.666 -24.333 63.999 -43c24 -18 44 -31.167 60 -39.5s34 -12.5 54 -12.5c10.667 0 17.834 -7.66699 21.501 -23zM482.499 -68.999c15 -8 29.001 -17.8311 42.001 -29.498
s20.167 -20.834 21.5 -27.501c2.66699 -10 -4.83301 -27.5 -22.5 -52.5s-32.5 -41.5 -44.5 -49.5c-14 5.33301 -32.333 15.833 -55 31.5s-38.334 29.167 -47.001 40.5c2 8.66699 7.16699 20.5 15.5 35.5s17.833 28.667 28.5 41s20 19.166 28 20.499
c7.33301 1.33301 18.5 -2 33.5 -10z" />
    <glyph glyph-name="uniFCE3" unicode="&#xfe98;&#xfee4;" horiz-adv-x="617" arabic-form="medial" 
d="M182 428.5c-20.667 14.333 -35.332 26.499 -43.999 36.499c4 14 14 32.667 30 56s29.333 35 40 35s26.667 -7.5 48 -22.5s34.333 -27.5 39 -37.5c9.33301 16.667 19 30.834 29 42.501s19 17.5 27 17.5c10.667 0 27.5 -8.16699 50.5 -24.5s35.5 -29.166 37.5 -38.499
c1.33301 -10 -6 -26.333 -22 -49s-29.667 -38 -41 -46c-12.667 5.33301 -28.667 14.5 -48 27.5s-33.666 24.833 -42.999 35.5c-6.66699 -12 -15.334 -24.333 -26.001 -37s-19.334 -21.334 -26.001 -26.001c-13.333 6 -30.333 16.167 -51 30.5zM638.502 162.999
c3.66699 -15.333 5.49902 -38.666 5.49902 -69.999c0 -32 -2 -55.5 -6 -70.5s-11 -22.5 -21 -22.5c-36 0 -66.667 8.5 -92 25.5s-52.666 41.167 -81.999 72.5c-25.333 26.667 -46.833 46.334 -64.5 59.001s-37.5 19 -59.5 19c-18 0 -33.167 -4 -45.5 -12
s-21.166 -19.667 -26.499 -35c38 -16.667 74.333 -37.334 109 -62.001c-2.66699 -16 -14.334 -40.333 -35.001 -73s-38 -54.667 -52 -66c-14.667 0 -27.834 4 -39.501 12s-25.5 19.667 -41.5 35c-16 17.333 -28 27 -36 29c-7.33301 2.66699 -17 4 -29 4
c-4.66699 0 -13.667 -0.666992 -27 -2l-20 -1c-24.667 -3.33301 -50 -5 -76 -5c-10 0 -17 7.5 -21 22.5s-6 38.5 -6 70.5c0 31.333 1.83301 54.666 5.5 69.999s10.834 23 21.501 23c48.667 0 88.334 -3 119.001 -9c15.333 52 40.666 93 75.999 123s75.333 45 120 45
c26.667 0 50.167 -6.33301 70.5 -19s44.166 -31.667 71.499 -57c29.333 -27.333 55.5 -48 78.5 -62s50.167 -21 81.5 -21c10.667 0 17.834 -7.66699 21.501 -23z" />
    <glyph glyph-name="uniFCE4" unicode="&#xfe98;&#xfeec;" horiz-adv-x="606" arabic-form="medial" 
d="M242 388.5c-20.667 14.333 -35.332 26.499 -43.999 36.499c4 14 14 32.667 30 56s29.333 35 40 35s26.667 -7.5 48 -22.5s34.333 -27.5 39 -37.5c9.33301 16.667 19 30.834 29 42.501s19 17.5 27 17.5c10.667 0 27.5 -8.16699 50.5 -24.5s35.5 -29.166 37.5 -38.499
c1.33301 -10 -6 -26.333 -22 -49s-29.667 -38 -41 -46c-12.667 5.33301 -28.667 14.5 -48 27.5s-33.666 24.833 -42.999 35.5c-6.66699 -12 -15.334 -24.333 -26.001 -37s-19.334 -21.334 -26.001 -26.001c-13.333 6 -30.333 16.167 -51 30.5zM627.502 162.999
c3.66699 -15.333 5.49902 -38.665 5.49902 -69.998c0 -32 -2 -55.5 -6 -70.5s-11 -22.5 -21 -22.5c-32 0 -59.167 6 -81.5 18s-45.833 29 -70.5 51c-19.333 16 -35 27.667 -47 35s-25.333 11 -40 11c-22.667 0 -39 -8.5 -49 -25.5s-15 -39.167 -15 -66.5
c0 -26 3.66699 -53.5 11 -82.5s16.333 -52.5 27 -70.5c-16 -14.667 -41.167 -31.334 -75.5 -50.001s-64.5 -31 -90.5 -37c-21.333 20.667 -40.833 54.167 -58.5 100.5s-29.167 89.833 -34.5 130.5c-13.333 -5.33301 -26.166 -9 -38.499 -11s-26.833 -3 -43.5 -3
c-10 0 -17 7.5 -21 22.5s-6 38.5 -6 70.5c0 31.333 1.83301 54.666 5.5 69.999s10.834 23 21.501 23c26 0 52.833 1.83301 80.5 5.5s50.834 9.16699 69.501 16.5l8 -4c0 -23.333 1.66699 -53.833 5 -91.5s9 -69.5 17 -95.5h9c-2.66699 58 3.83301 108 19.5 150
s37.167 74 64.5 96s56.666 33 87.999 33c25.333 0 47.666 -5 66.999 -15s40.666 -24.333 63.999 -43c24 -18 44 -31.167 60 -39.5s34 -12.5 54 -12.5c10.667 0 17.834 -7.66699 21.501 -23z" />
    <glyph glyph-name="uniFCE5" unicode="&#xfe9c;&#xfee4;" horiz-adv-x="617" arabic-form="medial" 
d="M245 582c-20 14 -34.334 25.667 -43.001 35c2 8 7 19 15 33s16.833 26.333 26.5 37s18.167 16 25.5 16c10.667 0 26.834 -7.66699 48.501 -23s33.5 -27.333 35.5 -36c1.33301 -9.33301 -5.66699 -25 -21 -47s-28.333 -36.667 -39 -44c-12 5.33301 -28 15 -48 29z
M182.499 439c-21 14.667 -35.8311 27 -44.498 37c3.33301 13.333 12.833 31.166 28.5 53.499s28.834 34.5 39.501 36.5c9.33301 2 25.166 -4.66699 47.499 -20s36.166 -28.333 41.499 -39c8.66699 16 18.334 29.833 29.001 41.5s20 17.5 28 17.5
c11.333 0 28.166 -8.16699 50.499 -24.5s34.5 -29.166 36.5 -38.499c1.33301 -10 -6 -26.333 -22 -49s-29.667 -37.667 -41 -45c-11.333 4.66699 -26.666 13.5 -45.999 26.5s-34.333 24.833 -45 35.5c-6.66699 -12 -15.334 -24.167 -26.001 -36.5
s-19.334 -20.833 -26.001 -25.5c-12.667 5.33301 -29.5 15.333 -50.5 30zM638.501 163c3.66699 -15.333 5.49902 -38.666 5.49902 -69.999c0 -32 -2 -55.5 -6 -70.5s-11 -22.5 -21 -22.5c-36 0 -66.667 8.5 -92 25.5s-52.666 41.167 -81.999 72.5
c-25.333 26.667 -46.833 46.334 -64.5 59.001s-37.5 19 -59.5 19c-18 0 -33.167 -4 -45.5 -12s-21.166 -19.667 -26.499 -35c38 -16.667 74.333 -37.334 109 -62.001c-2.66699 -16 -14.334 -40.333 -35.001 -73s-38 -54.667 -52 -66c-14.667 0 -27.834 4 -39.501 12
s-25.5 19.667 -41.5 35c-16 17.333 -28 27 -36 29c-7.33301 2.66699 -17 4 -29 4c-4.66699 0 -13.667 -0.666992 -27 -2l-20 -1c-24.667 -3.33301 -50 -5 -76 -5c-10 0 -17 7.5 -21 22.5s-6 38.5 -6 70.5c0 31.333 1.83301 54.666 5.5 69.999s10.834 23 21.501 23
c48.667 0 88.334 -3 119.001 -9c15.333 52 40.666 93 75.999 123s75.333 45 120 45c26.667 0 50.167 -6.33301 70.5 -19s44.166 -31.667 71.499 -57c29.333 -27.333 55.5 -48 78.5 -62s50.167 -21 81.5 -21c10.667 0 17.834 -7.66699 21.501 -23z" />
    <glyph glyph-name="uniFCE6" unicode="&#xfe9c;&#xfeec;" horiz-adv-x="606" arabic-form="medial" 
d="M315 520c-20 14 -34.334 25.667 -43.001 35c2 8 7 19 15 33s16.833 26.333 26.5 37s18.167 16 25.5 16c10.667 0 26.834 -7.66699 48.501 -23s33.5 -27.333 35.5 -36c1.33301 -9.33301 -5.66699 -25 -21 -47s-28.333 -36.667 -39 -44c-12 5.33301 -28 15 -48 29z
M252.499 377c-21 14.667 -35.8311 27 -44.498 37c3.33301 13.333 12.833 31.166 28.5 53.499s28.834 34.5 39.501 36.5c9.33301 2 25.166 -4.66699 47.499 -20s36.166 -28.333 41.499 -39c8.66699 16 18.334 29.833 29.001 41.5s20 17.5 28 17.5
c11.333 0 28.166 -8.16699 50.499 -24.5s34.5 -29.166 36.5 -38.499c1.33301 -10 -6 -26.333 -22 -49s-29.667 -37.667 -41 -45c-11.333 4.66699 -26.666 13.5 -45.999 26.5s-34.333 24.833 -45 35.5c-6.66699 -12 -15.334 -24.167 -26.001 -36.5
s-19.334 -20.833 -26.001 -25.5c-12.667 5.33301 -29.5 15.333 -50.5 30zM627.501 163c3.66699 -15.333 5.49902 -38.665 5.49902 -69.998c0 -32 -2 -55.5 -6 -70.5s-11 -22.5 -21 -22.5c-32 0 -59.167 6 -81.5 18s-45.833 29 -70.5 51c-19.333 16 -35 27.667 -47 35
s-25.333 11 -40 11c-22.667 0 -39 -8.5 -49 -25.5s-15 -39.167 -15 -66.5c0 -26 3.66699 -53.5 11 -82.5s16.333 -52.5 27 -70.5c-16 -14.667 -41.167 -31.334 -75.5 -50.001s-64.5 -31 -90.5 -37c-21.333 20.667 -40.833 54.167 -58.5 100.5s-29.167 89.833 -34.5 130.5
c-13.333 -5.33301 -26.166 -9 -38.499 -11s-26.833 -3 -43.5 -3c-10 0 -17 7.5 -21 22.5s-6 38.5 -6 70.5c0 31.333 1.83301 54.666 5.5 69.999s10.834 23 21.501 23c26 0 52.833 1.83301 80.5 5.5s50.834 9.16699 69.501 16.5l8 -4c0 -23.333 1.66699 -53.833 5 -91.5
s9 -69.5 17 -95.5h9c-2.66699 58 3.83301 108 19.5 150s37.167 74 64.5 96s56.666 33 87.999 33c25.333 0 47.666 -5 66.999 -15s40.666 -24.333 63.999 -43c24 -18 44 -31.167 60 -39.5s34 -12.5 54 -12.5c10.667 0 17.834 -7.66699 21.501 -23z" />
    <glyph glyph-name="uniFCE7" unicode="&#xfeb4;&#xfee4;" horiz-adv-x="1030" arabic-form="medial" 
d="M1051.5 163c3.66699 -15.333 5.5 -38.666 5.5 -69.999c0 -32 -2 -55.5 -6 -70.5s-11 -22.5 -21 -22.5c-26.667 0 -51.167 5 -73.5 15s-42.5 28.333 -60.5 55h-9c-6.66699 -24 -17.667 -42.333 -33 -55s-33.333 -19 -54 -19c-39.333 0 -68.333 24.667 -87 74h-9
c-14 -24 -33 -42.167 -57 -54.5s-50 -18.5 -78 -18.5c-25.333 0 -47.5 4.83301 -66.5 14.5s-35.167 21.334 -48.5 35.001s-28.666 31.834 -45.999 54.501c-20 26 -36.833 45 -50.5 57s-29.834 18 -48.501 18c-16.667 0 -31 -3.83301 -43 -11.5s-21 -18.5 -27 -32.5
c38.667 -14.667 77.667 -36.334 117 -65.001c-2.66699 -16 -14.334 -40.333 -35.001 -73s-38 -54.667 -52 -66c-14.667 0 -27.834 4 -39.501 12s-25.5 19.667 -41.5 35c-16 17.333 -28 27 -36 29c-7.33301 2.66699 -17 4 -29 4c-8.66699 0 -17 -0.333008 -25 -1
s-15.333 -1.33398 -22 -2.00098c-36.667 -3.33301 -62 -5 -76 -5c-10 0 -17 7.5 -21 22.5s-6 38.5 -6 70.5c0 31.333 1.83301 54.666 5.5 69.999s10.834 23 21.501 23c38 0 74.667 -2.33301 110 -7c16 52 41.5 92.667 76.5 122s74.833 44 119.5 44
c28.667 0 53.834 -7.5 75.501 -22.5s46.167 -36.833 73.5 -65.5c26 -26.667 48.167 -46.5 66.5 -59.5s39.166 -19.5 62.499 -19.5c30 0 52.167 10.5 66.5 31.5s26.166 48.5 35.499 82.5l84 -13c-0.666992 -5.33301 -1 -12.666 -1 -21.999
c0 -24.667 4.5 -43.334 13.5 -56.001s20.5 -19 34.5 -19c34.667 0 53.667 37.333 57 112h83c0.666992 -29.333 2.33398 -51 5.00098 -65s9 -24.667 19 -32s26.333 -11 49 -11c10.667 0 17.834 -7.66699 21.501 -23z" />
    <glyph glyph-name="uniFCE8" unicode="&#xfeb4;&#xfeec;" horiz-adv-x="1007" arabic-form="medial" 
d="M1028.5 163c3.66699 -15.333 5.49414 -38.6631 5.49414 -69.9961c0 -32 -2 -55.5 -6 -70.5s-11 -22.5 -21 -22.5c-26.667 0 -51.334 5 -74.001 15s-43 28.333 -61 55h-8c-6.66699 -24 -17.834 -42.333 -33.501 -55s-33.5 -19 -53.5 -19c-40 0 -69.333 24.667 -88 74h-9
c-13.333 -23.333 -31.166 -41.333 -53.499 -54s-44.833 -19 -67.5 -19c-25.333 0 -46.333 5.66699 -63 17s-34.667 27.666 -54 48.999c-15.333 17.333 -29 30.333 -41 39s-25.667 13 -41 13c-21.333 0 -37.166 -8.66699 -47.499 -26s-15.5 -40 -15.5 -68
c0 -25.333 4.16699 -52.166 12.5 -80.499s18.833 -51.833 31.5 -70.5c-16 -14.667 -41.167 -31.334 -75.5 -50.001s-64.5 -31 -90.5 -37c-21.333 20.667 -40.833 54 -58.5 100s-29.5 89.667 -35.5 131c-13.333 -5.33301 -26 -9 -38 -11s-26.333 -3 -43 -3
c-10 0 -17 7.5 -21 22.5s-6 38.5 -6 70.5c0 31.333 1.83301 54.666 5.5 69.999s10.834 23 21.501 23c26 0 52.833 1.83301 80.5 5.5s50.834 9.16699 69.501 16.5l8 -4c0 -23.333 1.66699 -53.833 5 -91.5s9 -69.5 17 -95.5h9c0 96 15.833 166.5 47.5 211.5
s71.5 67.5 119.5 67.5c24.667 0 44.834 -5.33301 60.501 -16s32.834 -26.334 51.501 -47.001c17.333 -18.667 32.5 -32.5 45.5 -41.5s29.167 -13.5 48.5 -13.5c29.333 0 51 10.667 65 32s25.667 48.666 35 81.999l84 -13c-0.666992 -5.33301 -1 -12.666 -1 -21.999
c0 -24.667 4.5 -43.334 13.5 -56.001s20.5 -19 34.5 -19c34 0 53.333 37.333 58 112h83c0.666992 -29.333 2.33398 -51 5.00098 -65s9 -24.667 19 -32s26.333 -11 49 -11c10.667 0 17.834 -7.66699 21.501 -23z" />
    <glyph glyph-name="uniFCE9" unicode="&#xfeb8;&#xfee4;" horiz-adv-x="1030" arabic-form="medial" 
d="M663 533c-20 14 -34.334 25.667 -43.001 35c2 8 7 19 15 33s16.833 26.333 26.5 37s18.167 16 25.5 16c10.667 0 26.834 -7.66699 48.501 -23s33.5 -27.333 35.5 -36c1.33301 -9.33301 -5.66699 -25 -21 -47s-28.333 -36.667 -39 -44c-12 5.33301 -28 15 -48 29z
M600.499 390c-21 14.667 -35.8311 27 -44.498 37c3.33301 13.333 12.833 31.166 28.5 53.499s28.834 34.5 39.501 36.5c9.33301 2 25.166 -4.66699 47.499 -20s36.166 -28.333 41.499 -39c8.66699 16 18.334 29.833 29.001 41.5s20 17.5 28 17.5
c11.333 0 28.166 -8.16699 50.499 -24.5s34.5 -29.166 36.5 -38.499c1.33301 -10 -6 -26.333 -22 -49s-29.667 -37.667 -41 -45c-11.333 4.66699 -26.666 13.5 -45.999 26.5s-34.333 24.833 -45 35.5c-6.66699 -12 -15.334 -24.167 -26.001 -36.5
s-19.334 -20.833 -26.001 -25.5c-12.667 5.33301 -29.5 15.333 -50.5 30zM1051.5 163c3.66699 -15.333 5.5 -38.666 5.5 -69.999c0 -32 -2 -55.5 -6 -70.5s-11 -22.5 -21 -22.5c-26.667 0 -51.167 5 -73.5 15s-42.5 28.333 -60.5 55h-9
c-6.66699 -24 -17.667 -42.333 -33 -55s-33.333 -19 -54 -19c-39.333 0 -68.333 24.667 -87 74h-9c-14 -24 -33 -42.167 -57 -54.5s-50 -18.5 -78 -18.5c-25.333 0 -47.5 4.83301 -66.5 14.5s-35.167 21.334 -48.5 35.001s-28.666 31.834 -45.999 54.501
c-20 26 -36.833 45 -50.5 57s-29.834 18 -48.501 18c-16.667 0 -31 -3.83301 -43 -11.5s-21 -18.5 -27 -32.5c38.667 -14.667 77.667 -36.334 117 -65.001c-2.66699 -16 -14.334 -40.333 -35.001 -73s-38 -54.667 -52 -66c-14.667 0 -27.834 4 -39.501 12
s-25.5 19.667 -41.5 35c-16 17.333 -28 27 -36 29c-7.33301 2.66699 -17 4 -29 4c-8.66699 0 -17 -0.333008 -25 -1s-15.333 -1.33398 -22 -2.00098c-36.667 -3.33301 -62 -5 -76 -5c-10 0 -17 7.5 -21 22.5s-6 38.5 -6 70.5c0 31.333 1.83301 54.666 5.5 69.999
s10.834 23 21.501 23c38 0 74.667 -2.33301 110 -7c16 52 41.5 92.667 76.5 122s74.833 44 119.5 44c28.667 0 53.834 -7.5 75.501 -22.5s46.167 -36.833 73.5 -65.5c26 -26.667 48.167 -46.5 66.5 -59.5s39.166 -19.5 62.499 -19.5c30 0 52.167 10.5 66.5 31.5
s26.166 48.5 35.499 82.5l84 -13c-0.666992 -5.33301 -1 -12.666 -1 -21.999c0 -24.667 4.5 -43.334 13.5 -56.001s20.5 -19 34.5 -19c34.667 0 53.667 37.333 57 112h83c0.666992 -29.333 2.33398 -51 5.00098 -65s9 -24.667 19 -32s26.333 -11 49 -11
c10.667 0 17.834 -7.66699 21.501 -23z" />
    <glyph glyph-name="uniFCEA" unicode="&#xfeb8;&#xfeec;" horiz-adv-x="1007" arabic-form="medial" 
d="M633 543c-20 14 -34.334 25.667 -43.001 35c2 8 7 19 15 33s16.833 26.333 26.5 37s18.167 16 25.5 16c10.667 0 26.834 -7.66699 48.501 -23s33.5 -27.333 35.5 -36c1.33301 -9.33301 -5.66699 -25 -21 -47s-28.333 -36.667 -39 -44c-12 5.33301 -28 15 -48 29z
M570.499 400c-21 14.667 -35.8311 27 -44.498 37c3.33301 13.333 12.833 31.166 28.5 53.499s28.834 34.5 39.501 36.5c9.33301 2 25.166 -4.66699 47.499 -20s36.166 -28.333 41.499 -39c8.66699 16 18.334 29.833 29.001 41.5s20 17.5 28 17.5
c11.333 0 28.166 -8.16699 50.499 -24.5s34.5 -29.166 36.5 -38.499c1.33301 -10 -6 -26.333 -22 -49s-29.667 -37.667 -41 -45c-11.333 4.66699 -26.666 13.5 -45.999 26.5s-34.333 24.833 -45 35.5c-6.66699 -12 -15.334 -24.167 -26.001 -36.5
s-19.334 -20.833 -26.001 -25.5c-12.667 5.33301 -29.5 15.333 -50.5 30zM1028.5 163c3.66699 -15.333 5.49414 -38.6631 5.49414 -69.9961c0 -32 -2 -55.5 -6 -70.5s-11 -22.5 -21 -22.5c-26.667 0 -51.334 5 -74.001 15s-43 28.333 -61 55h-8
c-6.66699 -24 -17.834 -42.333 -33.501 -55s-33.5 -19 -53.5 -19c-40 0 -69.333 24.667 -88 74h-9c-13.333 -23.333 -31.166 -41.333 -53.499 -54s-44.833 -19 -67.5 -19c-25.333 0 -46.333 5.66699 -63 17s-34.667 27.666 -54 48.999c-15.333 17.333 -29 30.333 -41 39
s-25.667 13 -41 13c-21.333 0 -37.166 -8.66699 -47.499 -26s-15.5 -40 -15.5 -68c0 -25.333 4.16699 -52.166 12.5 -80.499s18.833 -51.833 31.5 -70.5c-16 -14.667 -41.167 -31.334 -75.5 -50.001s-64.5 -31 -90.5 -37c-21.333 20.667 -40.833 54 -58.5 100
s-29.5 89.667 -35.5 131c-13.333 -5.33301 -26 -9 -38 -11s-26.333 -3 -43 -3c-10 0 -17 7.5 -21 22.5s-6 38.5 -6 70.5c0 31.333 1.83301 54.666 5.5 69.999s10.834 23 21.501 23c26 0 52.833 1.83301 80.5 5.5s50.834 9.16699 69.501 16.5l8 -4
c0 -23.333 1.66699 -53.833 5 -91.5s9 -69.5 17 -95.5h9c0 96 15.833 166.5 47.5 211.5s71.5 67.5 119.5 67.5c24.667 0 44.834 -5.33301 60.501 -16s32.834 -26.334 51.501 -47.001c17.333 -18.667 32.5 -32.5 45.5 -41.5s29.167 -13.5 48.5 -13.5
c29.333 0 51 10.667 65 32s25.667 48.666 35 81.999l84 -13c-0.666992 -5.33301 -1 -12.666 -1 -21.999c0 -24.667 4.5 -43.334 13.5 -56.001s20.5 -19 34.5 -19c34 0 53.333 37.333 58 112h83c0.666992 -29.333 2.33398 -51 5.00098 -65s9 -24.667 19 -32
s26.333 -11 49 -11c10.667 0 17.834 -7.66699 21.501 -23z" />
    <glyph glyph-name="uniFCEE" unicode="&#xfee8;&#xfee4;" horiz-adv-x="617" arabic-form="medial" 
d="M262 468.5c-22.667 15.667 -38.333 29.1689 -47 40.502c2 8.66699 7.16699 20.5 15.5 35.5s17.833 28.667 28.5 41s20 19.166 28 20.499c7.33301 1.33301 18.5 -2 33.5 -10s29 -17.833 42 -29.5s20.167 -20.834 21.5 -27.501c2.66699 -10 -4.83301 -27.5 -22.5 -52.5
s-32.5 -41.5 -44.5 -49.5c-14 5.33301 -32.333 15.833 -55 31.5zM638.501 163.002c3.66699 -15.333 5.49902 -38.666 5.49902 -69.999c0 -32 -2 -55.5 -6 -70.5s-11 -22.5 -21 -22.5c-36 0 -66.667 8.5 -92 25.5s-52.666 41.167 -81.999 72.5
c-25.333 26.667 -46.833 46.334 -64.5 59.001s-37.5 19 -59.5 19c-18 0 -33.167 -4 -45.5 -12s-21.166 -19.667 -26.499 -35c38 -16.667 74.333 -37.334 109 -62.001c-2.66699 -16 -14.334 -40.333 -35.001 -73s-38 -54.667 -52 -66c-14.667 0 -27.834 4 -39.501 12
s-25.5 19.667 -41.5 35c-16 17.333 -28 27 -36 29c-7.33301 2.66699 -17 4 -29 4c-4.66699 0 -13.667 -0.666992 -27 -2l-20 -1c-24.667 -3.33301 -50 -5 -76 -5c-10 0 -17 7.5 -21 22.5s-6 38.5 -6 70.5c0 31.333 1.83301 54.666 5.5 69.999s10.834 23 21.501 23
c48.667 0 88.334 -3 119.001 -9c15.333 52 40.666 93 75.999 123s75.333 45 120 45c26.667 0 50.167 -6.33301 70.5 -19s44.166 -31.667 71.499 -57c29.333 -27.333 55.5 -48 78.5 -62s50.167 -21 81.5 -21c10.667 0 17.834 -7.66699 21.501 -23z" />
    <glyph glyph-name="uniFCEF" unicode="&#xfee8;&#xfeec;" horiz-adv-x="606" arabic-form="medial" 
d="M313 401.5c-22.667 15.667 -38.333 29.1689 -47 40.502c2 8.66699 7.16699 20.5 15.5 35.5s17.833 28.667 28.5 41s20 19.166 28 20.499c7.33301 1.33301 18.5 -2 33.5 -10s29 -17.833 42 -29.5s20.167 -20.834 21.5 -27.501c2.66699 -10 -4.83301 -27.5 -22.5 -52.5
s-32.5 -41.5 -44.5 -49.5c-14 5.33301 -32.333 15.833 -55 31.5zM627.501 163.002c3.66699 -15.333 5.49902 -38.665 5.49902 -69.998c0 -32 -2 -55.5 -6 -70.5s-11 -22.5 -21 -22.5c-32 0 -59.167 6 -81.5 18s-45.833 29 -70.5 51c-19.333 16 -35 27.667 -47 35
s-25.333 11 -40 11c-22.667 0 -39 -8.5 -49 -25.5s-15 -39.167 -15 -66.5c0 -26 3.66699 -53.5 11 -82.5s16.333 -52.5 27 -70.5c-16 -14.667 -41.167 -31.334 -75.5 -50.001s-64.5 -31 -90.5 -37c-21.333 20.667 -40.833 54.167 -58.5 100.5s-29.167 89.833 -34.5 130.5
c-13.333 -5.33301 -26.166 -9 -38.499 -11s-26.833 -3 -43.5 -3c-10 0 -17 7.5 -21 22.5s-6 38.5 -6 70.5c0 31.333 1.83301 54.666 5.5 69.999s10.834 23 21.501 23c26 0 52.833 1.83301 80.5 5.5s50.834 9.16699 69.501 16.5l8 -4c0 -23.333 1.66699 -53.833 5 -91.5
s9 -69.5 17 -95.5h9c-2.66699 58 3.83301 108 19.5 150s37.167 74 64.5 96s56.666 33 87.999 33c25.333 0 47.666 -5 66.999 -15s40.666 -24.333 63.999 -43c24 -18 44 -31.167 60 -39.5s34 -12.5 54 -12.5c10.667 0 17.834 -7.66699 21.501 -23z" />
    <glyph glyph-name="uniFCF0" unicode="&#xfef4;&#xfee4;" horiz-adv-x="617" arabic-form="medial" 
d="M638.5 163c3.66699 -15.333 5.49902 -38.666 5.49902 -69.999c0 -32 -2 -55.5 -6 -70.5s-11 -22.5 -21 -22.5c-36 0 -66.667 8.5 -92 25.5s-52.666 41.167 -81.999 72.5c-25.333 26.667 -46.833 46.334 -64.5 59.001s-37.5 19 -59.5 19c-18 0 -33.167 -4 -45.5 -12
s-21.166 -19.667 -26.499 -35c38 -16.667 74.333 -37.334 109 -62.001c-2.66699 -16 -14.334 -40.333 -35.001 -73s-38 -54.667 -52 -66c-14.667 0 -27.834 4 -39.501 12s-25.5 19.667 -41.5 35c-16 17.333 -28 27 -36 29c-7.33301 2.66699 -17 4 -29 4
c-4.66699 0 -13.667 -0.666992 -27 -2l-20 -1c-24.667 -3.33301 -50 -5 -76 -5c-10 0 -17 7.5 -21 22.5s-6 38.5 -6 70.5c0 31.333 1.83301 54.666 5.5 69.999s10.834 23 21.501 23c48.667 0 88.334 -3 119.001 -9c15.333 52 40.666 93 75.999 123s75.333 45 120 45
c26.667 0 50.167 -6.33301 70.5 -19s44.166 -31.667 71.499 -57c29.333 -27.333 55.5 -48 78.5 -62s50.167 -21 81.5 -21c10.667 0 17.834 -7.66699 21.501 -23zM470.499 -164.5c23 -16.333 35.502 -29.167 37.502 -38.5c1.33301 -10 -6 -26.333 -22 -49
s-29.667 -38 -41 -46c-12.667 5.33301 -28.667 14.5 -48 27.5s-33.666 24.833 -42.999 35.5c-6.66699 -12 -15.334 -24.333 -26.001 -37s-19.334 -21.334 -26.001 -26.001c-13.333 6 -30.333 16.167 -51 30.5s-35.334 26.5 -44.001 36.5c4 14 14 32.667 30 56
s29.333 35 40 35s26.667 -7.5 48 -22.5s34.333 -27.5 39 -37.5c9.33301 16.667 19 30.834 29 42.501s19 17.5 27 17.5c10.667 0 27.5 -8.16699 50.5 -24.5z" />
    <glyph glyph-name="uniFCF1" unicode="&#xfef4;&#xfeec;" horiz-adv-x="606" arabic-form="medial" 
d="M318 89.5c-10 -17 -15.001 -39.166 -15.001 -66.499c0 -26 3.66699 -53.5 11 -82.5s16.333 -52.5 27 -70.5c-16 -14.667 -41.167 -31.334 -75.5 -50.001s-64.5 -31 -90.5 -37c-21.333 20.667 -40.833 54.167 -58.5 100.5s-29.167 89.833 -34.5 130.5
c-13.333 -5.33301 -26.166 -9 -38.499 -11s-26.833 -3 -43.5 -3c-10 0 -17 7.5 -21 22.5s-6 38.5 -6 70.5c0 31.333 1.83301 54.666 5.5 69.999s10.834 23 21.501 23c26 0 52.833 1.83301 80.5 5.5s50.834 9.16699 69.501 16.5l8 -4c0 -23.333 1.66699 -53.833 5 -91.5
s9 -69.5 17 -95.5h9c-2.66699 58 3.83301 108 19.5 150s37.167 74 64.5 96s56.666 33 87.999 33c25.333 0 47.666 -5 66.999 -15s40.666 -24.333 63.999 -43c24 -18 44 -31.167 60 -39.5s34 -12.5 54 -12.5c10.667 0 17.834 -7.66699 21.501 -23s5.5 -38.666 5.5 -69.999
c0 -32 -2 -55.5 -6 -70.5s-11 -22.5 -21 -22.5c-32 0 -59.167 6 -81.5 18s-45.833 29 -70.5 51c-19.333 16 -35 27.667 -47 35s-25.333 11 -40 11c-22.667 0 -39 -8.5 -49 -25.5zM639.999 -157.999c-16 -22.667 -29.665 -38.001 -40.998 -46.001
c-12.667 5.33301 -28.667 14.5 -48 27.5s-33.666 24.833 -42.999 35.5c-6.66699 -12 -15.334 -24.333 -26.001 -37s-19.334 -21.334 -26.001 -26.001c-13.333 6 -30.333 16.167 -51 30.5s-35.334 26.5 -44.001 36.5c4 14 14 32.667 30 56s29.333 35 40 35
s26.667 -7.5 48 -22.5s34.333 -27.5 39 -37.5c9.33301 16.667 19 30.834 29 42.501s19 17.5 27 17.5c10.667 0 27.5 -8.16699 50.5 -24.5s35.5 -29.166 37.5 -38.499c1.33301 -10 -6 -26.333 -22 -49z" />
    <glyph glyph-name="uniFCFB" unicode="&#xfeb3;&#xfef0;" horiz-adv-x="1317" arabic-form="isolated" 
d="M1287 211c0 -35.333 -3.66602 -69.165 -10.999 -101.498s-17.666 -59.166 -30.999 -80.499c-48 -23.333 -91.333 -35 -130 -35c-58 0 -106 25.333 -144 76h-9c-12 -24 -29 -42.833 -51 -56.5s-47.333 -20.5 -76 -20.5c-26 0 -48.333 5.16699 -67 15.5
s-34.334 23 -47.001 38s-26.667 34.167 -42 57.5c-16.667 25.333 -31.167 44.166 -43.5 56.499s-27.166 18.5 -44.499 18.5c-22.667 0 -48.334 -12.667 -77.001 -38c24.667 -10.667 47.167 -23 67.5 -37s33.833 -28.333 40.5 -43c5.33301 -10.667 8 -27.667 8 -51
c0 -48 -13.667 -100.333 -41 -157c-36.667 -30.667 -84.667 -57.667 -144 -81s-117.333 -35 -174 -35c-68.667 0 -124.334 19 -167.001 57s-64 94.667 -64 170c0 74.667 20.333 165 61 271l138 -44c-12 -33.333 -21 -65 -27 -95s-9 -55.667 -9 -77
c0 -34.667 8.5 -60.834 25.5 -78.501s41.5 -26.5 73.5 -26.5c50 0 110 20.333 180 61l-24 14c-38 22 -66.667 41.5 -86 58.5s-29 37.167 -29 60.5c0 27.333 14.167 59.833 42.5 97.5s63.166 70 104.499 97s80 40.5 116 40.5c27.333 0 49.5 -7.16699 66.5 -21.5
s35.5 -35.5 55.5 -63.5c20 -26.667 37.333 -46.334 52 -59.001s33.334 -19 56.001 -19c24 0 46.333 8.5 67 25.5s34.667 45.833 42 86.5l83 -13c-0.666992 -5.33301 -1 -13 -1 -23c0 -29.333 5.83301 -50 17.5 -62s27.834 -18 48.501 -18c11.333 0 28.333 2.66699 51 8
c-4.66699 25.333 -11.334 50.333 -20.001 75l-16 46l160 37c12.667 -37.333 19 -81 19 -131z" />
    <glyph glyph-name="uniFCFC" unicode="&#xfeb3;&#xfef2;" horiz-adv-x="1317" arabic-form="isolated" 
d="M1287 211c0 -35.333 -3.66602 -69.165 -10.999 -101.498s-17.666 -59.166 -30.999 -80.499c-48 -23.333 -91.333 -35 -130 -35c-58 0 -106 25.333 -144 76h-9c-12 -24 -29 -42.833 -51 -56.5s-47.333 -20.5 -76 -20.5c-26 0 -48.333 5.16699 -67 15.5
s-34.334 23 -47.001 38s-26.667 34.167 -42 57.5c-16.667 25.333 -31.167 44.166 -43.5 56.499s-27.166 18.5 -44.499 18.5c-22.667 0 -48.334 -12.667 -77.001 -38c24.667 -10.667 47.167 -23 67.5 -37s33.833 -28.333 40.5 -43c5.33301 -10.667 8 -27.667 8 -51
c0 -48 -13.667 -100.333 -41 -157c-36.667 -30.667 -84.667 -57.667 -144 -81s-117.333 -35 -174 -35c-68.667 0 -124.334 19 -167.001 57s-64 94.667 -64 170c0 74.667 20.333 165 61 271l138 -44c-12 -33.333 -21 -65 -27 -95s-9 -55.667 -9 -77
c0 -34.667 8.5 -60.834 25.5 -78.501s41.5 -26.5 73.5 -26.5c50 0 110 20.333 180 61l-24 14c-38 22 -66.667 41.5 -86 58.5s-29 37.167 -29 60.5c0 27.333 14.167 59.833 42.5 97.5s63.166 70 104.499 97s80 40.5 116 40.5c27.333 0 49.5 -7.16699 66.5 -21.5
s35.5 -35.5 55.5 -63.5c20 -26.667 37.333 -46.334 52 -59.001s33.334 -19 56.001 -19c24 0 46.333 8.5 67 25.5s34.667 45.833 42 86.5l83 -13c-0.666992 -5.33301 -1 -13 -1 -23c0 -29.333 5.83301 -50 17.5 -62s27.834 -18 48.501 -18c11.333 0 28.333 2.66699 51 8
c-4.66699 25.333 -11.334 50.333 -20.001 75l-16 46l160 37c12.667 -37.333 19 -81 19 -131zM413.501 -319.499c23 -16.333 35.502 -29.167 37.502 -38.5c1.33301 -10 -6 -26.333 -22 -49s-29.667 -38 -41 -46c-12.667 5.33301 -28.667 14.5 -48 27.5
s-33.666 24.833 -42.999 35.5c-6.66699 -12 -15.334 -24.333 -26.001 -37s-19.334 -21.334 -26.001 -26.001c-13.333 6 -30.333 16.167 -51 30.5s-35.334 26.5 -44.001 36.5c4 14 14 32.667 30 56s29.333 35 40 35s26.667 -7.5 48 -22.5s34.333 -27.5 39 -37.5
c9.33301 16.667 19 30.834 29 42.501s19 17.5 27 17.5c10.667 0 27.5 -8.16699 50.5 -24.5z" />
    <glyph glyph-name="uniFCFD" unicode="&#xfeb7;&#xfef0;" horiz-adv-x="1317" arabic-form="isolated" 
d="M913 533c-20 14 -34.334 25.667 -43.001 35c2 8 7 19 15 33s16.833 26.333 26.5 37s18.167 16 25.5 16c10.667 0 26.834 -7.66699 48.501 -23s33.5 -27.333 35.5 -36c1.33301 -9.33301 -5.66699 -25 -21 -47s-28.333 -36.667 -39 -44c-12 5.33301 -28 15 -48 29z
M850.499 390c-21 14.667 -35.8311 27 -44.498 37c3.33301 13.333 12.833 31.166 28.5 53.499s28.834 34.5 39.501 36.5c9.33301 2 25.166 -4.66699 47.499 -20s36.166 -28.333 41.499 -39c8.66699 16 18.334 29.833 29.001 41.5s20 17.5 28 17.5
c11.333 0 28.166 -8.16699 50.499 -24.5s34.5 -29.166 36.5 -38.499c1.33301 -10 -6 -26.333 -22 -49s-29.667 -37.667 -41 -45c-11.333 4.66699 -26.666 13.5 -45.999 26.5s-34.333 24.833 -45 35.5c-6.66699 -12 -15.334 -24.167 -26.001 -36.5
s-19.334 -20.833 -26.001 -25.5c-12.667 5.33301 -29.5 15.333 -50.5 30zM1287 211c0 -35.333 -3.66602 -69.165 -10.999 -101.498s-17.666 -59.166 -30.999 -80.499c-48 -23.333 -91.333 -35 -130 -35c-58 0 -106 25.333 -144 76h-9c-12 -24 -29 -42.833 -51 -56.5
s-47.333 -20.5 -76 -20.5c-26 0 -48.333 5.16699 -67 15.5s-34.334 23 -47.001 38s-26.667 34.167 -42 57.5c-16.667 25.333 -31.167 44.166 -43.5 56.499s-27.166 18.5 -44.499 18.5c-22.667 0 -48.334 -12.667 -77.001 -38c24.667 -10.667 47.167 -23 67.5 -37
s33.833 -28.333 40.5 -43c5.33301 -10.667 8 -27.667 8 -51c0 -48 -13.667 -100.333 -41 -157c-36.667 -30.667 -84.667 -57.667 -144 -81s-117.333 -35 -174 -35c-68.667 0 -124.334 19 -167.001 57s-64 94.667 -64 170c0 74.667 20.333 165 61 271l138 -44
c-12 -33.333 -21 -65 -27 -95s-9 -55.667 -9 -77c0 -34.667 8.5 -60.834 25.5 -78.501s41.5 -26.5 73.5 -26.5c50 0 110 20.333 180 61l-24 14c-38 22 -66.667 41.5 -86 58.5s-29 37.167 -29 60.5c0 27.333 14.167 59.833 42.5 97.5s63.166 70 104.499 97s80 40.5 116 40.5
c27.333 0 49.5 -7.16699 66.5 -21.5s35.5 -35.5 55.5 -63.5c20 -26.667 37.333 -46.334 52 -59.001s33.334 -19 56.001 -19c24 0 46.333 8.5 67 25.5s34.667 45.833 42 86.5l83 -13c-0.666992 -5.33301 -1 -13 -1 -23c0 -29.333 5.83301 -50 17.5 -62s27.834 -18 48.501 -18
c11.333 0 28.333 2.66699 51 8c-4.66699 25.333 -11.334 50.333 -20.001 75l-16 46l160 37c12.667 -37.333 19 -81 19 -131z" />
    <glyph glyph-name="uniFCFE" unicode="&#xfeb7;&#xfef2;" horiz-adv-x="1317" arabic-form="isolated" 
d="M913 533c-20 14 -34.334 25.667 -43.001 35c2 8 7 19 15 33s16.833 26.333 26.5 37s18.167 16 25.5 16c10.667 0 26.834 -7.66699 48.501 -23s33.5 -27.333 35.5 -36c1.33301 -9.33301 -5.66699 -25 -21 -47s-28.333 -36.667 -39 -44c-12 5.33301 -28 15 -48 29z
M850.499 390c-21 14.667 -35.8311 27 -44.498 37c3.33301 13.333 12.833 31.166 28.5 53.499s28.834 34.5 39.501 36.5c9.33301 2 25.166 -4.66699 47.499 -20s36.166 -28.333 41.499 -39c8.66699 16 18.334 29.833 29.001 41.5s20 17.5 28 17.5
c11.333 0 28.166 -8.16699 50.499 -24.5s34.5 -29.166 36.5 -38.499c1.33301 -10 -6 -26.333 -22 -49s-29.667 -37.667 -41 -45c-11.333 4.66699 -26.666 13.5 -45.999 26.5s-34.333 24.833 -45 35.5c-6.66699 -12 -15.334 -24.167 -26.001 -36.5
s-19.334 -20.833 -26.001 -25.5c-12.667 5.33301 -29.5 15.333 -50.5 30zM1287 211c0 -35.333 -3.66602 -69.165 -10.999 -101.498s-17.666 -59.166 -30.999 -80.499c-48 -23.333 -91.333 -35 -130 -35c-58 0 -106 25.333 -144 76h-9c-12 -24 -29 -42.833 -51 -56.5
s-47.333 -20.5 -76 -20.5c-26 0 -48.333 5.16699 -67 15.5s-34.334 23 -47.001 38s-26.667 34.167 -42 57.5c-16.667 25.333 -31.167 44.166 -43.5 56.499s-27.166 18.5 -44.499 18.5c-22.667 0 -48.334 -12.667 -77.001 -38c24.667 -10.667 47.167 -23 67.5 -37
s33.833 -28.333 40.5 -43c5.33301 -10.667 8 -27.667 8 -51c0 -48 -13.667 -100.333 -41 -157c-36.667 -30.667 -84.667 -57.667 -144 -81s-117.333 -35 -174 -35c-68.667 0 -124.334 19 -167.001 57s-64 94.667 -64 170c0 74.667 20.333 165 61 271l138 -44
c-12 -33.333 -21 -65 -27 -95s-9 -55.667 -9 -77c0 -34.667 8.5 -60.834 25.5 -78.501s41.5 -26.5 73.5 -26.5c50 0 110 20.333 180 61l-24 14c-38 22 -66.667 41.5 -86 58.5s-29 37.167 -29 60.5c0 27.333 14.167 59.833 42.5 97.5s63.166 70 104.499 97s80 40.5 116 40.5
c27.333 0 49.5 -7.16699 66.5 -21.5s35.5 -35.5 55.5 -63.5c20 -26.667 37.333 -46.334 52 -59.001s33.334 -19 56.001 -19c24 0 46.333 8.5 67 25.5s34.667 45.833 42 86.5l83 -13c-0.666992 -5.33301 -1 -13 -1 -23c0 -29.333 5.83301 -50 17.5 -62s27.834 -18 48.501 -18
c11.333 0 28.333 2.66699 51 8c-4.66699 25.333 -11.334 50.333 -20.001 75l-16 46l160 37c12.667 -37.333 19 -81 19 -131zM413.502 -319.499c23 -16.333 35.502 -29.167 37.502 -38.5c1.33301 -10 -6 -26.333 -22 -49s-29.667 -38 -41 -46
c-12.667 5.33301 -28.667 14.5 -48 27.5s-33.666 24.833 -42.999 35.5c-6.66699 -12 -15.334 -24.333 -26.001 -37s-19.334 -21.334 -26.001 -26.001c-13.333 6 -30.333 16.167 -51 30.5s-35.334 26.5 -44.001 36.5c4 14 14 32.667 30 56s29.333 35 40 35
s26.667 -7.5 48 -22.5s34.333 -27.5 39 -37.5c9.33301 16.667 19 30.834 29 42.501s19 17.5 27 17.5c10.667 0 27.5 -8.16699 50.5 -24.5z" />
    <glyph glyph-name="uniFCFF" unicode="&#xfea3;&#xfef0;" horiz-adv-x="1015" arabic-form="isolated" 
d="M853 344c28.667 -25.333 52.6641 -44.833 71.9971 -58.5s39.333 -23.167 60 -28.5c-1.33301 -24.667 -5 -49 -11 -73s-16 -52.333 -30 -85c-17.333 1.33301 -30 2 -38 2c-30.667 0 -58.667 -3.5 -84 -10.5s-56.666 -17.833 -93.999 -32.5
c-4.66699 -2 -18.5 -7.16699 -41.5 -15.5s-46.5 -15.5 -70.5 -21.5c1.33301 -57.333 -1.33398 -105 -8.00098 -143c-49.333 -42 -104.666 -76 -165.999 -102s-121 -39 -179 -39c-69.333 0 -125.5 19 -168.5 57s-64.5 93.333 -64.5 166c0 79.333 20.667 172 62 278l138 -45
c-24.667 -76 -37 -135 -37 -177c0 -32 8.16699 -56.333 24.5 -73s39.5 -25 69.5 -25c49.333 0 114 21.333 194 64c-48.667 44 -98 77.333 -148 100l48 132c58.667 -12.667 101.667 -19 129 -19c26.667 0 51.667 2.33301 75 7s51.333 11.667 84 21
c40 10.667 68.333 17.667 85 21l30 2c-23.333 12 -43.666 21.667 -60.999 29c-18.667 7.33301 -38.667 12.5 -60 15.5s-49 5.5 -83 7.5l-22 1l-4 4c2.66699 25.333 7.83398 53.5 15.501 84.5s15.167 53.833 22.5 68.5c14 2 27 3 39 3c45.333 0 90 -14.667 134 -44
c26 -17.333 55.333 -41 88 -71z" />
    <glyph glyph-name="uniFD03" unicode="&#xfea7;&#xfef0;" horiz-adv-x="1015" arabic-form="isolated" 
d="M686 534.5c-22.667 15.667 -38.333 29.1689 -47 40.502c2 8.66699 7.16699 20.5 15.5 35.5s17.833 28.667 28.5 41s20 19.166 28 20.499c7.33301 1.33301 18.5 -2 33.5 -10s29 -17.833 42 -29.5s20.167 -20.834 21.5 -27.501c2.66699 -10 -4.83301 -27.5 -22.5 -52.5
s-32.5 -41.5 -44.5 -49.5c-14 5.33301 -32.333 15.833 -55 31.5zM853.001 344.002c28.667 -25.333 52.6641 -44.833 71.9971 -58.5s39.333 -23.167 60 -28.5c-1.33301 -24.667 -5 -49 -11 -73s-16 -52.333 -30 -85c-17.333 1.33301 -30 2 -38 2
c-30.667 0 -58.667 -3.5 -84 -10.5s-56.666 -17.833 -93.999 -32.5c-4.66699 -2 -18.5 -7.16699 -41.5 -15.5s-46.5 -15.5 -70.5 -21.5c1.33301 -57.333 -1.33398 -105 -8.00098 -143c-49.333 -42 -104.666 -76 -165.999 -102s-121 -39 -179 -39
c-69.333 0 -125.5 19 -168.5 57s-64.5 93.333 -64.5 166c0 79.333 20.667 172 62 278l138 -45c-24.667 -76 -37 -135 -37 -177c0 -32 8.16699 -56.333 24.5 -73s39.5 -25 69.5 -25c49.333 0 114 21.333 194 64c-48.667 44 -98 77.333 -148 100l48 132
c58.667 -12.667 101.667 -19 129 -19c26.667 0 51.667 2.33301 75 7s51.333 11.667 84 21c40 10.667 68.333 17.667 85 21l30 2c-23.333 12 -43.666 21.667 -60.999 29c-18.667 7.33301 -38.667 12.5 -60 15.5s-49 5.5 -83 7.5l-22 1l-4 4
c2.66699 25.333 7.83398 53.5 15.501 84.5s15.167 53.833 22.5 68.5c14 2 27 3 39 3c45.333 0 90 -14.667 134 -44c26 -17.333 55.333 -41 88 -71z" />
    <glyph glyph-name="uniFD05" unicode="&#xfebb;&#xfef0;" horiz-adv-x="1280" arabic-form="isolated" 
d="M1164.5 371c27 -18 48.0039 -43.3301 63.0039 -75.9971s22.5 -70.334 22.5 -113.001c0 -14 -4.33301 -35.833 -13 -65.5s-20.334 -55.167 -35.001 -76.5c-35.333 -13.333 -85.5 -24.166 -150.5 -32.499s-132.5 -12.5 -202.5 -12.5c-32 0 -59.333 5.5 -82 16.5
s-41.167 24.167 -55.5 39.5s-29.5 34.666 -45.5 57.999c-16.667 23.333 -31 40.666 -43 51.999s-26.333 17 -43 17c-24.667 0 -50 -12.667 -76 -38c21.333 -7.33301 43.333 -19.166 66 -35.499s36.667 -30.833 42 -43.5c5.33301 -12 8 -28.333 8 -49
c0 -50 -13 -102.333 -39 -157c-40 -32.667 -89 -60.5 -147 -83.5s-115.667 -34.5 -173 -34.5c-68.667 0 -124.334 19 -167.001 57s-64 94.667 -64 170c0 36.667 5.16699 78.667 15.5 126s25.5 95.666 45.5 144.999l138 -44c-24 -68.667 -36 -127.334 -36 -176.001
c0 -32 8.5 -56.833 25.5 -74.5s41.167 -26.5 72.5 -26.5c46 0 106.667 20.333 182 61l-49.5 26c-27.667 14.667 -49.667 31.334 -66 50.001s-24.5 38.334 -24.5 59.001c0 27.333 14.333 59.666 43 96.999s63.667 69.333 105 96s79.333 40 114 40c27.333 0 49 -6.5 65 -19.5
s33.333 -32.5 52 -58.5c10 -14.667 19 -26.834 27 -36.501s17.333 -18.167 28 -25.5c53.333 66 106.166 115 158.499 147s101.166 48 146.499 48c34.667 0 65.5 -9 92.5 -27zM976.004 171.003c40 0 74.832 1.66797 104.499 5.00098s46.5 8.66602 50.5 15.999
c-4 10.667 -13 19.167 -27 25.5s-30.333 9.5 -49 9.5c-25.333 0 -52.666 -4.5 -81.999 -13.5s-57.333 -22.167 -84 -39.5c25.333 -2 54.333 -3 87 -3z" />
    <glyph glyph-name="uniFD06" unicode="&#xfebb;&#xfef2;" horiz-adv-x="1280" arabic-form="isolated" 
d="M1164.5 371c27 -18 48.0039 -43.3301 63.0039 -75.9971s22.5 -70.334 22.5 -113.001c0 -14 -4.33301 -35.833 -13 -65.5s-20.334 -55.167 -35.001 -76.5c-35.333 -13.333 -85.5 -24.166 -150.5 -32.499s-132.5 -12.5 -202.5 -12.5c-32 0 -59.333 5.5 -82 16.5
s-41.167 24.167 -55.5 39.5s-29.5 34.666 -45.5 57.999c-16.667 23.333 -31 40.666 -43 51.999s-26.333 17 -43 17c-24.667 0 -50 -12.667 -76 -38c21.333 -7.33301 43.333 -19.166 66 -35.499s36.667 -30.833 42 -43.5c5.33301 -12 8 -28.333 8 -49
c0 -50 -13 -102.333 -39 -157c-40 -32.667 -89 -60.5 -147 -83.5s-115.667 -34.5 -173 -34.5c-68.667 0 -124.334 19 -167.001 57s-64 94.667 -64 170c0 36.667 5.16699 78.667 15.5 126s25.5 95.666 45.5 144.999l138 -44c-24 -68.667 -36 -127.334 -36 -176.001
c0 -32 8.5 -56.833 25.5 -74.5s41.167 -26.5 72.5 -26.5c46 0 106.667 20.333 182 61l-49.5 26c-27.667 14.667 -49.667 31.334 -66 50.001s-24.5 38.334 -24.5 59.001c0 27.333 14.333 59.666 43 96.999s63.667 69.333 105 96s79.333 40 114 40c27.333 0 49 -6.5 65 -19.5
s33.333 -32.5 52 -58.5c10 -14.667 19 -26.834 27 -36.501s17.333 -18.167 28 -25.5c53.333 66 106.166 115 158.499 147s101.166 48 146.499 48c34.667 0 65.5 -9 92.5 -27zM976.004 171.003c40 0 74.832 1.66797 104.499 5.00098s46.5 8.66602 50.5 15.999
c-4 10.667 -13 19.167 -27 25.5s-30.333 9.5 -49 9.5c-25.333 0 -52.666 -4.5 -81.999 -13.5s-57.333 -22.167 -84 -39.5c25.333 -2 54.333 -3 87 -3zM413.503 -319.496c23 -16.333 35.502 -29.167 37.502 -38.5c1.33301 -10 -6 -26.333 -22 -49s-29.667 -38 -41 -46
c-12.667 5.33301 -28.667 14.5 -48 27.5s-33.666 24.833 -42.999 35.5c-6.66699 -12 -15.334 -24.333 -26.001 -37s-19.334 -21.334 -26.001 -26.001c-13.333 6 -30.333 16.167 -51 30.5s-35.334 26.5 -44.001 36.5c4 14 14 32.667 30 56s29.333 35 40 35
s26.667 -7.5 48 -22.5s34.333 -27.5 39 -37.5c9.33301 16.667 19 30.834 29 42.501s19 17.5 27 17.5c10.667 0 27.5 -8.16699 50.5 -24.5z" />
    <glyph glyph-name="uniFD07" unicode="&#xfebf;&#xfef0;" horiz-adv-x="1280" arabic-form="isolated" 
d="M1023 502.5c-22.667 15.667 -38.333 29.1689 -47 40.502c2 8.66699 7.16699 20.5 15.5 35.5s17.833 28.667 28.5 41s20 19.166 28 20.499c7.33301 1.33301 18.5 -2 33.5 -10s29 -17.833 42 -29.5s20.167 -20.834 21.5 -27.501c2.66699 -10 -4.83301 -27.5 -22.5 -52.5
s-32.5 -41.5 -44.5 -49.5c-14 5.33301 -32.333 15.833 -55 31.5zM1164.5 371.002c27 -18 48.0039 -43.3301 63.0039 -75.9971s22.5 -70.334 22.5 -113.001c0 -14 -4.33301 -35.833 -13 -65.5s-20.334 -55.167 -35.001 -76.5c-35.333 -13.333 -85.5 -24.166 -150.5 -32.499
s-132.5 -12.5 -202.5 -12.5c-32 0 -59.333 5.5 -82 16.5s-41.167 24.167 -55.5 39.5s-29.5 34.666 -45.5 57.999c-16.667 23.333 -31 40.666 -43 51.999s-26.333 17 -43 17c-24.667 0 -50 -12.667 -76 -38c21.333 -7.33301 43.333 -19.166 66 -35.499
s36.667 -30.833 42 -43.5c5.33301 -12 8 -28.333 8 -49c0 -50 -13 -102.333 -39 -157c-40 -32.667 -89 -60.5 -147 -83.5s-115.667 -34.5 -173 -34.5c-68.667 0 -124.334 19 -167.001 57s-64 94.667 -64 170c0 36.667 5.16699 78.667 15.5 126s25.5 95.666 45.5 144.999
l138 -44c-24 -68.667 -36 -127.334 -36 -176.001c0 -32 8.5 -56.833 25.5 -74.5s41.167 -26.5 72.5 -26.5c46 0 106.667 20.333 182 61l-49.5 26c-27.667 14.667 -49.667 31.334 -66 50.001s-24.5 38.334 -24.5 59.001c0 27.333 14.333 59.666 43 96.999
s63.667 69.333 105 96s79.333 40 114 40c27.333 0 49 -6.5 65 -19.5s33.333 -32.5 52 -58.5c10 -14.667 19 -26.834 27 -36.501s17.333 -18.167 28 -25.5c53.333 66 106.166 115 158.499 147s101.166 48 146.499 48c34.667 0 65.5 -9 92.5 -27zM976.005 171.005
c40 0 74.832 1.66797 104.499 5.00098s46.5 8.66602 50.5 15.999c-4 10.667 -13 19.167 -27 25.5s-30.333 9.5 -49 9.5c-25.333 0 -52.666 -4.5 -81.999 -13.5s-57.333 -22.167 -84 -39.5c25.333 -2 54.333 -3 87 -3z" />
    <glyph glyph-name="uniFD08" unicode="&#xfebf;&#xfef2;" horiz-adv-x="1280" arabic-form="isolated" 
d="M1022 505.5c-22.667 15.667 -38.333 29.1689 -47 40.502c2 8.66699 7.16699 20.5 15.5 35.5s17.833 28.667 28.5 41s20 19.166 28 20.499c7.33301 1.33301 18.5 -2 33.5 -10s29 -17.833 42 -29.5s20.167 -20.834 21.5 -27.501c2.66699 -10 -4.83301 -27.5 -22.5 -52.5
s-32.5 -41.5 -44.5 -49.5c-14 5.33301 -32.333 15.833 -55 31.5zM1164.5 371.002c27 -18 48.0039 -43.3301 63.0039 -75.9971s22.5 -70.334 22.5 -113.001c0 -14 -4.33301 -35.833 -13 -65.5s-20.334 -55.167 -35.001 -76.5c-35.333 -13.333 -85.5 -24.166 -150.5 -32.499
s-132.5 -12.5 -202.5 -12.5c-32 0 -59.333 5.5 -82 16.5s-41.167 24.167 -55.5 39.5s-29.5 34.666 -45.5 57.999c-16.667 23.333 -31 40.666 -43 51.999s-26.333 17 -43 17c-24.667 0 -50 -12.667 -76 -38c21.333 -7.33301 43.333 -19.166 66 -35.499
s36.667 -30.833 42 -43.5c5.33301 -12 8 -28.333 8 -49c0 -50 -13 -102.333 -39 -157c-40 -32.667 -89 -60.5 -147 -83.5s-115.667 -34.5 -173 -34.5c-68.667 0 -124.334 19 -167.001 57s-64 94.667 -64 170c0 36.667 5.16699 78.667 15.5 126s25.5 95.666 45.5 144.999
l138 -44c-24 -68.667 -36 -127.334 -36 -176.001c0 -32 8.5 -56.833 25.5 -74.5s41.167 -26.5 72.5 -26.5c46 0 106.667 20.333 182 61l-49.5 26c-27.667 14.667 -49.667 31.334 -66 50.001s-24.5 38.334 -24.5 59.001c0 27.333 14.333 59.666 43 96.999
s63.667 69.333 105 96s79.333 40 114 40c27.333 0 49 -6.5 65 -19.5s33.333 -32.5 52 -58.5c10 -14.667 19 -26.834 27 -36.501s17.333 -18.167 28 -25.5c53.333 66 106.166 115 158.499 147s101.166 48 146.499 48c34.667 0 65.5 -9 92.5 -27zM976.005 171.005
c40 0 74.832 1.66797 104.499 5.00098s46.5 8.66602 50.5 15.999c-4 10.667 -13 19.167 -27 25.5s-30.333 9.5 -49 9.5c-25.333 0 -52.666 -4.5 -81.999 -13.5s-57.333 -22.167 -84 -39.5c25.333 -2 54.333 -3 87 -3zM403.504 -319.494
c23 -16.333 35.502 -29.167 37.502 -38.5c1.33301 -10 -6 -26.333 -22 -49s-29.667 -38 -41 -46c-12.667 5.33301 -28.667 14.5 -48 27.5s-33.666 24.833 -42.999 35.5c-6.66699 -12 -15.334 -24.333 -26.001 -37s-19.334 -21.334 -26.001 -26.001
c-13.333 6 -30.333 16.167 -51 30.5s-35.334 26.5 -44.001 36.5c4 14 14 32.667 30 56s29.333 35 40 35s26.667 -7.5 48 -22.5s34.333 -27.5 39 -37.5c9.33301 16.667 19 30.834 29 42.501s19 17.5 27 17.5c10.667 0 27.5 -8.16699 50.5 -24.5z" />
    <glyph glyph-name="uniFD0C" unicode="&#xfeb7;&#xfee2;" horiz-adv-x="1219" arabic-form="isolated" 
d="M823 533c-20 14 -34.334 25.667 -43.001 35c2 8 7 19 15 33s16.833 26.333 26.5 37s18.167 16 25.5 16c10.667 0 26.834 -7.66699 48.501 -23s33.5 -27.333 35.5 -36c1.33301 -9.33301 -5.66699 -25 -21 -47s-28.333 -36.667 -39 -44c-12 5.33301 -28 15 -48 29z
M760.499 390c-21 14.667 -35.8311 27 -44.498 37c3.33301 13.333 12.833 31.166 28.5 53.499s28.834 34.5 39.501 36.5c9.33301 2 25.166 -4.66699 47.499 -20s36.166 -28.333 41.499 -39c8.66699 16 18.334 29.833 29.001 41.5s20 17.5 28 17.5
c11.333 0 28.166 -8.16699 50.499 -24.5s34.5 -29.166 36.5 -38.499c1.33301 -10 -6 -26.333 -22 -49s-29.667 -37.667 -41 -45c-11.333 4.66699 -26.666 13.5 -45.999 26.5s-34.333 24.833 -45 35.5c-6.66699 -12 -15.334 -24.167 -26.001 -36.5
s-19.334 -20.833 -26.001 -25.5c-12.667 5.33301 -29.5 15.333 -50.5 30zM1189 210c0 -35.333 -3.50391 -69 -10.5039 -101s-17.167 -58.667 -30.5 -80c-48.667 -23.333 -92.334 -35 -131.001 -35c-58 0 -106 25.333 -144 76h-9
c-10.667 -23.333 -29.167 -41.666 -55.5 -54.999s-52.833 -20 -79.5 -20c-24 0 -45.167 4.66699 -63.5 14s-34.166 20.666 -47.499 33.999s-28.333 31 -45 53c-22 27.333 -40.833 47.5 -56.5 60.5s-34.5 19.5 -56.5 19.5c-18 0 -33.167 -4 -45.5 -12
s-21.166 -19.333 -26.499 -34c41.333 -18.667 77.666 -39.667 108.999 -63c-3.33301 -18.667 -15.5 -44.167 -36.5 -76.5s-38.167 -53.166 -51.5 -62.499c-13.333 -0.666992 -26.166 3.33301 -38.499 12s-26.5 20.667 -42.5 36c-16.667 16.667 -28.667 26 -36 28
c-8 2.66699 -18 4 -30 4c-8.66699 0 -16.667 -0.333008 -24 -1s-13.666 -1.33398 -18.999 -2.00098l-25 -3c1.33301 -47.333 5.33301 -94.666 12 -141.999s14.334 -88 23.001 -122c-14.667 -8 -37.5 -14.5 -68.5 -19.5s-60.833 -7.5 -89.5 -7.5l-5 4
c-17.333 81.333 -26 166 -26 254c0 35.333 1.33301 66 4 92c4.66699 22.667 16.667 47.334 36 74.001s38.333 43 57 49c50 -2.66699 90.667 -6.33398 122 -11.001c14.667 53.333 40 95.333 76 126s76.333 46 121 46c30 0 55.5 -7.5 76.5 -22.5s44.167 -36.833 69.5 -65.5
c22.667 -26 42.5 -45.333 59.5 -58s37.167 -19 60.5 -19c32 0 58.833 7.83301 80.5 23.5s36.5 45.167 44.5 88.5l83 -13c-0.666992 -5.33301 -1 -13 -1 -23c0 -29.333 5.83301 -50 17.5 -62s27.834 -18 48.501 -18c12 0 29.333 2.66699 52 8
c-6 27.333 -16 60.666 -30 99.999l-7 21l160 37c12.667 -38 19 -82 19 -132z" />
    <glyph glyph-name="uniFD0D" unicode="&#xfeb7;&#xfeae;" horiz-adv-x="984" arabic-form="isolated" 
d="M593 533c-20 14 -34.334 25.667 -43.001 35c2 8 7 19 15 33s16.833 26.333 26.5 37s18.167 16 25.5 16c10.667 0 26.834 -7.66699 48.501 -23s33.5 -27.333 35.5 -36c1.33301 -9.33301 -5.66699 -25 -21 -47s-28.333 -36.667 -39 -44c-12 5.33301 -28 15 -48 29z
M530.499 390c-21 14.667 -35.8311 27 -44.498 37c3.33301 13.333 12.833 31.166 28.5 53.499s28.834 34.5 39.501 36.5c9.33301 2 25.166 -4.66699 47.499 -20s36.166 -28.333 41.499 -39c8.66699 16 18.334 29.833 29.001 41.5s20 17.5 28 17.5
c11.333 0 28.166 -8.16699 50.499 -24.5s34.5 -29.166 36.5 -38.499c1.33301 -10 -6 -26.333 -22 -49s-29.667 -37.667 -41 -45c-11.333 4.66699 -26.666 13.5 -45.999 26.5s-34.333 24.833 -45 35.5c-6.66699 -12 -15.334 -24.167 -26.001 -36.5
s-19.334 -20.833 -26.001 -25.5c-12.667 5.33301 -29.5 15.333 -50.5 30zM954.001 210c0 -35.333 -3.50195 -69 -10.502 -101s-17.167 -58.667 -30.5 -80c-48 -23.333 -91.667 -35 -131 -35c-58.667 0 -107 25.333 -145 76h-8c-10 -19.333 -26.167 -36.333 -48.5 -51
s-47.166 -22 -74.499 -22c-20.667 0 -42.167 9.16699 -64.5 27.5s-39.833 46.5 -52.5 84.5c-27.333 -10 -51.666 -17.167 -72.999 -21.5s-43 -7.16602 -65 -8.49902c-14 -48 -31.167 -96.667 -51.5 -146s-39.5 -91.833 -57.5 -127.5s-29.333 -56.167 -34 -61.5
c-23.333 8.66699 -50.833 23.5 -82.5 44.5s-54.834 40.167 -69.501 57.5c48 72 87.5 138.833 118.5 200.5s57.833 129.834 80.5 204.501c45.333 -0.666992 92.833 3.16602 142.5 11.499s93.834 20.166 132.501 35.499c12 -38.667 24.333 -67.667 37 -87s28 -29 46 -29
c24 0 44.833 10 62.5 30s29.5 46.667 35.5 80l84 -13c-0.666992 -6 -1 -14 -1 -24c0 -52 22.333 -78 67 -78c14.667 0 31.334 2.33301 50.001 7c-4.66699 25.333 -11.334 50.333 -20.001 75l-16 46l160 37c12.667 -38 19 -82 19 -132z" />
    <glyph glyph-name="uniFD0E" unicode="&#xfeb3;&#xfeae;" horiz-adv-x="984" arabic-form="isolated" 
d="M954 210c0 -35.333 -3.50195 -69 -10.502 -101s-17.167 -58.667 -30.5 -80c-48 -23.333 -91.667 -35 -131 -35c-58.667 0 -107 25.333 -145 76h-8c-10 -19.333 -26.167 -36.333 -48.5 -51s-47.166 -22 -74.499 -22c-20.667 0 -42.167 9.16699 -64.5 27.5
s-39.833 46.5 -52.5 84.5c-27.333 -10 -51.666 -17.167 -72.999 -21.5s-43 -7.16602 -65 -8.49902c-14 -48 -31.167 -96.667 -51.5 -146s-39.5 -91.833 -57.5 -127.5s-29.333 -56.167 -34 -61.5c-23.333 8.66699 -50.833 23.5 -82.5 44.5s-54.834 40.167 -69.501 57.5
c48 72 87.5 138.833 118.5 200.5s57.833 129.834 80.5 204.501c45.333 -0.666992 92.833 3.16602 142.5 11.499s93.834 20.166 132.501 35.499c12 -38.667 24.333 -67.667 37 -87s28 -29 46 -29c24 0 44.833 10 62.5 30s29.5 46.667 35.5 80l84 -13
c-0.666992 -6 -1 -14 -1 -24c0 -52 22.333 -78 67 -78c14.667 0 31.334 2.33301 50.001 7c-4.66699 25.333 -11.334 50.333 -20.001 75l-16 46l160 37c12.667 -38 19 -82 19 -132z" />
    <glyph glyph-name="uniFD0F" unicode="&#xfebb;&#xfeae;" horiz-adv-x="1026" arabic-form="isolated" 
d="M909.5 371c27.667 -18 48.9961 -43.3311 63.9961 -75.998s22.5 -70.334 22.5 -113.001c0 -13.333 -4.5 -35 -13.5 -65s-20.833 -55.667 -35.5 -77c-33.333 -12.667 -82.166 -23.167 -146.499 -31.5s-124.166 -12.5 -179.499 -12.5c-59.333 0 -106.5 8.83301 -141.5 26.5
s-62.833 47.5 -83.5 89.5c-28 -11.333 -53 -19.166 -75 -23.499s-45.667 -7.5 -71 -9.5c-14 -48.667 -31.167 -97.5 -51.5 -146.5s-39.666 -91.5 -57.999 -127.5s-29.833 -56.333 -34.5 -61c-22.667 8.66699 -49.667 23.5 -81 44.5s-54.666 40.167 -69.999 57.5
c48 73.333 87.5 140.5 118.5 201.5s57.5 128.833 79.5 203.5c46 -0.666992 93.667 3.16602 143 11.499s93.333 20.166 132 35.499c8 -24 18 -44.333 30 -61s29.333 -29.667 52 -39c51.333 65.333 103.166 115 155.499 149s101.5 51 147.5 51c36.667 0 68.834 -9 96.501 -27z
M721.996 170.002c40 0 74.832 1.66797 104.499 5.00098s46.5 8.66602 50.5 15.999c-4 10.667 -13 19.167 -27 25.5s-30.333 9.5 -49 9.5c-25.333 0 -52.666 -4.5 -81.999 -13.5s-57.333 -22.167 -84 -39.5c25.333 -2 54.333 -3 87 -3z" />
    <glyph glyph-name="uniFD10" unicode="&#xfebf;&#xfeae;" horiz-adv-x="1026" arabic-form="isolated" 
d="M759 505.5c-22.667 15.667 -38.333 29.1689 -47 40.502c2 8.66699 7.16699 20.5 15.5 35.5s17.833 28.667 28.5 41s20 19.166 28 20.499c7.33301 1.33301 18.5 -2 33.5 -10s29 -17.833 42 -29.5s20.167 -20.834 21.5 -27.501c2.66699 -10 -4.83301 -27.5 -22.5 -52.5
s-32.5 -41.5 -44.5 -49.5c-14 5.33301 -32.333 15.833 -55 31.5zM909.501 371.002c27.667 -18 48.9961 -43.3311 63.9961 -75.998s22.5 -70.334 22.5 -113.001c0 -13.333 -4.5 -35 -13.5 -65s-20.833 -55.667 -35.5 -77c-33.333 -12.667 -82.166 -23.167 -146.499 -31.5
s-124.166 -12.5 -179.499 -12.5c-59.333 0 -106.5 8.83301 -141.5 26.5s-62.833 47.5 -83.5 89.5c-28 -11.333 -53 -19.166 -75 -23.499s-45.667 -7.5 -71 -9.5c-14 -48.667 -31.167 -97.5 -51.5 -146.5s-39.666 -91.5 -57.999 -127.5s-29.833 -56.333 -34.5 -61
c-22.667 8.66699 -49.667 23.5 -81 44.5s-54.666 40.167 -69.999 57.5c48 73.333 87.5 140.5 118.5 201.5s57.5 128.833 79.5 203.5c46 -0.666992 93.667 3.16602 143 11.499s93.333 20.166 132 35.499c8 -24 18 -44.333 30 -61s29.333 -29.667 52 -39
c51.333 65.333 103.166 115 155.499 149s101.5 51 147.5 51c36.667 0 68.834 -9 96.501 -27zM721.997 170.004c40 0 74.832 1.66797 104.499 5.00098s46.5 8.66602 50.5 15.999c-4 10.667 -13 19.167 -27 25.5s-30.333 9.5 -49 9.5c-25.333 0 -52.666 -4.5 -81.999 -13.5
s-57.333 -22.167 -84 -39.5c25.333 -2 54.333 -3 87 -3z" />
    <glyph glyph-name="uniFD17" unicode="&#xfeb4;&#xfef0;" horiz-adv-x="1285" arabic-form="final" 
d="M1306.5 163c3.66699 -15.333 5.49805 -38.665 5.49805 -69.998c0 -32 -2 -55.5 -6 -70.5s-11 -22.5 -21 -22.5c-26.667 0 -51.334 5 -74.001 15s-42.667 28.333 -60 55h-9c-6.66699 -24 -17.834 -42.333 -33.501 -55s-33.5 -19 -53.5 -19c-40 0 -69 24.667 -87 74h-9
c-14 -23.333 -33.167 -41.333 -57.5 -54s-48.833 -19 -73.5 -19c-34 0 -61.333 9 -82 27s-42 43.667 -64 77c-18 26.667 -33.333 46.167 -46 58.5s-28.667 18.5 -48 18.5c-10.667 0 -23 -3.5 -37 -10.5s-26.667 -15.833 -38 -26.5c56.667 -24 93 -50.667 109 -80
c5.33301 -8.66699 8 -24.334 8 -47.001s-3.33301 -48.167 -10 -76.5s-17 -56.5 -31 -84.5c-38.667 -31.333 -87 -58.5 -145 -81.5s-115 -34.5 -171 -34.5c-69.333 0 -125.5 18.833 -168.5 56.5s-64.5 93.167 -64.5 166.5c0 80 20.333 171.667 61 275l138 -44
c-24 -70 -36 -128.333 -36 -175c0 -32.667 8.5 -57.834 25.5 -75.501s41.167 -26.5 72.5 -26.5c50 0 110.667 20.333 182 61l-25 14c-28.667 16.667 -50.5 30.167 -65.5 40.5s-27 22.333 -36 36s-13.5 29.5 -13.5 47.5c0 27.333 14.667 59.333 44 96
s64.833 68.167 106.5 94.5s78.834 39.5 111.501 39.5c28 0 50.167 -6.66699 66.5 -20s33.833 -33.333 52.5 -60s35.834 -46.5 51.501 -59.5s37.167 -19.5 64.5 -19.5c48 0 81.333 36 100 108l84 -13c-0.666992 -5.33301 -1 -12.666 -1 -21.999
c0 -24.667 4.5 -43.334 13.5 -56.001s20.5 -19 34.5 -19c34 0 53.333 37.333 58 112h83c0.666992 -29.333 2.33398 -51 5.00098 -65s9 -24.667 19 -32s26.333 -11 49 -11c10.667 0 17.834 -7.66699 21.501 -23z" />
    <glyph glyph-name="uniFD18" unicode="&#xfeb4;&#xfef2;" horiz-adv-x="1285" arabic-form="final" 
d="M1306.5 163c3.66699 -15.333 5.49805 -38.665 5.49805 -69.998c0 -32 -2 -55.5 -6 -70.5s-11 -22.5 -21 -22.5c-26.667 0 -51.334 5 -74.001 15s-42.667 28.333 -60 55h-9c-6.66699 -24 -17.834 -42.333 -33.501 -55s-33.5 -19 -53.5 -19c-40 0 -69 24.667 -87 74h-9
c-14 -23.333 -33.167 -41.333 -57.5 -54s-48.833 -19 -73.5 -19c-34 0 -61.333 9 -82 27s-42 43.667 -64 77c-18 26.667 -33.333 46.167 -46 58.5s-28.667 18.5 -48 18.5c-10.667 0 -23 -3.5 -37 -10.5s-26.667 -15.833 -38 -26.5c56.667 -24 93 -50.667 109 -80
c5.33301 -8.66699 8 -24.334 8 -47.001s-3.33301 -48.167 -10 -76.5s-17 -56.5 -31 -84.5c-38.667 -31.333 -87 -58.5 -145 -81.5s-115 -34.5 -171 -34.5c-69.333 0 -125.5 18.833 -168.5 56.5s-64.5 93.167 -64.5 166.5c0 80 20.333 171.667 61 275l138 -44
c-24 -70 -36 -128.333 -36 -175c0 -32.667 8.5 -57.834 25.5 -75.501s41.167 -26.5 72.5 -26.5c50 0 110.667 20.333 182 61l-25 14c-28.667 16.667 -50.5 30.167 -65.5 40.5s-27 22.333 -36 36s-13.5 29.5 -13.5 47.5c0 27.333 14.667 59.333 44 96
s64.833 68.167 106.5 94.5s78.834 39.5 111.501 39.5c28 0 50.167 -6.66699 66.5 -20s33.833 -33.333 52.5 -60s35.834 -46.5 51.501 -59.5s37.167 -19.5 64.5 -19.5c48 0 81.333 36 100 108l84 -13c-0.666992 -5.33301 -1 -12.666 -1 -21.999
c0 -24.667 4.5 -43.334 13.5 -56.001s20.5 -19 34.5 -19c34 0 53.333 37.333 58 112h83c0.666992 -29.333 2.33398 -51 5.00098 -65s9 -24.667 19 -32s26.333 -11 49 -11c10.667 0 17.834 -7.66699 21.501 -23zM413.498 -319.499c23 -16.333 35.502 -29.167 37.502 -38.5
c1.33301 -10 -6 -26.333 -22 -49s-29.667 -38 -41 -46c-12.667 5.33301 -28.667 14.5 -48 27.5s-33.666 24.833 -42.999 35.5c-6.66699 -12 -15.334 -24.333 -26.001 -37s-19.334 -21.334 -26.001 -26.001c-13.333 6 -30.333 16.167 -51 30.5s-35.334 26.5 -44.001 36.5
c4 14 14 32.667 30 56s29.333 35 40 35s26.667 -7.5 48 -22.5s34.333 -27.5 39 -37.5c9.33301 16.667 19 30.834 29 42.501s19 17.5 27 17.5c10.667 0 27.5 -8.16699 50.5 -24.5z" />
    <glyph glyph-name="uniFD19" unicode="&#xfeb8;&#xfef0;" horiz-adv-x="1285" arabic-form="final" 
d="M913 533c-20 14 -34.334 25.667 -43.001 35c2 8 7 19 15 33s16.833 26.333 26.5 37s18.167 16 25.5 16c10.667 0 26.834 -7.66699 48.501 -23s33.5 -27.333 35.5 -36c1.33301 -9.33301 -5.66699 -25 -21 -47s-28.333 -36.667 -39 -44c-12 5.33301 -28 15 -48 29z
M850.499 390c-21 14.667 -35.8311 27 -44.498 37c3.33301 13.333 12.833 31.166 28.5 53.499s28.834 34.5 39.501 36.5c9.33301 2 25.166 -4.66699 47.499 -20s36.166 -28.333 41.499 -39c8.66699 16 18.334 29.833 29.001 41.5s20 17.5 28 17.5
c11.333 0 28.166 -8.16699 50.499 -24.5s34.5 -29.166 36.5 -38.499c1.33301 -10 -6 -26.333 -22 -49s-29.667 -37.667 -41 -45c-11.333 4.66699 -26.666 13.5 -45.999 26.5s-34.333 24.833 -45 35.5c-6.66699 -12 -15.334 -24.167 -26.001 -36.5
s-19.334 -20.833 -26.001 -25.5c-12.667 5.33301 -29.5 15.333 -50.5 30zM1306.5 163c3.66699 -15.333 5.49805 -38.665 5.49805 -69.998c0 -32 -2 -55.5 -6 -70.5s-11 -22.5 -21 -22.5c-26.667 0 -51.334 5 -74.001 15s-42.667 28.333 -60 55h-9
c-6.66699 -24 -17.834 -42.333 -33.501 -55s-33.5 -19 -53.5 -19c-40 0 -69 24.667 -87 74h-9c-14 -23.333 -33.167 -41.333 -57.5 -54s-48.833 -19 -73.5 -19c-34 0 -61.333 9 -82 27s-42 43.667 -64 77c-18 26.667 -33.333 46.167 -46 58.5s-28.667 18.5 -48 18.5
c-10.667 0 -23 -3.5 -37 -10.5s-26.667 -15.833 -38 -26.5c56.667 -24 93 -50.667 109 -80c5.33301 -8.66699 8 -24.334 8 -47.001s-3.33301 -48.167 -10 -76.5s-17 -56.5 -31 -84.5c-38.667 -31.333 -87 -58.5 -145 -81.5s-115 -34.5 -171 -34.5
c-69.333 0 -125.5 18.833 -168.5 56.5s-64.5 93.167 -64.5 166.5c0 80 20.333 171.667 61 275l138 -44c-24 -70 -36 -128.333 -36 -175c0 -32.667 8.5 -57.834 25.5 -75.501s41.167 -26.5 72.5 -26.5c50 0 110.667 20.333 182 61l-25 14
c-28.667 16.667 -50.5 30.167 -65.5 40.5s-27 22.333 -36 36s-13.5 29.5 -13.5 47.5c0 27.333 14.667 59.333 44 96s64.833 68.167 106.5 94.5s78.834 39.5 111.501 39.5c28 0 50.167 -6.66699 66.5 -20s33.833 -33.333 52.5 -60s35.834 -46.5 51.501 -59.5
s37.167 -19.5 64.5 -19.5c48 0 81.333 36 100 108l84 -13c-0.666992 -5.33301 -1 -12.666 -1 -21.999c0 -24.667 4.5 -43.334 13.5 -56.001s20.5 -19 34.5 -19c34 0 53.333 37.333 58 112h83c0.666992 -29.333 2.33398 -51 5.00098 -65s9 -24.667 19 -32s26.333 -11 49 -11
c10.667 0 17.834 -7.66699 21.501 -23z" />
    <glyph glyph-name="uniFD1A" unicode="&#xfeb8;&#xfef2;" horiz-adv-x="1285" arabic-form="final" 
d="M913 533c-20 14 -34.334 25.667 -43.001 35c2 8 7 19 15 33s16.833 26.333 26.5 37s18.167 16 25.5 16c10.667 0 26.834 -7.66699 48.501 -23s33.5 -27.333 35.5 -36c1.33301 -9.33301 -5.66699 -25 -21 -47s-28.333 -36.667 -39 -44c-12 5.33301 -28 15 -48 29z
M850.499 390c-21 14.667 -35.8311 27 -44.498 37c3.33301 13.333 12.833 31.166 28.5 53.499s28.834 34.5 39.501 36.5c9.33301 2 25.166 -4.66699 47.499 -20s36.166 -28.333 41.499 -39c8.66699 16 18.334 29.833 29.001 41.5s20 17.5 28 17.5
c11.333 0 28.166 -8.16699 50.499 -24.5s34.5 -29.166 36.5 -38.499c1.33301 -10 -6 -26.333 -22 -49s-29.667 -37.667 -41 -45c-11.333 4.66699 -26.666 13.5 -45.999 26.5s-34.333 24.833 -45 35.5c-6.66699 -12 -15.334 -24.167 -26.001 -36.5
s-19.334 -20.833 -26.001 -25.5c-12.667 5.33301 -29.5 15.333 -50.5 30zM1306.5 163c3.66699 -15.333 5.49805 -38.665 5.49805 -69.998c0 -32 -2 -55.5 -6 -70.5s-11 -22.5 -21 -22.5c-26.667 0 -51.334 5 -74.001 15s-42.667 28.333 -60 55h-9
c-6.66699 -24 -17.834 -42.333 -33.501 -55s-33.5 -19 -53.5 -19c-40 0 -69 24.667 -87 74h-9c-14 -23.333 -33.167 -41.333 -57.5 -54s-48.833 -19 -73.5 -19c-34 0 -61.333 9 -82 27s-42 43.667 -64 77c-18 26.667 -33.333 46.167 -46 58.5s-28.667 18.5 -48 18.5
c-10.667 0 -23 -3.5 -37 -10.5s-26.667 -15.833 -38 -26.5c56.667 -24 93 -50.667 109 -80c5.33301 -8.66699 8 -24.334 8 -47.001s-3.33301 -48.167 -10 -76.5s-17 -56.5 -31 -84.5c-38.667 -31.333 -87 -58.5 -145 -81.5s-115 -34.5 -171 -34.5
c-69.333 0 -125.5 18.833 -168.5 56.5s-64.5 93.167 -64.5 166.5c0 80 20.333 171.667 61 275l138 -44c-24 -70 -36 -128.333 -36 -175c0 -32.667 8.5 -57.834 25.5 -75.501s41.167 -26.5 72.5 -26.5c50 0 110.667 20.333 182 61l-25 14
c-28.667 16.667 -50.5 30.167 -65.5 40.5s-27 22.333 -36 36s-13.5 29.5 -13.5 47.5c0 27.333 14.667 59.333 44 96s64.833 68.167 106.5 94.5s78.834 39.5 111.501 39.5c28 0 50.167 -6.66699 66.5 -20s33.833 -33.333 52.5 -60s35.834 -46.5 51.501 -59.5
s37.167 -19.5 64.5 -19.5c48 0 81.333 36 100 108l84 -13c-0.666992 -5.33301 -1 -12.666 -1 -21.999c0 -24.667 4.5 -43.334 13.5 -56.001s20.5 -19 34.5 -19c34 0 53.333 37.333 58 112h83c0.666992 -29.333 2.33398 -51 5.00098 -65s9 -24.667 19 -32s26.333 -11 49 -11
c10.667 0 17.834 -7.66699 21.501 -23zM403.499 -319.499c23 -16.333 35.502 -29.167 37.502 -38.5c1.33301 -10 -6 -26.333 -22 -49s-29.667 -38 -41 -46c-12.667 5.33301 -28.667 14.5 -48 27.5s-33.666 24.833 -42.999 35.5c-6.66699 -12 -15.334 -24.333 -26.001 -37
s-19.334 -21.334 -26.001 -26.001c-13.333 6 -30.333 16.167 -51 30.5s-35.334 26.5 -44.001 36.5c4 14 14 32.667 30 56s29.333 35 40 35s26.667 -7.5 48 -22.5s34.333 -27.5 39 -37.5c9.33301 16.667 19 30.834 29 42.501s19 17.5 27 17.5
c10.667 0 27.5 -8.16699 50.5 -24.5z" />
    <glyph glyph-name="uniFD1F" unicode="&#xfea8;&#xfef0;" horiz-adv-x="1086" arabic-form="final" 
d="M686 534.5c-22.667 15.667 -38.333 29.1689 -47 40.502c2 8.66699 7.16699 20.5 15.5 35.5s17.833 28.667 28.5 41s20 19.166 28 20.499c7.33301 1.33301 18.5 -2 33.5 -10s29 -17.833 42 -29.5s20.167 -20.834 21.5 -27.501c2.66699 -10 -4.83301 -27.5 -22.5 -52.5
s-32.5 -41.5 -44.5 -49.5c-14 5.33301 -32.333 15.833 -55 31.5zM1104 93.002c0 -30.667 -6.00098 -61.666 -18.001 -92.999c-37.333 0 -72.5 8 -105.5 24s-57.5 38.667 -73.5 68c-28.667 -0.666992 -55.167 -4.5 -79.5 -11.5s-54.5 -17.5 -90.5 -31.5
c-48 -18 -85 -30.333 -111 -37c1.33301 -57.333 -1.33398 -105 -8.00098 -143c-49.333 -42 -104.666 -76 -165.999 -102s-121 -39 -179 -39c-69.333 0 -125.5 19 -168.5 57s-64.5 93.333 -64.5 166c0 79.333 20.667 172 62 278l138 -45c-24.667 -76 -37 -135 -37 -177
c0 -32 8.16699 -56.333 24.5 -73s39.5 -25 69.5 -25c49.333 0 114 21.333 194 64c-48.667 44 -98 77.333 -148 100l48 132c58.667 -12.667 101.667 -19 129 -19c26.667 0 51.667 2.33301 75 7s51.333 11.667 84 21c40 10.667 68.333 17.667 85 21l30 2
c-23.333 12 -43.666 21.667 -60.999 29c-18.667 7.33301 -38.667 12.5 -60 15.5s-49 5.5 -83 7.5l-22 1l-4 4c2.66699 25.333 7.83398 53.5 15.501 84.5s15.167 53.833 22.5 68.5c14 2 27 3 39 3c45.333 0 90 -14.667 134 -44c26 -17.333 55.333 -41 88 -71
c28.667 -25.333 52.667 -44.833 72 -58.5s39.333 -23.167 60 -28.5c-0.666992 -16.667 -2.66699 -34.334 -6 -53.001c27.333 -6 59.666 -9 96.999 -9c12 -30.667 18 -61.667 18 -93z" />
    <glyph glyph-name="uniFD20" unicode="&#xfea8;&#xfef2;" horiz-adv-x="1086" arabic-form="final" 
d="M686 534.5c-22.667 15.667 -38.333 29.1689 -47 40.502c2 8.66699 7.16699 20.5 15.5 35.5s17.833 28.667 28.5 41s20 19.166 28 20.499c7.33301 1.33301 18.5 -2 33.5 -10s29 -17.833 42 -29.5s20.167 -20.834 21.5 -27.501c2.66699 -10 -4.83301 -27.5 -22.5 -52.5
s-32.5 -41.5 -44.5 -49.5c-14 5.33301 -32.333 15.833 -55 31.5zM1104 93.002c0 -30.667 -6.00098 -61.666 -18.001 -92.999c-37.333 0 -72.5 8 -105.5 24s-57.5 38.667 -73.5 68c-28.667 -0.666992 -55.167 -4.5 -79.5 -11.5s-54.5 -17.5 -90.5 -31.5
c-48 -18 -85 -30.333 -111 -37c1.33301 -57.333 -1.33398 -105 -8.00098 -143c-49.333 -42 -104.666 -76 -165.999 -102s-121 -39 -179 -39c-69.333 0 -125.5 19 -168.5 57s-64.5 93.333 -64.5 166c0 79.333 20.667 172 62 278l138 -45c-24.667 -76 -37 -135 -37 -177
c0 -32 8.16699 -56.333 24.5 -73s39.5 -25 69.5 -25c49.333 0 114 21.333 194 64c-48.667 44 -98 77.333 -148 100l48 132c58.667 -12.667 101.667 -19 129 -19c26.667 0 51.667 2.33301 75 7s51.333 11.667 84 21c40 10.667 68.333 17.667 85 21l30 2
c-23.333 12 -43.666 21.667 -60.999 29c-18.667 7.33301 -38.667 12.5 -60 15.5s-49 5.5 -83 7.5l-22 1l-4 4c2.66699 25.333 7.83398 53.5 15.501 84.5s15.167 53.833 22.5 68.5c14 2 27 3 39 3c45.333 0 90 -14.667 134 -44c26 -17.333 55.333 -41 88 -71
c28.667 -25.333 52.667 -44.833 72 -58.5s39.333 -23.167 60 -28.5c-0.666992 -16.667 -2.66699 -34.334 -6 -53.001c27.333 -6 59.666 -9 96.999 -9c12 -30.667 18 -61.667 18 -93zM386.5 -323.497c23 -16.333 35.502 -29.167 37.502 -38.5c1.33301 -10 -6 -26.333 -22 -49
s-29.667 -38 -41 -46c-12.667 5.33301 -28.667 14.5 -48 27.5s-33.666 24.833 -42.999 35.5c-6.66699 -12 -15.334 -24.333 -26.001 -37s-19.334 -21.334 -26.001 -26.001c-13.333 6 -30.333 16.167 -51 30.5s-35.334 26.5 -44.001 36.5c4 14 14 32.667 30 56
s29.333 35 40 35s26.667 -7.5 48 -22.5s34.333 -27.5 39 -37.5c9.33301 16.667 19 30.834 29 42.501s19 17.5 27 17.5c10.667 0 27.5 -8.16699 50.5 -24.5z" />
    <glyph glyph-name="uniFD22" unicode="&#xfebc;&#xfef2;" horiz-adv-x="1304" arabic-form="final" 
d="M1325.5 163c3.66699 -15.333 5.50098 -38.665 5.50098 -69.998c0 -32 -2 -55.5 -6 -70.5s-11 -22.5 -21 -22.5c-41.333 0 -78.333 14 -111 42l-1 -2c-35.333 -13.333 -85.5 -24.166 -150.5 -32.499s-132.5 -12.5 -202.5 -12.5c-32 0 -59.333 5.5 -82 16.5
s-41.167 24.167 -55.5 39.5s-29.5 34.666 -45.5 57.999c-16.667 23.333 -31 40.666 -43 51.999s-26.333 17 -43 17c-24.667 0 -50 -12.667 -76 -38c21.333 -7.33301 43.333 -19.166 66 -35.499s36.667 -30.833 42 -43.5c5.33301 -12 8 -28.333 8 -49
c0 -50 -13 -102.333 -39 -157c-40 -32.667 -89 -60.5 -147 -83.5s-115.667 -34.5 -173 -34.5c-68.667 0 -124.334 19 -167.001 57s-64 94.667 -64 170c0 36.667 5.16699 78.667 15.5 126s25.5 95.666 45.5 144.999l138 -44c-24 -68.667 -36 -127.334 -36 -176.001
c0 -32 8.5 -56.833 25.5 -74.5s41.167 -26.5 72.5 -26.5c46 0 106.667 20.333 182 61l-49.5 26c-27.667 14.667 -49.667 31.334 -66 50.001s-24.5 38.334 -24.5 59.001c0 27.333 14.333 59.666 43 96.999s63.667 69.333 105 96s79.333 40 114 40c27.333 0 49 -6.5 65 -19.5
s33.333 -32.5 52 -58.5c10 -14.667 19 -26.834 27 -36.501s17.333 -18.167 28 -25.5c53.333 66 106.166 115 158.499 147s101.166 48 146.499 48c34.667 0 65.334 -8.83301 92.001 -26.5s47.667 -42.5 63 -74.5s23 -69 23 -111h64c10.667 0 17.834 -7.66699 21.501 -23z
M966.001 171.001c40 0 74.832 1.66797 104.499 5.00098s46.5 8.66602 50.5 15.999c-4 10.667 -13 19.167 -27 25.5s-30.333 9.5 -49 9.5c-25.333 0 -52.666 -4.5 -81.999 -13.5s-57.333 -22.167 -84 -39.5c24.667 -2 53.667 -3 87 -3zM413.5 -319.498
c23 -16.333 35.502 -29.167 37.502 -38.5c1.33301 -10 -6 -26.333 -22 -49s-29.667 -38 -41 -46c-12.667 5.33301 -28.667 14.5 -48 27.5s-33.666 24.833 -42.999 35.5c-6.66699 -12 -15.334 -24.333 -26.001 -37s-19.334 -21.334 -26.001 -26.001
c-13.333 6 -30.333 16.167 -51 30.5s-35.334 26.5 -44.001 36.5c4 14 14 32.667 30 56s29.333 35 40 35s26.667 -7.5 48 -22.5s34.333 -27.5 39 -37.5c9.33301 16.667 19 30.834 29 42.501s19 17.5 27 17.5c10.667 0 27.5 -8.16699 50.5 -24.5z" />
    <glyph glyph-name="uniFD23" unicode="&#xfec0;&#xfef0;" horiz-adv-x="1304" arabic-form="final" 
d="M1017 503.5c-22.667 15.667 -38.333 29.1689 -47 40.502c2 8.66699 7.16699 20.5 15.5 35.5s17.833 28.667 28.5 41s20 19.166 28 20.499c7.33301 1.33301 18.5 -2 33.5 -10s29 -17.833 42 -29.5s20.167 -20.834 21.5 -27.501c2.66699 -10 -4.83301 -27.5 -22.5 -52.5
s-32.5 -41.5 -44.5 -49.5c-14 5.33301 -32.333 15.833 -55 31.5zM1325.5 163.002c3.66699 -15.333 5.50098 -38.665 5.50098 -69.998c0 -32 -2 -55.5 -6 -70.5s-11 -22.5 -21 -22.5c-41.333 0 -78.333 14 -111 42l-1 -2c-35.333 -13.333 -85.5 -24.166 -150.5 -32.499
s-132.5 -12.5 -202.5 -12.5c-32 0 -59.333 5.5 -82 16.5s-41.167 24.167 -55.5 39.5s-29.5 34.666 -45.5 57.999c-16.667 23.333 -31 40.666 -43 51.999s-26.333 17 -43 17c-24.667 0 -50 -12.667 -76 -38c21.333 -7.33301 43.333 -19.166 66 -35.499
s36.667 -30.833 42 -43.5c5.33301 -12 8 -28.333 8 -49c0 -50 -13 -102.333 -39 -157c-40 -32.667 -89 -60.5 -147 -83.5s-115.667 -34.5 -173 -34.5c-68.667 0 -124.334 19 -167.001 57s-64 94.667 -64 170c0 36.667 5.16699 78.667 15.5 126s25.5 95.666 45.5 144.999
l138 -44c-24 -68.667 -36 -127.334 -36 -176.001c0 -32 8.5 -56.833 25.5 -74.5s41.167 -26.5 72.5 -26.5c46 0 106.667 20.333 182 61l-49.5 26c-27.667 14.667 -49.667 31.334 -66 50.001s-24.5 38.334 -24.5 59.001c0 27.333 14.333 59.666 43 96.999
s63.667 69.333 105 96s79.333 40 114 40c27.333 0 49 -6.5 65 -19.5s33.333 -32.5 52 -58.5c10 -14.667 19 -26.834 27 -36.501s17.333 -18.167 28 -25.5c53.333 66 106.166 115 158.499 147s101.166 48 146.499 48c34.667 0 65.334 -8.83301 92.001 -26.5
s47.667 -42.5 63 -74.5s23 -69 23 -111h64c10.667 0 17.834 -7.66699 21.501 -23zM966.002 171.003c40 0 74.832 1.66797 104.499 5.00098s46.5 8.66602 50.5 15.999c-4 10.667 -13 19.167 -27 25.5s-30.333 9.5 -49 9.5c-25.333 0 -52.666 -4.5 -81.999 -13.5
s-57.333 -22.167 -84 -39.5c24.667 -2 53.667 -3 87 -3z" />
    <glyph glyph-name="uniFD24" unicode="&#xfec0;&#xfef2;" horiz-adv-x="1304" arabic-form="final" 
d="M1017 503.5c-22.667 15.667 -38.333 29.1689 -47 40.502c2 8.66699 7.16699 20.5 15.5 35.5s17.833 28.667 28.5 41s20 19.166 28 20.499c7.33301 1.33301 18.5 -2 33.5 -10s29 -17.833 42 -29.5s20.167 -20.834 21.5 -27.501c2.66699 -10 -4.83301 -27.5 -22.5 -52.5
s-32.5 -41.5 -44.5 -49.5c-14 5.33301 -32.333 15.833 -55 31.5zM1325.5 163.002c3.66699 -15.333 5.50098 -38.665 5.50098 -69.998c0 -32 -2 -55.5 -6 -70.5s-11 -22.5 -21 -22.5c-41.333 0 -78.333 14 -111 42l-1 -2c-35.333 -13.333 -85.5 -24.166 -150.5 -32.499
s-132.5 -12.5 -202.5 -12.5c-32 0 -59.333 5.5 -82 16.5s-41.167 24.167 -55.5 39.5s-29.5 34.666 -45.5 57.999c-16.667 23.333 -31 40.666 -43 51.999s-26.333 17 -43 17c-24.667 0 -50 -12.667 -76 -38c21.333 -7.33301 43.333 -19.166 66 -35.499
s36.667 -30.833 42 -43.5c5.33301 -12 8 -28.333 8 -49c0 -50 -13 -102.333 -39 -157c-40 -32.667 -89 -60.5 -147 -83.5s-115.667 -34.5 -173 -34.5c-68.667 0 -124.334 19 -167.001 57s-64 94.667 -64 170c0 36.667 5.16699 78.667 15.5 126s25.5 95.666 45.5 144.999
l138 -44c-24 -68.667 -36 -127.334 -36 -176.001c0 -32 8.5 -56.833 25.5 -74.5s41.167 -26.5 72.5 -26.5c46 0 106.667 20.333 182 61l-49.5 26c-27.667 14.667 -49.667 31.334 -66 50.001s-24.5 38.334 -24.5 59.001c0 27.333 14.333 59.666 43 96.999
s63.667 69.333 105 96s79.333 40 114 40c27.333 0 49 -6.5 65 -19.5s33.333 -32.5 52 -58.5c10 -14.667 19 -26.834 27 -36.501s17.333 -18.167 28 -25.5c53.333 66 106.166 115 158.499 147s101.166 48 146.499 48c34.667 0 65.334 -8.83301 92.001 -26.5
s47.667 -42.5 63 -74.5s23 -69 23 -111h64c10.667 0 17.834 -7.66699 21.501 -23zM966.002 171.003c40 0 74.832 1.66797 104.499 5.00098s46.5 8.66602 50.5 15.999c-4 10.667 -13 19.167 -27 25.5s-30.333 9.5 -49 9.5c-25.333 0 -52.666 -4.5 -81.999 -13.5
s-57.333 -22.167 -84 -39.5c24.667 -2 53.667 -3 87 -3zM403.501 -319.496c23 -16.333 35.502 -29.167 37.502 -38.5c1.33301 -10 -6 -26.333 -22 -49s-29.667 -38 -41 -46c-12.667 5.33301 -28.667 14.5 -48 27.5s-33.666 24.833 -42.999 35.5
c-6.66699 -12 -15.334 -24.333 -26.001 -37s-19.334 -21.334 -26.001 -26.001c-13.333 6 -30.333 16.167 -51 30.5s-35.334 26.5 -44.001 36.5c4 14 14 32.667 30 56s29.333 35 40 35s26.667 -7.5 48 -22.5s34.333 -27.5 39 -37.5c9.33301 16.667 19 30.834 29 42.501
s19 17.5 27 17.5c10.667 0 27.5 -8.16699 50.5 -24.5z" />
    <glyph glyph-name="uniFD28" unicode="&#xfeb8;&#xfee2;" horiz-adv-x="1172" arabic-form="final" 
d="M793 533c-20 14 -34.334 25.667 -43.001 35c2 8 7 19 15 33s16.833 26.333 26.5 37s18.167 16 25.5 16c10.667 0 26.834 -7.66699 48.501 -23s33.5 -27.333 35.5 -36c1.33301 -9.33301 -5.66699 -25 -21 -47s-28.333 -36.667 -39 -44c-12 5.33301 -28 15 -48 29z
M730.499 390c-21 14.667 -35.8311 27 -44.498 37c3.33301 13.333 12.833 31.166 28.5 53.499s28.834 34.5 39.501 36.5c9.33301 2 25.166 -4.66699 47.499 -20s36.166 -28.333 41.499 -39c8.66699 16 18.334 29.833 29.001 41.5s20 17.5 28 17.5
c11.333 0 28.166 -8.16699 50.499 -24.5s34.5 -29.166 36.5 -38.499c1.33301 -10 -6 -26.333 -22 -49s-29.667 -37.667 -41 -45c-11.333 4.66699 -26.666 13.5 -45.999 26.5s-34.333 24.833 -45 35.5c-6.66699 -12 -15.334 -24.167 -26.001 -36.5
s-19.334 -20.833 -26.001 -25.5c-12.667 5.33301 -29.5 15.333 -50.5 30zM1193.5 163c3.66699 -15.333 5.49609 -38.6689 5.49609 -70.002c0 -32 -2 -55.5 -6 -70.5s-11 -22.5 -21 -22.5c-26.667 0 -51.334 5 -74.001 15s-43 28.333 -61 55h-8
c-6.66699 -24 -17.834 -42.333 -33.501 -55s-33.5 -19 -53.5 -19c-40 0 -69.333 24.667 -88 74h-8c-14 -24 -33 -42.167 -57 -54.5s-50.333 -18.5 -79 -18.5c-26 0 -48.167 7.66699 -66.5 23s-39.5 38.333 -63.5 69c-22 28.667 -41.667 50.334 -59 65.001
s-37.666 22 -60.999 22c-18 0 -33.167 -4 -45.5 -12s-21.166 -19.333 -26.499 -34c41.333 -18.667 77.666 -39.667 108.999 -63c-3.33301 -18.667 -15.5 -44.167 -36.5 -76.5s-38.167 -53.166 -51.5 -62.499c-13.333 -0.666992 -26.166 3.33301 -38.499 12
s-26.5 20.667 -42.5 36c-16.667 16.667 -28.667 26 -36 28c-8 2.66699 -18 4 -30 4c-8.66699 0 -16.667 -0.333008 -24 -1s-13.666 -1.33398 -18.999 -2.00098l-25 -3c1.33301 -47.333 5.33301 -94.666 12 -141.999s14.334 -88 23.001 -122
c-14.667 -8 -37.5 -14.5 -68.5 -19.5s-60.833 -7.5 -89.5 -7.5l-5 4c-17.333 81.333 -26 166 -26 254c0 35.333 1.33301 66 4 92c4.66699 22.667 16.667 47.334 36 74.001s38.333 43 57 49c50 -2.66699 90.667 -6.33398 122 -11.001c14.667 53.333 40 95.333 76 126
s76.333 46 121 46c34.667 0 62.834 -7.66699 84.501 -23s44.5 -38 68.5 -68c22 -26 41 -45.167 57 -57.5s36.333 -18.5 61 -18.5c30 0 52.167 11 66.5 33s25.5 49 33.5 81l84 -13c-0.666992 -5.33301 -1 -12.666 -1 -21.999c0 -24.667 4.5 -43.334 13.5 -56.001
s20.833 -19 35.5 -19c15.333 0 28.166 9 38.499 27s16.5 46.333 18.5 85h83c0.666992 -29.333 2.33398 -51 5.00098 -65s9 -24.667 19 -32s26.333 -11 49 -11c10.667 0 17.834 -7.66699 21.501 -23z" />
    <glyph glyph-name="uniFD29" unicode="&#xfeb8;&#xfeae;" horiz-adv-x="990" arabic-form="final" 
d="M623 533c-20 14 -34.334 25.667 -43.001 35c2 8 7 19 15 33s16.833 26.333 26.5 37s18.167 16 25.5 16c10.667 0 26.834 -7.66699 48.501 -23s33.5 -27.333 35.5 -36c1.33301 -9.33301 -5.66699 -25 -21 -47s-28.333 -36.667 -39 -44c-12 5.33301 -28 15 -48 29z
M560.499 390c-21 14.667 -35.8311 27 -44.498 37c3.33301 13.333 12.833 31.166 28.5 53.499s28.834 34.5 39.501 36.5c9.33301 2 25.166 -4.66699 47.499 -20s36.166 -28.333 41.499 -39c8.66699 16 18.334 29.833 29.001 41.5s20 17.5 28 17.5
c11.333 0 28.166 -8.16699 50.499 -24.5s34.5 -29.166 36.5 -38.499c1.33301 -10 -6 -26.333 -22 -49s-29.667 -37.667 -41 -45c-11.333 4.66699 -26.666 13.5 -45.999 26.5s-34.333 24.833 -45 35.5c-6.66699 -12 -15.334 -24.167 -26.001 -36.5
s-19.334 -20.833 -26.001 -25.5c-12.667 5.33301 -29.5 15.333 -50.5 30zM1011.5 163c3.66699 -15.333 5.49707 -38.665 5.49707 -69.998c0 -32 -2 -55.5 -6 -70.5s-11 -22.5 -21 -22.5c-26.667 0 -51.334 5 -74.001 15s-43 28.333 -61 55h-8
c-6.66699 -24 -17.834 -42.333 -33.501 -55s-33.5 -19 -53.5 -19c-40 0 -69.333 24.667 -88 74h-9c-12.667 -23.333 -30.834 -41.5 -54.501 -54.5s-48.5 -19.5 -74.5 -19.5c-27.333 0 -52.666 8.5 -75.999 25.5s-44.333 46.833 -63 89.5
c-28.667 -10.667 -53.834 -18.167 -75.501 -22.5s-44.834 -7.5 -69.501 -9.5c-14 -48 -31.167 -96.667 -51.5 -146s-39.5 -91.833 -57.5 -127.5s-29.333 -56.167 -34 -61.5c-23.333 8.66699 -50.666 23.5 -81.999 44.5s-54.666 40.167 -69.999 57.5
c47.333 71.333 86.5 137.833 117.5 199.5s58.167 130.167 81.5 205.5c45.333 -0.666992 92.833 3.16602 142.5 11.499s93.834 20.166 132.501 35.499c12.667 -40.667 27.834 -70.5 45.501 -89.5s39.834 -28.5 66.501 -28.5c32 0 55.167 10.667 69.5 32s25.833 48 34.5 80
l84 -13c-0.666992 -5.33301 -1 -12.666 -1 -21.999c0 -24.667 4.5 -43.334 13.5 -56.001s20.5 -19 34.5 -19c34 0 53.333 37.333 58 112h83c0.666992 -29.333 2.33398 -51 5.00098 -65s9 -24.667 19 -32s26.333 -11 49 -11c10.667 0 17.834 -7.66699 21.501 -23z" />
    <glyph glyph-name="uniFD2A" unicode="&#xfeb4;&#xfeae;" horiz-adv-x="990" arabic-form="final" 
d="M1011.5 163c3.66699 -15.333 5.49707 -38.665 5.49707 -69.998c0 -32 -2 -55.5 -6 -70.5s-11 -22.5 -21 -22.5c-26.667 0 -51.334 5 -74.001 15s-43 28.333 -61 55h-8c-6.66699 -24 -17.834 -42.333 -33.501 -55s-33.5 -19 -53.5 -19c-40 0 -69.333 24.667 -88 74h-9
c-12.667 -23.333 -30.834 -41.5 -54.501 -54.5s-48.5 -19.5 -74.5 -19.5c-27.333 0 -52.666 8.5 -75.999 25.5s-44.333 46.833 -63 89.5c-28.667 -10.667 -53.834 -18.167 -75.501 -22.5s-44.834 -7.5 -69.501 -9.5c-14 -48 -31.167 -96.667 -51.5 -146
s-39.5 -91.833 -57.5 -127.5s-29.333 -56.167 -34 -61.5c-23.333 8.66699 -50.666 23.5 -81.999 44.5s-54.666 40.167 -69.999 57.5c47.333 71.333 86.5 137.833 117.5 199.5s58.167 130.167 81.5 205.5c45.333 -0.666992 92.833 3.16602 142.5 11.499
s93.834 20.166 132.501 35.499c12.667 -40.667 27.834 -70.5 45.501 -89.5s39.834 -28.5 66.501 -28.5c32 0 55.167 10.667 69.5 32s25.833 48 34.5 80l84 -13c-0.666992 -5.33301 -1 -12.666 -1 -21.999c0 -24.667 4.5 -43.334 13.5 -56.001s20.5 -19 34.5 -19
c34 0 53.333 37.333 58 112h83c0.666992 -29.333 2.33398 -51 5.00098 -65s9 -24.667 19 -32s26.333 -11 49 -11c10.667 0 17.834 -7.66699 21.501 -23z" />
    <glyph glyph-name="uniFD2B" unicode="&#xfebc;&#xfeae;" horiz-adv-x="1060" arabic-form="final" 
d="M1081.5 163c3.66699 -15.333 5.49609 -38.666 5.49609 -69.999c0 -32 -2 -55.5 -6 -70.5s-11 -22.5 -21 -22.5c-42 0 -79.333 14 -112 42l-1 -2c-33.333 -12.667 -82.166 -23.167 -146.499 -31.5s-124.166 -12.5 -179.499 -12.5c-59.333 0 -106.5 8.83301 -141.5 26.5
s-62.833 47.5 -83.5 89.5c-28 -11.333 -53 -19.166 -75 -23.499s-45.667 -7.5 -71 -9.5c-14 -48.667 -31.167 -97.5 -51.5 -146.5s-39.666 -91.5 -57.999 -127.5s-29.833 -56.333 -34.5 -61c-22.667 8.66699 -49.667 23.5 -81 44.5s-54.666 40.167 -69.999 57.5
c48 73.333 87.5 140.5 118.5 201.5s57.5 128.833 79.5 203.5c46 -0.666992 93.667 3.16602 143 11.499s93.333 20.166 132 35.499c8 -24 18 -44.333 30 -61s29.333 -29.667 52 -39c51.333 65.333 103.166 115 155.499 149s101.5 51 147.5 51
c54.667 0 98.667 -19.333 132 -58s50.333 -90 51 -154h64c10.667 0 17.834 -7.66699 21.501 -23zM721.996 170c40 0 74.832 1.66797 104.499 5.00098s46.5 8.66602 50.5 15.999c-4 10.667 -13 19.167 -27 25.5s-30.333 9.5 -49 9.5c-25.333 0 -52.666 -4.5 -81.999 -13.5
s-57.333 -22.167 -84 -39.5c25.333 -2 54.333 -3 87 -3z" />
    <glyph glyph-name="uniFD2C" unicode="&#xfec0;&#xfeae;" horiz-adv-x="1060" arabic-form="final" 
d="M757 506.5c-22.667 15.667 -38.333 29.1689 -47 40.502c2 8.66699 7.16699 20.5 15.5 35.5s17.833 28.667 28.5 41s20 19.166 28 20.499c7.33301 1.33301 18.5 -2 33.5 -10s29 -17.833 42 -29.5s20.167 -20.834 21.5 -27.501c2.66699 -10 -4.83301 -27.5 -22.5 -52.5
s-32.5 -41.5 -44.5 -49.5c-14 5.33301 -32.333 15.833 -55 31.5zM1081.5 163.002c3.66699 -15.333 5.49609 -38.666 5.49609 -69.999c0 -32 -2 -55.5 -6 -70.5s-11 -22.5 -21 -22.5c-42 0 -79.333 14 -112 42l-1 -2c-33.333 -12.667 -82.166 -23.167 -146.499 -31.5
s-124.166 -12.5 -179.499 -12.5c-59.333 0 -106.5 8.83301 -141.5 26.5s-62.833 47.5 -83.5 89.5c-28 -11.333 -53 -19.166 -75 -23.499s-45.667 -7.5 -71 -9.5c-14 -48.667 -31.167 -97.5 -51.5 -146.5s-39.666 -91.5 -57.999 -127.5s-29.833 -56.333 -34.5 -61
c-22.667 8.66699 -49.667 23.5 -81 44.5s-54.666 40.167 -69.999 57.5c48 73.333 87.5 140.5 118.5 201.5s57.5 128.833 79.5 203.5c46 -0.666992 93.667 3.16602 143 11.499s93.333 20.166 132 35.499c8 -24 18 -44.333 30 -61s29.333 -29.667 52 -39
c51.333 65.333 103.166 115 155.499 149s101.5 51 147.5 51c54.667 0 98.667 -19.333 132 -58s50.333 -90 51 -154h64c10.667 0 17.834 -7.66699 21.501 -23zM721.997 170.002c40 0 74.832 1.66797 104.499 5.00098s46.5 8.66602 50.5 15.999c-4 10.667 -13 19.167 -27 25.5
s-30.333 9.5 -49 9.5c-25.333 0 -52.666 -4.5 -81.999 -13.5s-57.333 -22.167 -84 -39.5c25.333 -2 54.333 -3 87 -3z" />
    </font>
</defs>
</svg>
