<?xml version="1.0" encoding="iso-8859-1"?>
<!-- Generator: Adobe Illustrator 19.0.0, SVG Export Plug-In . SVG Version: 6.00 Build 0)  -->
<svg version="1.1" id="Layer_1" xmlns="http://www.w3.org/2000/svg" xmlns:xlink="http://www.w3.org/1999/xlink" x="0px" y="0px"
	 viewBox="0 0 512 512" style="enable-background:new 0 0 512 512;" xml:space="preserve">
<path style="fill:#CDD6E0;" d="M494.933,327.467c0-9.6,7.467-17.067,17.067-17.067v-13.867c-9.6,0-17.067-7.467-17.067-17.067
	c0-9.6,7.467-17.067,17.067-17.067v-13.867c-9.6,0-17.067-7.467-17.067-17.067S502.4,214.4,512,214.4v-13.867
	c-9.6,0-17.067-7.467-17.067-17.067S502.4,166.4,512,166.4v-14.933c-21.333,0-38.4-17.067-38.4-38.4H38.4
	c0,21.333-17.067,38.4-38.4,38.4V166.4c9.6,0,17.067,7.467,17.067,17.067S9.6,201.6,0,201.6v13.867
	c9.6,0,17.067,7.467,17.067,17.067S9.6,249.6,0,249.6v13.867c9.6,0,17.067,7.467,17.067,17.067c0,9.6-7.467,17.067-17.067,17.067
	v13.867c9.6,0,17.067,7.467,17.067,17.067c0,9.6-7.467,17.067-17.067,17.067v14.933c21.333,0,38.4,17.067,38.4,38.4h435.2
	c0-21.333,17.067-38.4,38.4-38.4V345.6C502.4,344.533,494.933,337.067,494.933,327.467z"/>
<rect x="90.667" y="174.933" style="fill:#FFFFFF;" width="317.867" height="162.133"/>
<g>
	<rect x="103.467" y="187.733" style="fill:#F2F2F2;" width="292.267" height="136.533"/>
	<path style="fill:#F2F2F2;" d="M54.4,126.933c-1.067,0-2.133,1.067-2.133,1.067v17.067c0,1.067,1.067,2.133,2.133,2.133
		s2.133-1.067,2.133-2.133V128C55.467,128,55.467,126.933,54.4,126.933z"/>
	<path style="fill:#F2F2F2;" d="M54.4,166.4c-1.067,0-2.133,1.067-2.133,1.067v17.067c0,1.067,1.067,1.067,2.133,1.067
		s2.133-1.067,2.133-1.067v-17.067C55.467,167.467,55.467,166.4,54.4,166.4z"/>
	<path style="fill:#F2F2F2;" d="M54.4,205.867c-1.067,0-2.133,1.067-2.133,1.067V224c0,1.067,1.067,2.133,2.133,2.133
		s2.133-1.067,2.133-2.133v-17.067C55.467,206.933,55.467,205.867,54.4,205.867z"/>
	<path style="fill:#F2F2F2;" d="M54.4,246.4c-1.067,0-2.133,1.067-2.133,2.133V265.6c0,1.067,1.067,1.067,2.133,1.067
		s2.133-1.067,2.133-1.067v-17.067C55.467,246.4,55.467,246.4,54.4,246.4z"/>
	<path style="fill:#F2F2F2;" d="M54.4,285.867c-1.067,0-2.133,1.067-2.133,1.067V304c0,1.067,1.067,1.067,2.133,1.067
		S56.533,304,56.533,304v-17.067C55.467,285.867,55.467,285.867,54.4,285.867z"/>
	<path style="fill:#F2F2F2;" d="M54.4,325.333c-1.067,0-2.133,1.067-2.133,1.067v17.067c0,1.067,1.067,2.133,2.133,2.133
		s2.133-1.067,2.133-2.133V326.4C55.467,326.4,55.467,325.333,54.4,325.333z"/>
	<path style="fill:#F2F2F2;" d="M54.4,364.8c-1.067,0-2.133,1.067-2.133,1.067v17.067c0,1.067,1.067,2.133,2.133,2.133
		s2.133-1.067,2.133-2.133v-17.067C55.467,365.867,55.467,364.8,54.4,364.8z"/>
	<path style="fill:#F2F2F2;" d="M445.867,126.933c-1.067,0-1.067,1.067-1.067,1.067v17.067c0,1.067,1.067,2.133,1.067,2.133
		c1.067,0,2.133-1.067,2.133-2.133V128C446.933,128,445.867,126.933,445.867,126.933z"/>
	<path style="fill:#F2F2F2;" d="M445.867,166.4c-1.067,0-1.067,1.067-1.067,1.067v17.067c0,1.067,1.067,1.067,1.067,1.067
		c1.067,0,2.133-1.067,2.133-1.067v-17.067C446.933,167.467,445.867,166.4,445.867,166.4z"/>
	<path style="fill:#F2F2F2;" d="M445.867,205.867c-1.067,0-1.067,1.067-1.067,1.067V224c0,1.067,1.067,2.133,1.067,2.133
		c1.067,0,2.133-1.067,2.133-2.133v-17.067C446.933,206.933,445.867,205.867,445.867,205.867z"/>
	<path style="fill:#F2F2F2;" d="M445.867,246.4c-1.067,0-1.067,1.067-1.067,2.133V265.6c0,1.067,1.067,1.067,1.067,1.067
		c1.067,0,2.133-1.067,2.133-1.067v-17.067C446.933,246.4,445.867,246.4,445.867,246.4z"/>
	<path style="fill:#F2F2F2;" d="M445.867,285.867c-1.067,0-1.067,1.067-1.067,1.067V304c0,1.067,1.067,1.067,1.067,1.067
		c1.067,0,2.133-1.067,2.133-1.067v-17.067C446.933,285.867,445.867,285.867,445.867,285.867z"/>
	<path style="fill:#F2F2F2;" d="M445.867,325.333c-1.067,0-1.067,1.067-1.067,1.067v17.067c0,1.067,1.067,2.133,1.067,2.133
		c1.067,0,2.133-1.067,2.133-2.133V326.4C446.933,326.4,445.867,325.333,445.867,325.333z"/>
	<path style="fill:#F2F2F2;" d="M445.867,364.8c-1.067,0-1.067,1.067-1.067,1.067v17.067c0,1.067,1.067,2.133,1.067,2.133
		c1.067,0,2.133-1.067,2.133-2.133v-17.067C446.933,365.867,445.867,364.8,445.867,364.8z"/>
</g>
<g>
	<path style="fill:#FF7058;" d="M231.467,210.133L195.2,301.867h-16l-36.267-91.733h18.133l25.6,68.267l25.6-68.267H231.467z"/>
	<path style="fill:#FF7058;" d="M261.333,301.867h-17.067v-91.733h17.067V301.867z"/>
	<path style="fill:#FF7058;" d="M283.733,210.133h35.2c4.267,0,9.6,0,13.867,1.067s8.533,2.133,11.733,4.267
		c3.2,2.133,6.4,5.333,7.467,8.533c1.067,3.2,3.2,8.533,3.2,13.867c0,9.6-3.2,17.067-8.533,22.4
		c-6.4,5.333-14.933,7.467-26.667,7.467h-19.2v34.133h-17.067V210.133z M300.8,251.733H320c3.2,0,5.333,0,8.533-1.067
		c3.2-1.067,4.267-1.067,5.333-2.133s2.133-2.133,3.2-4.267c1.067-2.133,1.067-3.2,1.067-5.333c0-2.133,0-4.267-1.067-6.4
		c-1.067-2.133-2.133-3.2-4.267-4.267s-3.2-1.067-5.333-2.133c-2.133,0-4.267,0-6.4,0h-19.2v25.6H300.8z"/>
</g>
<g>
</g>
<g>
</g>
<g>
</g>
<g>
</g>
<g>
</g>
<g>
</g>
<g>
</g>
<g>
</g>
<g>
</g>
<g>
</g>
<g>
</g>
<g>
</g>
<g>
</g>
<g>
</g>
<g>
</g>
</svg>
