<?xml version="1.0" encoding="iso-8859-1"?>
<!-- Generator: Adobe Illustrator 19.0.0, SVG Export Plug-In . SVG Version: 6.00 Build 0)  -->
<svg version="1.1" id="Layer_1" xmlns="http://www.w3.org/2000/svg" xmlns:xlink="http://www.w3.org/1999/xlink" x="0px" y="0px"
	 viewBox="0 0 512.057 512.057" style="enable-background:new 0 0 512.057 512.057;" xml:space="preserve">
<circle style="fill:#83CF8F;" cx="256.028" cy="256.028" r="256.028"/>
<path style="fill:#FFFFFF;" d="M208.668,230.165V62.958c0-5.332,4.367-9.642,9.642-9.642h95.968c5.332,0,9.642,4.367,9.642,9.642
	v167.207c0,5.332-4.367,9.642-9.642,9.642H218.31C212.979,239.807,208.668,235.439,208.668,230.165z"/>
<polygon style="fill:#6C7678;" points="222.734,53.316 249.392,53.316 249.392,239.807 222.734,239.807 "/>
<path style="fill:#596366;" d="M249.392,171.064v68.743h-11.06c-3.12-7.544-4.935-16.675-4.935-26.488
	C233.398,194.659,239.92,178.551,249.392,171.064z"/>
<g>
	<path style="fill:#FFE356;" d="M260.452,230.278V103.001h12.648v127.277H260.452z M260.452,62.844V84h12.648V62.844H260.452z"/>
	<path style="fill:#FFE356;" d="M280.417,228.123v-19.171c0-1.191,0.964-2.155,2.155-2.155h18.831c1.191,0,2.155,0.964,2.155,2.155
		v19.171c0,1.191-0.964,2.155-2.155,2.155h-18.831C281.382,230.278,280.417,229.314,280.417,228.123z"/>
</g>
<path style="fill:#6C7678;" d="M285.295,199.139v-59.895h3.63v59.895H285.295z M294.314,199.139v-59.895h3.63v59.895H294.314z"/>
<path style="fill:#FED298;" d="M239.41,204.698c-0.284,18.547,5.161,27.225,5.161,33.18c0,5.955-9.075,24.616-9.075,24.616
	l-26.147-27.849l-0.681-103.625c0,0-37.151,47.133-41.291,59.555c-4.14,12.421-2.893,98.123-2.893,98.123
	s42.539,67.439,60.689,92.338v33.578h73.394l-2.325-50.196c0,0,13.499-65.34,8.791-87.63c-4.651-22.29-25.41-48.268-25.41-48.268
	s-1.134-42.199-7.544-50.196c-14.463-18.207-32.443,7.941-32.67,26.431V204.698z"/>
<polygon style="fill:#FFFFFF;" points="209.859,392.153 319.837,392.153 319.837,421.193 209.859,421.193 "/>
<path style="fill:#5D718F;" d="M198.345,416.769h133.005l1.531,83.49C308.607,507.916,282.8,512,255.972,512
	c-23.085,0-45.488-3.063-66.758-8.791l9.075-86.439H198.345z"/>
<path style="fill:#FEFEFE;" d="M260.849,179.061l0.794,16.222l13.783-0.34l-3.176-13.896c0,0-4.651-5.502-11.4-1.928V179.061z"/>
<path style="fill:#F0B97D;" d="M215.304,240.884h-2.496c-5.445,0-9.926-4.481-9.926-9.926V138.45
	c3.517-4.537,5.785-7.487,5.785-7.487l0.681,103.625l5.899,6.296H215.304z"/>
<g>
</g>
<g>
</g>
<g>
</g>
<g>
</g>
<g>
</g>
<g>
</g>
<g>
</g>
<g>
</g>
<g>
</g>
<g>
</g>
<g>
</g>
<g>
</g>
<g>
</g>
<g>
</g>
<g>
</g>
</svg>
