<?xml version="1.0" encoding="iso-8859-1"?>
<!-- Generator: Adobe Illustrator 19.0.0, SVG Export Plug-In . SVG Version: 6.00 Build 0)  -->
<svg version="1.1" id="Layer_1" xmlns="http://www.w3.org/2000/svg" xmlns:xlink="http://www.w3.org/1999/xlink" x="0px" y="0px"
	 viewBox="0 0 512 512" style="enable-background:new 0 0 512 512;" xml:space="preserve">
<path style="fill:#FFFFFF;" d="M256,504C119.256,504,8,392.744,8,256S119.256,8,256,8s248,111.248,248,248S392.744,504,256,504z"/>
<path style="fill:#E2E2E2;" d="M256,16c132.336,0,240,107.664,240,240S388.336,496,256,496S16,388.336,16,256S123.664,16,256,16
	 M256,0C114.616,0,0,114.616,0,256s114.616,256,256,256s256-114.616,256-256S397.384,0,256,0L256,0z"/>
<circle style="fill:#E21B1B;" cx="256" cy="256" r="216.32"/>
<g>
	<path style="fill:#FFFFFF;" d="M110.128,313.568l34.656-66.736c3.176-6.072,5.776-11.368,7.768-15.904
		c1.992-4.528,3.552-8.496,4.688-11.896s1.912-6.36,2.344-8.872c0.432-2.504,0.64-4.776,0.64-6.8c0-3.184-0.288-5.864-0.872-8.048
		c-0.576-2.168-1.44-3.92-2.568-5.232c-1.136-1.32-2.544-2.256-4.224-2.808c-1.688-0.552-3.632-0.832-5.832-0.832
		c-5.4,0-9.304,2.216-11.72,6.664c-2.424,4.448-3.632,10.832-3.632,19.168v8.912h-18.384c-0.68-3.432-1.256-6.568-1.752-9.424
		c-0.496-2.84-0.736-5.952-0.736-9.328c0-3.984,0.688-7.952,2.072-11.896c1.376-3.952,3.536-7.52,6.48-10.712
		c2.944-3.184,6.696-5.76,11.264-7.72c4.56-1.96,10.032-2.944,16.408-2.944c6.856,0,12.728,0.8,17.6,2.392
		c4.864,1.592,8.864,3.92,11.992,6.984s5.408,6.808,6.848,11.216s2.16,9.408,2.16,14.976c0,3.184-0.288,6.328-0.872,9.424
		c-0.576,3.096-1.544,6.408-2.888,9.928c-1.352,3.52-3.096,7.368-5.24,11.536c-2.144,4.168-4.784,8.944-7.904,14.336l-30.976,58.832
		h45.864v18.752h-73.168v-13.968H110.128z"/>
	<path style="fill:#FFFFFF;" d="M201.584,215.392c0-6.856,0.632-12.792,1.888-17.792c1.248-4.992,2.904-9.184,4.96-12.584
		c2.056-3.408,4.424-6.152,7.128-8.224c2.696-2.088,5.472-3.696,8.32-4.832c2.84-1.136,5.696-1.88,8.544-2.248
		c2.84-0.368,5.472-0.552,7.856-0.552c2.264,0,4.792,0.168,7.576,0.504s5.608,1.04,8.464,2.112c2.84,1.08,5.6,2.64,8.272,4.688
		c2.664,2.056,5.024,4.8,7.08,8.224c2.048,3.44,3.704,7.664,4.96,12.688s1.88,11.032,1.88,18.016v66.368
		c0,6.856-0.624,12.792-1.88,17.784c-1.256,5-2.928,9.24-5.008,12.736c-2.088,3.496-4.48,6.328-7.168,8.496
		c-2.696,2.176-5.456,3.856-8.272,5.056c-2.824,1.192-5.624,2.008-8.408,2.44c-2.792,0.432-5.288,0.64-7.496,0.64
		c-2.456,0-5.12-0.208-8-0.64s-5.76-1.24-8.64-2.44s-5.648-2.856-8.32-5.008c-2.664-2.144-5.008-4.96-7.032-8.456
		s-3.648-7.752-4.864-12.784c-1.224-5.024-1.84-10.968-1.84-17.832L201.584,215.392L201.584,215.392z M225.944,291.776
		c0,6.496,1.176,11.216,3.536,14.16s5.96,4.416,10.808,4.416c4.72,0,8.232-1.472,10.568-4.416c2.328-2.936,3.496-7.656,3.496-14.16
		v-85.024c0-6.856-1.168-11.856-3.496-14.984c-2.336-3.128-5.848-4.688-10.568-4.688c-4.84,0-8.448,1.56-10.808,4.688
		s-3.536,8.128-3.536,14.984V291.776z"/>
	<path style="fill:#FFFFFF;" d="M321.776,238.184c-2.664,0-5.344-0.376-8.032-1.128s-5.12-2.208-7.296-4.384
		c-2.168-2.176-3.936-5.264-5.296-9.264c-1.352-3.992-2.032-9.24-2.032-15.752v-7.496c0-4.256,0.328-7.944,0.984-11.056
		c0.648-3.112,1.552-5.768,2.696-7.96c1.152-2.192,2.472-3.976,3.968-5.336c1.496-1.352,3.088-2.408,4.768-3.16
		c1.688-0.744,3.408-1.256,5.16-1.536c1.76-0.28,3.48-0.424,5.16-0.424c1.592,0,3.248,0.128,4.984,0.384
		c1.728,0.256,3.424,0.768,5.088,1.504c1.656,0.752,3.24,1.792,4.736,3.128c1.504,1.336,2.808,3.104,3.928,5.296
		s2.008,4.864,2.664,8s0.984,6.848,0.984,11.16v7.504c0,6.416-0.728,11.616-2.168,15.608c-1.456,4-3.288,7.104-5.504,9.296
		c-2.224,2.2-4.656,3.688-7.296,4.464C326.616,237.792,324.12,238.184,321.776,238.184z M321.92,227.032
		c2.952,0,5.008-1.272,6.176-3.832c1.168-2.544,1.752-6.504,1.752-11.888v-13.608c0-5.424-0.584-9.424-1.752-11.992
		c-1.168-2.576-3.224-3.856-6.176-3.856c-3.088,0-5.248,1.28-6.488,3.856c-1.24,2.568-1.856,6.568-1.856,11.992v13.608
		c0,5.384,0.616,9.344,1.856,11.888C316.672,225.752,318.832,227.032,321.92,227.032z M364.296,172.16H377l-32.2,121.168h-12.768
		L364.296,172.16z M364.432,256.36c0-6.416,0.72-11.544,2.144-15.408c1.432-3.856,3.248-6.832,5.48-8.904
		c2.216-2.08,4.664-3.464,7.328-4.144s5.232-1.016,7.72-1.016c1.584,0,3.248,0.128,4.976,0.384c1.736,0.256,3.432,0.768,5.088,1.504
		c1.664,0.752,3.24,1.792,4.744,3.128c1.496,1.336,2.808,3.104,3.928,5.296s2.008,4.864,2.664,8s0.976,6.848,0.976,11.16v7.504
		c0,4.304-0.336,8.048-1.016,11.224s-1.584,5.896-2.736,8.144s-2.472,4.096-3.96,5.536c-1.504,1.456-3.08,2.6-4.736,3.44
		c-1.664,0.84-3.36,1.416-5.096,1.72c-1.728,0.304-3.368,0.464-4.904,0.464c-1.784,0-3.568-0.16-5.368-0.464
		c-1.808-0.304-3.528-0.848-5.192-1.648c-1.656-0.792-3.224-1.912-4.696-3.368c-1.48-1.448-2.752-3.296-3.832-5.536
		c-1.072-2.248-1.928-4.968-2.552-8.168c-0.632-3.2-0.952-6.984-0.952-11.336v-7.512H364.432z M378.816,267.504
		c0,5.384,0.616,9.344,1.856,11.888c1.24,2.552,3.408,3.832,6.496,3.832c2.944,0,5-1.272,6.168-3.832
		c1.168-2.544,1.76-6.504,1.76-11.888v-13.608c0-5.424-0.584-9.424-1.76-11.992c-1.168-2.576-3.224-3.856-6.168-3.856
		c-3.088,0-5.248,1.28-6.496,3.856c-1.24,2.568-1.856,6.568-1.856,11.992V267.504z"/>
</g>
<g>
</g>
<g>
</g>
<g>
</g>
<g>
</g>
<g>
</g>
<g>
</g>
<g>
</g>
<g>
</g>
<g>
</g>
<g>
</g>
<g>
</g>
<g>
</g>
<g>
</g>
<g>
</g>
<g>
</g>
</svg>
